<svg width="738" height="540" viewBox="0 0 738 540" fill="none" xmlns="http://www.w3.org/2000/svg">
<path d="M255.718 525.908L262.968 527.992L274.795 502.15L264.094 499.075L255.718 525.908Z" fill="#FFB8B8"/>
<path d="M254.577 523.105L268.856 527.209L268.857 527.209C271.27 527.903 273.297 529.488 274.493 531.616C275.688 533.744 275.954 536.24 275.231 538.555L275.142 538.839L251.763 532.12L254.577 523.105Z" fill="#2F2E41"/>
<path d="M324.622 531.592L331.729 529.092L325.061 501.604L314.573 505.293L324.622 531.592Z" fill="#FFB8B8"/>
<path d="M321.959 530.004L335.954 525.08L335.955 525.08C338.32 524.248 340.933 524.352 343.219 525.368C345.504 526.385 347.276 528.231 348.143 530.5L348.249 530.778L325.335 538.839L321.959 530.004Z" fill="#2F2E41"/>
<path d="M267.875 479.128L255.528 518.223L270.344 522.37L284.544 486.236L267.875 479.128Z" fill="#2F2E41"/>
<path d="M306.77 488.013L317.883 524.739L333.317 517.631L322.204 483.274L306.77 488.013Z" fill="#2F2E41"/>
<path d="M300.986 494.637C291.103 494.593 281.243 493.721 271.518 492.029L271.27 491.981V482.947L265.627 482.345L270.032 467.252C267.979 444 270.896 414.553 271.84 406.077C272.056 404.09 272.199 402.974 272.199 402.974L277.151 362.587L285.437 355.248L289.201 357.599L296.184 364.298C304.3 383.463 310.741 401.505 310.781 402.664L338 486.353L337.817 486.478C328.365 492.879 313.958 494.637 300.986 494.637Z" fill="#3F3D56"/>
<path opacity="0.2" d="M280.663 380.501L278.76 391.899L291.644 396.998L280.663 380.501Z" fill="black"/>
<path d="M305.944 355.189H276.155C275.542 355.188 274.955 354.954 274.522 354.538C274.088 354.123 273.845 353.559 273.844 352.971V340.651C273.853 336.279 275.67 332.088 278.895 328.999C282.121 325.91 286.492 324.175 291.05 324.175C295.607 324.175 299.979 325.91 303.204 328.999C306.43 332.088 308.247 336.279 308.256 340.651V352.971C308.255 353.559 308.011 354.123 307.578 354.538C307.145 354.954 306.557 355.188 305.944 355.189V355.189Z" fill="#2F2E41"/>
<path d="M294.339 354.447C301.306 354.447 306.954 349.028 306.954 342.343C306.954 335.659 301.306 330.24 294.339 330.24C287.372 330.24 281.724 335.659 281.724 342.343C281.724 349.028 287.372 354.447 294.339 354.447Z" fill="#FFB8B8"/>
<path d="M312.326 341.883H294.111L293.924 339.374L292.99 341.883H290.185L289.815 336.91L287.964 341.883H282.537V341.637C282.541 338.175 283.976 334.855 286.528 332.407C289.079 329.959 292.539 328.582 296.147 328.578H298.715C302.324 328.582 305.784 329.959 308.335 332.407C310.887 334.855 312.322 338.175 312.326 341.637V341.883Z" fill="#2F2E41"/>
<path d="M293.962 357.488C293.825 357.488 293.688 357.477 293.553 357.454L280.215 355.196V334.045H294.897L294.534 334.452C289.476 340.111 293.286 349.288 296.008 354.254C296.208 354.618 296.298 355.029 296.266 355.439C296.234 355.85 296.082 356.243 295.827 356.574C295.614 356.857 295.333 357.088 295.009 357.246C294.685 357.405 294.326 357.488 293.962 357.488V357.488Z" fill="#2F2E41"/>
<path d="M317.497 408.611H310.186C309.951 408.611 309.725 408.528 309.551 408.377C309.377 408.225 309.268 408.017 309.246 407.793L307.783 393.401H319.899L318.436 407.793C318.414 408.017 318.305 408.225 318.131 408.377C317.958 408.528 317.731 408.611 317.497 408.611V408.611Z" fill="#51E8B5"/>
<path d="M319.88 395.212H307.802C307.552 395.212 307.312 395.116 307.135 394.946C306.958 394.777 306.859 394.546 306.859 394.306V392.134C306.859 391.894 306.958 391.664 307.135 391.494C307.312 391.324 307.552 391.229 307.802 391.228H319.88C320.13 391.229 320.37 391.324 320.547 391.494C320.724 391.664 320.823 391.894 320.823 392.134V394.306C320.823 394.546 320.724 394.777 320.547 394.946C320.37 395.116 320.13 395.212 319.88 395.212V395.212Z" fill="#2F2E41"/>
<path opacity="0.2" d="M272.505 402.418C275.863 406.148 280.416 408.702 285.451 409.678C290.486 410.655 295.716 409.998 300.32 407.812L303.065 406.508L272.505 402.418Z" fill="black"/>
<path d="M316.401 399.632C315.839 399.025 315.144 398.544 314.367 398.223C313.59 397.902 312.748 397.748 311.902 397.773C311.056 397.797 310.226 398 309.471 398.365C308.715 398.731 308.052 399.251 307.528 399.889L294.792 396.458L290.731 403.376L308.789 407.978C309.964 408.751 311.394 409.084 312.808 408.912C314.222 408.741 315.521 408.078 316.459 407.049C317.397 406.021 317.91 404.697 317.899 403.33C317.889 401.963 317.356 400.647 316.401 399.632V399.632Z" fill="#FFB8B8"/>
<path d="M286.007 407.309C279.951 407.309 271.758 403.903 262.031 397.305C261.489 396.944 261.031 396.48 260.686 395.941C260.341 395.402 260.116 394.8 260.026 394.173C259.308 389.812 263.742 383.916 264.176 383.351L268.837 371.071C268.891 370.871 270.393 365.558 274.164 363.667C274.958 363.277 275.83 363.055 276.722 363.019C277.613 362.983 278.502 363.132 279.328 363.456C286.51 365.966 280.902 385.343 280.132 387.884L289.648 392.182L295.691 395.878L303.967 396.708L301.72 406.685L289.152 406.957C288.123 407.198 287.066 407.316 286.007 407.309V407.309Z" fill="#3F3D56"/>
<path d="M737.73 316.293C737.723 304.634 735.014 293.123 729.798 282.592C724.581 272.062 716.989 262.777 707.571 255.41C698.153 248.043 687.144 242.778 675.344 239.997C663.543 237.216 651.245 236.989 639.341 239.331C627.438 241.674 616.226 246.528 606.519 253.541C596.812 260.554 588.852 269.552 583.217 279.881C577.582 290.211 574.412 301.614 573.937 313.264C573.462 324.914 575.694 336.519 580.472 347.239C580.392 347.154 580.309 347.071 580.229 346.985C583.868 355.123 588.913 362.613 595.151 369.139C595.169 369.159 595.188 369.178 595.207 369.197C595.71 369.724 596.217 370.247 596.735 370.76C604.221 378.252 613.185 384.243 623.104 388.384C633.024 392.526 643.702 394.735 654.519 394.884L651.751 539.156H660.304L658.573 443.935L670.945 437.685L669.057 434.246L658.494 439.582L657.681 394.877C679.078 394.406 699.434 385.92 714.394 371.234C729.353 356.548 737.729 336.828 737.73 316.293V316.293Z" fill="#E6E6E6"/>
<path d="M494.566 277.98C494.558 264.317 491.383 250.827 485.27 238.486C479.157 226.146 470.26 215.264 459.222 206.631C448.185 197.997 435.284 191.827 421.455 188.568C407.625 185.309 393.213 185.043 379.263 187.788C365.313 190.533 352.174 196.221 340.798 204.44C329.422 212.66 320.094 223.204 313.49 235.309C306.886 247.414 303.172 260.777 302.615 274.43C302.059 288.083 304.675 301.684 310.274 314.247C310.18 314.147 310.083 314.049 309.989 313.949C314.254 323.485 320.166 332.263 327.476 339.911C327.498 339.934 327.52 339.956 327.542 339.98C328.132 340.596 328.725 341.21 329.332 341.811C338.106 350.591 348.61 357.612 360.235 362.465C371.86 367.318 384.374 369.907 397.05 370.082L393.806 539.156H403.829L401.801 427.565L416.3 420.241L414.088 416.21L401.708 422.464L400.755 370.074C425.831 369.522 449.686 359.577 467.218 342.367C484.749 325.156 494.565 302.046 494.566 277.98V277.98Z" fill="#E6E6E6"/>
<path d="M218.789 241.944C218.781 226.395 215.167 211.043 208.211 197C201.255 182.957 191.13 170.574 178.569 160.749C166.009 150.924 151.328 143.903 135.591 140.194C119.853 136.486 103.453 136.182 87.5775 139.306C71.7025 142.43 56.7506 148.903 43.8051 158.257C30.8596 167.61 20.2446 179.609 12.7294 193.384C5.21417 207.16 0.986837 222.367 0.353692 237.904C-0.279453 253.44 2.69745 268.917 9.06871 283.214C8.96187 283.1 8.85148 282.989 8.74516 282.875C13.5981 293.727 20.3258 303.716 28.6446 312.419C28.6694 312.445 28.6949 312.471 28.7198 312.497C29.391 313.199 30.0661 313.897 30.7567 314.581C40.7412 324.573 52.6949 332.562 65.9238 338.085C79.1527 343.608 93.3933 346.555 107.819 346.753L104.127 539.156H115.533L113.225 412.168L129.724 403.833L127.207 399.246L113.119 406.363L112.035 346.744C140.571 346.116 167.718 334.799 187.668 315.214C207.619 295.628 218.789 269.33 218.789 241.944V241.944Z" fill="#E6E6E6"/>
<path d="M628.867 137.113C668.329 137.113 700.32 106.419 700.32 68.5564C700.32 30.6938 668.329 0 628.867 0C589.405 0 557.414 30.6938 557.414 68.5564C557.414 106.419 589.405 137.113 628.867 137.113Z" fill="#FF6584"/>
<path d="M204.079 287.004C283.169 287.004 347.284 225.488 347.284 149.604C347.284 73.7199 283.169 12.2038 204.079 12.2038C124.989 12.2038 60.8743 73.7199 60.8743 149.604C60.8743 225.488 124.989 287.004 204.079 287.004Z" fill="#51E8B5"/>
<path opacity="0.2" d="M98.3415 57.8314C84.9837 87.8111 83.1716 121.371 93.229 152.515C103.287 183.658 124.558 210.356 153.243 227.837C181.928 245.318 216.156 252.443 249.812 247.939C283.468 243.436 314.359 227.596 336.963 203.252C328.803 221.568 316.591 237.963 301.171 251.301C285.751 264.64 267.494 274.602 247.663 280.498C227.832 286.394 206.903 288.082 186.324 285.447C165.746 282.812 146.01 275.915 128.485 265.235C110.961 254.555 96.0654 240.347 84.8317 223.596C73.598 206.844 66.2945 187.95 63.4272 168.221C60.5599 148.493 62.1973 128.402 68.2259 109.341C74.2546 90.2796 84.5305 72.7039 98.3415 57.8314V57.8314Z" fill="black"/>
<path d="M204.473 149.604H204.866L211.948 539.156H196.998L204.473 149.604Z" fill="#3F3D56"/>
<path d="M227.249 355.778L203.576 367.736L206.875 373.748L230.548 361.791L227.249 355.778Z" fill="#3F3D56"/>
<path d="M423.116 535.512C423.116 535.512 423.633 525.124 434.225 526.332Z" fill="#3F3D56"/>
<path d="M420.123 525.627C423.051 525.627 425.424 523.35 425.424 520.541C425.424 517.732 423.051 515.454 420.123 515.454C417.195 515.454 414.822 517.732 414.822 520.541C414.822 523.35 417.195 525.627 420.123 525.627Z" fill="#51E8B5"/>
<path d="M420.757 529.106H419.261V539.156H420.757V529.106Z" fill="#3F3D56"/>
<path d="M55.7515 534.076C55.7515 534.076 56.2681 523.689 66.86 524.896Z" fill="#3F3D56"/>
<path d="M52.7587 524.191C55.6865 524.191 58.0599 521.914 58.0599 519.105C58.0599 516.296 55.6865 514.019 52.7587 514.019C49.8309 514.019 47.4575 516.296 47.4575 519.105C47.4575 521.914 49.8309 524.191 52.7587 524.191Z" fill="#51E8B5"/>
<path d="M53.3924 527.67H51.896V537.72H53.3924V527.67Z" fill="#3F3D56"/>
<path d="M142.542 534.794C142.542 534.794 143.059 524.407 153.651 525.614Z" fill="#3F3D56"/>
<path d="M139.549 524.909C142.477 524.909 144.851 522.632 144.851 519.823C144.851 517.014 142.477 514.736 139.549 514.736C136.622 514.736 134.248 517.014 134.248 519.823C134.248 522.632 136.622 524.909 139.549 524.909Z" fill="#51E8B5"/>
<path d="M140.183 528.388H138.687V538.438H140.183V528.388Z" fill="#3F3D56"/>
<path d="M373.358 66.4216L383.991 58.2616C375.73 57.3871 372.336 61.7097 370.947 65.1311C364.494 62.56 357.468 65.9296 357.468 65.9296L378.744 73.3404C377.67 70.5897 375.802 68.1897 373.358 66.4216V66.4216Z" fill="#3F3D56"/>
<path d="M535.072 149.543L545.706 141.383C537.445 140.508 534.051 144.831 532.662 148.252C526.208 145.681 519.183 149.051 519.183 149.051L540.458 156.462C539.385 153.711 537.517 151.311 535.072 149.543V149.543Z" fill="#3F3D56"/>
<path d="M360.651 220.473L371.285 212.313C363.024 211.439 359.63 215.761 358.241 219.182C351.787 216.611 344.762 219.981 344.762 219.981L366.037 227.392C364.964 224.641 363.096 222.241 360.651 220.473Z" fill="#3F3D56"/>
<path d="M568.173 539.282C568.173 539.282 568.69 528.895 579.281 530.102Z" fill="#3F3D56"/>
<path d="M468.663 539.282C468.663 539.282 469.179 528.895 479.771 530.102Z" fill="#3F3D56"/>
<path d="M105.787 539.282C105.787 539.282 106.304 528.895 116.896 530.102Z" fill="#3F3D56"/>
<path d="M613.065 539.282C613.065 539.282 613.581 528.895 624.173 530.102Z" fill="#3F3D56"/>
<path d="M592.115 539.282C592.115 539.282 592.632 528.895 603.224 530.102Z" fill="#3F3D56"/>
<path d="M548.9 539.282C548.9 539.282 548.383 528.895 537.792 530.102Z" fill="#3F3D56"/>
<path d="M376.815 539.282C376.815 539.282 376.298 528.895 365.706 530.102Z" fill="#3F3D56"/>
<path d="M233.909 539.282C233.909 539.282 233.392 528.895 222.801 530.102Z" fill="#3F3D56"/>
<path d="M82.0251 539.282C82.0251 539.282 81.5084 528.895 70.9165 530.102Z" fill="#3F3D56"/>
<path d="M658.137 539.282C658.137 539.282 657.62 528.895 647.028 530.102Z" fill="#3F3D56"/>
<path d="M593.792 540C593.792 540 593.275 529.613 582.683 530.82Z" fill="#3F3D56"/>
<path d="M738 537.924H0V539.519H738V537.924Z" fill="#3F3D56"/>
</svg>
