<svg width="440" height="65" viewBox="0 0 440 65" fill="none" xmlns="http://www.w3.org/2000/svg">
<rect width="440" height="65" rx="20" fill="#ADFFCE"/>
<path d="M87.9688 21.0781C89.1211 21.0781 90.0684 21.2441 90.8105 21.5762C91.5723 21.9082 92.2363 22.2598 92.8027 22.6309V25.3555C92.2559 24.9453 91.5918 24.5645 90.8105 24.2129C90.0293 23.8418 89.1797 23.6562 88.2617 23.6562C87.6758 23.6562 87.0605 23.7637 86.416 23.9785C85.791 24.1738 85.2637 24.4961 84.834 24.9453C84.4043 25.3945 84.1895 25.9707 84.1895 26.6738C84.1895 27.4551 84.4727 28.0508 85.0391 28.4609C85.6055 28.8711 86.2891 29.2617 87.0898 29.6328L89.7852 30.8633C91.1328 31.4688 92.1484 32.1426 92.832 32.8848C93.5156 33.627 93.8574 34.6133 93.8574 35.8438C93.8574 36.918 93.5449 37.8652 92.9199 38.6855C92.2949 39.4863 91.4746 40.1211 90.459 40.5898C89.4434 41.0586 88.3301 41.293 87.1191 41.293C85.9863 41.293 84.9414 41.0977 83.9844 40.707C83.0273 40.3164 82.1973 39.877 81.4941 39.3887V36.6641C82.2559 37.1914 83.125 37.6699 84.1016 38.0996C85.0977 38.5098 86.2207 38.7148 87.4707 38.7148C88.4473 38.7148 89.3066 38.4707 90.0488 37.9824C90.791 37.4941 91.1621 36.8203 91.1621 35.9609C91.1621 35.4727 91.0059 35.0527 90.6934 34.7012C90.4004 34.3496 90.0391 34.0469 89.6094 33.793C89.1797 33.5391 88.7598 33.3242 88.3496 33.1484L85.0977 31.6836C83.6914 31.0586 82.7344 30.3262 82.2266 29.4863C81.7188 28.6465 81.4648 27.6797 81.4648 26.5859C81.4648 25.5508 81.7578 24.623 82.3438 23.8027C82.9492 22.9629 83.75 22.2988 84.7461 21.8105C85.7422 21.3223 86.8164 21.0781 87.9688 21.0781ZM100.156 19.3203C100.723 19.3203 101.191 19.5254 101.562 19.9355C101.953 20.3262 102.148 20.7852 102.148 21.3125C102.148 21.8203 101.953 22.2793 101.562 22.6895C101.191 23.0996 100.723 23.3047 100.156 23.3047C99.5898 23.3047 99.1113 23.0996 98.7207 22.6895C98.3496 22.2793 98.1641 21.8203 98.1641 21.3125C98.1641 20.7852 98.3496 20.3262 98.7207 19.9355C99.1113 19.5254 99.5898 19.3203 100.156 19.3203ZM101.65 26.3516V41H99.248V28.6074H96.9336V26.3516H101.65ZM112.871 26.0586C113.711 26.0586 114.561 26.2637 115.42 26.6738C116.299 27.0645 117.051 27.6113 117.676 28.3145V26.3516H120.078V40.707C120.078 42.4453 119.727 43.8906 119.023 45.043C118.32 46.1953 117.383 47.0547 116.211 47.6211C115.039 48.1875 113.76 48.4707 112.373 48.4707C111.475 48.4707 110.703 48.3633 110.059 48.1484C109.434 47.9531 108.896 47.6992 108.447 47.3867C107.998 47.0938 107.588 46.8105 107.217 46.5371V43.959C107.51 44.1738 107.891 44.4473 108.359 44.7793C108.848 45.1309 109.424 45.4434 110.088 45.7168C110.771 45.9902 111.533 46.127 112.373 46.127C113.33 46.127 114.209 45.9512 115.01 45.5996C115.811 45.248 116.455 44.7305 116.943 44.0469C117.432 43.3633 117.676 42.543 117.676 41.5859V38.5098C117.168 39.291 116.475 39.9746 115.596 40.5605C114.736 41.1465 113.75 41.4395 112.637 41.4395C111.387 41.4395 110.244 41.127 109.209 40.502C108.174 39.8574 107.344 38.9688 106.719 37.8359C106.113 36.7031 105.811 35.3945 105.811 33.9102C105.811 32.2891 106.113 30.8926 106.719 29.7207C107.344 28.5488 108.193 27.6504 109.268 27.0254C110.342 26.3809 111.543 26.0586 112.871 26.0586ZM113.311 28.4316C112.256 28.4316 111.357 28.6953 110.615 29.2227C109.873 29.7305 109.297 30.4043 108.887 31.2441C108.496 32.0645 108.301 32.9531 108.301 33.9102C108.301 34.8477 108.496 35.707 108.887 36.4883C109.277 37.2695 109.824 37.8945 110.527 38.3633C111.25 38.832 112.08 39.0664 113.018 39.0664C113.916 39.0664 114.717 38.832 115.42 38.3633C116.123 37.8945 116.68 37.25 117.09 36.4297C117.5 35.6094 117.695 34.6816 117.676 33.6465L117.646 30.834C117.041 30.0723 116.387 29.4863 115.684 29.0762C115 28.6465 114.209 28.4316 113.311 28.4316ZM127.461 26.3516V28.666C127.773 28.2754 128.174 27.8848 128.662 27.4941C129.15 27.084 129.697 26.7422 130.303 26.4688C130.928 26.1953 131.572 26.0586 132.236 26.0586C133.232 26.0586 134.141 26.2832 134.961 26.7324C135.781 27.1621 136.436 27.8262 136.924 28.7246C137.412 29.6035 137.656 30.7168 137.656 32.0645V41H135.254L135.225 32.2988C135.225 31.0293 134.941 30.0625 134.375 29.3984C133.828 28.7344 132.979 28.4023 131.826 28.4023C131.045 28.4023 130.264 28.6953 129.482 29.2812C128.721 29.8477 128.047 30.5117 127.461 31.2734V41H125.059V26.3516H127.461ZM153.33 19.3203C153.896 19.3203 154.365 19.5254 154.736 19.9355C155.127 20.3262 155.322 20.7852 155.322 21.3125C155.322 21.8203 155.127 22.2793 154.736 22.6895C154.365 23.0996 153.896 23.3047 153.33 23.3047C152.764 23.3047 152.285 23.0996 151.895 22.6895C151.523 22.2793 151.338 21.8203 151.338 21.3125C151.338 20.7852 151.523 20.3262 151.895 19.9355C152.285 19.5254 152.764 19.3203 153.33 19.3203ZM154.824 26.3516V41H152.422V28.6074H150.107V26.3516H154.824ZM162.412 26.3516V28.666C162.725 28.2754 163.125 27.8848 163.613 27.4941C164.102 27.084 164.648 26.7422 165.254 26.4688C165.879 26.1953 166.523 26.0586 167.188 26.0586C168.184 26.0586 169.092 26.2832 169.912 26.7324C170.732 27.1621 171.387 27.8262 171.875 28.7246C172.363 29.6035 172.607 30.7168 172.607 32.0645V41H170.205L170.176 32.2988C170.176 31.0293 169.893 30.0625 169.326 29.3984C168.779 28.7344 167.93 28.4023 166.777 28.4023C165.996 28.4023 165.215 28.6953 164.434 29.2812C163.672 29.8477 162.998 30.5117 162.412 31.2734V41H160.01V26.3516H162.412ZM205.156 26.3516L200.029 41H198.535L194.521 30.6582L190.508 41H189.014L183.887 26.3516H186.758L190.01 36.6348L193.848 26.3516H195.195L199.033 36.6348L202.285 26.3516H205.156ZM210.43 19.3203C210.996 19.3203 211.465 19.5254 211.836 19.9355C212.227 20.3262 212.422 20.7852 212.422 21.3125C212.422 21.8203 212.227 22.2793 211.836 22.6895C211.465 23.0996 210.996 23.3047 210.43 23.3047C209.863 23.3047 209.385 23.0996 208.994 22.6895C208.623 22.2793 208.438 21.8203 208.438 21.3125C208.438 20.7852 208.623 20.3262 208.994 19.9355C209.385 19.5254 209.863 19.3203 210.43 19.3203ZM211.924 26.3516V41H209.521V28.6074H207.207V26.3516H211.924ZM221.152 22.1328V26.3516H225.43V28.6074H221.152V37.1914C221.152 37.7969 221.309 38.2754 221.621 38.627C221.934 38.9785 222.412 39.1543 223.057 39.1543C223.643 39.1543 224.131 39.0859 224.521 38.9492C224.912 38.793 225.254 38.627 225.547 38.4512V40.4141C225.156 40.7266 224.736 40.9707 224.287 41.1465C223.857 41.3418 223.271 41.4395 222.529 41.4395C221.279 41.4395 220.332 41.0684 219.688 40.3262C219.062 39.5645 218.75 38.5586 218.75 37.3086V28.6074H215.938V27.9043C216.895 27.4746 217.695 26.7715 218.34 25.7949C218.984 24.7988 219.551 23.5781 220.039 22.1328H221.152ZM236.973 26.0586C237.969 26.0586 238.877 26.2832 239.697 26.7324C240.518 27.1621 241.172 27.8262 241.66 28.7246C242.148 29.6035 242.393 30.7168 242.393 32.0645V41H239.99L239.961 32.2988C239.961 31.0293 239.678 30.0625 239.111 29.3984C238.564 28.7344 237.715 28.4023 236.562 28.4023C235.781 28.4023 235 28.6953 234.219 29.2812C233.457 29.8477 232.783 30.5117 232.197 31.2734V41H229.795V19.9062H232.197V28.666C232.51 28.2754 232.91 27.8848 233.398 27.4941C233.887 27.084 234.434 26.7422 235.039 26.4688C235.664 26.1953 236.309 26.0586 236.973 26.0586ZM263.955 30.2773H272.598V38.334C272.129 38.8418 271.523 39.3398 270.781 39.8281C270.039 40.2969 269.18 40.6875 268.203 41C267.246 41.293 266.191 41.4395 265.039 41.4395C263.555 41.4395 262.188 41.1758 260.938 40.6484C259.688 40.1016 258.594 39.3594 257.656 38.4219C256.719 37.4844 255.986 36.4004 255.459 35.1699C254.951 33.9199 254.697 32.5918 254.697 31.1855C254.697 29.7793 254.951 28.4609 255.459 27.2305C255.986 25.9805 256.719 24.8867 257.656 23.9492C258.594 23.0117 259.688 22.2793 260.938 21.752C262.188 21.2051 263.555 20.9316 265.039 20.9316C266.465 20.9316 267.627 21.127 268.525 21.5176C269.443 21.9082 270.244 22.416 270.928 23.041V25.9414C270.498 25.6289 270.01 25.2871 269.463 24.916C268.936 24.5449 268.311 24.2227 267.588 23.9492C266.885 23.6562 266.035 23.5098 265.039 23.5098C263.574 23.5098 262.266 23.8418 261.113 24.5059C259.961 25.1699 259.053 26.0879 258.389 27.2598C257.725 28.4121 257.393 29.7207 257.393 31.1855C257.393 32.6504 257.725 33.959 258.389 35.1113C259.053 36.2637 259.961 37.1816 261.113 37.8652C262.266 38.5293 263.574 38.8613 265.039 38.8613C266.035 38.8613 266.836 38.7637 267.441 38.5684C268.047 38.3535 268.525 38.1191 268.877 37.8652C269.229 37.5918 269.512 37.3672 269.727 37.1914L269.756 32.6211H263.955V30.2773ZM282.881 26.0586C284.365 26.0586 285.684 26.4102 286.836 27.1133C287.988 27.8164 288.887 28.7539 289.531 29.9258C290.195 31.0977 290.527 32.377 290.527 33.7637C290.527 35.1504 290.195 36.4297 289.531 37.6016C288.887 38.7539 287.988 39.6816 286.836 40.3848C285.684 41.0879 284.365 41.4395 282.881 41.4395C281.396 41.4395 280.078 41.0879 278.926 40.3848C277.773 39.6816 276.865 38.7539 276.201 37.6016C275.557 36.4297 275.234 35.1504 275.234 33.7637C275.234 32.377 275.557 31.0977 276.201 29.9258C276.865 28.7539 277.773 27.8164 278.926 27.1133C280.078 26.4102 281.396 26.0586 282.881 26.0586ZM282.881 28.4023C281.846 28.4023 280.938 28.6562 280.156 29.1641C279.375 29.6523 278.77 30.3066 278.34 31.127C277.93 31.9277 277.725 32.8066 277.725 33.7637C277.725 34.7012 277.93 35.5801 278.34 36.4004C278.77 37.2012 279.375 37.8555 280.156 38.3633C280.938 38.8516 281.846 39.0957 282.881 39.0957C283.936 39.0957 284.844 38.8516 285.605 38.3633C286.387 37.8555 286.982 37.2012 287.393 36.4004C287.822 35.5801 288.037 34.7012 288.037 33.7637C288.037 32.8066 287.822 31.9277 287.393 31.127C286.982 30.3066 286.387 29.6523 285.605 29.1641C284.844 28.6562 283.936 28.4023 282.881 28.4023ZM301.104 26.0586C302.588 26.0586 303.906 26.4102 305.059 27.1133C306.211 27.8164 307.109 28.7539 307.754 29.9258C308.418 31.0977 308.75 32.377 308.75 33.7637C308.75 35.1504 308.418 36.4297 307.754 37.6016C307.109 38.7539 306.211 39.6816 305.059 40.3848C303.906 41.0879 302.588 41.4395 301.104 41.4395C299.619 41.4395 298.301 41.0879 297.148 40.3848C295.996 39.6816 295.088 38.7539 294.424 37.6016C293.779 36.4297 293.457 35.1504 293.457 33.7637C293.457 32.377 293.779 31.0977 294.424 29.9258C295.088 28.7539 295.996 27.8164 297.148 27.1133C298.301 26.4102 299.619 26.0586 301.104 26.0586ZM301.104 28.4023C300.068 28.4023 299.16 28.6562 298.379 29.1641C297.598 29.6523 296.992 30.3066 296.562 31.127C296.152 31.9277 295.947 32.8066 295.947 33.7637C295.947 34.7012 296.152 35.5801 296.562 36.4004C296.992 37.2012 297.598 37.8555 298.379 38.3633C299.16 38.8516 300.068 39.0957 301.104 39.0957C302.158 39.0957 303.066 38.8516 303.828 38.3633C304.609 37.8555 305.205 37.2012 305.615 36.4004C306.045 35.5801 306.26 34.7012 306.26 33.7637C306.26 32.8066 306.045 31.9277 305.615 31.127C305.205 30.3066 304.609 29.6523 303.828 29.1641C303.066 28.6562 302.158 28.4023 301.104 28.4023ZM318.74 26.0586C319.58 26.0586 320.43 26.2637 321.289 26.6738C322.168 27.0645 322.92 27.6113 323.545 28.3145V26.3516H325.947V40.707C325.947 42.4453 325.596 43.8906 324.893 45.043C324.189 46.1953 323.252 47.0547 322.08 47.6211C320.908 48.1875 319.629 48.4707 318.242 48.4707C317.344 48.4707 316.572 48.3633 315.928 48.1484C315.303 47.9531 314.766 47.6992 314.316 47.3867C313.867 47.0938 313.457 46.8105 313.086 46.5371V43.959C313.379 44.1738 313.76 44.4473 314.229 44.7793C314.717 45.1309 315.293 45.4434 315.957 45.7168C316.641 45.9902 317.402 46.127 318.242 46.127C319.199 46.127 320.078 45.9512 320.879 45.5996C321.68 45.248 322.324 44.7305 322.812 44.0469C323.301 43.3633 323.545 42.543 323.545 41.5859V38.5098C323.037 39.291 322.344 39.9746 321.465 40.5605C320.605 41.1465 319.619 41.4395 318.506 41.4395C317.256 41.4395 316.113 41.127 315.078 40.502C314.043 39.8574 313.213 38.9688 312.588 37.8359C311.982 36.7031 311.68 35.3945 311.68 33.9102C311.68 32.2891 311.982 30.8926 312.588 29.7207C313.213 28.5488 314.062 27.6504 315.137 27.0254C316.211 26.3809 317.412 26.0586 318.74 26.0586ZM319.18 28.4316C318.125 28.4316 317.227 28.6953 316.484 29.2227C315.742 29.7305 315.166 30.4043 314.756 31.2441C314.365 32.0645 314.17 32.9531 314.17 33.9102C314.17 34.8477 314.365 35.707 314.756 36.4883C315.146 37.2695 315.693 37.8945 316.396 38.3633C317.119 38.832 317.949 39.0664 318.887 39.0664C319.785 39.0664 320.586 38.832 321.289 38.3633C321.992 37.8945 322.549 37.25 322.959 36.4297C323.369 35.6094 323.564 34.6816 323.545 33.6465L323.516 30.834C322.91 30.0723 322.256 29.4863 321.553 29.0762C320.869 28.6465 320.078 28.4316 319.18 28.4316ZM333.33 19.9062V41H330.928V19.9062H333.33ZM344.346 26.0586C345.85 26.0586 347.1 26.3711 348.096 26.9961C349.092 27.6211 349.834 28.4707 350.322 29.5449C350.83 30.6191 351.084 31.8301 351.084 33.1777V34.6133H339.834C339.951 35.4336 340.234 36.1855 340.684 36.8691C341.133 37.5527 341.719 38.0996 342.441 38.5098C343.164 38.9004 343.994 39.0957 344.932 39.0957C345.986 39.0957 346.973 38.832 347.891 38.3047C348.809 37.7578 349.58 37.1621 350.205 36.5176L350.176 39.125C349.902 39.457 349.492 39.8086 348.945 40.1797C348.418 40.5312 347.803 40.8242 347.1 41.0586C346.416 41.3125 345.693 41.4395 344.932 41.4395C343.447 41.4395 342.129 41.0879 340.977 40.3848C339.824 39.6816 338.916 38.7539 338.252 37.6016C337.607 36.4297 337.285 35.1504 337.285 33.7637C337.285 32.377 337.588 31.0977 338.193 29.9258C338.799 28.7539 339.629 27.8164 340.684 27.1133C341.758 26.4102 342.979 26.0586 344.346 26.0586ZM344.346 28.4023C343.135 28.4023 342.139 28.8125 341.357 29.6328C340.576 30.4336 340.088 31.4102 339.893 32.5625H348.711C348.613 31.6055 348.34 30.8242 347.891 30.2188C347.461 29.6133 346.934 29.1641 346.309 28.8711C345.684 28.5586 345.029 28.4023 344.346 28.4023Z" fill="black"/>
<path d="M51.8672 30.1328H62.2383V39.8008C61.6758 40.4102 60.9492 41.0078 60.0586 41.5938C59.168 42.1562 58.1367 42.625 56.9648 43C55.8164 43.3516 54.5508 43.5273 53.168 43.5273C51.3867 43.5273 49.7461 43.2109 48.2461 42.5781C46.7461 41.9219 45.4336 41.0312 44.3086 39.9062C43.1836 38.7812 42.3047 37.4805 41.6719 36.0039C41.0625 34.5039 40.7578 32.9102 40.7578 31.2227C40.7578 29.5352 41.0625 27.9531 41.6719 26.4766C42.3047 24.9766 43.1836 23.6641 44.3086 22.5391C45.4336 21.4141 46.7461 20.5352 48.2461 19.9023C49.7461 19.2461 51.3867 18.918 53.168 18.918C54.8789 18.918 56.2734 19.1523 57.3516 19.6211C58.4531 20.0898 59.4141 20.6992 60.2344 21.4492V24.9297C59.7188 24.5547 59.1328 24.1445 58.4766 23.6992C57.8438 23.2539 57.0938 22.8672 56.2266 22.5391C55.3828 22.1875 54.3633 22.0117 53.168 22.0117C51.4102 22.0117 49.8398 22.4102 48.457 23.207C47.0742 24.0039 45.9844 25.1055 45.1875 26.5117C44.3906 27.8945 43.9922 29.4648 43.9922 31.2227C43.9922 32.9805 44.3906 34.5508 45.1875 35.9336C45.9844 37.3164 47.0742 38.418 48.457 39.2383C49.8398 40.0352 51.4102 40.4336 53.168 40.4336C54.3633 40.4336 55.3242 40.3164 56.0508 40.082C56.7773 39.8242 57.3516 39.543 57.7734 39.2383C58.1953 38.9102 58.5352 38.6406 58.793 38.4297L58.8281 32.9453H51.8672V30.1328Z" fill="black"/>
<path d="M51.8672 30.1328V29.1328H50.8672V30.1328H51.8672ZM62.2383 30.1328H63.2383V29.1328H62.2383V30.1328ZM62.2383 39.8008L62.9731 40.4791L63.2383 40.1918V39.8008H62.2383ZM60.0586 41.5938L60.5926 42.4392L60.6004 42.4343L60.6082 42.4292L60.0586 41.5938ZM56.9648 43L57.2576 43.9563L57.2696 43.9524L56.9648 43ZM48.2461 42.5781L47.8452 43.4944L47.8574 43.4995L48.2461 42.5781ZM41.6719 36.0039L40.7454 36.3803L40.749 36.3891L40.7527 36.3978L41.6719 36.0039ZM41.6719 26.4766L40.7505 26.0879L40.7475 26.0951L41.6719 26.4766ZM48.2461 19.9023L48.6348 20.8238L48.6469 20.8185L48.2461 19.9023ZM57.3516 19.6211L56.9528 20.5382L56.96 20.5412L57.3516 19.6211ZM60.2344 21.4492H61.2344V21.0085L60.9091 20.7112L60.2344 21.4492ZM60.2344 24.9297L59.6462 25.7384L61.2344 26.8935V24.9297H60.2344ZM58.4766 23.6992L57.9011 24.517L57.908 24.5219L57.9151 24.5267L58.4766 23.6992ZM56.2266 22.5391L55.8419 23.4621L55.8572 23.4685L55.8727 23.4743L56.2266 22.5391ZM45.1875 26.5117L46.054 27.011L46.0575 27.0047L45.1875 26.5117ZM48.457 39.2383L47.9468 40.0984L47.9577 40.1047L48.457 39.2383ZM56.0508 40.082L56.3578 41.0337L56.3716 41.0293L56.3852 41.0245L56.0508 40.082ZM57.7734 39.2383L58.3589 40.049L58.3733 40.0385L58.3874 40.0276L57.7734 39.2383ZM58.793 38.4297L59.4262 39.2036L59.7899 38.906L59.7929 38.4361L58.793 38.4297ZM58.8281 32.9453L59.8281 32.9517L59.8346 31.9453H58.8281V32.9453ZM51.8672 32.9453H50.8672V33.9453H51.8672V32.9453ZM51.8672 31.1328H62.2383V29.1328H51.8672V31.1328ZM61.2383 30.1328V39.8008H63.2383V30.1328H61.2383ZM61.5035 39.1225C61.0091 39.658 60.3499 40.2051 59.509 40.7583L60.6082 42.4292C61.5485 41.8106 62.3424 41.1623 62.9731 40.4791L61.5035 39.1225ZM59.5246 40.7483C58.7163 41.2587 57.7645 41.6942 56.6601 42.0476L57.2696 43.9524C58.509 43.5558 59.6196 43.0538 60.5926 42.4392L59.5246 40.7483ZM56.6721 42.0438C55.6316 42.3623 54.4663 42.5273 53.168 42.5273V44.5273C54.6353 44.5273 56.0012 44.3408 57.2576 43.9562L56.6721 42.0438ZM53.168 42.5273C51.5076 42.5273 50.0006 42.233 48.6348 41.6568L47.8574 43.4995C49.4916 44.1889 51.2658 44.5273 53.168 44.5273V42.5273ZM48.6469 41.662C47.2578 41.0542 46.05 40.2334 45.0157 39.1991L43.6015 40.6134C44.8172 41.8291 46.2344 42.7895 47.8453 43.4943L48.6469 41.662ZM45.0157 39.1991C43.9816 38.165 43.1742 36.9708 42.591 35.61L40.7527 36.3978C41.4352 37.9902 42.3856 39.3975 43.6015 40.6134L45.0157 39.1991ZM42.5983 35.6275C42.0396 34.2521 41.7578 32.7867 41.7578 31.2227H39.7578C39.7578 33.0336 40.0854 34.7557 40.7454 36.3803L42.5983 35.6275ZM41.7578 31.2227C41.7578 29.6585 42.0396 28.2069 42.5962 26.8581L40.7475 26.0951C40.0854 27.6994 39.7578 29.4118 39.7578 31.2227H41.7578ZM42.5932 26.8653C43.1771 25.4814 43.9842 24.2777 45.0157 23.2462L43.6015 21.832C42.383 23.0504 41.4323 24.4717 40.7505 26.0879L42.5932 26.8653ZM45.0157 23.2462C46.0472 22.2146 47.2509 21.4075 48.6348 20.8237L47.8574 18.981C46.2413 19.6628 44.8199 20.6135 43.6015 21.832L45.0157 23.2462ZM48.6469 20.8185C50.0098 20.2223 51.5124 19.918 53.168 19.918V17.918C51.261 17.918 49.4824 18.2699 47.8453 18.9862L48.6469 20.8185ZM53.168 19.918C54.7991 19.918 56.0442 20.1431 56.9528 20.5382L57.7503 18.704C56.5027 18.1616 54.9587 17.918 53.168 17.918V19.918ZM56.96 20.5412C57.9656 20.9692 58.8289 21.5192 59.5596 22.1872L60.9091 20.7112C59.9992 19.8792 58.9407 19.2105 57.7431 18.7009L56.96 20.5412ZM59.2344 21.4492V24.9297H61.2344V21.4492H59.2344ZM60.8225 24.121C60.2963 23.7382 59.7012 23.3218 59.0381 22.8717L57.9151 24.5267C58.5644 24.9673 59.1412 25.3711 59.6462 25.7384L60.8225 24.121ZM59.0521 22.8814C58.3386 22.3794 57.5112 21.9559 56.5805 21.6038L55.8727 23.4743C56.6763 23.7784 57.3489 24.1284 57.9011 24.517L59.0521 22.8814ZM56.6112 21.616C55.6143 21.2006 54.4566 21.0117 53.168 21.0117V23.0117C54.2699 23.0117 55.1513 23.1744 55.8419 23.4621L56.6112 21.616ZM53.168 21.0117C51.2531 21.0117 49.5075 21.4475 47.9577 22.3406L48.9563 24.0735C50.1722 23.3728 51.5672 23.0117 53.168 23.0117V21.0117ZM47.9577 22.3406C46.4182 23.2278 45.2012 24.4592 44.3175 26.0187L46.0575 27.0047C46.7676 25.7517 47.7303 24.78 48.9563 24.0735L47.9577 22.3406ZM44.3211 26.0124C43.428 27.5621 42.9922 29.3078 42.9922 31.2227H44.9922C44.9922 29.6219 45.3532 28.2269 46.0539 27.011L44.3211 26.0124ZM42.9922 31.2227C42.9922 33.1375 43.428 34.8832 44.3211 36.4329L46.0539 35.4343C45.3532 34.2184 44.9922 32.8235 44.9922 31.2227H42.9922ZM44.3211 36.4329C45.2044 37.9657 46.4174 39.1911 47.9468 40.0983L48.9672 38.3782C47.731 37.6449 46.7644 36.6671 46.0539 35.4343L44.3211 36.4329ZM47.9577 40.1047C49.5075 40.9978 51.2531 41.4336 53.168 41.4336V39.4336C51.5672 39.4336 50.1722 39.0725 48.9563 38.3719L47.9577 40.1047ZM53.168 41.4336C54.4156 41.4336 55.4924 41.3129 56.3578 41.0337L55.7438 39.1303C55.156 39.3199 54.311 39.4336 53.168 39.4336V41.4336ZM56.3852 41.0245C57.1626 40.7486 57.8327 40.429 58.3589 40.049L57.1879 38.4276C56.8705 38.6569 56.3921 38.8998 55.7164 39.1396L56.3852 41.0245ZM58.3874 40.0276C58.8124 39.6971 59.1594 39.4219 59.4262 39.2036L58.1597 37.6557C57.9109 37.8593 57.5782 38.1232 57.1595 38.4489L58.3874 40.0276ZM59.7929 38.4361L59.8281 32.9517L57.8281 32.9389L57.793 38.4233L59.7929 38.4361ZM58.8281 31.9453H51.8672V33.9453H58.8281V31.9453ZM52.8672 32.9453V30.1328H50.8672V32.9453H52.8672Z" fill="black"/>
</svg>
