<svg width="876" height="660" viewBox="0 0 876 660" fill="none" xmlns="http://www.w3.org/2000/svg">
<g clip-path="url(#clip0)">
<path d="M829.382 547.172C821.025 535.613 825.341 517.358 825.341 517.358C825.341 517.358 822.868 437.049 809.864 418.187C809.864 418.187 791.275 374.381 788.187 372.553C785.1 370.725 766.519 357.954 768.37 350.953C768.37 350.953 765.565 351.903 761.581 353.348C761.476 353.085 761.379 352.821 761.274 352.55C760.126 349.429 758.849 345.757 757.637 342.013C757.764 341.948 757.882 341.865 757.984 341.766C758.077 341.967 758.182 342.161 758.3 342.348C759.552 344.232 761.92 345.102 764.2 345.334C765.331 345.511 766.49 345.361 767.537 344.903C768.283 344.502 768.885 343.883 769.259 343.131C769.114 343.195 768.96 343.234 768.806 343.29C769.687 341.938 770.091 340.335 769.954 338.733C769.819 336.45 769.153 334.229 768.01 332.242C766.866 330.254 765.275 328.553 763.359 327.27C764.13 326.997 764.835 326.567 765.428 326.009L765.743 326.224C766.017 325.94 766.266 325.633 766.487 325.306C766.245 325.455 765.994 325.588 765.735 325.706C766.443 324.973 766.963 324.083 767.252 323.111C767.54 322.139 767.588 321.112 767.392 320.118C767.093 321.116 765.889 321.491 764.854 321.714C764.248 321.842 763.715 321.946 763.238 322.026C764.497 319.668 765.536 317.202 766.341 314.658C767.861 309.238 767.053 303.483 765.768 298.007C764.03 290.624 761.169 283.025 755.043 278.212C752.268 276.207 749.262 274.535 746.087 273.231C743.218 271.804 740.209 270.668 737.108 269.838C733.956 269.112 730.642 269.04 727.474 268.617C721.235 267.819 715.197 265.719 708.885 265.376C702.573 265.033 695.582 266.901 692.357 272.057C691.329 273.606 690.846 275.446 690.983 277.294C690.994 277.433 691.013 277.572 691.04 277.709C691.04 277.709 691.04 277.709 691.04 277.749C691.379 280.997 694.119 283.663 697.255 284.98C697.782 285.198 698.322 285.384 698.872 285.539C694.084 289.523 690.384 294.629 688.108 300.389C685.832 306.149 685.054 312.381 685.844 318.514C686.634 324.648 688.967 330.488 692.631 335.502C696.294 340.516 701.171 344.544 706.816 347.218C707.196 348.016 707.625 348.766 707.988 349.612C712.838 359.51 718.996 373.16 720.968 382.539C720.968 382.706 721.025 382.866 721.057 383.026C720.871 383.481 697.756 424.19 701.03 426.585L700.076 427.606C693.925 434.263 687.557 441.974 687.888 445.079C687.888 445.079 685.892 444.281 682.796 442.892L683.006 440.665L681.479 440.753V440.665L678.181 440.849C667.343 435.972 650.896 428.077 647.631 423.655C643.84 418.523 624.791 404.498 616.11 398.184V371.188H583.62L574.786 376.728L583.628 371.188H473.994L466.599 366.958L464.214 365.585C464.323 364.972 464.323 364.345 464.214 363.733C464.214 363.733 426.592 328.611 424.733 321.754C424.733 321.754 420.951 316.702 416.651 310.324L469.306 313.996C467.027 312.679 466.073 310.005 465.847 306.852H489.431C489.431 306.852 543.306 272.472 539.896 261.521C536.485 250.569 479.522 291.055 479.522 291.055H468.425C468.926 289.458 469.298 288.469 469.298 288.469C469.298 288.469 440.962 288.014 439.612 286.074C438.263 284.134 424.256 280.694 424.256 280.694L431.441 248.159C434.028 244.247 439.03 236.497 441.213 231.867C442.085 230.015 442.32 226.279 442.207 221.897V221.825C450.879 214.546 447.282 185.905 447.266 185.762C451.719 179.984 456.998 174.875 462.937 170.596C463.463 170.236 463.996 169.885 464.554 169.542C470.116 172.324 476.226 173.873 482.457 174.081C488.689 174.289 494.891 173.152 500.631 170.747C506.371 168.343 511.51 164.73 515.69 160.161C519.87 155.592 522.989 150.177 524.831 144.294C525 143.743 525.162 143.185 525.307 142.626C525.736 142.786 526.156 142.961 526.576 143.113C527.137 143.317 527.725 143.438 528.322 143.472C528.777 143.543 529.243 143.49 529.669 143.32C530.096 143.15 530.469 142.869 530.747 142.506C531.329 141.628 531.07 140.511 531.03 139.449H530.989C530.989 139.281 530.989 139.106 530.989 138.946C531.057 138.006 531.409 137.108 531.999 136.368V136.424C532.776 135.424 533.767 134.606 534.901 134.029C536.849 132.999 539.039 132.433 540.914 131.275C542.461 130.247 543.756 128.889 544.703 127.302C545.649 125.715 546.225 123.939 546.386 122.104L546.337 122.199C546.386 121.744 546.418 121.29 546.426 120.835C546.362 117.327 545.236 113.918 543.193 111.048C540.478 107.057 537.689 108.334 534.109 106.259C532.032 105.07 531.401 102.667 530.197 100.743C528.101 97.5227 525.322 94.7909 522.05 92.7372C517.201 89.5443 511.657 87.4849 506.597 84.6033C499.647 80.6122 493.545 75.1604 486.028 72.3906C482.118 71.0895 478.087 70.1751 473.994 69.6607C471.674 69.2935 469.282 68.9263 466.995 69.4292C463.859 70.1236 461.337 72.3427 458.517 73.8433C451.736 77.4513 443.047 76.9724 436.889 81.5302C430.504 86.2477 428.807 94.7886 427.53 102.531C425.339 115.774 422.89 129.36 415.778 140.846C415.361 141.357 415.153 142.003 415.196 142.658C415.369 143.173 415.703 143.62 416.15 143.935C417.093 144.746 418.086 145.497 419.124 146.186H418.211C415.997 144.842 414.088 143.062 412.602 140.958C412.155 140.335 411.574 139.816 410.902 139.439C410.23 139.062 409.482 138.835 408.712 138.774C407.941 138.713 407.166 138.82 406.442 139.087C405.718 139.354 405.061 139.774 404.52 140.319C404.431 140.415 404.334 140.519 404.261 140.614C402.863 142.442 347.597 162.549 335.991 174.14C324.563 185.586 312.23 202.125 311.85 202.644C311.85 202.644 311.082 203.442 309.708 204.911C303.897 211.033 287.029 228.275 270.768 240.392C269.96 240.991 269.152 241.573 268.344 242.14L268.044 242.34C263.621 245.33 259.034 248.077 254.305 250.569C253.973 250.713 253.642 250.88 253.311 251.016C252.902 251.187 252.507 251.39 252.131 251.623L252.034 251.671C249.084 253.012 246.465 253.85 244.962 253.515C239.854 252.373 204.099 293.897 200.841 312.152C197.584 330.407 193.875 331.309 193.875 331.309C193.875 331.309 187.837 348.191 188.767 351.384C189.454 353.739 184.588 362.559 183.279 371.204C163.688 371.34 89.0168 372.162 24.1818 376.632C21.6101 381.896 19.3593 387.307 17.4413 392.836C17.2635 393.331 17.1099 393.826 16.9402 394.329C15.8065 397.789 14.8675 401.31 14.1276 404.873C12.1273 414.148 11.949 423.716 13.6023 433.058C16.4472 448.695 24.8445 462.744 33.0802 476.417C37.9295 484.456 42.7788 492.518 47.814 500.484C48.6222 501.777 49.4304 503.062 50.2871 504.355C52.7603 508.227 55.2577 512.082 57.8278 515.881L58.83 517.358L59.323 518.069C59.7271 518.659 60.1312 519.25 60.5272 519.833C66.015 527.751 71.7614 535.478 77.92 542.853L81.759 547.355C86.0183 552.232 90.4716 556.934 95.1592 561.436L95.3128 561.588L95.4744 561.739L95.6684 561.923C95.7156 561.975 95.7669 562.023 95.822 562.066C95.9836 562.234 96.1614 562.394 96.3392 562.553C102.699 568.542 109.411 574.155 116.44 579.364C122.703 572.124 132.111 563.575 132.111 563.575L177.621 525.261C180.213 522.949 182.998 520.858 185.946 519.01V519.01L190.464 519.114C196.509 524.75 205.877 529.491 216.925 533.394C217.689 536.618 218.641 539.795 219.778 542.909H227.86C227.86 542.909 231.901 565.722 229.242 571.813C226.583 577.903 229.711 607.405 251.387 615.316C251.387 615.316 262.233 617.144 264.399 605.577C266.565 594.011 266.873 569.075 266.873 569.075L269.677 545.926C298.951 550.596 324.385 552.041 324.385 552.041L327.416 580.433H356.059C356.39 580.625 356.722 580.809 357.045 581.008L357.7 581.399C358.468 581.87 359.219 582.349 359.955 582.844L360.076 582.924C371.86 590.762 380.095 600.804 385.454 609.042C398.337 604.013 411.39 599.663 424.782 597.012C442.433 593.524 460.343 593.021 478.342 594.147L486.626 582.924L488.469 580.433H505.862L506.896 596.941C516.037 598.106 525.154 599.479 534.222 600.844L543.064 602.193V580.29L592.365 578.813C592.317 581.689 592.684 584.557 593.456 587.33C594.644 592.119 594.757 601.698 594.442 611.684C600.116 613.041 605.746 614.555 611.334 616.226C624.75 620.265 637.811 625.293 650.799 630.506C650.298 627.904 649.756 625.772 649.182 625.046C647.332 622.651 660.861 619.881 660.861 619.881C660.861 619.881 662.171 619.642 664.353 619.267V635.982C668.2 637.53 672.05 639.063 675.902 640.579L675.765 637.347L678.068 641.417C678.723 641.681 679.394 641.936 680.056 642.216H680.153C684.329 643.812 688.524 645.363 692.737 646.869L797.87 645.856V653.838H797.959C801.746 652.509 805.44 650.933 809.015 649.12L808.87 645.696L815.23 645.632H818.52V627.425L822.86 627.52V620.831L805.297 603.342C814.511 596.669 825.858 583.97 824.444 562.474C824.444 562.258 824.444 562.026 824.387 561.811C824.387 561.404 824.323 561.013 824.282 560.59C828.17 562.114 836.583 557.125 829.382 547.172ZM717.525 491.384C717.525 494.01 717.226 496.636 716.378 498.193C714.203 502.184 713.589 510.964 718.228 513.104C722.867 515.243 723.522 523.744 723.352 524.965H723.304C722.585 525.205 715.375 527.695 712.361 531.997C705.337 532.229 696.423 532.365 695.315 531.638C693.465 530.425 655.163 533.163 652.48 533.466C651.534 533.57 647.526 533.833 642.725 534.121L673.89 493.324C674.054 493.571 674.182 493.84 674.27 494.122C675.506 499.055 698.419 495.718 701.514 489.173C702.352 487.659 703.513 486.343 704.917 485.318L717.525 491.384ZM554.904 389.212L529.51 405.128L554.896 389.22L554.904 389.212ZM282.091 371.188L283.861 368.69L286.132 369.416L291.612 371.188H282.091ZM432.912 371.188H418.308C414.622 360.811 406.888 344.847 393.593 341.83C373.622 337.264 349.949 329.968 349.949 329.968C349.949 329.968 342.586 322.177 338.254 320.613C337.695 320.372 337.079 320.291 336.476 320.381L343.661 306.014C347.044 303.16 350.695 300.631 354.564 298.462C356.035 297.664 357.886 296.762 359.882 295.78C361.062 295.19 362.307 294.583 363.551 293.976C363.608 298.806 363.939 302.701 364.78 303.938C367.568 308.049 369.896 311.242 373.605 314.435C376.458 316.885 414.824 353.779 432.912 371.188ZM439.653 196.482L440.372 195.372C442.425 192.179 444.72 188.987 447.234 185.794L439.653 196.482ZM539.516 430.432V529.962L540.534 528.996L539.516 529.962V567.215V430.432ZM677.721 617.072L677.931 617.742L677.721 617.072Z" fill="url(#paint0_linear)"/>
<path opacity="0.1" d="M868.079 554.619C859.933 588.942 843.922 624.064 814.851 643.636C813.792 644.363 812.701 645.057 811.618 645.736C810.001 646.709 808.385 647.651 806.768 648.537C806.348 648.769 805.96 648.984 805.507 649.2C801.97 651.003 798.314 652.571 794.564 653.893C766.843 663.767 735.015 660.551 706.38 652.105C701.013 650.509 695.695 648.777 690.434 646.901C686.255 645.424 682.109 643.868 677.971 642.271H677.874C677.22 642.024 676.557 641.768 675.91 641.473L673.76 640.675C669.946 639.174 666.139 637.647 662.34 636.093C657.863 634.281 653.393 632.453 648.924 630.649C636.065 625.461 623.142 620.464 609.863 616.449C604.343 614.781 598.758 613.256 593.149 611.931C576.411 607.884 559.374 605.074 542.32 602.448L533.487 601.107C524.515 599.742 515.488 598.385 506.444 597.22C497.036 596.006 487.604 595.001 478.156 594.442C460.375 593.364 442.595 593.827 425.153 597.292C411.899 599.926 398.983 604.252 386.23 609.265C345.205 625.373 305.869 648.442 262.573 644.546C240.994 642.607 220.683 633.954 201.011 624.99C172.78 612.138 144.614 598.202 120.012 579.771C113.067 574.599 106.439 569.026 100.162 563.08C99.9843 562.928 99.8146 562.761 99.6448 562.601L99.4994 562.457L99.3054 562.274L98.9902 561.97C94.351 557.5 89.9463 552.815 85.7274 547.962L81.9288 543.492C75.8348 536.148 70.145 528.461 64.7219 520.583L62.9842 518.092L61.9901 516.624C58.6064 511.579 55.3035 506.473 52.0814 501.306C47.1189 493.379 42.302 485.341 37.5335 477.359C29.3786 463.789 21.0702 449.773 18.2576 434.255C16.622 424.961 16.7976 415.443 18.7748 406.214C19.5115 402.671 20.4396 399.17 21.5551 395.725C21.7248 395.222 21.8784 394.735 22.0562 394.24C23.9488 388.737 26.1782 383.353 28.732 378.116C46.2946 341.598 77.5321 306.612 76.4167 266.246C75.5358 235.115 55.492 208.319 40.2976 181.036C25.1032 153.753 14.6934 118.599 32.2155 92.6971C47.0381 70.7141 76.2551 63.9612 102.781 60.6006C129.783 57.1141 156.984 55.3384 184.216 55.2845C204.85 55.2127 224.449 59.8902 244.671 60.5528C269.418 61.351 296.841 49.9923 320.643 44.0935C348.23 37.2714 375.785 30.4546 403.307 23.6431C450.362 12.005 497.957 0.335069 546.458 -0.000183704C594.959 -0.335436 645.214 11.9731 681.931 43.2713C694.507 54.0074 705.507 67.178 710.583 82.8151C721.138 115.343 704.481 151.837 714.624 184.484C723.393 212.606 749.628 231.052 771.756 250.737C855.512 325.33 893.829 446.213 868.079 554.619Z" fill="#51E8B5"/>
<path d="M670.358 587.067L666.777 589.382L673.55 637.434L690.353 646.917L814.859 645.704L812.604 617.407L670.358 587.067Z" fill="#3A3768"/>
<path d="M673.68 640.651C669.865 639.151 666.058 637.623 662.259 636.069V612.833L672.685 617.535V617.694L673.534 637.434L673.68 640.651Z" fill="#3A3768"/>
<path opacity="0.1" d="M673.68 640.651C669.865 639.151 666.058 637.623 662.259 636.069V612.833L672.685 617.535V617.694L673.534 637.434L673.68 640.651Z" fill="black"/>
<path d="M805.427 649.208C801.889 651.012 798.233 652.58 794.483 653.902H794.395V630.625L804.812 635.327V635.495L805.257 645.808L805.427 649.208Z" fill="#3A3768"/>
<path opacity="0.1" d="M805.427 649.208C801.889 651.012 798.233 652.58 794.483 653.902H794.395V630.625L804.812 635.327V635.495L805.257 645.808L805.427 649.208Z" fill="black"/>
<path d="M814.85 624.942V645.696H811.618L690.385 646.861C686.207 645.385 682.061 643.828 677.923 642.232H677.826L675.773 617.958L814.85 624.942Z" fill="#3A3768"/>
<path d="M677.89 642.279H677.793C677.139 642.032 676.476 641.777 675.829 641.481L673.542 637.434L663.326 619.259L662.259 617.359L659.196 611.923L666.769 589.421L675.514 617.303L675.74 618.014L676.306 624.399L677.89 642.279Z" fill="#3A3768"/>
<path d="M662.259 575.006H773.187L819.15 621.007L675.749 617.982L662.259 575.006Z" fill="#3A3768"/>
<path d="M819.15 621.007V627.664L676.306 624.335L675.749 617.982L819.15 621.007Z" fill="#3A3768"/>
<path opacity="0.1" d="M819.15 621.007V627.664L676.306 624.335L675.749 617.982L819.15 621.007Z" fill="black"/>
<path d="M718.333 532.293C718.333 532.293 694.742 533.506 692.899 532.293C691.056 531.08 653.159 533.802 650.508 534.105C647.857 534.408 620.895 535.941 620.895 535.941L618.745 578.614L714.963 563.783L718.333 532.293Z" fill="#F3B4B3"/>
<path opacity="0.1" d="M718.333 532.293C718.333 532.293 694.742 533.506 692.899 532.293C691.056 531.08 653.159 533.802 650.508 534.105C647.857 534.408 620.895 535.941 620.895 535.941L618.745 578.614L714.963 563.783L718.333 532.293Z" fill="black"/>
<path d="M498.919 488.239L607.568 513.359L611.964 579.292L483.862 579.787L498.919 488.239Z" fill="#3A3768"/>
<path d="M581.963 372.665L503.712 417.597L522.77 473.679L527.102 546.078L583.628 534.137L611.964 476.737L637.237 441.783L614.001 399.461L581.963 372.665Z" fill="#3A3768"/>
<path d="M128.692 425.124C128.692 425.124 102.134 370.573 115.454 325.123C121.168 306.094 120.476 285.747 113.481 267.14C110.103 258.333 105.915 249.85 100.97 241.797" stroke="#535461" stroke-width="2" stroke-miterlimit="10"/>
<path d="M109.158 213.101C110.321 220.125 100.809 242.571 100.809 242.571C100.809 242.571 84.5716 224.276 83.4078 217.252C82.8505 213.879 83.6725 210.426 85.6929 207.652C87.7133 204.879 90.7667 203.011 94.1813 202.461C97.5959 201.91 101.092 202.722 103.901 204.717C106.709 206.713 108.6 209.728 109.158 213.101V213.101Z" fill="#51E8B5"/>
<path d="M136.871 248.582C133.986 255.103 113.651 268.84 113.651 268.84C113.651 268.84 110.079 244.766 112.972 238.245C114.36 235.115 116.95 232.657 120.173 231.413C123.395 230.169 126.986 230.241 130.155 231.611C133.324 232.982 135.812 235.54 137.072 238.723C138.331 241.905 138.259 245.452 136.871 248.582V248.582Z" fill="#51E8B5"/>
<path d="M146.933 315.209C141.106 319.392 116.528 321.116 116.528 321.116C116.528 321.116 125.758 298.55 131.585 294.367C134.384 292.356 137.877 291.525 141.295 292.058C144.714 292.59 147.778 294.441 149.815 297.205C151.851 299.969 152.692 303.418 152.154 306.795C151.615 310.171 149.74 313.198 146.942 315.209H146.933Z" fill="#51E8B5"/>
<path d="M143.046 367.317C138.019 372.418 114.096 378.205 114.096 378.205C114.096 378.205 119.325 354.434 124.352 349.333C125.548 348.121 126.973 347.153 128.548 346.485C130.122 345.817 131.814 345.461 133.528 345.439C135.241 345.417 136.942 345.728 138.534 346.355C140.125 346.982 141.576 347.913 142.804 349.094C144.031 350.274 145.011 351.682 145.687 353.237C146.364 354.792 146.724 356.463 146.746 358.156C146.769 359.848 146.454 361.528 145.819 363.1C145.184 364.672 144.242 366.105 143.046 367.317V367.317Z" fill="#51E8B5"/>
<path d="M86.8346 274.548C92.7507 278.619 117.353 279.856 117.353 279.856C117.353 279.856 107.654 257.506 101.77 253.411C100.367 252.394 98.7728 251.664 97.0802 251.265C95.3876 250.866 93.6312 250.805 91.9144 251.086C90.1976 251.367 88.555 251.984 87.0833 252.901C85.6115 253.818 84.3403 255.017 83.3444 256.426C82.3484 257.836 81.6479 259.427 81.284 261.108C80.9202 262.789 80.9002 264.524 81.2254 266.213C81.5506 267.901 82.2144 269.508 83.1777 270.94C84.1409 272.371 85.3843 273.598 86.8346 274.548V274.548Z" fill="#51E8B5"/>
<path d="M83.0764 335.588C89.9462 337.727 113.789 331.636 113.789 331.636C113.789 331.636 97.7859 313.142 90.908 311.002C87.6332 310.066 84.1172 310.431 81.112 312.022C78.1068 313.612 75.8509 316.301 74.8268 319.512C73.8026 322.724 74.0915 326.204 75.6317 329.208C77.1718 332.212 79.841 334.502 83.0683 335.588H83.0764Z" fill="#51E8B5"/>
<path d="M87.659 395.326C94.0681 398.583 118.614 396.564 118.614 396.564C118.614 396.564 105.997 375.666 99.5883 372.409C98.0647 371.636 96.4017 371.166 94.6944 371.027C92.987 370.888 91.2687 371.083 89.6375 371.6C88.0063 372.117 86.4941 372.946 85.1874 374.041C83.8807 375.135 82.805 376.472 82.0217 377.977C81.2384 379.482 80.7629 381.124 80.6223 382.81C80.4817 384.497 80.6787 386.194 81.2022 387.805C81.7257 389.416 82.5653 390.909 83.6732 392.2C84.781 393.49 86.1354 394.553 87.659 395.326V395.326Z" fill="#51E8B5"/>
<path opacity="0.25" d="M109.158 213.101C110.321 220.125 100.809 242.571 100.809 242.571C100.809 242.571 84.5716 224.276 83.4078 217.252C82.8505 213.879 83.6725 210.426 85.6929 207.652C87.7133 204.879 90.7667 203.011 94.1813 202.461C97.5959 201.91 101.092 202.722 103.901 204.717C106.709 206.713 108.6 209.728 109.158 213.101V213.101Z" fill="black"/>
<path opacity="0.25" d="M136.871 248.582C133.986 255.103 113.651 268.84 113.651 268.84C113.651 268.84 110.079 244.766 112.972 238.245C114.36 235.115 116.95 232.657 120.173 231.413C123.395 230.169 126.986 230.241 130.155 231.611C133.324 232.982 135.812 235.54 137.072 238.723C138.331 241.905 138.259 245.452 136.871 248.582V248.582Z" fill="black"/>
<path opacity="0.25" d="M146.933 315.209C141.106 319.392 116.528 321.116 116.528 321.116C116.528 321.116 125.758 298.55 131.585 294.367C134.384 292.356 137.877 291.525 141.295 292.058C144.714 292.59 147.778 294.441 149.815 297.205C151.851 299.969 152.692 303.418 152.154 306.795C151.615 310.171 149.74 313.198 146.942 315.209H146.933Z" fill="black"/>
<path opacity="0.25" d="M143.046 367.317C138.019 372.418 114.096 378.205 114.096 378.205C114.096 378.205 119.325 354.434 124.352 349.333C125.548 348.121 126.973 347.153 128.548 346.485C130.122 345.817 131.814 345.461 133.528 345.439C135.241 345.417 136.942 345.728 138.534 346.355C140.125 346.982 141.576 347.913 142.804 349.094C144.031 350.274 145.011 351.682 145.687 353.237C146.364 354.792 146.724 356.463 146.746 358.156C146.769 359.848 146.454 361.528 145.819 363.1C145.184 364.672 144.242 366.105 143.046 367.317V367.317Z" fill="black"/>
<path opacity="0.25" d="M86.8346 274.548C92.7507 278.619 117.353 279.856 117.353 279.856C117.353 279.856 107.654 257.506 101.77 253.411C100.367 252.394 98.7728 251.664 97.0802 251.265C95.3876 250.866 93.6312 250.805 91.9144 251.086C90.1976 251.367 88.555 251.984 87.0833 252.901C85.6115 253.818 84.3403 255.017 83.3444 256.426C82.3484 257.836 81.6479 259.427 81.284 261.108C80.9202 262.789 80.9002 264.524 81.2254 266.213C81.5506 267.901 82.2144 269.508 83.1777 270.94C84.1409 272.371 85.3843 273.598 86.8346 274.548V274.548Z" fill="black"/>
<path opacity="0.25" d="M83.0764 335.588C89.9462 337.727 113.789 331.636 113.789 331.636C113.789 331.636 97.7859 313.142 90.908 311.002C87.6332 310.066 84.1172 310.431 81.112 312.022C78.1068 313.612 75.8509 316.301 74.8268 319.512C73.8026 322.724 74.0915 326.204 75.6317 329.208C77.1718 332.212 79.841 334.502 83.0683 335.588H83.0764Z" fill="black"/>
<path opacity="0.25" d="M87.659 395.326C94.0681 398.583 118.614 396.564 118.614 396.564C118.614 396.564 105.997 375.666 99.5883 372.409C98.0647 371.636 96.4017 371.166 94.6944 371.027C92.987 370.888 91.2687 371.083 89.6375 371.6C88.0063 372.117 86.4941 372.946 85.1874 374.041C83.8807 375.135 82.805 376.472 82.0217 377.977C81.2384 379.482 80.7629 381.124 80.6223 382.81C80.4817 384.497 80.6787 386.194 81.2022 387.805C81.7257 389.416 82.5653 390.909 83.6732 392.2C84.781 393.49 86.1354 394.553 87.659 395.326V395.326Z" fill="black"/>
<path d="M128.813 423.12C128.813 423.12 82.147 383.88 75.6813 336.992C73.084 317.306 64.0912 298.982 50.0528 284.773C43.3545 278.08 36.0501 272.007 28.231 266.629" stroke="#535461" stroke-width="2" stroke-miterlimit="10"/>
<path d="M23.9636 237.103C27.9077 243.058 28.4168 267.388 28.4168 267.388C28.4168 267.388 6.0697 257.162 2.12561 251.208C1.13193 249.794 0.435266 248.197 0.0767582 246.513C-0.28175 244.828 -0.294833 243.09 0.0382873 241.4C0.371407 239.711 1.04397 238.104 2.01626 236.675C2.98855 235.247 4.24084 234.025 5.69918 233.083C7.15751 232.14 8.79231 231.496 10.507 231.187C12.2217 230.879 13.9816 230.914 15.6827 231.288C17.3837 231.663 18.9915 232.371 20.411 233.37C21.8305 234.368 23.033 235.638 23.9474 237.103H23.9636Z" fill="#51E8B5"/>
<path d="M63.8571 258.439C63.8571 265.56 50.9256 286.249 50.9256 286.249C50.9256 286.249 37.784 265.671 37.7517 258.559C37.7011 256.841 37.9991 255.129 38.6282 253.526C39.2573 251.923 40.2048 250.46 41.4149 249.224C42.625 247.988 44.0732 247.003 45.6744 246.328C47.2756 245.653 48.9973 245.301 50.7382 245.293C52.4792 245.285 54.2041 245.621 55.8116 246.282C57.419 246.942 58.8765 247.913 60.0982 249.138C61.3199 250.363 62.2811 251.817 62.9252 253.414C63.5694 255.012 63.8835 256.72 63.849 258.439H63.8571Z" fill="#51E8B5"/>
<path d="M100.388 315.337C96.7757 321.491 75.0185 332.898 75.0185 332.898C75.0185 332.898 74.2103 308.584 77.8068 302.422C79.541 299.464 82.3936 297.308 85.7372 296.428C89.0808 295.548 92.6416 296.015 95.6361 297.728C98.6306 299.441 100.814 302.258 101.705 305.56C102.596 308.863 102.122 312.379 100.388 315.337V315.337Z" fill="#51E8B5"/>
<path d="M118.218 364.531C115.712 371.196 96.218 386.083 96.218 386.083C96.218 386.083 91.2717 362.24 93.7449 355.543C94.9895 352.393 97.4373 349.852 100.561 348.468C103.684 347.084 107.233 346.967 110.443 348.143C113.653 349.319 116.267 351.693 117.721 354.754C119.175 357.815 119.354 361.317 118.218 364.507V364.531Z" fill="#51E8B5"/>
<path d="M28.7644 302.214C35.8443 303.571 58.838 294.854 58.838 294.854C58.838 294.854 40.8149 278.267 33.743 276.91C30.3782 276.336 26.9196 277.087 24.109 279.002C21.2983 280.917 19.3594 283.844 18.7081 287.154C18.0567 290.465 18.7448 293.896 20.6247 296.711C22.5047 299.526 25.4268 301.502 28.7644 302.214V302.214Z" fill="#51E8B5"/>
<path d="M50.3518 359.478C57.5126 358.68 76.8208 343.578 76.8208 343.578C76.8208 343.578 54.603 333.073 47.4422 333.871C45.7398 334.06 44.0917 334.578 42.5919 335.396C41.0922 336.214 39.7703 337.315 38.7016 338.637C36.5432 341.308 35.5474 344.716 35.9332 348.112C36.1243 349.793 36.6488 351.421 37.4768 352.902C38.3048 354.383 39.42 355.689 40.7589 356.744C43.4629 358.876 46.9136 359.859 50.3518 359.478V359.478Z" fill="#51E8B5"/>
<path d="M79.0677 412.304C86.2608 412.712 107.881 401.042 107.881 401.042C107.881 401.042 87.7722 386.985 80.579 386.57C77.1627 386.438 73.8306 387.636 71.2988 389.905C68.767 392.174 67.2378 395.334 67.0398 398.705C66.8418 402.076 67.9909 405.389 70.2401 407.932C72.4892 410.475 75.6589 412.045 79.0677 412.304Z" fill="#51E8B5"/>
<path d="M542.256 568.372V602.424L533.422 601.083C524.451 599.718 515.423 598.362 506.379 597.196L505.353 580.769L505.272 579.292L504.108 560.686L538.708 567.638L539.71 567.838L542.256 568.372Z" fill="#3A3768"/>
<path opacity="0.1" d="M542.256 568.372V602.424L533.422 601.083C524.451 599.718 515.423 598.362 506.379 597.196L505.353 580.769L505.272 579.292L504.108 560.686L538.708 567.638L539.71 567.838L542.256 568.372Z" fill="black"/>
<path d="M499.574 565.171L489.204 579.292L488.105 580.769L486.287 583.251L478.083 594.426C460.303 593.349 442.522 593.812 425.081 597.276C411.826 599.91 398.911 604.236 386.157 609.249C380.855 601.051 372.7 591.066 361.046 583.267C359.777 582.413 358.46 581.591 357.102 580.785C356.237 580.282 355.364 579.787 354.467 579.308C348.953 576.362 343.085 574.114 337.001 572.619L499.574 565.171Z" fill="#3A3768"/>
<path d="M85.6869 547.914L105.464 520.08L107.194 517.685L108.228 516.225L117.264 503.501H116.981C113.748 503.357 84.0463 502.168 52.0975 501.338C55.3304 506.494 58.6333 511.6 62.0062 516.656L63.0004 518.124L64.6814 520.583C70.1046 528.461 75.7944 536.148 81.8883 543.492L85.6869 547.914Z" fill="#3A3768"/>
<path d="M582.367 372.657L573.614 378.164L553.934 390.561L522.244 410.516L519.9 411.985L520.652 435.078L381.421 441.751H227.9L186.488 431.525L185.623 431.31L184.758 431.094L176.571 429.067L140.573 420.199L18.7587 406.19C19.4953 402.647 20.4234 399.146 21.5389 395.701C21.7087 395.198 21.8622 394.712 22.04 394.217C23.9326 388.713 26.162 383.329 28.7159 378.093C92.8801 373.647 166.775 372.832 186.164 372.697L191.014 372.657H582.367Z" fill="#3A3768"/>
<path opacity="0.1" d="M499.582 565.171L337.018 572.595C345.609 574.718 353.752 578.326 361.07 583.251H486.343L499.582 565.171Z" fill="black"/>
<path opacity="0.1" d="M117.264 503.477L108.244 516.201L107.21 517.661L105.48 520.056H104.486H102.28L64.6976 520.503L62.9842 518.092L61.9901 516.624C58.6064 511.579 55.3035 506.473 52.0814 501.306C84.0301 502.104 113.756 503.325 116.965 503.469L117.264 503.477Z" fill="black"/>
<path d="M538.708 412.049V580.769H328.741L325.735 552.528C325.735 552.528 300.567 551.091 271.584 546.445C269.92 546.166 268.238 545.895 266.541 545.599C259.639 544.418 252.591 543.053 245.681 541.472L244.299 541.153C241.713 540.557 239.156 539.927 236.629 539.261C234.148 538.623 231.707 537.936 229.315 537.234C225.912 536.22 222.623 535.159 219.463 534.041C208.528 530.13 199.257 525.444 193.268 519.841L188.799 519.729L138.843 518.484H137.938H137.655H136.75L107.194 517.733L104.47 517.67L63.0327 518.164L62.0386 516.696C58.6549 511.651 55.352 506.545 52.1299 501.378C47.1674 493.452 42.3505 485.414 37.582 477.431C29.4271 463.862 21.1187 449.845 18.3061 434.327C16.6705 425.033 16.8461 415.516 18.8233 406.286C19.56 402.743 20.4881 399.242 21.6036 395.797H186.504L187.506 396.093L192.977 397.689L193.842 397.945L194.707 398.2C209.619 402.59 240.298 411.347 248.187 411.347H262.007L333.566 411.522L399.767 411.706C447.711 411.818 494.716 411.945 519.876 412.009L538.708 412.049Z" fill="#3A3768"/>
<path opacity="0.1" d="M538.708 410.572V579.292H328.741L325.735 551.051C325.735 551.051 300.68 549.614 271.762 544.985C270.801 544.817 269.823 544.665 268.845 544.506C261.684 543.3 254.297 541.911 247.104 540.307L246.11 540.084L245.455 539.932L243.701 539.517C241.325 538.974 238.965 538.391 236.637 537.777C234.083 537.117 231.572 536.417 229.105 535.677C225.654 534.664 222.316 533.57 219.115 532.421C208.334 528.533 199.201 523.888 193.252 518.348L191.232 518.292L140.12 517.015H139.231H138.956H138.059L108.236 516.217L105.731 516.153H104.478L62.0143 516.664C58.6306 511.619 55.3277 506.513 52.1056 501.346C47.1432 493.42 42.3262 485.382 37.5578 477.399C29.4029 463.83 21.0944 449.813 18.2818 434.295C16.6462 425.001 16.8218 415.484 18.7991 406.254C19.5357 402.711 20.4638 399.21 21.5793 395.765C21.7491 395.263 21.9026 394.776 22.0804 394.281H186.504L187.668 394.64C188.823 394.983 190.779 395.574 193.325 396.316L194.182 396.572C194.457 396.651 194.739 396.747 195.038 396.827C210.079 401.193 240.379 409.822 248.211 409.822H262.759L335.11 410.006L401.133 410.173L522.228 410.493L538.708 410.572Z" fill="black"/>
<path opacity="0.1" d="M538.708 412.049V580.769H328.741L325.735 552.528C325.735 552.528 300.567 551.091 271.584 546.445C269.92 546.166 268.238 545.895 266.541 545.599C259.639 544.418 252.591 543.053 245.681 541.472L244.299 541.153C241.713 540.557 239.156 539.927 236.629 539.261C234.148 538.623 231.707 537.936 229.315 537.234C225.912 536.22 222.623 535.159 219.463 534.041C208.528 530.13 199.257 525.444 193.268 519.841L188.799 519.729L138.843 518.484H137.938H137.655H136.75L107.194 517.733L104.47 517.67L63.0327 518.164L62.0386 516.696C58.6549 511.651 55.352 506.545 52.1299 501.378C47.1674 493.452 42.3505 485.414 37.582 477.431C29.4271 463.862 21.1187 449.845 18.3061 434.327C16.6705 425.033 16.8461 415.516 18.8233 406.286C19.56 402.743 20.4881 399.242 21.6036 395.797H186.504L187.506 396.093L192.977 397.689L193.842 397.945L194.707 398.2C209.619 402.59 240.298 411.347 248.187 411.347H262.007L333.566 411.522L399.767 411.706C447.711 411.818 494.716 411.945 519.876 412.009L538.708 412.049Z" fill="black"/>
<path d="M582.367 372.665V399.389L538.716 431.597L519.9 412.001L582.367 372.665Z" fill="#3A3768"/>
<path opacity="0.1" d="M582.367 372.665V399.389L538.716 431.597L519.9 412.001L582.367 372.665Z" fill="black"/>
<path d="M604.957 402.127L582.367 399.389L538.716 431.597V448.448L604.957 402.127Z" fill="#3A3768"/>
<path d="M614.494 372.665V428.628L629.042 444.481L538.716 530.608V448.448L604.957 402.127L582.367 399.389V372.665H614.494Z" fill="#3A3768"/>
<path opacity="0.1" d="M614.494 372.665V428.628L629.042 444.481L538.716 530.608V448.448L604.957 402.127L582.367 399.389V372.665H614.494Z" fill="black"/>
<path opacity="0.1" d="M620.014 444.976L679.216 441.783L674.698 488.239L605.959 578.709L607.972 513.359H555.292L620.014 444.976Z" fill="black"/>
<path d="M621.517 444.976L680.719 441.783L676.209 488.239L607.471 578.709L609.475 513.359H556.804L621.517 444.976Z" fill="#3A3768"/>
<path opacity="0.1" d="M660.15 471.74H630.044L591.912 513.359H610.477L610.073 526.697L660.15 471.74Z" fill="black"/>
<path opacity="0.1" d="M658.146 471.74H628.04L589.908 513.359H608.473L608.061 526.697L658.146 471.74Z" fill="black"/>
<path d="M659.148 471.74H629.042L590.91 513.359H609.475L609.063 526.697L659.148 471.74Z" fill="#DCE6F2"/>
<path opacity="0.1" d="M608.473 577.719L539.718 579.787V529.619L557.806 512.369H610.477L608.473 577.719Z" fill="black"/>
<path d="M607.471 578.709L538.716 580.777V530.609L556.804 513.359H609.475L607.471 578.709Z" fill="#3A3768"/>
<path opacity="0.1" d="M607.471 578.709L538.716 580.777V530.609L556.804 513.359H609.475L607.471 578.709Z" fill="black"/>
<path d="M801.765 603.606C798.382 606.134 794.672 608.204 790.733 609.76C790.733 609.76 712.514 614.302 701.482 614.302C695.825 614.302 684.906 615.787 675.514 617.263L672.694 617.694C669.048 618.277 665.775 618.828 663.326 619.291L662.259 619.482C660.093 619.85 658.8 620.089 658.8 620.089C658.8 620.089 645.408 622.811 647.243 625.23C647.809 625.956 648.35 628.071 648.859 630.657C636.001 625.469 623.077 620.472 609.798 616.457C604.278 614.789 598.693 613.264 593.084 611.939C593.392 601.985 593.286 592.463 592.106 587.705C591.339 584.948 590.977 582.096 591.032 579.236C591.032 578.901 591.032 578.582 591.104 578.27C591.557 574.032 593.529 572.427 593.941 569.25C594.248 566.856 600.003 565.076 606.444 563.487L607.956 563.12L608.95 562.881C612.837 561.955 616.749 561.061 619.691 560.079C619.917 560.007 620.127 559.935 620.329 559.855C621.079 559.595 621.814 559.291 622.528 558.945C622.705 558.842 622.883 558.754 623.045 558.65C629.179 555.018 691.388 545.336 696.285 543.827C701.183 542.319 708.538 535.653 708.538 535.653C708.716 534.58 709.142 533.561 709.783 532.676C712.765 528.398 719.901 525.923 720.613 525.684H720.661L726.618 521.142C726.618 521.142 750.395 517.646 773.971 521.142C775.757 521.405 777.527 521.708 779.297 522.06C785.783 523.258 792.088 525.273 798.056 528.054C804.812 531.327 810.607 535.773 814.568 541.784C816.732 545.088 818.289 548.744 819.166 552.584C819.823 555.384 820.295 558.224 820.581 561.085C820.645 561.723 820.702 562.346 820.734 562.968C822.116 584.329 810.882 596.973 801.765 603.606Z" fill="#F3B4B3"/>
<path d="M489.132 308.648H459.406L464.255 292.907H479.32C479.32 292.907 535.701 252.66 539.071 263.556C542.442 274.452 489.132 308.648 489.132 308.648Z" fill="#FFCACE"/>
<path d="M537.544 390.665C532.339 399.445 465.54 387.64 465.54 387.64L448.074 370.39L459.389 364.332L466.534 368.442L474.099 372.801C474.099 372.801 542.757 381.884 537.544 390.665Z" fill="#FFCACE"/>
<path d="M338.682 475.396C338.682 475.396 333.688 478.469 327.27 482.404C317.806 488.167 305.287 495.686 301.262 497.49C294.522 500.516 287.789 511.108 279.198 519.585C274.252 524.462 271.552 532.061 270.146 537.633C269.544 539.96 269.091 542.322 268.788 544.705L255.913 549.838L236.613 548.026V515.985C236.613 515.985 239.369 502.663 244.582 502.064C245.064 501.999 245.535 501.867 245.98 501.673C251.541 499.358 261.191 488.047 268.788 483.593C275.585 479.602 280.839 467.557 282.487 463.398C282.843 462.488 283.029 461.962 283.029 461.962L306.467 449.988L338.682 475.396Z" fill="#FFCACE"/>
<path opacity="0.1" d="M338.682 475.396C338.682 475.396 333.688 478.469 327.271 482.404C318.978 477.128 309.781 470.782 306.192 466.44C300.187 459.208 286.706 462.177 282.487 463.335C282.843 462.425 283.029 461.898 283.029 461.898L306.467 449.925L338.682 475.396Z" fill="black"/>
<path d="M421.411 381.581C421.411 381.581 417.734 387.967 417.734 390.665C417.734 393.363 400.761 410.62 400.761 410.62L367.681 447.857C367.681 447.857 355.687 456.917 356.609 466.017C357.53 475.116 344.873 490.075 344.873 490.075C344.873 490.075 315.236 473.312 308.059 464.652C301.02 456.183 283.708 461.722 283.085 461.922C284.096 460.884 332.807 411.45 342.821 402.917C352.834 394.384 342.821 394.297 342.821 391.112C342.821 388.996 309.878 377.989 287.959 370.893C277.016 367.357 268.82 364.786 268.82 364.786L286.739 325.745L316.642 318.027C316.642 318.027 334.197 322.944 337.785 322.113C338.38 322.028 338.988 322.108 339.539 322.345C343.831 323.902 351.113 331.644 351.113 331.644C351.113 331.644 374.551 338.908 394.32 343.45C414.089 347.992 421.411 381.581 421.411 381.581Z" fill="#575988"/>
<path opacity="0.1" d="M270.178 537.633C269.577 539.96 269.123 542.322 268.82 544.705L255.946 549.838L236.645 548.026V515.985C236.645 515.985 239.401 502.663 244.614 502.064C245.097 501.999 245.567 501.868 246.013 501.673V501.673C231.909 507.724 245.681 540.499 245.681 540.499C259.122 528.477 266.654 533.099 270.178 537.633Z" fill="black"/>
<path d="M271.875 544.099L268.82 569.514C268.82 569.514 268.513 594.331 266.396 605.833C264.278 617.335 253.513 615.515 253.513 615.515C232.071 607.645 229.008 578.294 231.602 572.236C234.196 566.177 230.228 543.5 230.228 543.5H222.203C222.203 543.5 217.305 530.489 217.612 518.691C217.717 514.588 221.023 511.316 225.274 508.809C233.243 504.108 244.582 502.048 244.582 502.048C230.479 508.091 244.727 542.295 244.727 542.295C265.127 524.119 271.875 544.099 271.875 544.099Z" fill="#575988"/>
<path opacity="0.1" d="M467.633 308.648H459.406L464.255 292.907H470.179C469.056 296.523 467.253 303.276 467.633 308.648Z" fill="black"/>
<path d="M439.839 198.924L447.436 188.172C447.436 188.172 451.032 216.797 442.425 224.092L431.748 250.258L424.628 282.626C424.628 282.626 438.497 286.074 439.839 287.982C441.18 289.889 469.217 290.337 469.217 290.337C469.217 290.337 461.402 311.218 469.217 315.76L404.407 311.218L388.784 300.322L400.729 233.144L418.599 207.162L439.839 198.924Z" fill="#575988"/>
<path opacity="0.1" d="M439.839 198.924L447.436 188.172C447.436 188.172 451.032 216.797 442.425 224.092L431.748 250.258L424.628 282.626C424.628 282.626 438.497 286.074 439.839 287.982C441.18 289.889 469.217 290.337 469.217 290.337C469.217 290.337 461.402 311.218 469.217 315.76L404.407 311.218L388.784 300.322L400.729 233.144L418.599 207.162L439.839 198.924Z" fill="black"/>
<path d="M720.645 494.992L645.715 459.072C645.715 459.072 619.359 487.505 615.068 469.689C610.776 451.872 628.557 439.723 628.557 439.723L755.721 469.082L720.645 494.992Z" fill="#FFCACE"/>
<path opacity="0.05" d="M720.645 494.992L645.715 459.072C645.715 459.072 619.359 487.505 615.068 469.689C610.776 451.872 628.557 439.723 628.557 439.723L755.721 469.082L720.645 494.992Z" fill="black"/>
<path d="M400.729 260.379L389.503 274.683L388.137 276.424L377.921 289.435C377.921 289.435 368.36 293.96 360.949 297.656C358.977 298.638 357.15 299.564 355.695 300.322C351.866 302.482 348.253 304.997 344.906 307.834C342.546 309.765 340.986 311.218 340.986 311.218L327.198 313.948C327.198 313.948 232.976 262.646 255.493 253.116C260.754 250.889 266.711 247.081 272.756 242.547C288.848 230.494 305.538 213.34 311.292 207.25C312.658 205.813 313.41 204.999 313.41 204.999L327.149 197.288L371.254 235.132L400.729 260.379Z" fill="#FFCACE"/>
<path d="M478.407 166.413C472.819 167.518 467.542 169.815 462.946 173.142C453.869 179.44 446.296 188.915 440.59 197.751C435.924 204.956 431.893 212.543 428.54 220.428C428.54 220.428 367.18 140.535 403.946 147.343C409.442 148.404 415.037 148.885 420.636 148.78C427.487 148.722 434.254 147.277 440.518 144.534C449.545 140.439 453.126 134.875 453.126 134.875C453.126 134.875 508.747 160.961 478.407 166.413Z" fill="#FFCACE"/>
<path d="M761.541 362.815C761.541 362.815 718.333 403.372 718.948 389.755C718.98 387.797 718.771 385.843 718.325 383.936C716.378 374.596 710.3 361.027 705.483 351.209C701.91 343.913 699.017 338.645 699.017 338.645C699.017 338.645 752.949 315.041 750.799 323.207C750.096 325.873 751.001 331.006 752.521 336.721C754.089 342.604 756.328 349.109 758.178 354.162C760.029 359.215 761.541 362.815 761.541 362.815Z" fill="#FFCACE"/>
<path opacity="0.1" d="M478.407 166.413C472.819 167.518 467.542 169.815 462.946 173.142C452.697 168.073 452.115 157.928 448.713 146.936C448.357 145.803 449.335 140.343 449.085 139.17C458.112 135.075 453.126 134.875 453.126 134.875C453.126 134.875 508.747 160.961 478.407 166.413Z" fill="black"/>
<path d="M525.986 134.875C525.986 143.135 523.506 151.21 518.86 158.077C514.214 164.945 507.609 170.298 499.883 173.459C492.156 176.62 483.654 177.447 475.451 175.836C467.248 174.224 459.714 170.247 453.8 164.406C447.886 158.565 443.859 151.124 442.227 143.023C440.596 134.922 441.433 126.524 444.634 118.893C447.834 111.262 453.254 104.74 460.208 100.151C467.162 95.5617 475.337 93.1124 483.701 93.1124C489.263 93.0784 494.777 94.1355 499.923 96.2223C505.069 98.3091 509.744 101.384 513.678 105.269C517.611 109.154 520.725 113.771 522.838 118.853C524.95 123.935 526.021 129.381 525.986 134.875V134.875Z" fill="#FFCACE"/>
<path opacity="0.1" d="M400.729 260.379L389.503 274.683L388.137 276.424C387.668 276.463 387.208 276.495 386.747 276.503C381.639 276.599 377.485 274.444 375.432 268.521C373.89 264.503 371.746 260.736 369.071 257.346C367.714 255.518 366.194 253.666 364.562 251.759C347.12 231.803 316.069 210.483 311.268 207.218C312.634 205.781 313.385 204.967 313.385 204.967L327.125 197.256L371.229 235.1L400.729 260.379Z" fill="black"/>
<path opacity="0.1" d="M440.59 197.751C435.924 204.956 431.892 212.543 428.54 220.428C428.54 220.428 367.18 140.535 403.946 147.343C409.442 148.404 415.037 148.885 420.635 148.78C424.361 152.723 429.671 165.71 432.88 174.195C434.228 177.914 435.195 181.757 435.765 185.666C436.59 190.974 439.822 196.498 440.59 197.751Z" fill="black"/>
<path d="M441.415 234.046C438.44 240.432 430.148 252.66 430.148 252.66C424.546 257.434 418.604 261.803 412.367 265.735C410.185 267.1 407.898 268.417 405.603 269.607C400.01 272.528 394.352 274.603 389.503 274.683C384.395 274.787 380.241 272.624 378.188 266.701C376.645 262.669 374.498 258.889 371.819 255.486C370.462 253.666 368.942 251.814 367.309 249.938C348.365 228.283 313.377 204.967 313.377 204.967C313.757 204.448 325.961 187.997 337.268 176.614C348.761 165.056 403.453 145.052 404.835 143.24C404.914 143.134 405 143.032 405.094 142.937C405.628 142.398 406.276 141.982 406.991 141.718C407.707 141.453 408.472 141.348 409.234 141.409C409.995 141.47 410.733 141.696 411.397 142.07C412.06 142.445 412.631 142.959 413.071 143.576C414.541 145.666 416.431 147.435 418.623 148.772C422.349 150.991 428.402 165.758 431.926 175.073C433.278 178.793 434.245 182.639 434.812 186.552C435.749 192.578 439.806 198.9 439.806 198.9C439.806 198.9 444.397 227.692 441.415 234.046Z" fill="#575988"/>
<path opacity="0.1" d="M466.55 368.442C465.039 372.05 460.084 375.219 455.308 377.534L448.074 370.39L459.389 364.332L466.55 368.442Z" fill="black"/>
<path opacity="0.1" d="M415.439 225.433C415.439 225.433 409.708 250.976 405.611 269.615C400.01 272.528 394.352 274.604 389.503 274.684L377.921 289.435C377.921 289.435 368.36 293.961 360.949 297.656C360.949 296.467 360.908 295.198 360.908 293.881C360.969 279.956 362.885 266.1 366.606 252.669C366.849 251.791 367.091 250.889 367.342 249.971C368.611 245.365 369.977 240.272 371.302 235.124C373.444 226.87 375.489 218.489 376.838 211.808C380.976 191.381 399.363 194.558 399.363 194.558C420.498 192.283 415.439 225.433 415.439 225.433Z" fill="black"/>
<path opacity="0.1" d="M420.951 227.237C420.951 227.237 416.303 247.991 412.376 265.735C410.193 267.1 407.906 268.417 405.611 269.607C400.01 272.528 394.352 274.603 389.503 274.683C384.395 274.787 380.241 272.624 378.188 266.701C376.645 262.669 374.498 258.889 371.819 255.486C371.916 255.111 372.021 254.728 372.126 254.345C375.513 242.044 379.958 225.242 382.318 213.588C386.456 193.161 404.843 196.338 404.843 196.338C426.01 194.103 420.951 227.237 420.951 227.237Z" fill="black"/>
<path d="M403.024 194.558C403.024 194.558 384.646 191.365 380.508 211.808C378.148 223.454 373.694 240.264 370.308 252.565C366.53 266.165 364.6 280.201 364.57 294.304C364.57 299.819 364.877 304.409 365.798 305.774C368.554 309.861 370.858 313.038 374.535 316.215C378.212 319.392 442.425 381.581 442.425 381.581C442.425 381.581 466.001 374.317 464.158 365.241C464.158 365.241 426.932 330.287 425.089 323.479C425.089 323.479 403.946 295.15 405.328 287.982C406.71 280.814 419.116 225.433 419.116 225.433C419.116 225.433 424.167 192.283 403.024 194.558Z" fill="#575988"/>
<path opacity="0.1" d="M345.795 306.053L344.898 307.857C342.538 309.789 340.978 311.242 340.978 311.242L327.19 313.972C327.19 313.972 232.968 262.67 255.485 253.139C260.746 250.912 266.703 247.105 272.748 242.571C288.509 243.8 310.646 260.403 310.646 260.403C329.76 272.097 345.795 306.053 345.795 306.053Z" fill="black"/>
<path opacity="0.1" d="M339.515 322.345L318.914 327.135L287.959 370.917C277.016 367.381 268.82 364.81 268.82 364.81L286.739 325.77L316.642 318.051C316.642 318.051 334.197 322.968 337.785 322.138C338.37 322.049 338.969 322.121 339.515 322.345Z" fill="black"/>
<path d="M85.6869 547.914C89.9058 552.767 94.3106 557.493 98.9498 561.923L99.265 562.226L99.4589 562.41L99.6044 562.553C99.7741 562.713 99.9439 562.881 100.122 563.032C106.411 568.991 113.052 574.575 120.012 579.755C126.211 572.571 135.521 564.054 135.521 564.054L180.563 525.923C183.126 523.623 185.881 521.54 188.799 519.697C189.607 519.202 190.415 518.723 191.224 518.276C192.222 517.741 193.25 517.261 194.303 516.839C201.213 514.117 207.655 496.884 207.655 496.884L241.664 451.489L246.611 441.751L262.031 411.299L262.775 409.822L275.706 384.279L283.942 372.633L285.704 370.142L316.158 327.086L337.777 322.114L344.89 307.849C344.89 307.849 328.855 273.917 309.74 262.191C309.74 262.191 286.213 244.543 270.396 244.287L270.097 244.487C265.677 247.484 261.09 250.235 256.358 252.724V252.724C255.647 253.091 254.935 253.435 254.256 253.746C251.331 255.079 248.736 255.917 247.257 255.582C242.206 254.44 206.846 295.756 203.614 313.908C200.381 332.059 196.72 332.977 196.72 332.977C196.72 332.977 190.739 349.74 191.66 352.933C192.339 355.28 187.522 364.02 186.229 372.649C185.693 375.602 185.823 378.635 186.609 381.533C187.847 385.749 188.228 390.166 187.732 394.528C187.732 395.007 187.635 395.478 187.571 395.949C186.989 400.426 185.569 404.756 183.384 408.72C181.202 412.416 179.23 421.979 176.603 429.003C175.375 432.34 173.984 435.094 172.36 436.411C167.3 440.498 159.946 459.112 159.946 459.112C159.946 459.112 143.862 479.538 139.74 480.895C136.984 481.805 124.845 494.8 117.062 503.373C113.142 507.668 110.321 510.861 110.321 510.861L105.803 516.041L104.438 517.582L102.263 520.088L81.8883 543.444L85.6869 547.914Z" fill="#575988"/>
<path d="M267.285 255.949C267.204 256.029 262.023 260.738 256.366 265.719C252.325 269.255 248.041 272.903 245.196 275.058C238.569 280.063 217.757 316.566 216.852 318.202L207.655 353.555C207.315 355.192 205.133 365.465 203.016 372.657C201.957 376.233 200.93 379.042 200.146 379.665C199.088 380.511 196.913 388.446 195.03 396.771C194.925 397.234 194.812 397.697 194.715 398.16C193.907 401.784 193.099 405.408 192.493 408.457L186.471 431.557L173.2 482.46C172.982 482.955 168.416 493.172 161.409 495.487C159.404 496.149 151.096 504.81 140.136 516.999L138.843 518.452C127.278 531.383 113.013 547.914 100.162 563.08C99.9843 562.928 99.8146 562.761 99.6448 562.601L99.4993 562.457C111.016 548.928 125.564 532.013 137.696 518.468L138.989 517.015C150.086 504.65 158.935 495.399 161.158 494.665C167.769 492.486 172.32 482.3 172.368 482.196L185.59 431.374L191.612 408.225C191.83 407.148 192.711 402.853 193.842 397.849C193.939 397.394 194.052 396.931 194.157 396.46C195.936 388.757 198.199 380 199.589 378.899C200.195 378.42 201.092 375.977 202.086 372.601C203.702 367.133 205.529 359.231 206.774 353.292L216.02 317.755C216.901 316.159 237.745 279.441 244.639 274.276C247.467 272.145 251.735 268.505 255.768 264.961C260.415 260.906 264.731 256.979 266.169 255.67C266.468 255.39 266.646 255.239 266.662 255.223L267.285 255.949Z" fill="#575988"/>
<path d="M266.371 255.949C266.283 256.021 261.425 260.475 255.97 265.264C251.783 268.936 247.249 272.816 244.283 275.059C237.648 280.063 216.804 316.566 215.931 318.202L206.758 353.556C206.418 355.192 204.228 365.465 202.11 372.657C201.052 376.233 200.025 379.043 199.241 379.665C198.199 380.464 196.097 388.302 194.19 396.516C194.077 396.979 193.98 397.442 193.867 397.905C193.018 401.616 192.25 405.328 191.587 408.457L185.623 431.374L172.279 482.46C172.061 482.955 167.494 493.172 160.487 495.487C158.483 496.15 150.183 504.794 139.247 516.967L137.938 518.42C126.494 531.191 112.398 547.539 99.6044 562.553L99.4589 562.41L99.265 562.226L98.9498 561.923C110.418 548.473 124.764 531.782 136.75 518.396L138.051 516.943C149.148 504.595 157.982 495.351 160.196 494.593C166.816 492.414 171.366 482.229 171.406 482.125L184.726 431.079L190.682 408.226C190.892 407.132 191.798 402.71 192.961 397.609C193.066 397.154 193.171 396.691 193.285 396.22C195.055 388.581 197.285 380.001 198.651 378.923C199.257 378.444 200.154 376.001 201.149 372.625C202.765 367.157 204.6 359.255 205.836 353.316L215.082 317.779C215.971 316.183 236.807 279.465 243.701 274.3C246.659 272.065 251.193 268.194 255.38 264.522C260.803 259.733 265.644 255.327 265.725 255.247L266.153 255.694L266.371 255.949Z" fill="#DCE6F2"/>
<path opacity="0.1" d="M302.83 281.716C302.83 281.716 292.412 305.319 300.405 313.948L302.83 281.716Z" fill="black"/>
<path opacity="0.1" d="M318.453 295.03C318.453 295.03 312.327 311.673 315.697 313.948L318.453 295.03Z" fill="black"/>
<path opacity="0.1" d="M326.373 304.457C326.373 304.457 323.868 312.854 326.373 315.728V304.457Z" fill="black"/>
<path opacity="0.1" d="M185.162 481.446C185.162 481.446 207.226 473.887 206.612 478.118C205.998 482.348 185.162 481.446 185.162 481.446Z" fill="black"/>
<path opacity="0.1" d="M180.87 502.032C180.87 502.032 192.84 507.476 195.895 502.032C198.95 496.588 180.87 502.032 180.87 502.032Z" fill="black"/>
<path opacity="0.1" d="M357.983 441.503C357.983 441.503 333.47 445.742 333.162 449.98C332.855 454.219 357.983 441.503 357.983 441.503Z" fill="black"/>
<path opacity="0.1" d="M345.577 334.374C345.577 334.374 335.619 345.549 337.147 349.804C338.674 354.058 345.577 334.374 345.577 334.374Z" fill="black"/>
<path opacity="0.1" d="M525.986 134.875C525.991 138.975 525.381 143.053 524.176 146.976C523.363 146.637 522.461 146.57 521.606 146.785C521.412 148.192 520.666 149.468 519.529 150.337L513.92 143.56C513.765 143.331 513.55 143.149 513.297 143.033C512.732 142.825 512.174 143.296 511.681 143.624C509.798 144.837 507.211 144.214 505.312 143.025C503.413 141.836 501.853 140.135 499.889 139.034C498.013 138.024 495.874 137.589 493.746 137.786C491.619 137.982 489.598 138.8 487.944 140.135C486.406 141.583 485.05 143.207 483.903 144.973C482.309 147.324 480.23 149.316 477.801 150.816C476.582 151.56 475.207 152.019 473.78 152.157C472.354 152.295 470.915 152.109 469.573 151.614C468.757 151.161 467.902 150.779 467.019 150.472C464.255 149.802 461.774 152.204 459.996 154.408C458.217 156.611 455.955 159.101 453.102 158.686C447.864 157.888 448.333 148.78 443.306 147.128H443.257C441.478 141.384 440.974 135.329 441.779 129.376C442.585 123.423 444.681 117.711 447.925 112.631C451.169 107.55 455.484 103.221 460.576 99.9371C465.669 96.6537 471.418 94.4938 477.433 93.6047C483.447 92.7155 489.585 93.1181 495.428 94.785C501.27 96.4519 506.68 99.3438 511.288 103.263C515.896 107.183 519.594 112.038 522.129 117.498C524.664 122.957 525.977 128.893 525.978 134.899L525.986 134.875Z" fill="black"/>
<path d="M521.428 95.6507C516.579 92.4977 511.139 90.4303 506.128 87.5647C499.259 83.6215 493.197 78.1697 485.77 75.4078C481.901 74.1197 477.913 73.2107 473.865 72.6939C471.569 72.3267 469.201 71.9595 466.938 72.4704C463.835 73.1569 461.337 75.3679 458.541 76.8606C451.833 80.4446 443.241 79.9736 437.139 84.4996C430.827 89.1931 429.146 97.6941 427.877 105.397C425.711 118.576 423.286 132.089 416.247 143.48C415.836 143.99 415.632 144.633 415.673 145.284C415.845 145.795 416.176 146.239 416.619 146.553C420.724 150.097 426.406 153.242 431.401 151.071C433.502 150.153 435.103 148.421 436.929 147.04C438.756 145.659 441.124 144.59 443.306 145.3C448.341 146.944 447.864 156.068 453.11 156.85C455.93 157.265 458.234 154.783 460.004 152.58C461.774 150.377 464.255 147.974 467.027 148.645C467.912 148.951 468.769 149.33 469.589 149.778C472.2 150.911 475.327 150.401 477.809 148.98C480.242 147.481 482.322 145.486 483.911 143.129C485.061 141.368 486.417 139.747 487.952 138.3C489.606 136.963 491.625 136.143 493.753 135.946C495.881 135.748 498.02 136.181 499.897 137.19C501.861 138.292 503.413 139.984 505.32 141.181C507.228 142.378 509.806 142.993 511.689 141.772C512.198 141.445 512.756 140.974 513.305 141.181C513.555 141.301 513.77 141.482 513.928 141.708L519.529 148.485C520.669 147.617 521.417 146.341 521.614 144.933C523.036 144.494 524.507 145.252 525.905 145.731C527.304 146.21 529.187 146.362 529.995 145.124C530.65 144.127 530.213 142.802 530.27 141.612C530.383 139.449 532.177 137.725 534.101 136.703C536.024 135.681 538.198 135.107 540.049 133.965C543.541 131.794 545.513 127.651 545.545 123.588C545.491 120.101 544.382 116.71 542.361 113.85C539.677 109.907 536.921 111.152 533.381 109.109C531.312 107.919 530.69 105.533 529.502 103.617C527.427 100.415 524.672 97.6972 521.428 95.6507V95.6507Z" fill="#FFDFCF"/>
<path opacity="0.1" d="M746.217 333.464C739.646 344.057 734.142 354.346 720.653 354.346C715.425 354.349 710.255 353.261 705.483 351.153C701.91 343.857 699.017 338.589 699.017 338.589C699.017 338.589 752.949 314.986 750.799 323.151C750.112 325.841 744.689 327.757 746.217 333.464Z" fill="black"/>
<path d="M720.653 352.526C741.297 352.526 758.033 335.997 758.033 315.608C758.033 295.219 741.297 278.69 720.653 278.69C700.009 278.69 683.273 295.219 683.273 315.608C683.273 335.997 700.009 352.526 720.653 352.526Z" fill="#FFCACE"/>
<path opacity="0.1" d="M820.718 562.953C820.382 562.848 820.07 562.678 819.801 562.453C819.532 562.229 819.311 561.953 819.15 561.643C817 557.413 777.163 551.354 777.163 551.354L768.556 535.621C768.556 535.621 747.72 537.13 744.043 533.227C740.365 529.324 720.443 528.685 720.604 527.48C720.64 526.878 720.621 526.274 720.548 525.676H720.604L726.561 521.134C726.561 521.134 808.999 509.025 819.102 552.608C819.923 556.007 820.464 559.467 820.718 562.953V562.953Z" fill="black"/>
<path opacity="0.1" d="M761.541 362.815C761.541 362.815 718.333 403.372 718.948 389.755C718.98 387.797 718.771 385.843 718.325 383.936L718.447 383.481C718.447 383.481 729.39 372.186 732.146 367.037C734.053 363.493 749.118 357.459 758.219 354.114C760.07 359.215 761.541 362.815 761.541 362.815Z" fill="black"/>
<path d="M765.218 352.526C765.218 352.526 734.878 362.823 732.081 367.963C729.285 373.104 718.447 384.407 718.447 384.407L708.554 426.369L714.373 484.176C714.373 484.176 715.909 495.072 713.759 498.999C711.609 502.926 711.003 511.715 715.602 513.83C720.2 515.945 720.839 524.423 720.669 525.636C720.499 526.849 740.422 527.448 744.107 531.383C747.793 535.318 768.621 533.778 768.621 533.778L777.163 549.511C777.163 549.511 817 555.561 819.15 559.8C821.3 564.038 833.852 559.193 825.616 547.691C817.38 536.188 821.631 518.037 821.631 518.037C821.631 518.037 819.207 438.143 806.275 419.377C806.275 419.377 787.888 375.802 784.825 373.982C781.762 372.162 763.375 359.486 765.218 352.526Z" fill="#DCE6F2"/>
<path opacity="0.1" d="M765.218 490.075C765.218 490.075 819.756 533.179 816.079 541.065C812.402 548.952 765.218 490.075 765.218 490.075Z" fill="black"/>
<path opacity="0.1" d="M768.451 515.937C768.451 515.937 800.286 531.622 795.857 541.792L768.451 515.937Z" fill="black"/>
<path opacity="0.1" d="M730.287 476.872C730.287 476.872 747.445 476.074 748.068 479.219L730.287 476.872Z" fill="black"/>
<path opacity="0.1" d="M726.61 490.075C726.61 490.075 751.737 496.277 751.737 499.909L726.61 490.075Z" fill="black"/>
<path d="M749.312 450.843L720.653 476.737C720.653 476.737 702.064 483.562 699.033 490.075C696.002 496.589 673.292 499.909 672.071 494.992C670.851 490.075 637.14 462.991 637.14 462.991C637.14 462.991 618.753 446.652 614.462 434.567C610.17 422.482 594.256 412.313 594.256 412.313C594.256 412.313 545.844 399.461 553.199 381.605C560.554 363.749 610.146 396.412 610.146 396.412C610.146 396.412 640.793 418.195 645.707 424.861C650.621 431.526 685.536 446.173 685.536 446.173C685.213 443.076 691.509 435.413 697.595 428.796C703.147 422.753 708.522 417.621 708.522 417.621L748.989 450.611L749.312 450.843Z" fill="#FFCACE"/>
<path opacity="0.1" d="M770.116 557.716C770.116 557.716 795.857 588.28 794.362 594.33C792.867 600.381 770.116 557.716 770.116 557.716Z" fill="black"/>
<path opacity="0.1" d="M618.745 587.067C619.359 587.977 621.808 598.242 633.455 604.316L618.745 587.067Z" fill="black"/>
<path opacity="0.1" d="M645.101 595.695C645.101 595.695 644.487 607.669 653.377 610.67C662.267 613.671 645.101 595.695 645.101 595.695Z" fill="black"/>
<path d="M766.778 340.377C766.649 338.11 765.993 335.903 764.862 333.926C763.731 331.95 762.155 330.257 760.256 328.978C761.656 328.435 762.82 327.427 763.549 326.128C764.278 324.828 764.525 323.318 764.248 321.858C763.949 322.848 762.753 323.223 761.735 323.455C761.136 323.59 760.611 323.686 760.118 323.766C761.367 321.421 762.395 318.968 763.189 316.438C764.693 311.05 763.893 305.319 762.616 299.875C760.902 292.524 758.073 284.964 752.012 280.175C749.257 278.184 746.272 276.523 743.121 275.226C740.283 273.802 737.304 272.67 734.231 271.85C731.111 271.131 727.878 271.051 724.694 270.636C718.519 269.838 712.571 267.755 706.323 267.443C700.076 267.132 693.166 268.96 689.965 274.085C688.951 275.633 688.475 277.465 688.607 279.305C688.947 282.538 691.662 285.18 694.758 286.489C697.853 287.798 701.159 287.822 704.287 288.812C707.964 289.977 711.561 291.454 715.238 292.715C717.202 293.386 719.239 294.112 720.693 295.549C723.013 297.832 723.296 301.304 723.854 304.449C724.705 309.24 726.474 313.827 729.067 317.963C729.98 319.424 731.022 320.892 731.257 322.577C731.548 324.628 730.764 327.166 732.437 328.483C733.738 329.497 735.67 328.994 737.124 328.132C738.579 327.27 739.808 326.081 741.448 325.737C743.42 325.322 745.489 326.272 746.944 327.589C748.096 328.625 749.007 329.895 749.615 331.311C750.223 332.728 750.514 334.257 750.468 335.795C750.387 337.703 749.789 339.682 750.468 341.478C751.107 343.131 753.636 344.12 754.816 342.979C754.909 343.18 755.014 343.374 755.131 343.562C756.368 345.43 758.712 346.3 760.967 346.523C762.084 346.703 763.23 346.556 764.264 346.1C766.277 345.062 766.883 342.564 766.778 340.377Z" fill="#FFDFCF"/>
<path opacity="0.1" d="M230.204 543.484H222.203C222.203 543.484 217.305 530.473 217.612 518.675C217.717 514.572 221.023 511.3 225.274 508.793L230.204 543.484Z" fill="black"/>
<g opacity="0.1">
<path opacity="0.1" d="M428.839 101.765C429.138 99.9529 429.461 98.0851 429.865 96.2412C429.031 99.2517 428.38 102.309 427.918 105.397C427.037 110.777 426.107 116.205 424.838 121.521C426.511 115.007 427.847 108.413 428.839 101.765Z" fill="black"/>
<path opacity="0.1" d="M541.003 130.397C539.152 131.547 536.962 132.113 535.054 133.135C533.147 134.157 531.337 135.881 531.224 138.044C531.2 138.419 531.2 138.795 531.224 139.17C531.988 138.168 532.972 137.35 534.101 136.775C536.024 135.753 538.19 135.178 540.041 134.037C541.578 133.013 542.862 131.662 543.799 130.083C544.736 128.504 545.303 126.737 545.456 124.913C544.589 127.156 543.032 129.074 541.003 130.397Z" fill="black"/>
<path opacity="0.1" d="M526.9 142.163C525.501 141.652 524.03 140.894 522.608 141.365C522.411 142.773 521.663 144.049 520.523 144.917L514.922 138.14C514.764 137.914 514.549 137.733 514.299 137.613C513.734 137.413 513.176 137.876 512.683 138.204C510.8 139.425 508.222 138.802 506.314 137.613C504.407 136.424 502.855 134.723 500.891 133.622C499.013 132.602 496.87 132.159 494.735 132.351C492.601 132.543 490.574 133.361 488.913 134.7C487.381 136.134 486.025 137.742 484.872 139.489C483.284 141.846 481.203 143.841 478.77 145.34C476.289 146.729 473.161 147.24 470.551 146.138C469.73 145.69 468.873 145.311 467.989 145.005C465.217 144.334 462.743 146.737 460.965 148.94C459.187 151.143 456.924 153.625 454.071 153.21C448.826 152.412 449.303 143.304 444.268 141.66C442.085 140.95 439.717 142.019 437.891 143.4C436.064 144.781 434.464 146.513 432.363 147.391C427.368 149.562 421.686 146.417 417.58 142.873C417.359 142.691 417.155 142.488 416.974 142.267C416.748 142.658 416.53 143.065 416.295 143.432C415.877 143.939 415.672 144.584 415.722 145.236C415.888 145.748 416.216 146.193 416.659 146.505C420.765 150.049 426.447 153.194 431.441 151.023C433.543 150.105 435.143 148.373 436.969 146.992C438.796 145.611 441.164 144.542 443.346 145.252C448.381 146.896 447.905 156.02 453.15 156.802C455.971 157.217 458.274 154.735 460.044 152.532C461.814 150.329 464.303 147.926 467.067 148.597C467.953 148.9 468.81 149.28 469.629 149.73C472.24 150.863 475.368 150.353 477.857 148.932C480.285 147.43 482.363 145.436 483.951 143.081C485.101 141.32 486.458 139.699 487.992 138.252C489.645 136.916 491.663 136.096 493.789 135.899C495.916 135.701 498.053 136.134 499.929 137.142C501.893 138.244 503.453 139.936 505.353 141.133C507.252 142.331 509.838 142.945 511.721 141.724C512.23 141.397 512.788 140.926 513.338 141.133C513.587 141.253 513.802 141.435 513.96 141.66L519.561 148.437C520.701 147.569 521.45 146.293 521.646 144.885C523.069 144.446 524.548 145.204 525.946 145.683C527.344 146.162 529.179 146.314 529.987 145.076C530.553 144.206 530.302 143.105 530.262 142.043C529.74 142.292 529.172 142.431 528.593 142.451C528.015 142.472 527.438 142.374 526.9 142.163V142.163Z" fill="black"/>
</g>
<path opacity="0.1" d="M748.997 450.587C748.512 451.002 748.005 451.391 747.478 451.752C747.478 451.752 704.642 429.203 697.603 428.796C703.155 422.753 708.53 417.621 708.53 417.621L748.997 450.587Z" fill="black"/>
<path opacity="0.1" d="M751.155 374.636C751.155 374.636 789.141 399.166 775.636 421.851C762.131 444.537 751.155 451.753 751.155 451.753C751.155 451.753 706.388 428.181 700.868 428.796C695.348 429.41 720.265 385.317 720.265 385.317L751.155 374.636Z" fill="black"/>
<path d="M749.312 373.727C749.312 373.727 787.298 398.256 773.793 420.941C760.288 443.627 749.312 450.843 749.312 450.843C749.312 450.843 704.545 427.279 699.049 427.886C693.553 428.492 718.447 384.407 718.447 384.407L749.312 373.727Z" fill="#DCE6F2"/>
<g opacity="0.1">
<path opacity="0.1" d="M762.898 345.166C760.652 344.935 758.308 344.065 757.063 342.197C756.942 342.005 756.845 341.806 756.748 341.614C755.568 342.756 753.038 341.766 752.4 340.114C751.705 338.318 752.311 336.338 752.4 334.43C752.448 332.892 752.158 331.362 751.55 329.945C750.941 328.529 750.029 327.259 748.876 326.225C747.405 324.907 745.36 323.958 743.38 324.373C741.764 324.716 740.47 325.905 739.056 326.767C737.642 327.629 735.67 328.132 734.368 327.119C732.703 325.802 733.479 323.263 733.188 321.212C732.954 319.527 731.911 318.059 730.998 316.598C728.409 312.46 726.64 307.874 725.785 303.084C725.227 299.939 724.977 296.467 722.633 294.184C721.178 292.747 719.142 292.021 717.178 291.35C713.525 290.089 709.904 288.612 706.218 287.447C703.099 286.457 699.753 286.401 696.697 285.124C693.642 283.847 690.878 281.133 690.539 277.94C690.405 276.1 690.885 274.266 691.905 272.72C692.148 272.325 692.418 271.946 692.713 271.586C691.663 272.414 690.763 273.413 690.054 274.54C689.034 276.083 688.557 277.915 688.696 279.752C689.036 282.985 691.751 285.627 694.847 286.936C697.942 288.245 701.248 288.269 704.376 289.259C708.053 290.424 711.649 291.901 715.327 293.162C717.291 293.841 719.368 294.559 720.782 295.996C723.102 298.287 723.385 301.759 723.942 304.904C724.794 309.693 726.563 314.277 729.155 318.41C730.069 319.871 731.103 321.339 731.346 323.032C731.637 325.083 730.853 327.621 732.526 328.931C733.819 329.952 735.759 329.449 737.213 328.587C738.668 327.725 739.897 326.528 741.537 326.193C743.509 325.778 745.578 326.727 747.033 328.052C748.185 329.088 749.097 330.358 749.705 331.774C750.314 333.19 750.604 334.72 750.557 336.258C750.476 338.166 749.878 340.146 750.557 341.934C751.195 343.586 753.717 344.584 754.905 343.434C754.994 343.636 755.1 343.831 755.22 344.017C756.457 345.885 758.801 346.755 761.048 346.986C762.168 347.164 763.317 347.014 764.353 346.555C765.097 346.159 765.696 345.542 766.067 344.791C765.063 345.193 763.969 345.323 762.898 345.166Z" fill="black"/>
<path opacity="0.1" d="M762.155 327.606L762.616 327.925C762.884 327.643 763.128 327.338 763.343 327.015C762.971 327.256 762.572 327.454 762.155 327.606Z" fill="black"/>
</g>
<path opacity="0.1" d="M168.319 108.893C168.319 108.893 197.819 107.137 194.343 127.555C194.343 127.555 195.03 131.163 191.725 132.8C191.725 132.8 191.668 131.291 188.694 131.802C187.626 131.981 186.541 132.032 185.461 131.954C184.015 131.859 182.641 131.298 181.549 130.357V130.357C181.549 130.357 173.249 126.973 170.024 113.595C170.024 113.595 167.6 110.673 167.737 109.923L172.716 112.022C172.716 112.022 171.01 115.566 172.352 118.52C172.352 118.52 172.514 112.134 173.467 112.301C173.661 112.301 176.053 113.531 176.053 113.531C176.053 113.531 173.128 119.709 175.334 124.203C175.334 124.203 174.526 116.588 176.951 113.978L180.458 115.997C180.458 115.997 177.039 122.383 179.359 127.587C179.359 127.587 178.761 119.605 181.194 116.492L184.37 118.935C184.37 118.935 181.137 125.225 183.117 129.543C183.117 129.543 183.376 120.244 185.057 119.541C185.057 119.541 187.837 121.936 188.29 122.958C188.29 122.958 186.083 127.524 187.482 129.934C187.482 129.934 188.29 123.74 189.009 123.716C189.009 123.716 191.773 127.819 192.064 130.629C191.927 128.028 191.105 125.508 189.68 123.317C191.276 123.617 192.748 124.372 193.915 125.488C193.915 125.488 193.487 122.583 188.993 122.295C188.993 122.295 186.706 119.182 186.092 118.999C186.092 118.999 190.561 118.623 193.268 119.797C193.268 119.797 190.884 117.059 185.275 118.304L182.139 115.774C182.139 115.774 188.023 114.975 190.512 115.862C190.512 115.862 187.643 113.467 181.299 115.199L177.88 113.187C177.88 113.187 182.899 112.118 185.881 112.501C185.881 112.501 182.729 110.825 176.878 112.645L174.453 111.559C174.453 111.559 178.131 110.849 179.206 110.761C180.28 110.673 180.337 110.354 180.337 110.354C178.01 109.97 175.62 110.233 173.435 111.112C173.435 111.112 168.23 109.172 168.319 108.893Z" fill="#51E8B5"/>
<path opacity="0.1" d="M777.446 81.1709C777.446 81.1709 806.954 79.4148 803.479 99.8332C803.479 99.8332 804.166 103.441 800.852 105.086C800.852 105.086 800.804 103.569 797.829 104.08C796.762 104.257 795.677 104.311 794.597 104.239C793.149 104.143 791.773 103.582 790.677 102.643V102.643C790.677 102.643 782.384 99.2585 779.16 85.8804C779.16 85.8804 776.775 82.9589 776.872 82.2086L781.851 84.3079C781.851 84.3079 780.146 87.86 781.487 90.8054C781.487 90.8054 781.649 84.4196 782.603 84.5873C782.797 84.5873 785.189 85.8165 785.189 85.8165C785.189 85.8165 782.263 92.0027 784.47 96.4887C784.47 96.4887 783.661 88.8737 786.086 86.2635L789.594 88.283C789.594 88.283 786.175 94.6688 788.495 99.8811C788.495 99.8811 787.896 91.8989 790.329 88.7779L793.505 91.2284C793.505 91.2284 790.273 97.5184 792.253 101.837C792.253 101.837 792.511 92.5375 794.192 91.8351C794.192 91.8351 796.973 94.2297 797.425 95.2515C797.425 95.2515 795.219 99.8173 796.617 102.228C796.617 102.228 797.425 96.0257 798.145 96.0018C798.145 96.0018 800.909 100.105 801.2 102.922C801.052 100.318 800.216 97.7971 798.775 95.6107C800.371 95.9058 801.844 96.6581 803.01 97.7738C803.01 97.7738 802.582 94.8763 798.088 94.581C798.088 94.581 795.801 91.4679 795.187 91.2763C795.187 91.2763 799.656 90.9091 802.363 92.0745C802.363 92.0745 799.979 89.3367 794.37 90.5819L791.267 88.1393C791.267 88.1393 797.151 87.3411 799.64 88.2192C799.64 88.2192 796.771 85.8245 790.426 87.5646L787.007 85.5451C787.007 85.5451 792.018 84.4755 795.009 84.8666C795.009 84.8666 791.857 83.1824 786.005 85.0023L783.581 83.9247C783.581 83.9247 787.258 83.2063 788.333 83.1265C789.408 83.0467 789.464 82.7194 789.464 82.7194C787.137 82.3359 784.747 82.5984 782.562 83.4777C782.562 83.4777 777.365 81.4982 777.446 81.1709Z" fill="#51E8B5"/>
<path opacity="0.1" d="M309.094 53.2173C309.094 53.2173 331.069 72.7497 313.903 84.6272C313.903 84.6272 311.777 87.6445 308.245 86.4711C308.245 86.4711 309.296 85.3696 306.839 83.6374C305.971 83.0144 305.179 82.2938 304.479 81.4902C303.525 80.4063 302.957 79.0437 302.862 77.6109V77.6109C302.862 77.6109 299.476 69.3972 306.903 57.7352C306.903 57.7352 307.34 54.0075 307.946 53.5446L309.926 58.5254C309.926 58.5254 306.176 59.8186 304.988 62.8279C304.988 62.8279 309.692 58.4696 310.249 59.2518C310.371 59.4115 311.179 61.9338 311.179 61.9338C311.179 61.9338 304.697 64.1928 303.024 68.9183C303.024 68.9183 307.922 62.9795 311.543 62.8917L312.545 66.7711C312.545 66.7711 305.538 68.8464 303.412 74.1306C303.412 74.1306 308.754 68.1121 312.706 67.6411L313.167 71.6322C313.167 71.6322 306.378 73.7794 304.632 78.1936C304.632 78.1936 311.526 71.8078 313.216 72.5422C313.216 72.5422 313.418 76.19 312.997 77.1878C312.997 77.1878 308.148 78.8481 307.38 81.4982C307.38 81.4982 312.44 77.7386 312.941 78.2016C312.941 78.2016 311.922 83.0308 310.096 85.2099C311.875 83.2885 313.115 80.9414 313.692 78.4011C314.599 79.7333 315.09 81.2982 315.107 82.9031C315.107 82.9031 316.893 80.5643 313.927 77.2277C313.927 77.2277 314.565 73.4282 314.274 72.8695C314.274 72.8695 317.677 75.751 318.72 78.457C318.72 78.457 319.027 74.857 314.185 71.7839L313.814 67.7928C313.814 67.7928 318.509 71.3768 319.625 73.7475C319.625 73.7475 319.358 70.0278 313.628 66.795L312.69 62.9795C312.69 62.9795 316.982 65.7573 318.8 68.136C318.8 68.136 317.798 64.7356 312.375 61.8939L311.429 59.4035C311.429 59.4035 314.525 61.4868 315.357 62.1653C316.19 62.8438 316.448 62.6762 316.448 62.6762C315.092 60.7707 313.225 59.2756 311.058 58.3578C311.058 58.3578 308.803 53.3849 309.094 53.2173Z" fill="#51E8B5"/>
<path opacity="0.1" d="M616.151 171.418C616.151 171.418 638.126 190.942 620.952 202.828C620.952 202.828 618.834 205.845 615.294 204.664C615.294 204.664 616.353 203.562 613.896 201.83C613.022 201.213 612.23 200.492 611.536 199.683C610.583 198.598 610.015 197.236 609.919 195.803V195.803C609.919 195.803 606.541 187.598 613.961 175.928C613.961 175.928 614.389 172.2 614.995 171.737L616.975 176.718C616.975 176.718 613.225 178.011 612.037 181.02C612.037 181.02 616.741 176.67 617.307 177.444C617.42 177.604 618.236 180.126 618.236 180.126C618.236 180.126 611.762 182.401 610.057 187.119C610.057 187.119 614.963 181.188 618.575 181.092L619.578 184.979C619.578 184.979 612.578 187.047 610.445 192.339C610.445 192.339 615.787 186.312 619.739 185.842L620.208 189.793C620.208 189.793 613.411 191.948 611.673 196.354C611.673 196.354 618.559 190.008 620.248 190.703C620.248 190.703 620.459 194.359 620.038 195.356C620.038 195.356 615.189 197.009 614.381 199.659C614.381 199.659 619.44 195.899 619.941 196.37C619.941 196.37 618.923 201.159 617.096 203.37C618.878 201.45 620.121 199.103 620.701 196.562C621.605 197.894 622.094 199.459 622.107 201.064C622.107 201.064 623.902 198.725 620.927 195.388C620.927 195.388 621.574 191.597 621.275 191.03C621.275 191.03 624.677 193.912 625.728 196.618C625.728 196.618 626.027 193.018 621.194 189.944L620.814 185.953C620.814 185.953 625.518 189.529 626.633 191.9C626.633 191.9 626.367 188.18 620.636 184.956L619.691 181.132C619.691 181.132 623.982 183.918 625.801 186.289C625.801 186.289 624.799 182.888 619.384 180.054L618.454 177.572C618.454 177.572 621.542 179.655 622.382 180.342C623.223 181.028 623.465 180.853 623.465 180.853C622.108 178.946 620.242 177.448 618.074 176.526C618.074 176.526 615.852 171.577 616.151 171.418Z" fill="#51E8B5"/>
<path opacity="0.1" d="M854.752 55.4602C854.752 55.4602 876.719 74.9847 859.553 86.8701C859.553 86.8701 857.435 89.8874 853.895 88.7061C853.895 88.7061 854.946 87.6045 852.489 85.8724C851.619 85.2516 850.827 84.5308 850.129 83.7252C849.174 82.6422 848.606 81.2791 848.513 79.8458C848.513 79.8458 845.126 71.6401 852.554 59.9701C852.554 59.9701 852.99 56.2425 853.596 55.7875L855.577 60.7604C855.577 60.7604 851.826 62.0535 850.638 65.0628C850.638 65.0628 855.342 60.7125 855.908 61.4868C856.021 61.6464 856.837 64.1688 856.837 64.1688C856.837 64.1688 850.323 66.4517 848.634 71.1532C848.634 71.1532 853.532 65.2224 857.152 65.1266L858.155 69.014C858.155 69.014 851.147 71.0893 849.022 76.3736C849.022 76.3736 854.364 70.347 858.316 69.8761L858.777 73.8272C858.777 73.8272 851.988 75.9824 850.25 80.3886C850.25 80.3886 857.136 74.0428 858.825 74.7372C858.825 74.7372 859.028 78.393 858.607 79.3908C858.607 79.3908 853.758 81.0431 852.95 83.7012C852.95 83.7012 858.009 79.9416 858.51 80.4046C858.51 80.4046 857.492 85.2338 855.665 87.405C857.446 85.4849 858.686 83.1372 859.262 80.5961C860.166 81.9291 860.658 83.4936 860.676 85.0981C860.676 85.0981 862.462 82.7593 859.496 79.4228C859.496 79.4228 860.135 75.6312 859.844 75.0645C859.844 75.0645 863.246 77.946 864.289 80.652C864.289 80.652 864.596 77.052 859.755 73.9709L859.383 69.9798C859.383 69.9798 864.079 73.5558 865.194 75.9266C865.194 75.9266 864.928 72.2069 859.205 68.982L858.26 65.1666C858.26 65.1666 862.551 67.9444 864.37 70.3151C864.37 70.3151 863.368 66.9226 857.904 64.081L856.975 61.5985C856.975 61.5985 860.07 63.6899 860.903 64.3683C861.735 65.0468 861.994 64.8792 861.994 64.8792C860.636 62.9725 858.77 61.4749 856.603 60.5528C856.603 60.5528 854.453 55.6198 854.752 55.4602Z" fill="#51E8B5"/>
<path opacity="0.1" d="M278.713 141.899C278.713 141.899 276.595 171.018 256.552 164.928C256.552 164.928 252.842 165.136 251.63 161.671C251.63 161.671 253.157 161.823 253.036 158.846C252.994 157.775 253.084 156.703 253.303 155.653C253.59 154.249 254.333 152.977 255.42 152.029V152.029C255.42 152.029 259.906 144.35 273.775 142.953C273.775 142.953 277.008 140.997 277.759 141.189L274.995 145.787C274.995 145.787 271.657 143.655 268.529 144.581C268.529 144.581 274.898 145.571 274.623 146.489C274.567 146.681 273.007 148.884 273.007 148.884C273.007 148.884 267.188 145.212 262.395 146.785C262.395 146.785 270.146 146.96 272.441 149.722L269.952 152.915C269.952 152.915 263.995 148.724 258.459 150.313C258.459 150.313 266.541 150.776 269.362 153.569L266.485 156.355C266.485 156.355 260.593 152.364 255.978 153.737C255.978 153.737 265.28 155.206 265.765 156.93C265.765 156.93 262.969 159.325 261.91 159.612C261.91 159.612 257.618 156.858 255.024 157.88C255.024 157.88 261.126 159.516 261.07 160.187C261.07 160.187 256.584 162.358 253.723 162.27C256.352 162.482 258.991 162.009 261.377 160.897C260.867 162.42 259.917 163.763 258.645 164.76C258.645 164.76 261.611 164.721 262.46 160.362C262.46 160.362 265.878 158.526 266.153 157.968C266.153 157.968 265.935 162.39 264.391 164.888C264.391 164.888 267.454 162.917 266.937 157.257L269.887 154.519C269.887 154.519 269.887 160.386 268.707 162.709C268.707 162.709 271.512 160.219 270.574 153.769L273.047 150.688C273.047 150.688 273.46 155.741 272.684 158.614C272.684 158.614 274.777 155.749 273.726 149.786L275.133 147.535C275.133 147.535 275.367 151.223 275.335 152.324C275.302 153.426 275.593 153.49 275.593 153.49C276.282 151.261 276.332 148.888 275.739 146.633C275.739 146.633 278.398 141.772 278.713 141.899Z" fill="#51E8B5"/>
<path opacity="0.1" d="M618.091 109.204C618.091 109.204 615.973 138.324 595.937 132.233C595.937 132.233 592.22 132.433 591.015 128.976C591.015 128.976 592.535 129.12 592.413 126.143C592.376 125.072 592.466 124 592.68 122.95C592.967 121.546 593.711 120.274 594.798 119.326V119.326C594.798 119.326 599.291 111.647 613.152 110.25C613.152 110.25 616.385 108.302 617.137 108.486L614.373 113.092C614.373 113.092 611.035 110.961 607.907 111.879C607.907 111.879 614.276 112.876 614.001 113.794C613.944 113.978 612.433 116.189 612.433 116.189C612.433 116.189 606.614 112.509 601.813 114.082C601.813 114.082 609.564 114.257 611.859 117.027L609.37 120.22C609.37 120.22 603.413 116.029 597.885 117.618C597.885 117.618 605.967 118.089 608.78 120.874L605.911 123.668C605.911 123.668 600.019 119.677 595.404 121.042C595.404 121.042 604.706 122.519 605.191 124.235C605.191 124.235 602.395 126.63 601.344 126.925C601.344 126.925 597.045 124.171 594.45 125.185C594.45 125.185 600.56 126.821 600.496 127.5C600.496 127.5 596.01 129.671 593.149 129.583C595.778 129.791 598.416 129.318 600.803 128.21C600.291 129.732 599.342 131.075 598.071 132.073C598.071 132.073 601.037 132.073 601.886 127.667C601.886 127.667 605.313 125.839 605.579 125.273C605.579 125.273 605.361 129.695 603.817 132.185C603.817 132.185 606.881 130.214 606.363 124.554L609.313 121.816C609.313 121.816 609.313 127.683 608.133 130.006C608.133 130.006 610.938 127.516 610 121.066L612.473 117.993C612.473 117.993 612.886 123.038 612.11 125.911C612.11 125.911 614.211 123.046 613.152 117.083L614.559 114.832C614.559 114.832 614.793 118.528 614.761 119.621C614.728 120.715 615.019 120.787 615.019 120.787C615.713 118.559 615.763 116.184 615.165 113.93C615.165 113.93 617.775 109.069 618.091 109.204Z" fill="#51E8B5"/>
<path opacity="0.1" d="M813.008 0.694231C813.008 0.694231 810.898 29.8133 790.855 23.7229C790.855 23.7229 787.145 23.9224 785.933 20.4661C785.933 20.4661 787.46 20.6098 787.331 17.6325C787.292 16.5611 787.384 15.4891 787.606 14.4396C787.893 13.036 788.636 11.7634 789.723 10.8157V10.8157C789.723 10.8157 794.209 3.13678 808.07 1.7399C808.07 1.7399 811.302 -0.207758 812.054 -0.0241679L809.298 4.58156C809.298 4.58156 805.96 2.45031 802.832 3.36827C802.832 3.36827 809.201 4.36604 808.926 5.28399C808.87 5.46759 807.31 7.67865 807.31 7.67865C807.31 7.67865 801.491 3.99886 796.69 5.57135C796.69 5.57135 804.441 5.74696 806.736 8.51678L804.255 11.7097C804.255 11.7097 798.355 7.51901 792.802 9.11545C792.802 9.11545 800.884 9.5864 803.697 12.3722L800.828 15.166C800.828 15.166 794.936 11.1749 790.321 12.5398C790.321 12.5398 799.616 14.0165 800.101 15.7327C800.101 15.7327 797.304 18.1273 796.253 18.4227C796.253 18.4227 791.962 15.6688 789.359 16.6826C789.359 16.6826 795.469 18.3189 795.405 18.9974C795.405 18.9974 790.919 21.1686 788.058 21.0808C790.687 21.2887 793.325 20.8154 795.712 19.7078C795.204 21.2319 794.254 22.5752 792.98 23.5712C792.98 23.5712 795.954 23.5712 796.795 19.165C796.795 19.165 800.222 17.3371 800.488 16.7704C800.488 16.7704 800.278 21.1925 798.727 23.683C798.727 23.683 801.79 21.7114 801.281 16.052L804.231 13.3141C804.231 13.3141 804.231 19.181 803.042 21.5038C803.042 21.5038 805.855 19.0134 804.917 12.5638L807.391 9.49061C807.391 9.49061 807.803 14.5354 807.019 17.409C807.019 17.409 809.12 14.5433 808.061 8.58064L809.468 6.32966C809.468 6.32966 809.702 10.0254 809.678 11.119C809.654 12.2125 809.936 12.2844 809.936 12.2844C810.625 10.0559 810.675 7.68269 810.082 5.42767C810.082 5.42767 812.733 0.558534 813.008 0.694231Z" fill="#51E8B5"/>
<path opacity="0.1" d="M624.766 476.737L653.781 477.958" stroke="black" stroke-miterlimit="10"/>
<path opacity="0.1" d="M620.046 481.853L649.061 483.075" stroke="black" stroke-miterlimit="10"/>
<path opacity="0.1" d="M615.326 486.962L644.341 488.183" stroke="black" stroke-miterlimit="10"/>
<path opacity="0.1" d="M610.598 492.079L639.613 493.3" stroke="black" stroke-miterlimit="10"/>
<path opacity="0.1" d="M605.878 497.187L634.893 498.416" stroke="black" stroke-miterlimit="10"/>
<path opacity="0.1" d="M601.158 502.304L630.173 503.525" stroke="black" stroke-miterlimit="10"/>
<path opacity="0.1" d="M596.43 507.42L625.445 508.642" stroke="black" stroke-miterlimit="10"/>
<path opacity="0.1" d="M591.71 512.529L620.725 513.75" stroke="black" stroke-miterlimit="10"/>
</g>
<defs>
<linearGradient id="paint0_linear" x1="422.349" y1="653.902" x2="422.349" y2="69.1817" gradientUnits="userSpaceOnUse">
<stop stop-color="#808080" stop-opacity="0.25"/>
<stop offset="0.54" stop-color="#808080" stop-opacity="0.12"/>
<stop offset="1" stop-color="#808080" stop-opacity="0.1"/>
</linearGradient>
<clipPath id="clip0">
<rect width="876" height="660" fill="white"/>
</clipPath>
</defs>
</svg>
