<svg width="545" height="400" viewBox="0 0 545 400" fill="none" xmlns="http://www.w3.org/2000/svg">
<g clip-path="url(#clip0)">
<path d="M140.376 352.868C140.376 352.868 143 342.159 161.368 345.728C179.737 349.298 182.361 352.868 182.361 352.868H140.376Z" fill="#3F3D56"/>
<path d="M49.8477 338.844C49.8477 338.844 52.4717 328.135 70.8398 331.705C89.208 335.275 91.832 338.844 91.832 338.844H49.8477Z" fill="#3F3D56"/>
<path d="M203.353 352.868C203.353 352.868 188.658 344.199 182.361 352.868H203.353Z" fill="#3F3D56"/>
<path d="M134.866 328.39C134.866 328.39 120.171 319.722 113.874 328.39H134.866Z" fill="#3F3D56"/>
<path d="M52.4325 320.426C56.8073 328.309 66.0923 331.693 66.0923 331.693C66.0923 331.693 68.2842 322.296 63.9094 314.412C59.5346 306.529 50.2496 303.145 50.2496 303.145C50.2496 303.145 48.0576 312.542 52.4325 320.426Z" fill="#3F3D56"/>
<path d="M55.4395 317.832C63.3379 322.449 66.3798 331.621 66.3798 331.621C66.3798 331.621 56.6159 333.306 48.7175 328.688C40.8191 324.071 37.7772 314.9 37.7772 314.9C37.7772 314.9 47.5411 313.215 55.4395 317.832Z" fill="#51E8B5"/>
<path d="M489.108 346.493C489.108 346.493 491.732 335.785 510.101 339.354C528.469 342.924 531.093 346.493 531.093 346.493H489.108Z" fill="#3F3D56"/>
<path d="M447.124 352.868C434.362 350.926 422.092 349.275 410.313 347.914L414.849 339.099C413.274 338.589 406.452 343.689 406.452 343.689L412.225 318.192C404.353 319.212 400.679 345.219 400.679 345.219L391.757 336.55L396.149 346.364C360.105 342.684 329.002 341.536 302.857 341.799L306.739 334.255C305.165 333.745 298.342 338.844 298.342 338.844L304.115 313.347C296.243 314.367 292.569 340.374 292.569 340.374L283.648 331.705L288.299 342.101C270.39 342.606 252.519 344.005 234.757 346.29C238.631 334.564 252.159 323.291 252.159 323.291C241.758 326.436 236.346 331.558 233.545 336.307C232.978 312.216 236.793 288.216 244.812 265.413C244.812 265.413 223.82 311.308 226.969 341.904L227.368 347.339C209.106 350.107 199.942 352.868 199.942 352.868H447.124Z" fill="#3F3D56"/>
<path d="M310.15 376.07C310.15 376.07 406.714 362.302 466.542 376.07Z" fill="#3F3D56"/>
<path d="M167.929 394.938C167.929 394.938 264.492 381.169 324.32 394.938Z" fill="#3F3D56"/>
<path d="M346.887 400C346.887 400 404.08 385.906 439.514 400Z" fill="#3F3D56"/>
<path d="M506.631 343.413L505.698 342.945C517.812 320.189 511.334 290.637 503.767 269.854C498.63 255.884 492.076 242.445 484.204 229.734L485.091 229.19C493.004 241.965 499.592 255.473 504.757 269.513C512.393 290.487 518.916 320.333 506.631 343.413Z" fill="#3F3D56"/>
<path d="M515.615 229.373L508.806 265.581L509.838 265.764L516.647 229.556L515.615 229.373Z" fill="#3F3D56"/>
<path d="M470.337 260.221L469.569 260.916L504.731 297.632L505.499 296.937L470.337 260.221Z" fill="#3F3D56"/>
<path d="M533.55 300.552L515.715 324.525L516.565 325.123L534.4 301.15L533.55 300.552Z" fill="#3F3D56"/>
<path d="M518.76 219.773C521.658 219.773 524.008 217.49 524.008 214.674C524.008 211.858 521.658 209.574 518.76 209.574C515.861 209.574 513.512 211.858 513.512 214.674C513.512 217.49 515.861 219.773 518.76 219.773Z" fill="#51E8B5"/>
<path d="M461.556 259.039C464.455 259.039 466.804 256.756 466.804 253.939C466.804 251.123 464.455 248.84 461.556 248.84C458.658 248.84 456.308 251.123 456.308 253.939C456.308 256.756 458.658 259.039 461.556 259.039Z" fill="#3F3D56"/>
<path d="M484.648 264.138C487.546 264.138 489.896 261.855 489.896 259.039C489.896 256.222 487.546 253.939 484.648 253.939C481.749 253.939 479.4 256.222 479.4 259.039C479.4 261.855 481.749 264.138 484.648 264.138Z" fill="#3F3D56"/>
<path d="M474.151 284.026C477.05 284.026 479.4 281.743 479.4 278.926C479.4 276.11 477.05 273.827 474.151 273.827C471.253 273.827 468.903 276.11 468.903 278.926C468.903 281.743 471.253 284.026 474.151 284.026Z" fill="#51E8B5"/>
<path d="M539.752 296.774C542.65 296.774 545 294.491 545 291.675C545 288.859 542.65 286.575 539.752 286.575C536.854 286.575 534.504 288.859 534.504 291.675C534.504 294.491 536.854 296.774 539.752 296.774Z" fill="#3F3D56"/>
<path d="M522.433 302.384C525.332 302.384 527.682 300.101 527.682 297.284C527.682 294.468 525.332 292.185 522.433 292.185C519.535 292.185 517.185 294.468 517.185 297.284C517.185 300.101 519.535 302.384 522.433 302.384Z" fill="#3F3D56"/>
<path d="M534.504 318.702C537.402 318.702 539.752 316.419 539.752 313.602C539.752 310.786 537.402 308.503 534.504 308.503C531.606 308.503 529.256 310.786 529.256 313.602C529.256 316.419 531.606 318.702 534.504 318.702Z" fill="#3F3D56"/>
<path d="M479.4 225.893C482.298 225.893 484.648 223.61 484.648 220.793C484.648 217.977 482.298 215.694 479.4 215.694C476.501 215.694 474.151 217.977 474.151 220.793C474.151 223.61 476.501 225.893 479.4 225.893Z" fill="#3F3D56"/>
<path d="M172.274 193.763C172.274 256.796 133.709 278.805 86.1369 278.805C38.5648 278.805 0 256.796 0 193.763C0 130.729 86.1369 50.5402 86.1369 50.5402C86.1369 50.5402 172.274 130.729 172.274 193.763Z" fill="#F2F2F2"/>
<path d="M82.9993 269.163L83.8809 216.41L120.595 151.146L84.0195 208.134L84.4157 184.414L109.719 137.196L84.5207 178.137L85.2344 135.475L112.329 97.884L85.3462 128.767L85.7918 50.5402L82.9914 154.098L83.2213 149.826L55.6738 108.854L82.7799 158.027L80.2131 205.673L80.1365 204.408L48.379 161.291L80.0404 208.875L79.7193 214.834L79.6621 214.924L79.6883 215.413L73.176 336.294H81.8767L82.9206 273.857L114.504 226.389L82.9993 269.163Z" fill="#3F3D56"/>
<path d="M456.394 174.971C456.394 251.978 409.28 278.866 351.163 278.866C293.045 278.866 245.931 251.978 245.931 174.971C245.931 97.9647 351.163 0 351.163 0C351.163 0 456.394 97.9647 456.394 174.971Z" fill="#F2F2F2"/>
<path d="M347.329 267.087L348.407 202.639L393.259 122.908L348.576 192.529L349.061 163.55L379.973 105.866L349.189 155.882L350.06 103.763L383.161 57.8389L350.197 95.5673L350.741 0L347.32 126.514L347.601 121.295L313.947 71.2406L347.062 131.314L343.925 189.521L343.832 187.977L305.035 135.302L343.715 193.434L343.322 200.714L343.253 200.823L343.285 201.421L335.329 349.099H345.958L347.234 272.82L385.818 214.83L347.329 267.087Z" fill="#3F3D56"/>
<path d="M266.163 285.881L270.958 300.303C270.958 300.303 266.62 313.837 268.675 328.925C270.73 344.012 269.588 344.456 269.588 344.456C269.588 344.456 249.055 343.307 251.11 349.298C253.165 355.289 273.242 351.778 273.242 351.778C273.242 351.778 277.098 350.769 278.925 340.119C280.751 329.469 285.344 308.956 285.344 308.956L281.025 289.591L266.163 285.881Z" fill="#FFB8B8"/>
<path d="M267.762 256.371C267.762 256.371 259.085 259.478 259.085 267.909C259.085 276.34 262.281 287.878 264.337 288.543C266.392 289.209 280.092 298.306 282.604 291.872C285.116 285.437 267.762 256.371 267.762 256.371Z" fill="#51E8B5"/>
<path d="M340.375 356.215L358.642 355.55L372.571 353.553L368.461 366.866L334.666 367.753L340.375 356.215Z" fill="#FFB8B8"/>
<path d="M366.634 357.99C366.634 357.99 366.406 353.109 364.351 353.331C362.296 353.553 363.666 351.556 365.492 351.112C367.319 350.669 372.571 348.45 372.571 348.45L393.35 349.781C393.35 349.781 406.822 361.319 401.342 367.531C395.862 373.744 381.705 368.197 381.705 368.197L366.406 368.419C366.406 368.419 361.382 360.431 366.634 357.99Z" fill="#2F2E41"/>
<path d="M374.855 340.906L381.476 371.081L395.177 368.419L387.413 330.7L379.193 326.484L374.855 340.906Z" fill="#FFB8B8"/>
<path d="M296.076 337.134C296.076 337.134 257.715 353.997 273.927 371.081C273.927 371.081 273.927 379.069 291.053 377.516C308.178 375.962 341.288 373.078 342.887 373.966C344.485 374.853 349.508 356.437 345.17 355.55C340.831 354.662 335.58 353.553 335.58 353.553C335.58 353.553 340.146 352.887 340.146 349.115C340.146 349.115 353.162 348.228 357.044 340.24C360.926 332.253 364.579 326.262 364.579 326.262L373.484 348.45C373.484 348.45 383.76 330.034 391.523 338.244C391.523 338.244 382.846 285.215 376.225 280.334C369.603 275.453 365.036 273.9 358.87 278.337C352.705 282.775 346.997 294.09 346.997 294.09L296.076 337.134Z" fill="#2F2E41"/>
<path d="M387.642 361.984C386.045 363.154 384.52 364.414 383.075 365.756C381.248 367.531 378.736 366.644 378.508 365.756C378.28 364.869 374.169 366.422 373.713 372.856C373.256 379.29 370.516 385.059 377.823 387.056C385.13 389.053 384.902 394.822 384.902 394.822C390.683 397.517 397.318 397.915 403.397 395.931C413.673 392.603 410.019 389.053 410.019 389.053L396.319 367.087C396.319 367.087 392.665 360.431 387.642 361.984Z" fill="#2F2E41"/>
<path d="M349.737 251.934C349.737 251.934 371.658 259.256 373.941 260.809C376.225 262.362 386.5 269.684 381.476 273.456C376.453 277.228 372.343 279.668 362.524 276.784C352.705 273.9 341.745 265.025 341.745 265.025L349.737 251.934Z" fill="#FFB8B8"/>
<path d="M327.816 242.171C327.816 242.171 336.493 240.618 342.658 243.946C348.823 247.275 354.075 253.931 354.075 253.931C354.075 253.931 348.367 265.69 344.257 267.465C340.146 269.24 332.611 260.365 332.611 260.365L327.816 242.171Z" fill="#51E8B5"/>
<path d="M287.856 235.737C287.856 235.737 288.084 244.39 287.171 245.278C286.257 246.165 298.131 272.347 311.147 260.809C324.162 249.271 314.115 244.612 314.115 244.612C314.115 244.612 309.32 235.959 309.548 235.071C309.777 234.184 288.313 235.071 288.313 235.071L287.856 235.737Z" fill="#FFB8B8"/>
<path opacity="0.1" d="M287.856 235.737C287.856 235.737 288.084 244.39 287.171 245.278C286.257 246.165 298.131 272.347 311.147 260.809C324.162 249.271 314.115 244.612 314.115 244.612C314.115 244.612 309.32 235.959 309.548 235.071C309.777 234.184 288.313 235.071 288.313 235.071L287.856 235.737Z" fill="black"/>
<path d="M291.509 252.378C291.509 252.378 300.186 258.146 303.84 256.815C307.493 255.484 312.06 249.715 312.517 249.271C312.974 248.828 336.264 294.312 336.264 294.312C336.264 294.312 332.839 310.953 323.706 315.834C314.572 320.715 314.686 324.598 313.544 327.926C312.403 331.254 297.675 317.387 297.675 317.387L288.312 278.781V255.262L291.509 252.378Z" fill="#51E8B5"/>
<path d="M287.742 242.061C287.742 242.061 284.887 241.506 281.919 243.946C278.95 246.387 265.022 255.484 265.707 256.371C266.392 257.259 272.557 269.906 273.927 275.009C275.297 280.112 277.352 280.778 277.352 280.778C277.352 280.778 282.147 284.106 281.462 286.547C280.777 288.987 277.809 322.269 281.919 329.59C286.029 336.912 285.344 343.347 284.202 345.122C283.061 346.897 295.163 340.019 295.163 340.019C295.163 340.019 313.202 325.819 314.572 321.603C315.458 318.705 316.069 315.734 316.399 312.728C316.399 312.728 304.753 267.909 301.1 265.468C297.446 263.028 287.742 242.061 287.742 242.061Z" fill="#575A89"/>
<path d="M312.827 242.236C312.827 242.236 318.454 238.843 319.596 239.731C320.737 240.618 331.469 240.618 331.698 241.506C331.926 242.393 332.383 263.693 340.146 269.24C347.91 274.787 342.886 285.881 342.886 285.881L348.595 294.756C348.595 294.756 317.541 323.819 319.596 313.837C319.71 313.283 319.596 313.172 319.596 313.172C319.596 313.172 307.493 262.806 309.092 260.143C310.69 257.481 313.594 245.407 312.827 242.236Z" fill="#575A89"/>
<path d="M360.697 262.584L329.643 273.012C329.643 273.012 298.816 280.112 303.612 288.322C308.407 296.531 328.729 282.553 328.729 282.553L370.084 278.05C370.084 278.05 386.5 264.581 360.697 262.584Z" fill="#FFB8B8"/>
<path d="M300.186 243.946C309.518 243.946 317.084 236.596 317.084 227.528C317.084 218.46 309.518 211.109 300.186 211.109C290.854 211.109 283.289 218.46 283.289 227.528C283.289 236.596 290.854 243.946 300.186 243.946Z" fill="#FFB8B8"/>
<path d="M286.73 211.21L283.604 210.106C283.604 210.106 290.14 203.755 299.233 204.308L296.675 201.823C296.675 201.823 302.926 199.614 308.609 205.412C311.597 208.46 315.053 212.043 317.208 216.079H320.556L319.158 218.794L324.048 221.509L319.029 221.021C319.505 223.365 319.341 225.789 318.555 228.052L317.418 231.09C317.418 231.09 312.872 222.254 312.872 221.15V223.911C312.872 223.911 309.746 221.426 309.746 219.769L308.041 221.702L307.189 218.665L296.675 221.702L298.38 219.217L291.845 220.045L294.402 217.008C294.402 217.008 287.014 220.598 286.73 223.635C286.446 226.672 282.752 230.537 282.752 230.537L281.047 227.776C281.047 227.776 278.49 215.352 286.73 211.21Z" fill="#2F2E41"/>
</g>
<defs>
<clipPath id="clip0">
<rect width="545" height="400" fill="white"/>
</clipPath>
</defs>
</svg>
