<svg xmlns="http://www.w3.org/2000/svg" viewBox="0 0 138.6 138.6"><defs><style>.cls-1{fill:#f5f0e1;}.cls-2{fill:#ffc13b;}.cls-3{fill:#ff6e40;}.cls-4{fill:#ffd88a;}.cls-5{fill:#ff8240;}</style></defs><title>Blocks</title><g id="Layer_2" data-name="Layer 2"><g id="Layer_1-2" data-name="Layer 1"><g id="combined"><g id="blocks"><g id="square"><path class="cls-1" d="M18.68,18.68V119.92H119.92V18.68ZM111.8,111.8h-85v-85h85Z"/><path id="square-2" data-name="square" class="cls-1" d="M119.92,18.68V119.92H69.3V111.8h42.5v-85H69.3V18.68Z"/></g><g id="block1"><path class="cls-2" d="M48.42,12.65l-1.84.48V39.39L69.32,52.51,92.06,39.39V13.13l-1.84-.48Z"/><path class="cls-3" d="M69.32,12.65V52.51L92.06,39.39V13.13l-1.84-.48Z"/><path class="cls-4" d="M92.06,13.13h0L69.32,26.25,46.58,13.13h0L69.32,0Z"/><path class="cls-5" d="M92.06,13.13h0L69.32,26.25V0Z"/></g><g id="block3"><path class="cls-2" d="M48.42,98.73l-1.84.48v26.26L69.32,138.6l22.74-13.13V99.21l-1.84-.48Z"/><path class="cls-3" d="M69.32,98.73V138.6l22.74-13.13V99.21l-1.84-.48Z"/><path class="cls-4" d="M92.06,99.21h0L69.32,112.34,46.58,99.21h0L69.32,86.08Z"/><path class="cls-5" d="M92.06,99.21h0L69.32,112.34V86.08Z"/></g><g id="block2"><path class="cls-2" d="M1.84,55.69,0,56.17V82.43L22.74,95.55,45.48,82.43V56.17l-1.84-.48Z"/><path class="cls-3" d="M22.74,55.69V95.55L45.48,82.43V56.17l-1.84-.48Z"/><path class="cls-4" d="M45.48,56.17h0L22.74,69.29,0,56.17H0L22.74,43Z"/><path class="cls-5" d="M45.48,56.17h0L22.74,69.29V43Z"/></g><g id="block4"><path class="cls-2" d="M95,55.69l-1.84.48V82.43L115.9,95.55l22.7-13.12V56.17l-1.84-.48Z"/><path class="cls-3" d="M115.86,55.69V95.55L138.6,82.43V56.17l-1.84-.48Z"/><path class="cls-4" d="M138.6,56.17h0L115.86,69.29,93.12,56.17h0L115.86,43Z"/><path class="cls-5" d="M138.6,56.17h0L115.86,69.29V43Z"/></g></g></g></g></g></svg>