<svg xmlns="http://www.w3.org/2000/svg" viewBox="0 0 672.81 391"><defs><style>.cls-1{fill:#f8e5c4;}.cls-2{fill:#edd2a4;}.cls-19,.cls-23,.cls-25,.cls-27,.cls-3,.cls-35,.cls-37,.cls-6{fill:none;}.cls-3{stroke:#edd2a4;}.cls-25,.cls-27,.cls-3,.cls-35,.cls-37,.cls-6{stroke-miterlimit:10;}.cls-19,.cls-23,.cls-3,.cls-35,.cls-37{stroke-width:1.06px;}.cls-4{fill:#874f2e;}.cls-5{fill:#ad6e47;}.cls-6{stroke:#704226;stroke-width:0.79px;}.cls-7{fill:#ffabab;}.cls-33,.cls-8{opacity:0.2;}.cls-9{fill:#3593bf;}.cls-10{fill:#2d7ea3;}.cls-11{font-size:30.42px;letter-spacing:0.05em;}.cls-11,.cls-13,.cls-29,.cls-30{fill:#fff;}.cls-11,.cls-29,.cls-30{font-family:OpenSans-Bold, OpenSans Bold;font-weight:700;}.cls-12{fill:#704226;}.cls-14{fill:#e3e3e3;}.cls-15{fill:#f86c6c;}.cls-16{fill:#a63b3b;}.cls-17{fill:#38856d;}.cls-18{fill:#286150;}.cls-19{stroke:#286150;}.cls-19,.cls-23,.cls-25{stroke-linecap:round;}.cls-19,.cls-23{stroke-linejoin:round;}.cls-20{fill:#b85050;}.cls-21{fill:#638296;}.cls-22{fill:#313f4a;}.cls-23,.cls-37{stroke:#313f4a;}.cls-24{fill:#53786b;}.cls-25{stroke:#a63b3b;stroke-width:0.8px;}.cls-26{fill:#7a2c2c;}.cls-27{stroke:#16367c;stroke-width:0.76px;}.cls-28{fill:#f59d00;}.cls-29{font-size:35.77px;letter-spacing:0.05em;}.cls-30{font-size:16.8px;letter-spacing:0.05em;}.cls-31{fill:#4d4d4d;}.cls-32{fill:#7d7d7d;}.cls-34{fill:#657c8f;}.cls-35{stroke:#657c8f;}.cls-36{fill:#999c48;}.cls-38{fill:#6d9c8b;}.cls-39{fill:#27323b;}</style></defs><title>Coder</title><g id="Layer_2" data-name="Layer 2"><g id="OBJECTS"><path class="cls-1" d="M31.84,364.24H643.09S658,321.7,615.5,277,567.9,125.69,433.05,86.16s-248,.57-281.23,66.51S-5.31,228.71,31.84,364.24Z"/><path class="cls-2" d="M643.09,364.24s9.55-27.36-8.56-61.24c-21.34,12.08-44.67,35.62-83.25,41.94-58.91,9.66-90.12-14.13-146.43-62.32s-172.45,20.3-199.11-34.27c-15.93-32.61-54.67-51.19-83.29-60.87C74.91,227.9,2.24,256.26,31.84,364.24Z"/><line class="cls-3" y1="364.24" x2="672.81" y2="364.24"/><rect class="cls-4" x="173.64" y="231.29" width="122.89" height="143.26"/><rect class="cls-5" x="253.83" y="231.29" width="42.7" height="143.26"/><path class="cls-6" d="M267.77,242.26h14.82a0,0,0,0,1,0,0v.12a2.77,2.77,0,0,1-2.77,2.77h-9.28a2.77,2.77,0,0,1-2.77-2.77v-.12A0,0,0,0,1,267.77,242.26Z"/><line class="cls-6" x1="296.53" y1="267.1" x2="173.64" y2="267.1"/><path class="cls-6" d="M267.77,278.08h14.82a0,0,0,0,1,0,0v.12a2.77,2.77,0,0,1-2.77,2.77h-9.28a2.77,2.77,0,0,1-2.77-2.77v-.12A0,0,0,0,1,267.77,278.08Z"/><line class="cls-6" x1="296.53" y1="302.92" x2="173.64" y2="302.92"/><path class="cls-6" d="M267.77,313.89h14.82a0,0,0,0,1,0,0V314a2.77,2.77,0,0,1-2.77,2.77h-9.28a2.77,2.77,0,0,1-2.77-2.77v-.12A0,0,0,0,1,267.77,313.89Z"/><line class="cls-6" x1="296.53" y1="338.73" x2="173.64" y2="338.73"/><path class="cls-6" d="M267.77,349.71h14.82a0,0,0,0,1,0,0v.12a2.77,2.77,0,0,1-2.77,2.77h-9.28a2.77,2.77,0,0,1-2.77-2.77v-.12A0,0,0,0,1,267.77,349.71Z"/><circle class="cls-7" cx="436.86" cy="152.67" r="121.57"/><rect class="cls-8" x="513.76" y="153.48" width="91" height="40.06"/><rect class="cls-9" x="511.41" y="150.75" width="91" height="40.06"/><polygon class="cls-10" points="522.47 190.81 511.42 190.81 511.42 150.75 531.34 150.75 522.47 190.81"/><text class="cls-11" transform="translate(531.34 178.48)">css</text><polygon class="cls-5" points="452.74 373.36 447.82 373.36 446.71 246.41 453.84 246.41 452.74 373.36"/><polygon class="cls-4" points="461.16 330.81 439.39 330.81 443.24 321.35 457.31 321.35 461.16 330.81"/><path class="cls-12" d="M461.16,330.81H439.4l4.19,7.76a3.11,3.11,0,0,0,2.73,1.63h7.91a3.14,3.14,0,0,0,2.74-1.63Z"/><path class="cls-5" d="M486.3,373.36h-5.18l-26.33-52h3.74a6.54,6.54,0,0,1,6,3.84Z"/><path class="cls-5" d="M414.26,373.36h5.18l26.33-52H442a6.52,6.52,0,0,0-5.94,3.84Z"/><path class="cls-13" d="M396.67,249.68H463c28.65,0,43.86-19.45,49.88-44.22s8.84-39.61,12-54.83-2.48-37.36-21.58-37.36H466.93c-14.5,0-22.32-4.53-29,19.07s-12.67,54.38-16.76,69.94S386,215.63,375,225.72C366.36,233.56,366,249.68,396.67,249.68Z"/><path class="cls-14" d="M495.58,173.72c-3.44-16.19-8.75-30.41-9.55-36-.7-5,3.61-17.27-.07-24.41h-19c-14.5,0-22.32-4.53-29,19.07s-12.67,54.38-16.76,69.94S386,215.63,375,225.72c-8.6,7.84-8.93,24,21.71,24h33.26c-4.2-6.05-8.24-14.94,4.37-14.94h28.92c15.65,0,22.81-4.25,28.65-14.07S499,189.9,495.58,173.72Z"/><path class="cls-15" d="M331.85,325.73s-5.31,31.45-7.23,38c-.84,2.86-10.41,8.74-13.44,9.92s-8.74,1.34-8.74,3.36,14.45,2.35,21.51,1.84,13.94.34,14.11-2-2.52-4-1.85-9.07,13.61-42,13.61-42Z"/><path class="cls-15" d="M403.52,325.73s5.82,30.25,5.29,38c-.21,3-10.42,8.74-13.44,9.92s-8.74,1.34-8.74,3.36,14.45,2.35,21.51,1.84,13.94.34,14.11-2-1.44-4-1.85-9.07c-.45-5.66,1.09-42,1.09-42Z"/><path class="cls-16" d="M405.41,336.21l15.41,7.14c.32-9.3.67-17.62.67-17.62h-18S404.38,330.24,405.41,336.21Z"/><path class="cls-16" d="M330.14,335.63,344.57,341c2.81-8.3,5.25-15.27,5.25-15.27h-18S331.13,330,330.14,335.63Z"/><path class="cls-17" d="M369,330H327.21s16.27-93.74,20.87-109,27.22-26.86,88.78-26.87l-7.81,29-43.48,16.63a64.83,64.83,0,0,0-7.67,22.29c-1.52,12-1.17,17.32-5.06,23.34s-.71,10.26-1.77,18.75S369,330,369,330Z"/><path class="cls-18" d="M350.37,216c10.67-2.13,14.51,9.06,15.22,26.94a56.87,56.87,0,0,0,10.93,31.19c.43-3.22.74-7.06,1.38-12.08a64.83,64.83,0,0,1,7.67-22.29l43.48-16.63,7.81-29C382.26,194.17,358.3,203.34,350.37,216Z"/><line class="cls-19" x1="332.16" y1="320.96" x2="363.99" y2="320.96"/><path class="cls-19" d="M384,225.72s-11,5.3-13.62,13.79-3.45,31-6.37,38.47-.7,11.14-1.14,18S359.22,321,359.22,321"/><path class="cls-20" d="M387.52,121.45l-14,52.35-58,14h65.59A14.76,14.76,0,0,0,395,177.9l15.12-43.18S398.31,118.62,387.52,121.45Z"/><path class="cls-16" d="M410.16,134.72s-11.85-16.1-22.64-13.27l-4.34,16.24a9.05,9.05,0,0,0,4.69,2.56c6.63,1.49,8.86,15.81,13,21Z"/><path class="cls-21" d="M433.05,86.16s17.7,3.72,27.25,8.23,12.47,15.39,15,32.37l-18.62,1.06s8.67,34.13,12.92,46.34,13.26,18.39,7.07,19.63-57,0-65.26,0,2.29-12,3.36-19.1-.53-19.46-4.6-24.59-9.38-3.36-8.49-19.27L384,123.57s6.19-17.86,17.86-26.35S421.63,86.78,433.05,86.16Z"/><path class="cls-22" d="M469.59,174.16c-4.25-12.21-12.92-46.34-12.92-46.34l4.91-.28-21.18,1.14L442.28,118a91,91,0,0,0-5.77,23.07C435.56,151.53,422,159,415,166.9a38.29,38.29,0,0,1-.22,7.79c-1.07,7.07-11.68,19.1-3.36,19.1s59.07,1.24,65.26,0S473.83,186.36,469.59,174.16Z"/><path class="cls-15" d="M471.17,127,456.6,174.25a19.18,19.18,0,0,1-18.33,13.53H364s1.95-6.37,7.26-6.9,6.54.53,10.25.71,49.87-10.78,49.87-10.78l12.79-42.13Z"/><path class="cls-22" d="M395,128.07l6.72,2.76c.7-5.66,3.19-11.9,3.18-16.45,0-3.19-2.3.92-5.3,6.74A41.33,41.33,0,0,1,395,128.07Z"/><path class="cls-23" d="M444.16,128.68H440.4s.62-9.63,3.76-15.41"/><path class="cls-17" d="M473.83,188.84s19.9,45.9-10.61,45.9h-44s1.51,7.13-.17,13.08a14.26,14.26,0,0,0-.06,7.93c2.11,7.12,6.06,20.82,7.39,28.07,1.86,10.08,3.7,12.2,5,21.22s7.17,15.65,5.32,24.94h-45.9s-9.55-62.35-12.47-88.35,9.29-44.83,34-44.83c0,0,29.18-4,33.16-5.84Z"/><line class="cls-19" x1="393.62" y1="320.96" x2="432.44" y2="320.96"/><path class="cls-19" d="M420.24,321s0-13-1.59-21.76-3.19-18.8-4.25-25.05-1.85-16.86-2.65-24.56.7-13,1.28-22c10.39-2.12,39.31.53,48.6-3.18s16.46-6.1,18.58-14.06"/><path class="cls-16" d="M442.57,133.92c4.74-.46,16.31-1,25.3,3.76l3.3-10.69-27,1.69Z"/><path class="cls-24" d="M320.92,367.69a51.69,51.69,0,0,1-9.74,5.93c-3,1.17-8.74,1.34-8.74,3.36s14.45,2.35,21.51,1.84,13.94.34,14.11-2c.14-1.93-1.64-3.41-1.92-6.66-1.82.09-4,.16-6.73.19C324.38,370.4,322,369.1,320.92,367.69Z"/><path class="cls-24" d="M405.1,367.69a51.67,51.67,0,0,1-9.73,5.93c-3,1.17-8.74,1.34-8.74,3.36s14.45,2.35,21.51,1.84,13.94.34,14.11-2c.14-1.93-1.64-3.41-1.92-6.66-1.82.09-4,.16-6.73.19C408.56,370.4,406.2,369.1,405.1,367.69Z"/><path class="cls-15" d="M407.57,75.49c1.19,2.72,1.33,4.64,3.12,6.43a12.78,12.78,0,0,0,4.21,2.4,3.18,3.18,0,0,0,2.56-.16L419,83.4l2.2,5.95-3.32,1.42a11.71,11.71,0,0,0-6.47,7c-2.38,6.91-2.78,18.49,8.53,18.49,13.68,0,21.68-13.91,25.62-21.93a2.8,2.8,0,0,0-2-4c-3.2-.56-7.62-1.88-9.05-5-2.32-5-4.11-10.28-4.11-10.28s.6-10.48-.07-13.66-4.84-11.08-13.13-8.89-14.88,8.45-13.66,16.58C403.66,70.38,407.57,75.49,407.57,75.49Z"/><line class="cls-25" x1="421.15" y1="89.35" x2="422.63" y2="93.46"/><path class="cls-16" d="M420,86.16c3,0,4.25-6.36,5.2-7.91s.11-2.47-.6-1.33-2.74,5-5.62,6.48Z"/><path class="cls-26" d="M418.38,55.39a19.75,19.75,0,0,0,4.11,9c1.07,1.33.93,6.9,2.66,7.56s-.27-2.78.79-5.17,3.45-1.33,3.45,1.33a14.79,14.79,0,0,1-1.32,5.43L430.32,75s1.06-5.83,2.52-12.6-4.77-13.93-15.78-12.6c0,0-14.07-6.63-19.77,7s4.91,15.26,4.91,15.26l5.5,3.71L406,71.54a3.76,3.76,0,0,1,1.47-4.6C410.83,64.77,416.48,60.54,418.38,55.39Z"/><circle class="cls-26" cx="427.53" cy="44.18" r="9.01" transform="translate(319.98 460.31) rotate(-81.41)"/><rect class="cls-27" x="394.95" y="187.78" width="106.47" height="10.08"/><rect class="cls-14" x="264.95" y="184.54" width="153.21" height="3.24"/><polygon class="cls-13" points="359.81 187.78 261.61 187.78 246.2 117.57 344.39 117.57 359.81 187.78"/><polygon class="cls-14" points="359.81 187.78 356.2 187.78 340.79 117.57 344.39 117.57 359.81 187.78"/><path class="cls-28" d="M309.59,152.67c1.12,5.09-2.1,9.21-7.19,9.21a12.11,12.11,0,0,1-11.23-9.21c-1.11-5.08,2.1-9.2,7.19-9.2A12.11,12.11,0,0,1,309.59,152.67Z"/><path class="cls-13" d="M208.33,157.45s-6.29-4.42-2.78-10.3,17.87-3.87,18.61-8.47-15.37-4.23-27.42-4.05-16.84-1-16.84-4c0-3.57,4.57-3.3,4.42-7.73-.18-5.38-27.88-2.51-27.88-2.51s5.69-2,16.38-2.74c7.91-.57,21.34-1.49,22.08,4.77s5.89,5.52,16.29,6.25,19.69,3.77,18.95,13.44-19.75,3.15-22,8,4.51,7.36,4.51,7.36Z"/><path class="cls-28" d="M193.31,155.41l2.33,28.89a3.79,3.79,0,0,0,3.78,3.48h12.65a3.79,3.79,0,0,0,3.77-3.48l2.33-28.89Z"/><polygon class="cls-8" points="473.78 34.16 473.78 68.81 453.09 82.23 473.78 82.23 473.78 92.4 556.91 92.4 556.91 34.16 473.78 34.16"/><polygon class="cls-15" points="471.17 31.1 471.17 65.76 450.48 79.18 471.17 79.18 471.17 89.35 554.3 89.35 554.3 31.1 471.17 31.1"/><text class="cls-29" transform="translate(483.24 72.3)">&lt;/&gt;</text><rect class="cls-8" x="541.72" y="188.79" width="76.23" height="40.06"/><rect class="cls-15" x="538.8" y="185.61" width="76.23" height="40.06"/><text class="cls-30" transform="translate(551.28 210.38)">HTML</text><path class="cls-31" d="M587.11,290.21a38.37,38.37,0,0,0,0-12.47H576.42a27.85,27.85,0,0,0-3.58-8.63l7.56-7.56a38.61,38.61,0,0,0-8.82-8.81L564,260.29a27.81,27.81,0,0,0-8.64-3.58V246a38.31,38.31,0,0,0-12.46,0v10.69a27.81,27.81,0,0,0-8.64,3.58l-7.56-7.55a38.77,38.77,0,0,0-8.81,8.81l7.55,7.56a27.83,27.83,0,0,0-3.57,8.63H511.21a38.37,38.37,0,0,0,0,12.47H521.9a27.79,27.79,0,0,0,3.57,8.64l-7.55,7.55a38.81,38.81,0,0,0,8.81,8.82l7.56-7.56a27.81,27.81,0,0,0,8.64,3.58v10.69a38.31,38.31,0,0,0,12.46,0V311.24a27.81,27.81,0,0,0,8.64-3.58l7.55,7.56a38.65,38.65,0,0,0,8.82-8.82l-7.56-7.55a27.81,27.81,0,0,0,3.58-8.64Zm-38,7.53A13.77,13.77,0,1,1,562.92,284,13.77,13.77,0,0,1,549.16,297.74Z"/><path class="cls-32" d="M626,318.13a24.68,24.68,0,0,0,0-3.94,25.75,25.75,0,0,0-.65-3.88l-6.71.56a17.67,17.67,0,0,0-2.7-5.23l4.34-5.14a24.49,24.49,0,0,0-6-5.07L610,300.57a17.71,17.71,0,0,0-5.61-1.79l-.57-6.71a24.18,24.18,0,0,0-7.82.66l.57,6.71a17.6,17.6,0,0,0-5.24,2.7l-5.13-4.35a24.28,24.28,0,0,0-5.07,6l5.14,4.34a17.38,17.38,0,0,0-1.79,5.61l-6.71.56a23.57,23.57,0,0,0,0,3.94,24.54,24.54,0,0,0,.64,3.88l6.71-.56a17.43,17.43,0,0,0,2.7,5.23l-4.34,5.14a24.45,24.45,0,0,0,6,5.07l4.35-5.14a17.41,17.41,0,0,0,5.6,1.79l.57,6.71a24.69,24.69,0,0,0,3.94,0,23.63,23.63,0,0,0,3.88-.65l-.56-6.7a17.67,17.67,0,0,0,5.23-2.7l5.14,4.34a24.28,24.28,0,0,0,5.06-6l-5.14-4.34a17.4,17.4,0,0,0,1.8-5.61Zm-23.41,6.72a8.67,8.67,0,1,1,7.91-9.36A8.67,8.67,0,0,1,602.63,324.85Z"/><g class="cls-33"><path d="M366.56,4H248.24a9.73,9.73,0,0,0-9.74,9.73V83a9.74,9.74,0,0,0,9.74,9.74H296.5a4.36,4.36,0,0,1,3.91,2.41l6,11.88a1.13,1.13,0,0,0,2,0l6-11.88a4.37,4.37,0,0,1,3.91-2.41h48.27A9.74,9.74,0,0,0,376.29,83V13.72A9.73,9.73,0,0,0,366.56,4Z"/></g><path class="cls-22" d="M364.43,0H246.11a9.74,9.74,0,0,0-9.74,9.74V79a9.74,9.74,0,0,0,9.74,9.73h48.26a4.4,4.4,0,0,1,3.92,2.42l6,11.88a1.15,1.15,0,0,0,2,0l6-11.88a4.4,4.4,0,0,1,3.92-2.42h48.26A9.73,9.73,0,0,0,374.16,79V9.74A9.73,9.73,0,0,0,364.43,0Z"/><path class="cls-28" d="M287.06,17.87H255.17A1.89,1.89,0,0,1,253.28,16h0a1.88,1.88,0,0,1,1.89-1.89h31.89A1.89,1.89,0,0,1,289,16h0A1.89,1.89,0,0,1,287.06,17.87Z"/><rect class="cls-13" x="253.28" y="22.69" width="49.16" height="3.78" rx="1.89"/><path class="cls-9" d="M353.75,17.87H295.37A1.89,1.89,0,0,1,293.48,16h0a1.89,1.89,0,0,1,1.89-1.89h58.38A1.89,1.89,0,0,1,355.64,16h0A1.89,1.89,0,0,1,353.75,17.87Z"/><rect class="cls-13" x="306.48" y="22.69" width="49.16" height="3.78" rx="1.89"/><path class="cls-15" d="M323.68,33.06H254.16a.88.88,0,0,1-.88-.89h0a.87.87,0,0,1,.88-.88h69.52a.88.88,0,0,1,.88.88h0A.89.89,0,0,1,323.68,33.06Z"/><path class="cls-28" d="M309.34,49.11H255.17a1.89,1.89,0,0,1-1.89-1.89h0a1.88,1.88,0,0,1,1.89-1.89h54.17a1.88,1.88,0,0,1,1.89,1.89h0A1.89,1.89,0,0,1,309.34,49.11Z"/><path class="cls-28" d="M287.06,57.71H255.17a1.89,1.89,0,0,1-1.89-1.89h0a1.88,1.88,0,0,1,1.89-1.89h31.89A1.89,1.89,0,0,1,289,55.82h0A1.89,1.89,0,0,1,287.06,57.71Z"/><path class="cls-13" d="M300.54,66.31H255.17a1.89,1.89,0,0,1-1.89-1.89h0a1.88,1.88,0,0,1,1.89-1.89h45.37a1.88,1.88,0,0,1,1.89,1.89h0A1.89,1.89,0,0,1,300.54,66.31Z"/><path class="cls-9" d="M353.75,57.71H295.37a1.89,1.89,0,0,1-1.89-1.89h0a1.89,1.89,0,0,1,1.89-1.89h58.38a1.89,1.89,0,0,1,1.89,1.89h0A1.89,1.89,0,0,1,353.75,57.71Z"/><path class="cls-13" d="M353.75,66.31H308.37a1.89,1.89,0,0,1-1.89-1.89h0a1.89,1.89,0,0,1,1.89-1.89h45.38a1.89,1.89,0,0,1,1.89,1.89h0A1.89,1.89,0,0,1,353.75,66.31Z"/><path class="cls-15" d="M323.68,72.9H254.16a.88.88,0,0,1-.88-.89h0a.88.88,0,0,1,.88-.88h69.52a.89.89,0,0,1,.88.88h0A.89.89,0,0,1,323.68,72.9Z"/><rect class="cls-34" x="176.16" y="187.78" width="325.26" height="10.08"/><rect class="cls-34" x="408.24" y="197.86" width="7.72" height="192.61"/><polygon class="cls-34" points="509.14 390.47 501.42 390.47 476.35 197.86 484.06 197.86 509.14 390.47"/><polygon class="cls-22" points="415.96 213.3 415.96 197.86 408.24 197.86 408.24 212.28 415.96 213.3"/><polygon class="cls-22" points="484.06 197.86 476.35 197.86 479.46 221.76 487.31 222.81 484.06 197.86"/><rect class="cls-34" x="189.45" y="197.86" width="7.72" height="192.61"/><polygon class="cls-34" points="290.35 390.47 282.63 390.47 257.56 197.86 265.28 197.86 290.35 390.47"/><polygon class="cls-22" points="197.17 213.3 197.17 197.86 189.45 197.86 189.45 212.28 197.17 213.3"/><polygon class="cls-22" points="265.28 197.86 257.56 197.86 260.67 221.76 268.53 222.81 265.28 197.86"/><line class="cls-35" x1="180.94" y1="390.47" x2="205.87" y2="390.47"/><line class="cls-35" x1="273.96" y1="390.47" x2="298.89" y2="390.47"/><line class="cls-35" x1="398.98" y1="390.47" x2="423.92" y2="390.47"/><line class="cls-35" x1="492" y1="390.47" x2="516.94" y2="390.47"/><path class="cls-36" d="M88.49,297.65S87.62,276,75,264.54,47.75,250,41.39,259.94s3.18,19.63,12.55,28.47S85.18,297.5,88.49,297.65Z"/><path class="cls-24" d="M89.7,260s-23.2-14.77-31.86-33.17,4.06-32,11.32-34S92,193,96.75,213.3,89.7,260,89.7,260Z"/><path class="cls-36" d="M125.36,236.74A116,116,0,0,1,115.82,206c-2.92-17.78,6.89-43,30.24-39.8s16.62,32.17,5.57,45.1C144,220.21,125.36,236.74,125.36,236.74Z"/><path class="cls-37" d="M143.22,168.45s-27.9,91.26-32.89,158.47"/><path class="cls-38" d="M101.55,281a60.62,60.62,0,0,1,4.37-29.73c6.55-15.39,19.28-16.8,25.47-13.79s5,17.15-1.77,27.23S110.53,278.94,101.55,281Z"/><path class="cls-37" d="M101.2,325.73S92,252.51,75,208.65"/><path class="cls-37" d="M55.93,271.61S73.6,290.5,97.84,302.92"/><path class="cls-37" d="M124.2,247.56s-16,28.47-29,39.71"/><path class="cls-15" d="M125.09,294.76s10.66-54.22,34.33-36.84C179.85,272.92,146.2,298,125.09,294.76Z"/><path class="cls-37" d="M151.82,266.73s-14.68,24.5-39.06,34.88"/><path class="cls-22" d="M111.07,315.34h-27c.28,22.87,4.19,45.73,6,55a5.23,5.23,0,0,0,5.15,4.25h31.73a5.24,5.24,0,0,0,5.15-4.25c1.77-9.23,5.67-32.09,6-55Z"/><path class="cls-39" d="M84.1,315.34c.08,6.45.45,12.91,1,19.06,8.59-.82,17.15-2.18,21-4.42,6.26-3.61,22.2-6.48,31.74-8,.1-2.22.16-4.46.19-6.69h-54Z"/><line class="cls-37" x1="86.31" y1="374.55" x2="151.82" y2="374.55"/></g></g></svg>