<svg id="a4ebeec9-970d-40c3-b86c-968ee0d4742d" xmlns="http://www.w3.org/2000/svg" viewBox="0 0 539.23 727.78"><defs><style>.cls-1{fill:#3f3d56;}.cls-2{fill:#fff;}.cls-3{fill:#e6e6e6;}.cls-4{fill:#ffb8b8;}.cls-5{fill:#2f2e41;}.cls-6{fill:#fcfffb;}</style></defs><path class="cls-1" d="M539.23,173h-4V63.4A63.41,63.41,0,0,0,471.83,0H239.74a63.41,63.41,0,0,0-63.4,63.4h0v601a63.4,63.4,0,0,0,63.4,63.4H471.83a63.41,63.41,0,0,0,63.4-63.4V250.92h4Z" transform="translate(0 0)"/><path class="cls-2" d="M474.39,16.5h-30.3a22.5,22.5,0,0,1-20.83,31h-133a22.49,22.49,0,0,1-20.82-31h-28.3a47.35,47.35,0,0,0-47.35,47.35v600.1a47.35,47.35,0,0,0,47.35,47.34H474.39a47.34,47.34,0,0,0,47.34-47.34h0V63.84A47.33,47.33,0,0,0,474.39,16.5Z" transform="translate(0 0)"/><rect class="cls-3" x="223.5" y="134.49" width="268.57" height="458.8"/><path class="cls-4" d="M133.3,232C145.62,242.23,121,274.15,121,274.15s58.48,2.28,53.86,2.28S166.39,228,166.39,228,121,221.71,133.3,232Z" transform="translate(0 0)"/><path class="cls-5" d="M109.53,361.8l53,19,29,12s19,52,28,75-20,60-20,60,3,11,0,16a54.8,54.8,0,0,0-4,8c-1,2-12,1-24,0s-1-20-1-20,10-40,11-41,3.61-8,.7-10.53a25.84,25.84,0,0,1-6.53-8.12,30.2,30.2,0,0,0-5.17-7.35s-31.7-46.74-47.35-57.37-52,2-52,2S88.53,435.8,88.53,441.8s1,9,4,11,2,6,2,10,3,12,8,16,6,8,5,16-28,4-28,4l-13-25s-20-32-33-66c-6.5-17,.25-28.5,8.62-35.75a41.39,41.39,0,0,1,29-9.76l47,2.14L84.53,354.8Z" transform="translate(0 0)"/><path class="cls-4" d="M284.53,272.8l57-26s20-34,8-38-22,30-22,30l-41,8Z" transform="translate(0 0)"/><path class="cls-4" d="M58.53,290.8s-29,26-30,29-19,11-27-3,18-13,18-13l18-23Z" transform="translate(0 0)"/><path class="cls-6" d="M30,280.65l31,23,51-18C102.54,315.33,110,346.76,78.83,365l118,40c-10.45-42,6-76.85,20.19-119.31,22.39-11.54,50.48-8.81,81,0v-41l-124,7L154.83,262,132,255.65C99,250.3,57.74,262,30,280.65Z" transform="translate(0 0)"/><path class="cls-5" d="M105.53,493.8c3,2,8,21,9,28s-8,10-13,11-4,4-7,7-14,4-29,1,7-22,9-23,8-24,8-24S102.53,491.8,105.53,493.8Z" transform="translate(0 0)"/><path class="cls-5" d="M188.53,548.8l8,21,7.56,11.35a25.68,25.68,0,0,1,3.63,20.91c-1.27,4.69-3.91,9.12-9.19,10.74-13,4-21-21-21-21s-7-14-12-27,4-20,4-20Z" transform="translate(0 0)"/><circle class="cls-4" cx="150.18" cy="220.66" r="24"/><path class="cls-5" d="M177.38,214.73a22.81,22.81,0,0,0-1.55-18.54c-3.08-5.47-9-10.6-20.43-10.88-24.9-.63-35.69,18.14-34.29,23.64s6.43,18.61,6.43,18.61-3.12-12.62,3.11-13.88,30.34-6.3,37.35-.63a14.24,14.24,0,0,1,5.44,13.24Z" transform="translate(0 0)"/><circle class="cls-3" cx="358.18" cy="651.75" r="26"/><path d="M291.21,347l-6.15-24.26h3.32l2.89,12.28c.7,3,1.35,6,1.78,8.38h.08c.4-2.4,1.16-5.3,2-8.42l3.26-12.24h3.24l3,12.3c.67,2.9,1.33,5.76,1.7,8.32h.08c.48-2.66,1.16-5.37,1.91-8.38l3.21-12.24h3.22L307.81,347h-3.27l-3.05-12.62a73.11,73.11,0,0,1-1.61-7.94h-.07a67.11,67.11,0,0,1-1.87,7.93L294.51,347Z" transform="translate(0 0)"/><path d="M317.44,321.49h3.15v10.86h.07a6.26,6.26,0,0,1,2.28-2.23,6.33,6.33,0,0,1,3.24-.88c2.35,0,6.07,1.43,6.07,7.44V347H329.1V337c0-2.81-1.06-5.17-4-5.17A4.61,4.61,0,0,0,320.8,335a4.41,4.41,0,0,0-.21,1.51V347h-3.15Z" transform="translate(0 0)"/><path d="M347.07,347l-.28-2.2h-.09a6.49,6.49,0,0,1-5.33,2.6,5,5,0,0,1-5.32-5c0-4.21,3.74-6.53,10.47-6.48v-.37c0-1.42-.4-4-4-4a8.49,8.49,0,0,0-4.53,1.3l-.72-2.1a10.85,10.85,0,0,1,5.74-1.53c5.33,0,6.62,3.64,6.62,7.12v6.52a26.5,26.5,0,0,0,.27,4.16Zm-.49-8.89c-3.43-.07-7.35.55-7.35,3.91a2.79,2.79,0,0,0,3,3,4.36,4.36,0,0,0,4.24-2.91,3.33,3.33,0,0,0,.15-1Z" transform="translate(0 0)"/><path d="M358.43,324.62v5H363V332h-4.54v9.38c0,2.17.62,3.4,2.39,3.4a6.17,6.17,0,0,0,1.83-.23l.15,2.4a7.92,7.92,0,0,1-2.83.44,4.45,4.45,0,0,1-3.42-1.34c-.87-1-1.22-2.5-1.22-4.54V332h-2.7v-2.4h2.7v-4.19Z" transform="translate(0 0)"/><path d="M383.83,347l-.28-2.2h-.1a6.46,6.46,0,0,1-5.32,2.6,5,5,0,0,1-5.32-5c0-4.21,3.74-6.53,10.46-6.48v-.37c0-1.42-.4-4-4-4a8.53,8.53,0,0,0-4.54,1.3l-.72-2.1a10.88,10.88,0,0,1,5.75-1.53c5.32,0,6.62,3.64,6.62,7.12v6.52a27.85,27.85,0,0,0,.26,4.16Zm-.5-8.89c-3.42-.07-7.35.55-7.35,3.91a2.79,2.79,0,0,0,3,3,4.35,4.35,0,0,0,4.24-2.91,3.33,3.33,0,0,0,.15-1Z" transform="translate(0 0)"/><path d="M299.58,389.61a12,12,0,0,1-5,1c-5.25,0-8.69-3.57-8.69-8.89s3.66-9.29,9.36-9.29a10.32,10.32,0,0,1,4.4.93l-.71,2.43a7.72,7.72,0,0,0-3.7-.83c-4,0-6.15,3-6.14,6.59,0,4,2.59,6.51,6.06,6.51a9.31,9.31,0,0,0,3.88-.83Z" transform="translate(0 0)"/><path d="M318.83,381.37c0,6.45-4.47,9.27-8.66,9.27-4.72,0-8.36-3.44-8.36-9,0-5.83,3.83-9.23,8.64-9.23C315.46,372.44,318.83,376.07,318.83,381.37Zm-13.8.2c0,3.82,2.19,6.7,5.27,6.7s5.31-2.84,5.31-6.79c0-3-1.48-6.67-5.25-6.67S305,378.27,305,381.57Z" transform="translate(0 0)"/><path d="M322.84,377.54c0-1.82-.06-3.26-.15-4.71h2.76l.16,2.81h.09a6,6,0,0,1,5.5-3.2,5.11,5.11,0,0,1,4.9,3.49h.07a7.18,7.18,0,0,1,2-2.27,5.93,5.93,0,0,1,3.83-1.22c2.32,0,5.75,1.5,5.75,7.55v10.25h-3.09V380.4c0-3.38-1.25-5.37-3.78-5.37a4.13,4.13,0,0,0-3.77,2.85,5.19,5.19,0,0,0-.26,1.59v10.77h-3.09V379.8c0-2.78-1.22-4.77-3.62-4.77a4.36,4.36,0,0,0-3.94,3.16,4.9,4.9,0,0,0-.24,1.56v10.49h-3.09Z" transform="translate(0 0)"/><path d="M352.86,377.54c0-1.82-.06-3.26-.14-4.71h2.75l.17,2.81h.08a6,6,0,0,1,5.5-3.2,5.13,5.13,0,0,1,4.91,3.49h.07a7.16,7.16,0,0,1,2-2.27,6,6,0,0,1,3.83-1.22c2.33,0,5.75,1.5,5.75,7.55v10.25h-3.09V380.4c0-3.38-1.24-5.37-3.78-5.37a4.12,4.12,0,0,0-3.76,2.85,4.91,4.91,0,0,0-.26,1.59v10.77h-3.09V379.8c0-2.78-1.23-4.77-3.62-4.77a4.38,4.38,0,0,0-3.95,3.16,5.2,5.2,0,0,0-.24,1.56v10.49h-3.09Z" transform="translate(0 0)"/><path d="M397.44,385.48c0,1.82.06,3.39.15,4.76h-2.8l-.17-2.84h-.09a6.49,6.49,0,0,1-5.76,3.24c-2.72,0-6-1.53-6-7.63V372.83h3.15v9.62c0,3.32,1,5.58,3.9,5.58a4.6,4.6,0,0,0,4.18-2.91,4.73,4.73,0,0,0,.29-1.62V372.83h3.15Z" transform="translate(0 0)"/><path d="M402.72,377.54c0-1.82-.06-3.26-.14-4.71h2.8l.17,2.87h.09a6.41,6.41,0,0,1,5.75-3.26c2.4,0,6.14,1.44,6.14,7.42v10.38h-3.15v-10c0-2.82-1.06-5.18-4-5.18a4.57,4.57,0,0,0-4.27,3.25,5,5,0,0,0-.22,1.47v10.49h-3.15Z" transform="translate(0 0)"/><path d="M426.24,367.91a2,2,0,1,1-2-2A1.91,1.91,0,0,1,426.24,367.91Zm-3.54,22.33V372.83h3.15v17.41Z" transform="translate(0 0)"/><path d="M434.92,367.82v5h4.55v2.4h-4.55v9.38c0,2.17.63,3.4,2.4,3.4a6.17,6.17,0,0,0,1.83-.23l.15,2.4a7.92,7.92,0,0,1-2.83.44,4.44,4.44,0,0,1-3.42-1.34c-.87-1-1.23-2.5-1.23-4.54v-9.51h-2.69v-2.4h2.69v-4.19Z" transform="translate(0 0)"/><path d="M444.51,372.83l3.8,10.29c.41,1.15.84,2.52,1.12,3.56h.09c.31-1,.7-2.36,1.11-3.63l3.45-10.22h3.35l-4.76,12.4c-2.25,6-3.8,9-6,10.92a8.88,8.88,0,0,1-3.88,2l-.79-2.65a8.36,8.36,0,0,0,2.77-1.55,9.85,9.85,0,0,0,2.65-3.52,2,2,0,0,0,.25-.77,2,2,0,0,0-.22-.81l-6.42-16.06Z" transform="translate(0 0)"/></svg>