<svg id="Layer_1" data-name="Layer 1" xmlns="http://www.w3.org/2000/svg" viewBox="0 0 1366 730.23"><defs><style>.cls-1{fill:#f2f2f2;opacity:0.95;}</style></defs><path class="cls-1" d="M-4,45A630.92,630.92,0,0,1,176-16c27.47-4.86,97.79-15.41,194-4C491.63-5.58,500.87,25.69,640,62c150.35,39.23,276.71,38.5,364,38,96.41-.56,153.37-9.5,174-13a935.26,935.26,0,0,0,184-51V648a487,487,0,0,1-144,45c-125,18.2-182.38-25.43-350-54-102.36-17.44-204.41-34.84-328-12-137.54,25.41-164.37,75.26-267,78C156.76,708.1,60.21,647.65-4,595" transform="translate(4 25.11)"/></svg>