<svg id="photo-1" xmlns="http://www.w3.org/2000/svg" viewBox="0 0 1151.51 862.85"><defs><style>.cls-111{fill:#f9f4ac;}.cls-112{opacity:0.1;}.cls-112,.cls-117{isolation:isolate;}.cls-113{fill:#3f3d56;}.cls-114{fill:#f96d02;}.cls-115{fill:#ff9c71;}.cls-116{fill:#a8a8a8;}.cls-117{opacity:0.2;}.cls-118{fill:#ffb9b9;}.cls-119{fill:#d0cde1;}.cls-1110{fill:#2f2e41;}.cls-1111{fill:#f37b21;}.cls-1112{fill:#f78f1e;}.cls-1113{fill:#a0616a;}.cls-1114{fill:#f38221;}.cls-1115{fill:#575a89;}.cls-1116{font-size:60px;fill:#2e2266;font-family:Avenir-Black, Avenir;font-weight:800;letter-spacing:0.03em;}</style></defs><path class="cls-111" d="M944.9,332.28C897.07,144.24,731.83,8.5,537.9,3.06,435.35.18,327.46,34.18,248.9,153.18c-140.43,212.71,8.63,359.71,112.55,429.58A650.13,650.13,0,0,1,495.9,703.56c70.14,83.33,205.18,186.8,366,24.62C978.46,610.64,976.74,457.53,944.9,332.28Z" transform="translate(0 -2.9)"/><polygon class="cls-112" points="719.6 504.49 818 406.39 719.6 308.29 749.6 278.39 878 406.39 749.6 534.39 719.6 504.49 719.6 504.49"/><path class="cls-112" d="M460.86,472.49h40v-40h-40Zm200.8-40h-40v40h40Zm-120.4,40h40v-40h-40Z" transform="translate(0 -2.9)"/><polygon class="cls-112" points="384.4 503.49 285.9 405.39 384.3 307.29 354.3 277.39 226 405.39 354.4 533.39 384.4 503.49"/><path class="cls-113" d="M1088,752.29c0,16.57-243.56,74-544,74S0,768.86,0,752.29s243.56,14,544,14S1088,735.73,1088,752.29Z" transform="translate(0 -2.9)"/><path class="cls-112" d="M1088,734.21c0,16.57-243.56,74-544,74S0,750.78,0,734.21s243.56,14,544,14S1088,717.65,1088,734.21Z" transform="translate(0 -2.9)"/><ellipse class="cls-113" cx="544" cy="749.39" rx="544" ry="30"/><path class="cls-113" d="M632.7,608c0,64,40.16,115.82,89.79,115.82" transform="translate(0 -2.9)"/><path class="cls-114" d="M722.49,723.77c0-64.74,44.81-117.12,100.2-117.12" transform="translate(0 -2.9)"/><path class="cls-115" d="M665.23,613.76c0,60.8,25.61,110,57.26,110" transform="translate(0 -2.9)"/><path class="cls-113" d="M722.49,723.77c0-82.72,51.8-149.65,115.81-149.65" transform="translate(0 -2.9)"/><path class="cls-116" d="M703.6,724.59s12.73-.4,16.57-3.13,19.59-6,20.54-1.61,19.14,21.8,4.76,21.91-33.41-2.24-37.24-4.57S703.6,724.59,703.6,724.59Z" transform="translate(0 -2.9)"/><path class="cls-117" d="M745.73,740.24c-14.38.11-33.41-2.24-37.24-4.58-2.92-1.77-4.08-8.15-4.47-11.09h-.42s.8,10.27,4.63,12.6,22.86,4.69,37.24,4.57c4.15,0,5.58-1.51,5.5-3.69C750.4,739.39,748.81,740.21,745.73,740.24Z" transform="translate(0 -2.9)"/><path class="cls-118" d="M865.53,382.85s-30.79-23.37-33.12-14.8,22.59,28,22.59,28Z" transform="translate(0 -2.9)"/><path class="cls-112" d="M865.53,382.85s-30.79-23.37-33.12-14.8,22.59,28,22.59,28Z" transform="translate(0 -2.9)"/><path class="cls-119" d="M967.17,308.84s-36.61,65.44-37.39,74.79-.78,10.12-3.89,9.34-46-5.45-49.86-3.89-11.68-9.35-11.68-9.35-14.8,14.8-11.69,17.92,12.46,4.67,14,8.57,3.9,7.79,10.91,7,54.53,12.46,60.76,10.12,7.79-6.23,10.91-6.23,9.34-3.11,9.34-3.89,21.82-42.07,21.82-42.07S1006.12,315.07,967.17,308.84Z" transform="translate(0 -2.9)"/><path class="cls-112" d="M967.17,308.84s-36.61,65.44-37.39,74.79-.78,10.12-3.89,9.34-46-5.45-49.86-3.89-11.68-9.35-11.68-9.35-14.8,14.8-11.69,17.92,12.46,4.67,14,8.57,3.9,7.79,10.91,7,54.53,12.46,60.76,10.12,7.79-6.23,10.91-6.23,9.34-3.11,9.34-3.89,21.82-42.07,21.82-42.07S1006.12,315.07,967.17,308.84Z" transform="translate(0 -2.9)"/><path class="cls-1110" d="M914.05,265.7a65.23,65.23,0,0,0,.2,12.42c1.19,8.95,5.31,18.28,1.41,26.64-1.41,3-3.8,5.67-5.1,8.74-2.76,6.5-.26,13.7-.64,20.62-.48,8.93-6.16,17.53-14.8,22.43,14.76.46,28.8-6.84,38.09-16.79s14.46-22.28,18.34-34.63a75.73,75.73,0,0,0,3.81-17.92,26.08,26.08,0,0,0-1.21-10.38,39.46,39.46,0,0,0-5.35-9.13c-2.32-3.27-4.71-6.6-8.14-9-4.23-3-12.38-6-18-5.57C915.79,253.63,914.34,260.93,914.05,265.7Z" transform="translate(0 -2.9)"/><path class="cls-118" d="M936.79,290.15s8.57,30.38,1.56,39,42.07-3.9,42.07-3.9-24.15-24.2-12.42-39.78Z" transform="translate(0 -2.9)"/><path class="cls-112" d="M936.79,290.15s8.57,30.38,1.56,39,42.07-3.9,42.07-3.9-24.15-24.2-12.42-39.78Z" transform="translate(0 -2.9)"/><polygon class="cls-1111" points="719.6 491.25 818 393.15 719.6 295.05 749.6 265.15 878 393.15 749.6 521.15 719.6 491.25 719.6 491.25"/><polygon class="cls-118" points="908.75 692.32 908.75 714.91 920.43 728.93 930.56 724.26 927.44 691.54 908.75 692.32"/><path class="cls-1110" d="M913.42,716.25s-3.11-10.9-8.57-3.11-10.9,24.93-14,25.7-24.93,24.93-3.11,24.93,28.82-10.12,28.82-10.12,21.81-8.57,21.81-10.13-3.12-30.38-4.67-30.38-2.34,5.45-6.24,5.45S913.42,716.25,913.42,716.25Z" transform="translate(0 -2.9)"/><polygon class="cls-118" points="960.94 696.22 960.16 717.25 978.86 725.04 978.86 694.66 960.94 696.22"/><path class="cls-1110" d="M981.19,720.15s-10.12-10.91-15.58-8.57a55.49,55.49,0,0,0-7.79,3.89s-3.11,10.13-4.67,18.7-2.34,12.46-3.89,15.58-3.12,14.8,12.46,16.36,20.25-7,20.25-7l3.9-20.26S984.31,720.15,981.19,720.15Z" transform="translate(0 -2.9)"/><path class="cls-1110" d="M918.88,474.77s-22.6,50.63-19.48,96.59c0,0-7.79,17.92-3.12,46s10.91,84.13,10.91,84.13,21,2.34,22.59-1.56c0,0,1.56-38.94,3.12-40.5s-.78-37.39-3.12-44.4,21.81-76.35,21.81-76.35l-6.23-86.46Z" transform="translate(0 -2.9)"/><path class="cls-112" d="M918.88,474.77s-22.6,50.63-19.48,96.59c0,0-7.79,17.92-3.12,46s10.91,84.13,10.91,84.13,21,2.34,22.59-1.56c0,0,1.56-38.94,3.12-40.5s-.78-37.39-3.12-44.4,21.81-76.35,21.81-76.35l-6.23-86.46Z" transform="translate(0 -2.9)"/><path class="cls-1110" d="M912.64,471.65l14.8,31.94s7,72.45,10.91,81.79c0,0,1.56,26.49,8.57,35.06s12.46,84.13,12.46,84.13,19.48,5.45,21,0,6.23-42.85,6.23-42.85,1.56-31.93-7-53,10.12-96.59,10.12-96.59,19.48-36.61-8.57-66.22Z" transform="translate(0 -2.9)"/><circle class="cls-118" cx="953.93" cy="264.66" r="31.94"/><path class="cls-119" d="M983.53,315.85s-33.5,0-38.17,3.9a6.22,6.22,0,0,1-8.57,0s-11.68.78-14.8,10.12-12.46,21.82-12.46,21.82-14,10.12-6.23,36.61,1.55,69.33,1.55,69.33-6.23,9.35,0,13.24,8.57,5.45,7.79,8.57,70.89-25.71,70.89-31.16-1.56-10.13,0-12.46,3.12-6.23,1.56-10.13,1.56-4.67.78-8.57,3.89-32.72,7-45.18S995.22,316.63,983.53,315.85Z" transform="translate(0 -2.9)"/><path class="cls-118" d="M865.53,392.2s-30.79-23.38-33.12-14.81S855,405.44,855,405.44Z" transform="translate(0 -2.9)"/><path class="cls-119" d="M967.17,319.75s-36.61,65.43-37.39,74.78-.78,10.13-3.89,9.35-46-5.45-49.86-3.9-11.68-9.34-11.68-9.34-14.8,14.8-11.69,17.91,12.46,4.68,14,8.57,3.9,7.79,10.91,7,54.53,12.47,60.76,10.13,7.79-6.23,10.91-6.23,9.34-3.12,9.34-3.9,21.82-42.06,21.82-42.06S1006.12,326,967.17,319.75Z" transform="translate(0 -2.9)"/><path class="cls-1110" d="M938.11,288c-.44-3.16-2.06-6-2.89-9.12a18.93,18.93,0,0,1,2.16-14.69c4.58-7.4,13.57-10.68,19.84-16.71.13,3.07,2.27,5.7,4.62,7.67s5.06,3.58,7.06,5.92A23.45,23.45,0,0,1,973,269.4a29.52,29.52,0,0,1,1.62,10.91A13.66,13.66,0,0,1,969.9,290c-2.34,1.84-5.6,2.9-6.73,5.65a9.81,9.81,0,0,0-.38,4.27c.54,8.57,1,17.3-1,25.64s-7,16.41-14.71,20.11c6.37.46,12.87.9,19-.71s12.08-5.66,14.21-11.68c1.06-3,1.15-6.27,2.65-9,3.78-7,14.21-7.34,19.34-13.44,2-2.44,3-5.59,3.78-8.7,4.33-18.26,1.28-37.65-5.3-55.23-2.28-6.06-5.1-12.16-10-16.42-4.15-3.62-9.44-5.62-14.68-7.32-7.64-2.49-15.51-4.53-23.54-4.79a29.83,29.83,0,0,0-10.33,1.21,30.4,30.4,0,0,0-9.09,5.18c-12.58,9.78-21.15,25.43-20,41.33.69,9.62,4.76,18.72,10,26.82,1.83,2.83,6.16,8.87,10.18,7.09C937,298.33,938.59,291.38,938.11,288Z" transform="translate(0 -2.9)"/><path class="cls-1112" d="M456.6,463.38h40v-40h-40Zm200.8-40h-40v40h40Zm-120.4,40h40v-40H537Z" transform="translate(0 -2.9)"/><ellipse class="cls-1110" cx="206.21" cy="208.94" rx="33.66" ry="26.25"/><path class="cls-1113" d="M211.93,392.58s30.29,2,35.67-2,28.28,5.38,30.3,10.77-32.32,6.06-37.7,6.06-31,8.07-31,8.07Z" transform="translate(0 -2.9)"/><path class="cls-1110" d="M149.55,706.14s-14.11,35.6-6.75,39.89,84.7,1.23,84.7,1.23,12.89-8-1.84-13.5c0,0-12.27-.62-20.25-5.53s-17.19-14.11-17.19-14.11-.61-13.51-5.52-10.44a12.64,12.64,0,0,0-5.53,8.6Z" transform="translate(0 -2.9)"/><path class="cls-112" d="M149.55,706.14s-14.11,35.6-6.75,39.89,84.7,1.23,84.7,1.23,12.89-8-1.84-13.5c0,0-12.27-.62-20.25-5.53s-17.19-14.11-17.19-14.11-.61-13.51-5.52-10.44a12.64,12.64,0,0,0-5.53,8.6Z" transform="translate(0 -2.9)"/><polygon class="cls-1114" points="384.4 491.25 285.9 393.15 384.3 295.05 354.3 265.15 226 393.15 354.4 521.15 384.4 491.25"/><path class="cls-1110" d="M127.79,717s-15.49,39-7.41,43.75,92.89,1.35,92.89,1.35,14.14-8.75-2-14.81c0,0-13.46-.67-22.21-6.06s-18.85-15.48-18.85-15.48-.67-14.81-6.06-11.44a13.87,13.87,0,0,0-6,9.42Z" transform="translate(0 -2.9)"/><path class="cls-1110" d="M207.22,469.31l-9.43,84.82s-3.36,40.39-13.46,49.14c0,0,0,12.79-3.37,16.83l-4.71,53.17s6.73,19.53,6.06,22.89,2.69,14.14,2,15.48-32.31,0-32.31,0l6.73-108.37L179.6,452.49Z" transform="translate(0 -2.9)"/><path class="cls-112" d="M207.22,469.31l-9.43,84.82s-3.36,40.39-13.46,49.14c0,0,0,12.79-3.37,16.83l-4.71,53.17s6.73,19.53,6.06,22.89,2.69,14.14,2,15.48-32.31,0-32.31,0l6.73-108.37L179.6,452.49Z" transform="translate(0 -2.9)"/><path class="cls-1110" d="M190.39,466.62S183,536,179.62,550.76a190.67,190.67,0,0,0-4,29.62s-.68,21.54-6.73,27.6a18.15,18.15,0,0,0-5.39,13.46s-6.06,68-2.69,76.07,6.73,14.81,3.36,20.19-40.38,5.39-40.38,1.35,0-7.41-2-9.43,0-14.8,0-14.8-8.08-59.91-.68-77.42,10.77-65.29,10.77-65.29-5.38-54.52-12.11-63.28,1.34-39.71,1.34-39.71Z" transform="translate(0 -2.9)"/><path class="cls-1113" d="M171.44,251.31c.78,1.78,2.65,2.78,4.36,3.72,9.88,5.44,18.15,13.34,26.3,21.14a30.9,30.9,0,0,1,1.23-20.89c1-2.25,2.25-4.67,1.55-7-.51-1.73-2-3-3.41-4.08a106.69,106.69,0,0,0-10.41-7.1c-2.52-1.51-7.7-5.52-10.6-5.09-.15,3.91-.23,7.4-1.94,11.06C178.11,243.9,171.73,252,171.44,251.31Z" transform="translate(0 -2.9)"/><circle class="cls-1113" cx="205.87" cy="229.47" r="27.6"/><path class="cls-1115" d="M207.22,297.66s4.71-23.56-8.76-31.63-28.94-17.51-28.94-17.51-4.71-.67-6.73,9.43c0,0-38.37,7.4-42.41,43.75s2.69,89.53,2.69,89.53-6,46.45-13.46,71.35c0,0-6.06,5.39,20.87-2.69s74,22.89,74,22.89,4.72-4.72,4.72-8.08,5.38-22.89,5.38-22.89,4.71-82.79,6.73-92.22S213.27,299,207.22,297.66Z" transform="translate(0 -2.9)"/><path class="cls-1110" d="M199.37,235.21a11.54,11.54,0,0,1,5.41-1.44,10.32,10.32,0,0,0,5.35-1.59c2.61-2,2.8-5.87,4.71-8.55,2.76-3.88,8.27-4.34,13-4.15,2.91.12,6,.29,8.49-1.28s3.65-4.66,4.5-7.52c1-3.39,1.65-7.53-.83-10-1.73-1.75-4.45-2.09-6.37-3.63s-2.8-4.17-3.88-6.48a17.53,17.53,0,0,0-5.64-7.06c-3.61-2.51-8.23-3.07-12.63-3s-8.82.62-13.19.08c-3.58-.44-7.15-1.63-10.71-1.1-4.55.67-8.31,4.1-10.55,8.11s-3.2,8.59-4.13,13.09l-2.54,12.24c-.78,3.8-1.57,7.69-1,11.52,1.26,7.94,8.28,14.25,8.76,22.27a13.66,13.66,0,0,1,8.35-9.92,2.63,2.63,0,0,1,1.7-.21c.69.22,1.1.92,1.54,1.51,1.15,1.53,4.78,3.85,6.83,2.77C198.43,239.83,197.06,236.78,199.37,235.21Z" transform="translate(0 -2.9)"/><path class="cls-1113" d="M129.8,360.94s-4.71,29.62,14.81,26.92c0,0,10.1-1.34,11.45,0s51.16-7.4,57.89-14.8c0,0,8.07-2.7,12.11,1.34s44.43,8.08,32.31-4-31-14.81-31-14.81l-25.58,1.35s-13.46,4-21.54,0-31-2.69-31-2.69Z" transform="translate(0 -2.9)"/><path class="cls-1115" d="M157.4,267.37s-30.29,3.37-30.29,47.12v55.87s16.83-7.4,20.2-6.73,16.82-8.75,16.82-8.75,15.49-36.35,14.14-46.45S177.6,268.72,157.4,267.37Z" transform="translate(0 -2.9)"/><ellipse class="cls-1110" cx="205.87" cy="212.3" rx="25.92" ry="13.46"/><ellipse class="cls-1110" cx="181.64" cy="214.66" rx="9.09" ry="22.55"/><text y="-2.9"/><text class="cls-1116" transform="translate(394.62 374.48) scale(0.69 1)">Smit_Devblocks</text><path class="cls-112" d="M1151.51,791.75c0,16.57-243.56,74-544,74s-544-57.43-544-74,243.56,14,544,14S1151.51,775.19,1151.51,791.75Z" transform="translate(0 -2.9)"/></svg>