<?xml version="1.0" encoding="utf-8"?>
<!-- Generator: Adobe Illustrator 24.2.0, SVG Export Plug-In . SVG Version: 6.00 Build 0)  -->
<svg version="1.1" id="_x35_9725d3d-bdd8-4af0-9b66-49b8d09410bc"
	 xmlns="http://www.w3.org/2000/svg" xmlns:xlink="http://www.w3.org/1999/xlink" x="0px" y="0px" viewBox="0 0 1041.32 554.17"
	 style="enable-background:new 0 0 1041.32 554.17;" xml:space="preserve">
<style type="text/css">
	.st0{opacity:0.1;fill:#FFFFFF;enable-background:new    ;}
	.st1{opacity:0.1;}
	.st2{fill:#FFFFFF;}
	.st3{fill:#3F3D56;}
	.st4{fill:#65617D;}
	.st5{opacity:0.2;enable-background:new    ;}
	.st6{opacity:0.1;enable-background:new    ;}
	.st7{fill:#D4DFEC;}
	.st8{fill:#FBBEBE;}
	.st9{fill:url(#SVGID_1_);}
	.st10{fill:none;stroke:#FFFFFF;stroke-width:2;stroke-miterlimit:10;}
</style>
<g>
	<path class="st0" d="M961.48,438.21c-1.16,2.5-2.32,4.97-3.47,7.4c-1.8,3.78-3.58,7.49-5.33,11.12c-0.78,1.61-1.56,3.19-2.32,4.77
		c-8.6,17.57-16.63,33.11-23.45,45.89c-12.6,23.59-37.07,38.42-63.81,38.7l-151.65,1.65h-1.6l-13,0.14L685.73,548l-34.1,0.37h-1.38
		l-17.36,0.19h-0.53l-107,1.16l-95.51,1l-11.11,0.12l-69,0.75h-0.08l-44.75,0.48h-0.48l-141.5,1.53l-42.33,0.46
		c-9.03,0.1-18.03-1.19-26.67-3.82c-15.04-4.54-28.55-13.1-39.09-24.75c-18.18-20.03-31.43-43.4-40.33-68.76
		c-1.29-3.66-2.49-7.37-3.6-11.12c-30.81-104.15,6.75-238.52,74.35-328.44c2.83-3.76,5.71-7.43,8.64-11l0.07-0.08
		c20.79-25.52,44.1-46.84,68.93-62c44-26.91,92.75-34.49,140.7-11.9c40.57,19.12,78.45,28.11,115.17,30.55
		c3.71,0.24,7.42,0.42,11.11,0.53c84.23,2.65,163.17-27.7,255.87-47.29c3.69-0.78,7.39-1.55,11.12-2.28
		C763,0.54,836.36-6.4,923.6,8.19c9.06,1.48,18.01,3.62,26.76,6.4c3.85,1.24,7.55,2.57,11.12,4c41.64,16.94,64.35,48.24,74,87.46
		c0.91,3.64,1.7,7.34,2.37,11.11C1054.96,211.5,1004.85,345.32,961.48,438.21z"/>
	<g class="st1">
		<path class="st2" d="M162.9,44.09v509.62l-42.33,0.46c-9.03,0.1-18.03-1.19-26.67-3.82V106.09h0.07
			C114.76,80.54,138.07,59.22,162.9,44.09z"/>
		<path class="st2" d="M1037.9,117.17H85.26c2.83-3.76,5.71-7.43,8.64-11v-0.08h941.63C1036.44,109.71,1037.23,113.4,1037.9,117.17z
			"/>
		<path class="st2" d="M961.48,18.6v427h-3.47c-1.8,3.78-3.58,7.49-5.33,11.12c-0.78,1.61-1.56,3.19-2.32,4.77V14.56
			C954.21,15.8,957.91,17.15,961.48,18.6z"/>
		<path class="st2" d="M696.87,13.67v534.25l-11.12,0.12V15.95C689.44,15.17,693.14,14.4,696.87,13.67z"/>
		<path class="st2" d="M429.88,63.24v487.58l-11.11,0.12V62.71C422.48,62.95,426.19,63.09,429.88,63.24z"/>
		<path class="st2" d="M958.01,445.61c-1.8,3.78-3.58,7.49-5.33,11.12H14.51c-1.29-3.66-2.49-7.37-3.6-11.12H958.01z"/>
	</g>
	<rect x="211.6" y="265.83" class="st3" width="19" height="57.66"/>
	<rect x="722.93" y="262.83" class="st3" width="19" height="61"/>
	<polygon class="st4" points="863.1,533.65 863.1,546.65 711.18,548.05 709.56,548.08 651.82,548.61 650.44,548.63 632.89,548.78 
		632.37,548.78 525.39,549.77 349.78,551.4 349.63,551.4 304.98,551.82 304.5,551.83 106.1,553.65 106.1,538.65 152.75,510.65 
		246.35,509.87 248.35,509.86 249.01,509.85 251.01,509.82 295.95,509.45 297.96,509.44 298.6,509.43 300.6,509.42 315.01,509.3 
		315.39,509.29 350.94,508.99 351.23,508.99 628.63,506.65 635.42,506.6 636.1,506.6 641.28,506.55 678.93,506.24 680.93,506.21 
		682.78,506.19 683.74,506.19 695.45,506.1 697.77,506.07 700.88,506.05 710.63,505.96 726.1,505.83 728.1,505.81 731.58,505.79 
		732.23,505.79 806.94,505.15 	"/>
	<polygon class="st5" points="863.1,533.65 863.1,546.65 711.18,548.05 709.56,548.08 651.82,548.61 650.44,548.63 632.89,548.78 
		632.37,548.78 525.39,549.77 349.78,551.4 349.63,551.4 304.98,551.82 304.5,551.83 106.1,553.65 106.1,538.65 152.75,510.65 
		246.35,509.87 248.35,509.86 249.01,509.85 251.01,509.82 295.95,509.45 297.96,509.44 298.6,509.43 300.6,509.42 315.01,509.3 
		315.39,509.29 350.94,508.99 351.23,508.99 628.63,506.65 635.42,506.6 636.1,506.6 641.28,506.55 678.93,506.24 680.93,506.21 
		682.78,506.19 683.74,506.19 695.45,506.1 697.77,506.07 700.88,506.05 710.63,505.96 726.1,505.83 728.1,505.81 731.58,505.79 
		732.23,505.79 806.94,505.15 	"/>
	<path class="st3" d="M296.1,483.66v24.49c0,2.37-1.36,4.52-3.5,5.54c-0.78,0.38-1.63,0.58-2.5,0.6l-34.9,0.74
		c-0.93,0.02-1.86-0.17-2.7-0.57c-2.18-1-3.57-3.17-3.57-5.57v-25.23H296.1z"/>
	<path class="st6" d="M296.1,483.66v24.49c0,2.37-1.36,4.52-3.5,5.54c-0.78,0.38-1.63,0.58-2.5,0.6l-34.9,0.74
		c-0.93,0.02-1.86-0.17-2.7-0.57c-2.18-1-3.57-3.17-3.57-5.57v-25.23H296.1z"/>
	<path class="st3" d="M298.1,483.66v24.49c0,2.37-1.36,4.52-3.5,5.54c-0.78,0.38-1.63,0.58-2.5,0.6l-34.9,0.74
		c-0.93,0.02-1.86-0.17-2.7-0.57c-2.18-1-3.57-3.17-3.57-5.57v-25.23H298.1z"/>
	<rect x="680.93" y="483.66" class="st3" width="47.17" height="31.5"/>
	<rect x="680.93" y="483.66" class="st6" width="47.17" height="31.5"/>
	<rect x="678.93" y="483.66" class="st3" width="47.17" height="31.5"/>
	<polygon class="st6" points="230.6,265.82 230.6,271.55 211.6,271.06 211.6,265.82 	"/>
	<path class="st4" d="M355.66,104.4l-22.83,164c-0.3,2.17-2.18,3.77-4.37,3.71l-182.8-4.74l-3.47-0.09c-2.37-0.06-4.25-2.03-4.2-4.4
		c0-0.16,0.02-0.31,0.04-0.47l25.63-171.68c0.34-2.2,2.31-3.78,4.54-3.63l183.46,12.42c2.37,0.14,4.17,2.17,4.03,4.53
		C355.69,104.17,355.68,104.28,355.66,104.4z"/>
	<polygon class="st2" points="175.93,99.16 156.6,250.49 324.6,255.82 345.26,109.82 	"/>
	<path class="st4" d="M389.93,96.82h194.01c2.94,0,5.33,2.39,5.33,5.33v162.67c0,2.94-2.39,5.33-5.33,5.33H389.93
		c-2.94,0-5.33-2.39-5.33-5.33V102.15C384.6,99.21,386.99,96.82,389.93,96.82z"/>
	<rect x="394.26" y="108.49" class="st2" width="186" height="144.33"/>
	<polygon class="st6" points="741.93,262.82 741.93,266.61 722.93,267 722.93,262.82 	"/>
	<path class="st4" d="M827.66,259.62c0.11,1.7-1.18,3.16-2.87,3.27c-0.04,0-0.08,0-0.13,0.01l-187.2,3.87
		c-1.61,0.03-2.98-1.18-3.13-2.79L618.24,96.7c-0.16-1.69,1.08-3.2,2.77-3.36c0.05,0,0.1-0.01,0.15-0.01l185.78-9.24l2-0.1
		c1.65-0.09,3.08,1.15,3.22,2.8L827.66,259.62z"/>
	<polygon class="st2" points="628.93,103.16 798.6,94.82 812.93,246.82 644.6,250.82 	"/>
	<path class="st6" d="M827.66,259.62c0.11,1.7-1.18,3.16-2.87,3.27c-0.04,0-0.08,0-0.13,0.01L806.94,84.09l2-0.1
		c1.65-0.09,3.08,1.15,3.22,2.8L827.66,259.62z"/>
	<path class="st6" d="M168.23,87.09l-22.57,180.28l-3.47-0.09c-2.37-0.06-4.25-2.03-4.2-4.4c0-0.16,0.02-0.31,0.04-0.47
		l25.63-171.68C164,88.51,165.99,86.92,168.23,87.09z"/>
	<rect x="211.6" y="306.41" class="st6" width="19" height="17.08"/>
	<polygon class="st6" points="298.1,483.65 298.1,488.62 250.93,489.88 250.93,483.65 	"/>
	<path class="st4" d="M381.35,312.36v168.2c-0.03,2.13-1.72,3.87-3.85,3.95l-191.65,5.1h-0.05c-2.17-0.03-3.92-1.78-3.95-3.95
		v-173.3c0.03-2.17,1.78-3.92,3.95-3.95h191.6C379.57,308.44,381.32,310.19,381.35,312.36z"/>
	<path class="st6" d="M185.85,308.41v181.2h-0.05c-2.17-0.03-3.92-1.78-3.95-3.95v-173.3c0.03-2.17,1.78-3.92,3.95-3.95
		L185.85,308.41z"/>
	<polygon class="st7" points="194.6,319.15 372.1,319.15 372.1,467.4 194.6,471.4 	"/>
	<rect x="722.93" y="306.41" class="st6" width="19" height="17.42"/>
	<polygon class="st6" points="726.1,483.65 726.1,490.06 678.93,488.8 678.93,483.65 	"/>
	<path class="st4" d="M788.35,312.36v173.3c-0.03,2.19-1.81,3.95-4,3.95l0,0l-191.69-5.1c-2.13-0.08-3.82-1.82-3.85-3.95v-168.2
		c0.03-2.17,1.78-3.92,3.95-3.95h191.6C786.55,308.42,788.32,310.17,788.35,312.36z"/>
	<path class="st6" d="M788.35,312.36v173.3c-0.03,2.19-1.81,3.95-4,3.95l0,0v-181.2l0,0C786.54,308.41,788.32,310.17,788.35,312.36z
		"/>
	<polygon class="st7" points="775.6,319.15 598.1,319.15 598.1,467.4 775.6,471.4 	"/>
	<path class="st4" d="M583.85,312.36v168.2c-0.03,2.13-1.72,3.87-3.85,3.95l-191.65,5.1l0,0c-2.19,0-3.97-1.76-4-3.95v-173.3
		c0.03-2.17,1.78-3.92,3.95-3.95h191.6C582.07,308.44,583.82,310.19,583.85,312.36z"/>
	<polygon class="st7" points="397.1,319.15 574.6,319.15 574.6,467.4 397.1,471.4 	"/>
	<polygon class="st6" points="863.1,533.65 863.1,546.65 711.18,548.05 709.56,548.08 651.82,548.61 650.44,548.63 632.89,548.78 
		632.37,548.78 525.39,549.77 349.78,551.4 349.63,551.4 304.98,551.82 304.5,551.83 106.1,553.65 106.1,538.65 308.61,537.32 
		309.09,537.32 350.08,537.04 350.27,537.04 633.35,535.17 633.64,535.17 633.81,535.16 634.28,535.16 639.07,535.13 640.53,535.13 
		715.02,534.63 719.42,534.61 720.4,534.6 	"/>
	<circle class="st8" cx="487.26" cy="272.16" r="51.33"/>
	
		<linearGradient id="SVGID_1_" gradientUnits="userSpaceOnUse" x1="597.785" y1="-169.44" x2="597.785" y2="208.0166" gradientTransform="matrix(1 0 0 -1 -79.34 383.09)">
		<stop  offset="0" style="stop-color:#808080;stop-opacity:0.25"/>
		<stop  offset="0.54" style="stop-color:#808080;stop-opacity:0.12"/>
		<stop  offset="1" style="stop-color:#808080;stop-opacity:0.1"/>
	</linearGradient>
	<path class="st9" d="M304.4,552.18c0-0.11,0.06-0.23,0.1-0.35c1-3.59,2.78-9.66,4.11-14.51c0.17-0.6,0.33-1.19,0.48-1.75
		c1.47-5.47,4.33-18.28,5.92-26.27c0.56-2.81,1-5,1.09-6.1c0.2-1.69,3.21-8.92,6.62-17.23c2.39-5.84,5-12.22,6.91-17.6
		c1.25-3.2,2.23-6.49,2.93-9.85c0.15-0.7,0.15-1.43,0-2.13c-0.3-1.14-0.46-2.32-0.48-3.5l0,0c-0.23-6.2,1.62-16,4.48-20.11
		c3.5-5,6-23.66,6-23.66s5.18,0.75,6-3.53c0.09-0.46,0.12-0.93,0.1-1.4c0-0.37-0.03-0.74-0.09-1.11
		c-0.89-6.24,14.72-12.88,23.5-14.31c0.99-0.17,1.99-0.26,3-0.28c2.13-0.23,4.23-0.72,6.25-1.44c0.93-0.29,1.93-0.62,3-1
		c3.68-1.24,8.08-2.88,12.75-4.68c17.56-6.81,38.82-16,38.82-16c0.15-0.71,0.32-1.39,0.51-2.06c2.13-8.55,8.2-15.58,16.35-18.93l0,0
		c0-0.66,0-1.33,0-2c0-3.45-0.15-7-0.3-10.54c0-0.69-0.06-1.38-0.1-2.07c0-0.2,0-0.41,0-0.61s0-0.35,0-0.52
		c0-0.7-0.07-1.4-0.11-2.09l-0.18-0.14c-1.54-1.16-2.86-2.58-3.9-4.2c-0.58-0.95-1.06-1.95-1.42-3c-1.25-3.39-1.54-7.17-2.38-10.75
		l-0.18-0.74c-1.09-3.61-2.43-7.15-4-10.58c-2.21-5.42-3.91-11-5.6-16.65c-1.03-3.42-2.06-6.85-3.11-10.28l-1.58-5.24
		c-0.3-1-0.6-2-0.83-3l0,0c-0.11-0.46-0.2-0.93-0.26-1.4l0,0c-0.28-1.53-0.2-3.11,0.24-4.61c0.39-1.02,0.83-2.02,1.32-3
		c0.21-0.44,0.38-0.91,0.5-1.38l0,0c0.03-0.11,0.06-0.21,0.08-0.32c0.07-0.36,0.11-0.72,0.11-1.08c-0.03-1.31-0.21-2.62-0.52-3.89
		c-0.01-0.02-0.01-0.03,0-0.05c-0.01-0.09-0.03-0.18-0.05-0.27c-0.18-0.99-0.3-1.99-0.36-3c-0.35-5.41,0.85-10.82,3.47-15.57
		l0.19-0.36c0.55-0.97,1.17-1.89,1.84-2.78l0,0c0.31-0.42,0.63-0.82,1-1.22c-1.4,1.34-3.7,0.75-5-0.69
		c-0.21-0.23-0.4-0.48-0.55-0.75c-0.09-0.14-0.16-0.3-0.23-0.45c-0.05-0.12-0.09-0.25-0.13-0.38c-0.7-2.45,0.52-5.06,2.12-7.05
		c1.58-1.94,3.53-3.54,5.74-4.7l0,0c0.13-0.08,0.26-0.15,0.4-0.21c0.85-0.43,1.73-0.78,2.64-1.06l0,0c0.53-0.18,1.08-0.32,1.63-0.44
		l-3.71-0.34l-1.5-0.14c1.53-6.06,6.77-10.46,13-10.91h1.08c0.53,0.01,1.05,0.05,1.57,0.13c-1.7-0.75-2.76-2.47-2.65-4.33
		c2.62,2.05,5.87,3.13,9.19,3.06h0.38c-0.17-1.08-0.29-2.17-0.34-3.27l0,0l0,0l0,0c-0.1-1.48-0.1-2.98,0-4.46
		c1.81,1.72,4.3,2.55,6.78,2.26l-2.08-2.9c1.85,1.48,4.19,2.21,6.56,2.05l0.48-0.05c0.4-0.04,0.8-0.12,1.19-0.23h0.09
		c-0.19-0.24-0.36-0.49-0.53-0.75l-0.06-0.12c-0.42-0.65-0.75-1.36-1-2.09c-0.1-0.28-0.18-0.57-0.24-0.87l0,0
		c-0.44-1.82-0.28-3.73,0.45-5.45c3.23,2.7,6.77,6.39,11,3.6s4.37-7.91,11-7.39c3.71,0.35,6.94,2.7,8.41,6.12
		c1.92-2.17,5-2.87,7.67-1.75c2.62,1.24,4.18,4,3.88,6.89c2.75-0.69,5.71-1.37,8.35-0.33c2.64,1.04,4.34,4.41,2.84,6.66
		c-0.04,0.07-0.09,0.14-0.14,0.2c-1.23,1.59-3.95,2.46-3.66,4.46l0.42,0.3l1.3,0.94l0,0c5.1,3.68,10.07,7.55,14.9,11.6
		c2.48,2.08,5.12,4.58,5.29,7.83c0.03,0.8-0.05,1.59-0.24,2.37l0,0c-0.16,0.78-0.38,1.56-0.55,2.34c-0.43,1.99-0.54,4.03-0.34,6.05
		l0,0c0.07,0.59,0.16,1.17,0.27,1.76c1.53,7.73,7.71,14.11,8.32,22v0.56c0.04,0.84,0.01,1.69-0.07,2.53c-0.46,4.8-2.68,9.41-4.48,14
		c-0.11,0.28-0.22,0.56-0.32,0.84c-3.47,9-5.47,18.59-7,28.16c-0.49,3.4-1.16,6.76-2,10.09c-0.91,3.81-2.65,7.37-5.09,10.43
		c-0.98,1.15-2.11,2.16-3.36,3c-0.84,0.54-1.73,1.01-2.65,1.41c0,0,0,0,0,0.06c0.11,0.61,0.2,1.22,0.31,1.83
		c0.06,0.32,0.11,0.64,0.17,1l0,0c0,0.02,0,0.04,0,0.06c0.84,4.73,1.8,9.36,2.81,13.76l0.51,2.19c12.6,4.55,14.09,13.87,14.18,17.44
		c0.04,0.48,0.04,0.95,0,1.43c0,0,19,0.5,26.5,6c1.4,0.95,2.92,1.72,4.51,2.3c3.02,1.14,6.11,2.11,9.25,2.89
		c1.61,0.42,3.29,0.83,5,1.23c3,0.69,6.18,1.36,9.25,2c8.19,1.65,15.9,3,19.81,4c9.33,2.36,30.67,22.82,30.67,22.82
		s2.5,20.64,5,23.65s7,13.59,7,13.59l16.54,29.41l7,12.37h4.5c0.62,0,1.84,0.88,3.21,2.1c1.19,1.06,2.51,2.38,3.67,3.58l1.92,2.05
		l1.2,1.33c0,0,7.27,0.18,9.24,5.93c5.92-0.17,13.19,0.22,18.28,2.5c0.69,0.31,1.36,0.67,2,1.08c2.11,1.22,3.61,3.28,4.13,5.66
		c0.1,0.47,0.16,0.96,0.18,1.44c0,0.57,0,1.14,0,1.7c-0.36,7.57-5.29,13.87-9.82,18.11l0.32,0.57c0,0-0.15,0.36-0.44,1
		c-0.08,0.19-0.18,0.4-0.29,0.64l0,0c-0.59,1.26-1.53,3.15-2.76,5.36c-2.61,4.78-5.83,9.21-9.57,13.17l-0.29,0.3l-57.74,0.53
		l-0.17-0.2l-11.2-13.36l-5.57-6.64l-0.17-0.21l-0.16,1.59l-0.54,5.3l-1.3,12.81l-0.07,0.64v0.17l-0.15,1.48l0.11-1.48h-0.29l-107,1
		l-175.62,1.94v0.84h-0.14v-0.84l-44.75,0.48L304.4,552.18z"/>
	<path class="st8" d="M538.6,377.16c0,0-99.5,12-90,0c3.44-4.34,4.39-17.2,4.2-31.85c-0.06-4.45-0.22-9.06-0.45-13.65
		c-1.1-22-3.75-43.5-3.75-43.5s87-41,77-8.5c-4,13.13-2.69,31.57,0.35,48.88c0.89,5.05,1.92,10,3,14.7
		C531.59,354.7,534.81,366.03,538.6,377.16z"/>
	<path class="st6" d="M538.6,377.16c0,0-99.5,12-90,0c3.44-4.34,4.39-17.2,4.2-31.85c15.17-6.48,34.47-1.65,34.47-1.65
		c20.32-4.05,33.35-3.26,41.68-0.42C531.59,354.7,534.81,366.03,538.6,377.16z"/>
	<path class="st2" d="M349.74,552.53v-0.84l175.62-1.91l107-1h0.3l-0.11,1.48l0.15-1.48h0.19v-0.17l1.37-13.45l0.52-5.09l0.16-1.59
		l0.14-1.33l6.18-20.61l6.18-20.58l5.2-17.33l7.94-26.48c0,0-4.5-10.5-7-13.5s-5-23.5-5-23.5s-21.34-20.33-30.67-22.67
		c-3.91-1-11.63-2.33-19.83-4c-3.07-0.62-6.22-1.28-9.25-2c-1.71-0.39-3.39-0.8-5-1.21c-3.13-0.78-6.22-1.74-9.25-2.86
		c-1.59-0.58-3.1-1.35-4.5-2.29c-7.35-5.39-25.77-6-26.48-6l0,0c0-0.02,0-0.05,0-0.07v-0.09c0.03-0.42,0.03-0.84,0-1.26
		c0-0.4,0-0.87-0.09-1.4c0-0.16,0-0.33-0.07-0.5c-0.05-0.36-0.11-0.74-0.2-1.14c-0.03-0.18-0.07-0.36-0.12-0.53
		c-0.29-1.2-0.71-2.38-1.25-3.49c-0.07-0.16-0.16-0.33-0.24-0.49c-0.49-0.92-1.06-1.8-1.7-2.63c-0.13-0.17-0.27-0.35-0.42-0.52
		c-0.82-0.97-1.73-1.85-2.72-2.64c-0.27-0.21-0.55-0.43-0.84-0.63c-0.16-0.13-0.33-0.25-0.51-0.36l-0.89-0.58l-0.83-0.48
		c-0.73-0.4-1.5-0.79-2.34-1.16c-0.26-0.12-0.54-0.23-0.82-0.34s-0.72-0.28-1.09-0.42h-0.06l-0.75-0.3
		c-0.57-0.19-1.15-0.36-1.76-0.53l-0.93-0.24l-1-0.23l-1-0.21c-1-0.2-2.07-0.38-3.19-0.52l-1.14-0.14l-1.17-0.12l-1.21-0.1
		l-1.72-0.1l-2-0.07c-8.82,0-17.62,0.93-26.24,2.79c-5.99-1.33-12.13-1.9-18.26-1.68h-0.87l-1,0.06h-0.64l-1.29,0.12
		c-0.43,0-0.87,0.09-1.3,0.15s-0.88,0.11-1.31,0.18l-0.66,0.11c-0.65,0.11-1.31,0.23-2,0.37c-0.22,0.04-0.44,0.09-0.66,0.15
		c-0.87,0.19-1.74,0.42-2.6,0.68c-0.43,0.12-0.86,0.26-1.29,0.41c-0.22,0.06-0.43,0.14-0.64,0.22l-0.64,0.23l-0.63,0.25l-0.75,0.3
		c-0.38,0.16-0.75,0.33-1.12,0.51c-0.21,0.09-0.42,0.19-0.62,0.3s-0.41,0.2-0.6,0.31c-2.26,1.17-4.35,2.64-6.21,4.38l-0.51,0.49
		l-0.5,0.51c-0.17,0.17-0.33,0.35-0.49,0.53c-0.65,0.71-1.26,1.46-1.82,2.25c-0.16,0.21-0.31,0.42-0.46,0.64
		c-0.63,0.94-1.21,1.91-1.72,2.92c-0.13,0.24-0.25,0.49-0.37,0.73c-0.82,1.69-1.49,3.45-2,5.25c-0.19,0.67-0.36,1.33-0.51,2
		c-0.23,1-21.17,9.34-38.73,16.1c-4.67,1.8-9.07,3.43-12.75,4.66c-1.07,0.36-2.07,0.69-3,1c-2.02,0.73-4.12,1.21-6.25,1.44
		c-1.01,0.02-2.01,0.11-3,0.28c-8.07,1.31-21.9,7-23.41,12.71c-0.12,0.46-0.16,0.93-0.1,1.4c0,0,0,0.07,0,0.11c1,7-6,6-6,6
		s-2.5,18.5-6,23.5c-2.53,3.6-4.26,11.63-4.48,17.69l0,0c-0.13,1.89,0.02,3.78,0.44,5.63c0,0.05,0,0.1,0,0.14
		c0.4,1.34-0.56,5-2.19,9.69c-1.77,5.15-4.35,11.55-6.83,17.59c-3.74,9.12-7.26,17.4-7.48,19.22c-0.09,0.81-0.35,2.26-0.71,4.13
		c-1.46,7.62-4.7,22.13-6.3,28c-1.19,4.38-2.92,10.38-4.11,14.5c0,0.12-0.07,0.24-0.1,0.35l44.83-0.44v0.84h0.14H349.74z"/>
	<path class="st6" d="M366.1,434.66c0,0,57,29.5,77.5,26L366.1,434.66z"/>
	<path class="st6" d="M482.1,422.66c0,0,55.5,18,74,20.5S482.1,422.66,482.1,422.66z"/>
	<path class="st6" d="M543.66,364.74c-29,5.34-83.6,4.19-107.2,3.38c8.65-31,50.83-20.46,50.83-20.46
		C539.5,337.24,543.5,358.86,543.66,364.74z"/>
	<path class="st2" d="M543.66,362.74c-29,5.34-83.6,4.19-107.2,3.38c8.65-31,50.83-20.46,50.83-20.46
		C539.5,335.24,543.5,356.86,543.66,362.74z"/>
	<path class="st8" d="M697.6,499.41c0,0,34.16-5.25,34.83,9.75c0.67,15-17.42,25.48-17.42,25.48L697.6,499.41z"/>
	<path class="st6" d="M525.95,328.54c-1.47,0.66-2.97,1.24-4.5,1.74c-10.78,3.72-21.65,7.47-33,8.83
		c-11.35,1.36-23.26,0.16-33.16-5.5c-1.04-0.59-2.04-1.24-3-1.95c-1.1-22-3.75-43.5-3.75-43.5s87-41,77-8.5
		C521.56,292.79,522.91,311.23,525.95,328.54z"/>
	<g>
		<path class="st3" d="M473.18,191.93c-2.89,0.76-5.98,0.12-8.32-1.75l2.08,2.89c-2.48,0.29-4.96-0.54-6.78-2.25
			c-0.19,2.59-0.08,5.19,0.32,7.75c-3.44,0.17-6.83-0.9-9.56-3c-0.11,1.85,0.94,3.57,2.64,4.31c-7.15-0.85-13.83,3.73-15.6,10.71
			l5.22,0.48c-4.1,0.88-7.78,3.12-10.44,6.37c-1.6,2-2.82,4.56-2.12,7s4.08,4,5.92,2.26c-5.3,6.32-7.53,14.67-6.1,22.79
			c0.47,1.71,0.63,3.49,0.46,5.26c-0.33,1.65-1.37,3.08-1.89,4.69c-1,2.92-0.05,6.09,0.84,9l4.69,15.42
			c1.7,5.57,3.39,11.15,5.61,16.54c1.57,3.41,2.91,6.92,4,10.51c1.26,4.84,1.31,10.14,4,14.37c1.84,2.66,4.31,4.83,7.18,6.33
			c9.89,5.66,21.84,6.86,33.16,5.5s22.18-5.11,32.95-8.83c2.39-0.72,4.69-1.73,6.84-3c7.45-4.88,9.11-14.86,10.5-23.65
			c1.55-9.8,3.62-19.58,7.29-28.8c2.18-5.49,5-11.06,4.52-16.94c-0.61-7.81-6.79-14.14-8.32-21.82c-0.51-2.57-0.49-5.21,0.07-7.77
			c0.47-1.52,0.74-3.1,0.79-4.7c-0.17-3.22-2.81-5.7-5.29-7.77c-5.38-4.49-10.93-8.74-16.66-12.74c-0.29-2,2.43-2.86,3.66-4.44
			c1.74-2.23-0.06-5.77-2.7-6.81s-5.6-0.36-8.35,0.33c0.46-3.61-2.09-6.91-5.71-7.37c-2.2-0.28-4.4,0.57-5.84,2.26
			c-1.49-3.41-4.71-5.74-8.42-6.08c-6.63-0.52-6.76,4.55-11,7.34s-7.74-0.89-11-3.57C470.6,185.83,471.12,189.33,473.18,191.93z"/>
	</g>
	<path class="st2" d="M722.93,529.41c0,0-0.89,2.12-2.53,5.19c-2.48,4.72-5.5,9.14-9,13.17l-0.27,0.29h-1.62l-57.74,0.53h-1.38
		l-0.17-0.2l-11.2-13.29l-4.22-5.01l-0.17-0.21l-0.36-0.42l-0.2-0.24l-0.26-0.31l-8.21-9.74l3-12.5l5.11-21.06l0.13-0.51l1-4l0.71-3
		l2.38-9.78l8.16-33.65l14.5,7.5l15.29,27l8.21,14.5h4.5c0.85,0,2.8,1.64,4.76,3.53c0.7,0.67,1.4,1.38,2,2
		c1.78,1.84,3.19,3.42,3.19,3.42s7.29,0.16,9.25,5.9c0.1,0.28,0.18,0.56,0.25,0.85c0.65,2.26,1.5,4.45,2.53,6.56
		c1.29,2.81,2.91,6,4.55,9.19c3.05,5.85,6.15,11.42,7.29,13.44l0.14,0.25L722.93,529.41z"/>
	<path class="st6" d="M637.03,484.26l-0.1,1.43v0.1l-0.17,2.3l-1.33,18.51l-1.61,22.3l-0.46,6.28l-1,13.44v0.17l-107,1l-175.59,1.9
		v0.84h-0.14v-0.84v-0.28l0.45-14.36l0.86-28.06l0.74-23.79l0.07-2.37c0.18-5.81,5.03-10.38,10.85-10.2
		c0.19,0.01,0.38,0.02,0.57,0.03c4.72,0.4,10.85,0.89,18.18,1.41l3,0.22c42.33,2.94,120.56,6.74,199.5,2c1.66-0.09,3.33-0.19,5-0.31
		c12.24-0.77,24.47-1.76,36.58-3c5.78-0.61,10.96,3.59,11.57,9.38c0.06,0.62,0.07,1.24,0.03,1.85L637.03,484.26z"/>
	<path class="st3" d="M349.74,552.53v-0.84l175.62-1.91l107-1h0.3v-0.17l1-13.44l0.43-6l1.64-22.61l1.29-17.9v-0.44
		c0.06-0.82,0.02-1.65-0.11-2.47c0.01-0.03,0.01-0.07,0-0.1c-0.27-1.69-0.96-3.28-2-4.64c-2.24-2.87-5.8-4.38-9.42-4
		c-12.11,1.24-24.34,2.23-36.58,3c-1.67,0.12-3.34,0.22-5,0.31c-78.94,4.69-157.17,0.89-199.5-2l-3-0.22
		c-7.33-0.52-13.46-1-18.18-1.41c-5.38-0.45-10.23,3.23-11.24,8.53c-0.1,0.54-0.16,1.09-0.18,1.64l-0.68,22.16l-0.93,28.07
		l-0.44,14.36v0.28v0.84L349.74,552.53z"/>
	<path class="st6" d="M637.33,491.27l-1.23,15.33l-1.83,22.85l-0.46,5.72l-1,12.81l-0.06,0.64v0.17l0,0l-0.15,1.48l0.11-1.48h-0.29
		l-107,1l-175.65,1.9v-0.28l0.49-14.36l1-28.06l0.64-18.65c0.06-2.16,1.22-4.13,3.06-5.25c1.13-0.69,2.46-1.01,3.78-0.9
		c2.1,0.17,4.68,0.37,7.69,0.59c4.89,0.36,10.92,0.78,17.94,1.22c13,0.82,29.31,1.7,48,2.42c52,2,122.2,2.67,188.88-3.17
		c3-0.26,6.1-0.55,9.13-0.84c1.2-0.12,2.41,0.11,3.48,0.66c0.3,0.15,0.59,0.33,0.86,0.54c0.87,0.63,1.56,1.48,2,2.46
		c0.1,0.2,0.19,0.4,0.25,0.61C637.27,489.51,637.39,490.39,637.33,491.27z"/>
	<path class="st6" d="M298.1,504.96v3.19c0,2.37-1.36,4.52-3.5,5.54l-40.1,0.77c-2.18-1-3.57-3.17-3.57-5.57v-3L298.1,504.96z"/>
	<polygon class="st3" points="298.6,515.57 246.35,516.57 246.35,507.9 298.6,506.9 	"/>
	<polygon class="st6" points="298.6,515.57 246.35,516.57 246.35,507.9 298.6,506.9 	"/>
	<polygon class="st3" points="300.6,515.57 248.35,516.57 248.35,507.9 300.6,506.9 	"/>
	<g class="st1">
		<path d="M473.59,188.65c-0.98-1.27-1.63-2.76-1.89-4.34c-0.24,1.54-0.1,3.12,0.42,4.6C472.62,188.86,473.11,188.78,473.59,188.65z
			"/>
		<path d="M460.89,195.29c-0.19-1.23-0.31-2.46-0.37-3.7c0,1.23,0,2.47,0,3.71L460.89,195.29z"/>
		<path d="M542.39,228.66c0.06-0.89,0.18-1.78,0.36-2.65c0.47-1.52,0.74-3.1,0.8-4.69c-0.02-0.36-0.08-0.71-0.16-1.06
			c-0.17,0.92-0.44,1.84-0.64,2.75C542.35,224.87,542.23,226.77,542.39,228.66z"/>
		<path d="M521.59,197.76l1.09,0.79c0.92-0.66,1.78-1.41,2.57-2.22c0.77-1.06,0.91-2.45,0.38-3.64c-0.1,0.23-0.23,0.44-0.38,0.64
			C524.02,194.91,521.3,195.78,521.59,197.76z"/>
		<path d="M439.42,207.38c-0.36,0.73-0.66,1.49-0.87,2.28c1.56-0.87,3.25-1.51,5-1.89L439.42,207.38z"/>
		<path d="M453.21,196.5c-0.66-0.36-1.29-0.77-1.88-1.23c-0.03,0.4,0.01,0.79,0.09,1.18C452.02,196.42,452.62,196.44,453.21,196.5z"
			/>
		<path d="M550.98,255.42c-0.41,4.85-2.67,9.52-4.5,14.12c-3.67,9.22-5.74,19-7.29,28.81c-1.39,8.79-3,18.77-10.5,23.64
			c-2.14,1.28-4.44,2.29-6.83,3c-10.78,3.73-21.65,7.47-33,8.83s-23.26,0.17-33.16-5.49c-2.87-1.5-5.33-3.67-7.18-6.33
			c-2.67-4.23-2.72-9.53-4-14.37c-1.09-3.59-2.43-7.11-4-10.52c-2.21-5.38-3.91-11-5.6-16.53c-1.57-5.14-3.13-10.28-4.69-15.43
			c-0.51-1.55-0.9-3.14-1.14-4.75c-0.39,2.56,0.37,5.24,1.14,7.75c1.56,5.15,3.12,10.3,4.69,15.43c1.69,5.57,3.39,11.15,5.6,16.53
			c1.57,3.41,2.91,6.93,4,10.52c1.26,4.84,1.31,10.14,4,14.37c1.85,2.66,4.31,4.83,7.18,6.33c9.9,5.66,21.84,6.85,33.16,5.49
			s22.18-5.1,33-8.83c2.39-0.71,4.69-1.72,6.83-3c7.45-4.87,9.11-14.85,10.5-23.64c1.55-9.81,3.62-19.59,7.29-28.81
			c2.18-5.48,5-11.05,4.52-16.94C551,255.54,550.98,255.48,550.98,255.42z"/>
		<path d="M431.29,251.55c0,0,0-0.07,0-0.11c0.18-1.76,0.02-3.54-0.46-5.25c-0.2-1.1-0.33-2.21-0.39-3.32
			c-0.12,2.11,0.02,4.24,0.39,6.32C430.99,249.97,431.17,250.76,431.29,251.55z"/>
		<path d="M434.34,227.09c0.77-1.29,1.64-2.52,2.61-3.67c-1.83,1.75-5.21,0.19-5.92-2.24c-0.26,0.98-0.26,2.02,0,3
			C431.53,225.67,432.79,226.78,434.34,227.09z"/>
	</g>
	<path class="st6" d="M684.1,483.66c0,0,3.17,11.5,0,21.5C680.93,515.16,684.1,483.66,684.1,483.66z"/>
	<path class="st6" d="M697.6,495.39c0,0,1.33,14.6-1.67,17.19C692.93,515.17,697.6,495.39,697.6,495.39z"/>
	<line class="st10" x1="198.99" y1="342.86" x2="300.6" y2="341.86"/>
	<line class="st10" x1="198.99" y1="355.33" x2="300.6" y2="354.34"/>
	<line class="st10" x1="198.99" y1="367.81" x2="300.6" y2="366.81"/>
</g>
</svg>
