<?xml version="1.0" encoding="utf-8"?>
<!-- Generator: Adobe Illustrator 24.2.0, SVG Export Plug-In . SVG Version: 6.00 Build 0)  -->
<svg version="1.1" id="b8eef085-bbb0-4c81-9a53-f8aa424b48dc"
	 xmlns="http://www.w3.org/2000/svg" xmlns:xlink="http://www.w3.org/1999/xlink" x="0px" y="0px" viewBox="0 0 1063.13 672.74"
	 style="enable-background:new 0 0 1063.13 672.74;" xml:space="preserve">
<style type="text/css">
	.st0{fill:#3F3D56;}
	.st1{fill:#FFFFFF;}
	.st2{opacity:0.03;enable-background:new    ;}
</style>
<path class="st0" d="M859.64,396.66c-9.77,3.6-26.93,6.56-46.79,8.94c-54,6.48-128,8.78-128,8.78s-380.41,31.55-665.52-85.79
	c0,0-41.47-21.74-3-51c5.92-4.37,12.22-8.21,18.82-11.48l0.47-0.47c4.38-4.04,9.1-7.69,14.13-10.89
	c14.77-9.55,39.71-20.87,70.07-15.74l748.82,121.11C868.64,360.12,895.99,383.23,859.64,396.66z"/>
<path class="st0" d="M710.44,341.77L867.2,230.55l69.09,11.95l-67.65,117.62C868.64,360.12,712.24,361.37,710.44,341.77z"/>
<polygon class="st0" points="315.78,274.2 628.03,186.63 678.36,197.15 537.31,260.6 493.23,309.92 "/>
<path class="st1" d="M812.85,405.6c-54,6.48-128,8.78-128,8.78s-380.41,31.55-665.52-85.79c0,0-41.47-21.74-3-51l0.13,0.54
	c0,0,61.52,41.58,355.46,76.29L812.85,405.6z"/>
<path class="st0" d="M762.66,403.2l139.6,57l35.07-3.89l-83.5-62.76C853.83,393.55,752.83,372,762.66,403.2z"/>
<path class="st1" d="M67.08,284.22c-6.66,0.11-21.92-11.06-31.41-18.58c4.38-4.04,9.1-7.69,14.13-10.89
	c7.65,5.87,21.26,15.37,28.83,15C89.56,269.3,77.11,284.04,67.08,284.22z"/>
<path class="st0" d="M701.29,600.23l-89.63,4.69L359.66,435l-46.78-31.55l-22.72-15.33c42.63-36,216.56,13.65,216.56,13.65
	c3.33,2.81,4.39,7.48,4.24,12.64c-0.29,9.66-4.83,21-6.58,25.08c-0.42,1-0.68,1.53-0.68,1.53L701.29,600.23z"/>
<path class="st2" d="M878.5,644.72c-2.82-0.54-5.73-0.22-8.37,0.91c-1.58,0.7-3.28,1.06-5,1.06c-1.74,0-3.46-0.37-5.05-1.09
	c-3.78-1.66-8.11-1.57-11.82,0.24c-1.04,0.55-2.21,0.85-3.39,0.85c-4.79,0-8.78-4.83-9.61-11.19c0.96-0.7,1.77-1.58,2.4-2.58
	c2.8-4.53,7.15-7.43,12-7.43s9.18,2.87,12,7.34c1.71,2.77,4.75,4.43,8,4.37h0.13C873.56,637.2,876.89,640.26,878.5,644.72z"/>
<path class="st2" d="M158.5,670.72c-2.82-0.54-5.73-0.22-8.37,0.91c-1.58,0.7-3.28,1.06-5,1.06c-1.74,0-3.46-0.37-5.05-1.09
	c-3.78-1.66-8.11-1.57-11.82,0.24c-1.04,0.55-2.21,0.85-3.39,0.85c-4.79,0-8.78-4.83-9.61-11.19c0.96-0.7,1.77-1.58,2.4-2.58
	c2.8-4.53,7.15-7.43,12-7.43s9.18,2.87,12,7.34c1.71,2.77,4.75,4.43,8,4.37h0.13C153.56,663.2,156.89,666.26,158.5,670.72z"/>
</svg>
