<svg xmlns="http://www.w3.org/2000/svg" viewBox="0 0 324.34 188.14"><defs><style>.cls-1{fill:#ff6e40;}.cls-2{fill:#f5f0e1;}.cls-3{fill:#ffc13b;}.cls-4{fill:#ffd88a;}.cls-5{fill:#ff8240;}</style></defs><title>SMITDevBlock_logo</title><g id="Layer_2" data-name="Layer 2"><g id="Layer_1-2" data-name="Layer 1"><path class="cls-1" d="M46.52,100.48a13.76,13.76,0,0,1-.6,4.21,12.28,12.28,0,0,1-1.56,3.3,10.41,10.41,0,0,1-2.29,2.43,14.18,14.18,0,0,1-2.7,1.65,13.79,13.79,0,0,1-2.85.94,13.39,13.39,0,0,1-2.72.3H3.29V105.4H33.8a4.63,4.63,0,0,0,3.54-1.33,5,5,0,0,0,1.27-3.59,5.89,5.89,0,0,0-.34-2,4.44,4.44,0,0,0-1-1.58,4.2,4.2,0,0,0-1.52-1,5.3,5.3,0,0,0-2-.36H15.61a14,14,0,0,1-4.14-.69,12.28,12.28,0,0,1-4.12-2.2,12.11,12.11,0,0,1-3.17-4,15,15,0,0,1,0-12,12.15,12.15,0,0,1,7.29-6.21,14.3,14.3,0,0,1,4.14-.68H42.53V77.6H15.61A4.53,4.53,0,0,0,12.09,79a5.13,5.13,0,0,0-1.26,3.62,5,5,0,0,0,1.26,3.6,4.65,4.65,0,0,0,3.52,1.33H33.86a13.52,13.52,0,0,1,2.71.35,13.55,13.55,0,0,1,5.53,2.67A11.32,11.32,0,0,1,44.37,93a12.22,12.22,0,0,1,1.57,3.29A14.26,14.26,0,0,1,46.52,100.48Z" transform="translate(-2.92)"/><path class="cls-1" d="M103.86,113.31h-8v-26L81.87,112a3.5,3.5,0,0,1-1.45,1.43,4.27,4.27,0,0,1-2,.48,4,4,0,0,1-1.93-.48A3.55,3.55,0,0,1,75.08,112L61,87.33v26H53.09V73.06a4,4,0,0,1,.8-2.43,3.78,3.78,0,0,1,3.4-1.53,4.37,4.37,0,0,1,1.23.27A3.71,3.71,0,0,1,59.6,70a3.61,3.61,0,0,1,.82,1l18,31.3,18-31.3a3.93,3.93,0,0,1,1.93-1.65,4.17,4.17,0,0,1,2.57-.15,4,4,0,0,1,2.1,1.43,3.86,3.86,0,0,1,.82,2.43Z" transform="translate(-2.92)"/><path class="cls-1" d="M121,113.31h-7.91V69.69H121Z" transform="translate(-2.92)"/><path class="cls-1" d="M169.7,77.6H152.27v35.71h-7.91V77.6H126.89V69.69H169.7Z" transform="translate(-2.92)"/><path class="cls-1" d="M48.13,169.83a18.88,18.88,0,0,1-1.39,7.33,17.13,17.13,0,0,1-9.59,9.55,19.09,19.09,0,0,1-7.27,1.37H8.52a4.08,4.08,0,0,1-1.58-.3,4.13,4.13,0,0,1-1.27-.84,3.89,3.89,0,0,1-.83-1.26,4,4,0,0,1-.31-1.58V148.44a3.87,3.87,0,0,1,.31-1.55,4.09,4.09,0,0,1,.83-1.28,3.83,3.83,0,0,1,1.27-.85,4.08,4.08,0,0,1,1.58-.31H29.88a19.09,19.09,0,0,1,7.27,1.37,17.74,17.74,0,0,1,5.78,3.79,17.33,17.33,0,0,1,3.81,5.78,18.9,18.9,0,0,1,1.39,7.32Zm-7.91-7.12a11.53,11.53,0,0,0-.75-4.23,9.13,9.13,0,0,0-2.11-3.27,9.58,9.58,0,0,0-3.27-2.1,11.39,11.39,0,0,0-4.21-.75H12.44v27.81H29.88a11.59,11.59,0,0,0,4.21-.74,9.58,9.58,0,0,0,3.27-2.1,9.27,9.27,0,0,0,2.11-3.26,11.47,11.47,0,0,0,.75-4.24Z" transform="translate(-2.92)"/><path class="cls-1" d="M90.39,166.08a12.44,12.44,0,0,1-.58,3.55,10.74,10.74,0,0,1-1.87,3.53,10.58,10.58,0,0,1-3.38,2.72,10.79,10.79,0,0,1-5.07,1.1H65.23v-7.52H79.49a3.17,3.17,0,0,0,2.5-1,3.53,3.53,0,0,0,.88-2.45,3.09,3.09,0,0,0-1-2.43,3.45,3.45,0,0,0-2.39-.88H65.23a3.17,3.17,0,0,0-2.5,1,3.53,3.53,0,0,0-.88,2.45v11a3.12,3.12,0,0,0,1,2.46,3.53,3.53,0,0,0,2.45.89h14.2v7.54H65.23a12.1,12.1,0,0,1-3.55-.58,10.33,10.33,0,0,1-6.25-5.25,10.72,10.72,0,0,1-1.1-5.06V166.08a12.43,12.43,0,0,1,.58-3.54A10.74,10.74,0,0,1,56.78,159a10.58,10.58,0,0,1,3.38-2.72,10.79,10.79,0,0,1,5.07-1.1H79.49a12.44,12.44,0,0,1,3.55.58,10.74,10.74,0,0,1,3.53,1.87A10.58,10.58,0,0,1,89.29,161,10.78,10.78,0,0,1,90.39,166.08Z" transform="translate(-2.92)"/><path class="cls-1" d="M135,155.19a83.64,83.64,0,0,1-3.14,8.22,59.8,59.8,0,0,1-4.12,7.71,47.73,47.73,0,0,1-5.2,6.78,33.54,33.54,0,0,1-6.36,5.39,30.79,30.79,0,0,1-7.58,3.56,29.35,29.35,0,0,1-8.87,1.29A4,4,0,0,1,96.87,187a3.77,3.77,0,0,1-.86-1.25,3.9,3.9,0,0,1-.3-1.53v-29h7.91v24.74a12.93,12.93,0,0,0,5.55-1.25,21.86,21.86,0,0,0,5-3.3,32.6,32.6,0,0,0,4.39-4.67,47.13,47.13,0,0,0,3.61-5.37,50.18,50.18,0,0,0,2.69-5.4,36.48,36.48,0,0,0,1.66-4.75Z" transform="translate(-2.92)"/><path class="cls-1" d="M182.2,178.5a11.06,11.06,0,0,1-.5,3.13,9.06,9.06,0,0,1-4.61,5.49,9.53,9.53,0,0,1-4.47,1h-30a4.12,4.12,0,0,1-1.58-.3,4,4,0,0,1-1.26-.84,3.76,3.76,0,0,1-.84-1.26,4.15,4.15,0,0,1-.3-1.58V148.44a4,4,0,0,1,.3-1.55,4,4,0,0,1,.84-1.28,3.69,3.69,0,0,1,1.26-.85,4.12,4.12,0,0,1,1.58-.31h26.47a10.78,10.78,0,0,1,3.13.52,9.61,9.61,0,0,1,3.12,1.66,9,9,0,0,1,2.4,3,9.47,9.47,0,0,1,1,4.47v1.49a16.23,16.23,0,0,1-.7,4.52,14.53,14.53,0,0,1-2.25,4.57,14.19,14.19,0,0,1,2.51,2,12.51,12.51,0,0,1,2.05,2.68,14.25,14.25,0,0,1,1.41,3.44,16.4,16.4,0,0,1,.51,4.23ZM174.29,177a7.63,7.63,0,0,0-.48-2.79,6.36,6.36,0,0,0-1.37-2.11,6,6,0,0,0-2.13-1.36,8,8,0,0,0-2.8-.47H149.68v-8H164a7.76,7.76,0,0,0,2.8-.47,5.88,5.88,0,0,0,2.13-1.35,6.06,6.06,0,0,0,1.35-2.12,7.83,7.83,0,0,0,.47-2.78v-1.49c0-1.14-.55-1.71-1.64-1.71H146.52v27.81h26.1l.52,0a1.24,1.24,0,0,0,.54-.18,1.2,1.2,0,0,0,.43-.52,2.29,2.29,0,0,0,.18-1Z" transform="translate(-2.92)"/><path class="cls-1" d="M202.65,188.08h-3.53a12.57,12.57,0,0,1-3.64-.58,10.59,10.59,0,0,1-3.6-1.9,10.33,10.33,0,0,1-2.77-3.44A11.17,11.17,0,0,1,188,177V141.29h7.91V177a3,3,0,0,0,.92,2.32,3.15,3.15,0,0,0,2.28.87h3.53Z" transform="translate(-2.92)"/><path class="cls-1" d="M243.5,177a12.17,12.17,0,0,1-.51,3.66,10.69,10.69,0,0,1-1.37,2.86,9.45,9.45,0,0,1-2,2.1,11.74,11.74,0,0,1-2.36,1.42,12.41,12.41,0,0,1-4.88,1.06H218.13a12.51,12.51,0,0,1-3.59-.58,10.41,10.41,0,0,1-3.6-1.9,10.58,10.58,0,0,1-2.77-3.44,11,11,0,0,1-1.11-5.18V166.27a11,11,0,0,1,1.11-5.16,10.49,10.49,0,0,1,6.37-5.34,12.87,12.87,0,0,1,3.59-.58H232.4a11.19,11.19,0,0,1,5.17,1.1A10.33,10.33,0,0,1,241,159a10.9,10.9,0,0,1,1.9,3.61,12.3,12.3,0,0,1,.59,3.62Zm-7.91-10.65a3.24,3.24,0,0,0-.82-2.44,3.32,3.32,0,0,0-2.37-.79H218.19a3.29,3.29,0,0,0-2.4.81,3.15,3.15,0,0,0-.82,2.36V177a3.21,3.21,0,0,0,.82,2.37,3.25,3.25,0,0,0,2.4.82H232.4a3.19,3.19,0,0,0,2.4-.82,3.28,3.28,0,0,0,.79-2.37Z" transform="translate(-2.92)"/><path class="cls-1" d="M282.08,188.08H260.63a12.51,12.51,0,0,1-3.59-.58,10.41,10.41,0,0,1-3.6-1.9,10.58,10.58,0,0,1-2.77-3.44,11,11,0,0,1-1.11-5.18V166.27a11.31,11.31,0,0,1,.26-2.38,12.25,12.25,0,0,1,.8-2.47,11.47,11.47,0,0,1,1.42-2.36,9,9,0,0,1,2.1-2,10.85,10.85,0,0,1,2.84-1.37,12,12,0,0,1,3.65-.52h21.45v7.91H260.63a3.28,3.28,0,0,0-2.36.79,3.32,3.32,0,0,0-.8,2.44V177a3.21,3.21,0,0,0,.82,2.37,3.25,3.25,0,0,0,2.4.82h21.39Z" transform="translate(-2.92)"/><path class="cls-1" d="M296.65,188.08h-7.91V141.29h7.91Zm30.61,0H315.85l-15.94-15.39a3.67,3.67,0,0,1-1.25-3.05,4.15,4.15,0,0,1,.44-1.59,3.67,3.67,0,0,1,1-1.27l14.45-11.65h12.66l-18.62,15Z" transform="translate(-2.92)"/><path class="cls-2" d="M205.67,18.68V119.92H306.91V18.68Zm92.9,93.54-85.19-.84.83-85,85.2.84Z" transform="translate(-2.92)"/><path class="cls-2" d="M306.91,18.68V119.92H256.29V111.8h42.5v-85h-42.5V18.68Z" transform="translate(-2.92)"/><path class="cls-3" d="M235.42,12.65l-1.84.48V39.39l22.74,13.12,22.73-13.12V13.13l-1.84-.48Z" transform="translate(-2.92)"/><path class="cls-1" d="M256.32,12.65V52.51l22.73-13.12V13.13l-1.84-.48Z" transform="translate(-2.92)"/><path class="cls-4" d="M279.05,13.13h0L256.32,26.25,233.58,13.13h0L256.32,0Z" transform="translate(-2.92)"/><path class="cls-5" d="M279.05,13.13h0L256.32,26.25V0Z" transform="translate(-2.92)"/><path class="cls-3" d="M235.42,98.73l-1.84.48v26.26l22.74,13.13,22.73-13.13V99.21l-1.84-.48Z" transform="translate(-2.92)"/><path class="cls-1" d="M256.32,98.73V138.6l22.73-13.13V99.21l-1.84-.48Z" transform="translate(-2.92)"/><path class="cls-4" d="M279.05,99.21h0l-22.73,13.13L233.58,99.21h0l22.74-13.13Z" transform="translate(-2.92)"/><path class="cls-5" d="M279.05,99.21h0l-22.73,13.13V86.08Z" transform="translate(-2.92)"/><path class="cls-3" d="M188.83,55.69l-1.84.48V82.43l22.74,13.12,22.74-13.12V56.17l-1.84-.48Z" transform="translate(-2.92)"/><path class="cls-1" d="M209.73,55.69V95.55l22.74-13.12V56.17l-1.84-.48Z" transform="translate(-2.92)"/><path class="cls-4" d="M232.47,56.17h0L209.73,69.29,187,56.17h0L209.73,43Z" transform="translate(-2.92)"/><path class="cls-5" d="M232.47,56.17h0L209.73,69.29V43Z" transform="translate(-2.92)"/><path class="cls-3" d="M282,55.69l-1.84.48V82.43l22.73,13.12,22.74-13.12V56.17l-1.84-.48Z" transform="translate(-2.92)"/><path class="cls-1" d="M302.85,55.69V95.55l22.74-13.12V56.17l-1.84-.48Z" transform="translate(-2.92)"/><path class="cls-4" d="M325.59,56.17h0L302.85,69.29,280.12,56.17h0L302.85,43Z" transform="translate(-2.92)"/><path class="cls-5" d="M325.59,56.17h0L302.85,69.29V43Z" transform="translate(-2.92)"/></g></g></svg>