<svg id="Layer_1" data-name="Layer 1" xmlns="http://www.w3.org/2000/svg" viewBox="0 0 121 79.24"><defs><style>.cls-1{fill:#f2f2f2;stroke:#fff;stroke-miterlimit:10;}</style></defs><path class="cls-1" d="M116,34.15,100.43,44l9.42-17.13a15.33,15.33,0,0,0-9.38-3.35h-.25A17.33,17.33,0,0,1,97,23.27l-5.29,3.31L94,22.48a18.77,18.77,0,0,1-9.2-7l-9.41,6,5.94-10.82C75.79,4.05,68.37,0,60.2,0,50.41,0,41.69,5.82,36.06,14.9a18.05,18.05,0,0,1-16,8.6h-.52C8.73,23.5,0,35.75,0,50.87S8.73,78.24,19.54,78.24a14.57,14.57,0,0,0,6.81-1.71A28.3,28.3,0,0,1,50,76.07a24.67,24.67,0,0,0,20.14.05,28.28,28.28,0,0,1,23.47.45,14.69,14.69,0,0,0,6.75,1.67C111.21,78.24,120,66,120,50.87A34.75,34.75,0,0,0,116,34.15Z" transform="translate(0.53 0.5)"/></svg>