<svg width="520" height="492" viewBox="0 0 520 492" fill="none" xmlns="http://www.w3.org/2000/svg">
<g clip-path="url(#clip0)">
<path d="M247.487 479.743C315.59 479.743 370.799 477.432 370.799 474.581C370.799 471.73 315.59 469.419 247.487 469.419C179.384 469.419 124.176 471.73 124.176 474.581C124.176 477.432 179.384 479.743 247.487 479.743Z" fill="#3F3D56"/>
<path d="M190.005 243.935C214.373 243.935 234.128 220.781 234.128 192.219C234.128 163.657 214.373 140.502 190.005 140.502C165.636 140.502 145.882 163.657 145.882 192.219C145.882 220.781 165.636 243.935 190.005 243.935Z" fill="#FF6584"/>
<path d="M138.019 461.041C158.557 461.041 175.207 459.242 175.207 457.023C175.207 454.804 158.557 453.005 138.019 453.005C117.481 453.005 100.831 454.804 100.831 457.023C100.831 459.242 117.481 461.041 138.019 461.041Z" fill="#3F3D56"/>
<path d="M205.767 474.934C205.767 474.934 236.632 378.463 219.617 319.097C202.601 259.73 189.147 262.049 189.147 262.049C189.147 262.049 166.196 255.092 137.705 275.499C109.215 295.906 101.696 301.936 85.4724 293.587C69.2484 285.239 66.0828 272.252 26.5123 273.644C26.5123 273.644 47.4846 260.194 68.0613 272.252C88.638 284.311 102.488 290.805 123.46 272.252C144.432 253.7 173.319 229.583 201.414 243.96C201.414 243.96 180.837 220.306 174.11 220.306C167.383 220.306 135.727 216.596 125.439 204.073C125.439 204.073 110.798 192.015 84.681 221.698C58.5645 251.381 64.8957 251.381 41.5491 249.062C18.2025 246.743 0 233.293 0 233.293C0 233.293 27.3037 246.279 43.9233 239.786C60.5429 233.293 74.7883 208.711 89.4294 200.363C104.071 192.015 112.776 180.883 132.561 192.942C132.561 192.942 124.251 153.055 108.423 156.302C92.5951 159.548 115.942 147.026 115.942 147.026C115.942 147.026 111.589 79.3103 103.279 74.6723C94.9693 70.0343 100.113 57.9754 84.681 55.6564C84.681 55.6564 103.675 52.8736 107.236 68.179C110.798 83.4845 135.331 166.041 135.331 166.041C135.331 166.041 150.368 201.291 166.988 192.942C183.607 184.594 160.656 137.75 160.656 137.75L132.166 122.444C132.166 122.444 153.534 121.516 166.592 135.894C179.65 150.272 180.442 196.653 180.442 196.653C180.442 196.653 213.285 202.218 221.199 223.089C221.199 223.089 226.343 204.537 216.451 193.406C213.978 190.623 211.381 185.782 208.877 180.086C199.301 158.303 196.052 133.472 199.065 109.224C200.539 97.3572 201.446 85.7547 199.831 83.0208C196.27 76.9913 181.233 39.8871 180.046 30.1472C178.859 20.4073 181.233 0 181.233 0C181.233 0 181.629 25.0454 186.377 32.93C191.126 40.8147 204.58 79.7741 204.58 79.7741C204.58 79.7741 204.58 128.937 215.659 153.055C226.739 177.173 248.107 204.073 246.92 221.698V231.902C246.92 231.902 270.662 205.465 269.08 196.653C267.497 187.84 265.518 166.969 250.482 154.446C235.445 141.924 225.552 121.98 236.236 93.2244C246.92 64.4686 246.92 59.3668 246.92 59.3668L239.797 95.0796C239.797 95.0796 235.84 127.082 246.92 138.213C258 149.345 272.641 169.752 272.641 169.752L269.475 102.964L279.764 129.401C279.764 129.401 301.923 96.0072 328.04 84.876C354.156 73.7447 370.38 34.7852 370.38 34.7852L392.54 14.3779L374.337 39.8871C374.337 39.8871 368.797 70.0343 337.537 91.3692C306.276 112.704 286.095 144.243 284.908 163.723C283.721 183.202 282.534 200.363 282.534 200.363C282.534 200.363 341.098 198.044 354.156 167.897C367.215 137.75 368.402 77.9189 381.064 68.1791C393.727 58.4392 417.469 46.3803 417.469 46.3803L390.957 71.8895C390.957 71.8895 385.417 92.7606 386.604 107.602C387.791 122.444 377.899 136.358 377.899 136.358L370.38 162.331L362.07 184.594C362.07 184.594 396.101 185.521 413.908 209.175C431.715 232.829 476.034 239.786 476.034 239.786L451.104 247.671C451.104 247.671 427.362 238.395 404.807 221.234C382.251 204.073 384.626 188.768 356.531 205.929C328.436 223.089 290.052 237.467 290.052 237.467C290.052 237.467 312.212 225.408 352.178 254.628C392.144 283.847 332.393 249.526 314.586 260.657C296.779 271.789 288.469 257.875 281.347 285.703C274.224 313.531 261.166 389.595 276.202 432.264L291.239 474.934H205.767Z" fill="#3F3D56"/>
<path opacity="0.1" d="M354.757 167.897C344.148 192.389 303.503 198.514 288.628 199.95C288.211 206.237 287.936 210.213 287.936 210.213C287.936 210.213 346.501 207.894 359.559 177.747C372.617 147.6 373.804 87.7694 386.467 78.0295C387.81 76.9966 389.278 75.9374 390.829 74.8695C391.264 72.9975 391.557 71.8895 391.557 71.8895L418.07 46.3804C418.07 46.3804 394.327 58.4392 381.665 68.1791C369.002 77.919 367.815 137.75 354.757 167.897Z" fill="black"/>
<path opacity="0.1" d="M286.517 121.041C286.431 132.46 285.167 139.252 285.167 139.252C285.167 139.252 307.317 105.872 333.426 94.7336C334.969 93.5894 336.535 92.4629 338.137 91.3693C369.398 70.0343 374.938 39.8871 374.938 39.8871L393.14 14.3779L370.981 34.7853C370.981 34.7853 354.757 73.7448 328.64 84.876C310.838 92.4636 294.877 110.392 286.517 121.041Z" fill="black"/>
<path opacity="0.1" d="M252.323 231.548V241.752C252.323 241.752 276.065 215.315 274.482 206.503C273.272 199.764 271.823 185.974 264.485 174.257C267.793 183.112 268.799 191.749 269.68 196.653C270.815 202.972 258.928 218.353 252.111 226.551C252.35 228.201 252.421 229.879 252.323 231.548Z" fill="black"/>
<path opacity="0.1" d="M220.475 161.525C220.663 161.995 220.857 162.458 221.062 162.905C227.13 176.114 236.278 190.154 243.123 203.051C237.591 190.279 227.964 175.674 220.475 161.525Z" fill="black"/>
<path opacity="0.1" d="M239.766 141.78C236.575 132.616 236.05 121.711 239.715 108.933C239.67 104.302 239.898 99.6735 240.398 95.0796L246.629 63.8389C245.48 68.3441 242.851 77.0354 236.836 93.2244C229.222 113.719 232.064 129.734 239.766 141.78Z" fill="black"/>
<path opacity="0.1" d="M414.508 209.175C402.159 192.771 382.01 187.299 370.818 185.484L367.473 194.444C367.473 194.444 401.504 195.372 419.311 219.026C429.185 232.143 447.21 240.123 461.312 244.632L476.634 239.786C476.634 239.786 432.315 232.829 414.508 209.175Z" fill="black"/>
<path opacity="0.1" d="M172.39 202.793C189.01 194.444 166.059 147.6 166.059 147.6L165.431 147.263C171.153 161.412 179.451 186.983 167.588 192.942C156.487 198.518 146.094 184.645 140.415 174.816C140.621 175.511 140.734 175.892 140.734 175.892C140.734 175.892 155.771 211.141 172.39 202.793Z" fill="black"/>
<path opacity="0.1" d="M226.602 232.94C226.602 232.94 231.61 214.847 222.202 203.676C224.509 213.299 221.8 223.089 221.8 223.089C215.678 206.944 194.641 199.959 185.427 197.623C185.784 202.998 185.844 206.503 185.844 206.503C185.844 206.503 218.688 212.069 226.602 232.94Z" fill="black"/>
<path opacity="0.1" d="M246.628 63.8389C247.52 60.3417 247.52 59.3667 247.52 59.3667L246.628 63.8389Z" fill="black"/>
<path opacity="0.1" d="M49.0859 249.725C49.1657 249.695 49.2467 249.668 49.326 249.637C65.9456 243.143 80.191 218.562 94.8322 210.213C109.473 201.865 118.179 190.734 137.964 202.793C137.964 202.793 134.503 186.186 127.795 175.276C130.017 180.971 131.812 186.882 133.162 192.942C113.376 180.883 104.671 192.015 90.0298 200.363C75.3887 208.712 61.1433 233.293 44.5236 239.786C27.904 246.28 0.600342 233.293 0.600342 233.293C0.600342 233.293 18.8028 246.743 42.1494 249.062C44.8201 249.328 47.0989 249.562 49.0859 249.725Z" fill="black"/>
<path opacity="0.1" d="M214.06 474.934C221.311 448.883 238.747 376.845 225.019 328.947C219.091 308.262 213.596 295.072 208.95 286.657C212.424 294.623 216.222 305.159 220.217 319.096C237.232 378.463 206.367 474.934 206.367 474.934H214.06Z" fill="black"/>
<path opacity="0.1" d="M59.5261 277.375C64.3775 277.952 69.0996 279.554 73.464 282.103C89.7148 291.627 101.772 297.667 116.454 290.652C119.798 288.581 123.539 286.018 127.853 282.968C128.19 282.68 128.523 282.404 128.863 282.103C149.835 263.551 178.722 239.433 206.817 253.811C206.817 253.811 201.139 247.285 194.774 241.089C169.022 233.685 143.234 255.292 124.06 272.253C103.088 290.805 89.2384 284.311 68.6616 272.253C48.0849 260.194 27.1125 273.644 27.1125 273.644C42.4016 273.106 52.2534 274.716 59.5261 277.375Z" fill="black"/>
<path opacity="0.1" d="M99.6917 70.1699C100.143 71.0608 100.69 71.8803 101.319 72.6083C100.857 71.726 100.311 70.908 99.6917 70.1699V70.1699Z" fill="black"/>
<path opacity="0.1" d="M171.995 145.745C172.606 146.423 173.179 147.147 173.71 147.913C171.977 143.029 169.836 138.805 167.192 135.894C154.134 121.516 132.766 122.444 132.766 122.444L159.564 136.84C164.156 138.848 168.376 141.871 171.995 145.745V145.745Z" fill="black"/>
<path opacity="0.1" d="M200.432 83.0208C202.046 85.7547 201.139 97.3573 199.665 109.224C196.652 133.472 199.901 158.303 209.477 180.086C210.738 183.009 212.146 185.842 213.694 188.57C204.575 167.118 201.518 142.818 204.467 119.074C205.942 107.208 206.849 95.6052 205.234 92.8712C201.673 86.8418 186.636 49.7375 185.449 39.9976C185.093 36.219 185.01 32.4119 185.201 28.6169C182.127 18.3947 181.833 0 181.833 0C181.833 0 179.459 20.4074 180.646 30.1472C181.833 39.887 196.87 76.9913 200.432 83.0208Z" fill="black"/>
<path opacity="0.1" d="M237.555 18.9017C237.396 17.985 237.155 17.0905 236.836 16.2332C236.836 16.2332 237.141 17.2341 237.555 18.9017Z" fill="black"/>
<path opacity="0.1" d="M97.7899 65.6127C101.277 66.1131 105.289 67.3672 108.349 70.2758C108.149 69.4845 107.975 68.7752 107.836 68.179C104.275 52.8736 85.2812 55.6564 85.2812 55.6564C93.8648 56.9462 96.0819 61.2494 97.7899 65.6127Z" fill="black"/>
<path d="M196.141 455.118C198.962 467.342 208.626 474.913 208.626 474.913C208.626 474.913 213.716 462.664 210.894 450.44C208.073 438.215 198.409 430.645 198.409 430.645C198.409 430.645 193.32 442.893 196.141 455.118Z" fill="#3F3D56"/>
<path d="M200.287 452.49C208.029 461.324 208.974 474.902 208.974 474.902C208.974 474.902 197.368 474.16 189.626 465.326C181.884 456.493 180.938 442.914 180.938 442.914C180.938 442.914 192.545 443.657 200.287 452.49Z" fill="#51E8B5"/>
<path d="M174.627 121.052C173.954 133.691 165.781 143.379 165.781 143.379C165.781 143.379 158.7 132.575 159.373 119.936C160.046 107.297 168.219 97.6091 168.219 97.6091C168.219 97.6091 175.3 108.413 174.627 121.052Z" fill="#51E8B5"/>
<path d="M89.4354 41.15C98.5749 47.9038 101.908 60.9555 101.908 60.9555C101.908 60.9555 90.4239 63.0573 81.2844 56.3035C72.1449 49.5498 68.8113 36.498 68.8113 36.498C68.8113 36.498 80.2958 34.3963 89.4354 41.15Z" fill="#51E8B5"/>
<path d="M69.0255 195.239C78.165 201.992 81.4986 215.044 81.4986 215.044C81.4986 215.044 70.014 217.146 60.8745 210.392C51.7349 203.638 48.4014 190.587 48.4014 190.587C48.4014 190.587 59.8859 188.485 69.0255 195.239Z" fill="#51E8B5"/>
<path d="M117.649 254.341C126.789 261.095 130.122 274.147 130.122 274.147C130.122 274.147 118.638 276.248 109.498 269.495C100.359 262.741 97.0251 249.689 97.0251 249.689C97.0251 249.689 108.51 247.587 117.649 254.341Z" fill="#51E8B5"/>
<path d="M254.828 63.6766C252.072 75.9212 242.449 83.5626 242.449 83.5626C242.449 83.5626 237.294 71.3514 240.051 59.1067C242.807 46.862 252.43 39.2207 252.43 39.2207C252.43 39.2207 257.585 51.4319 254.828 63.6766Z" fill="#51E8B5"/>
<path d="M341.772 73.224C338.533 85.305 328.617 92.4131 328.617 92.4131C328.617 92.4131 323.953 79.9339 327.192 67.8528C330.432 55.7718 340.348 48.6638 340.348 48.6638C340.348 48.6638 345.012 61.143 341.772 73.224Z" fill="#51E8B5"/>
<path d="M435.745 207.68C429.877 218.313 418.704 222.068 418.704 222.068C418.704 222.068 417.044 208.584 422.912 197.951C428.781 187.318 439.954 183.563 439.954 183.563C439.954 183.563 441.613 197.047 435.745 207.68Z" fill="#51E8B5"/>
<path d="M288.215 294.626C288.215 294.626 287.273 298.677 289.158 300.15C291.043 301.623 291.672 308.62 291.672 308.62L287.901 320.773L277.847 322.982L274.077 314.512V301.991C274.077 301.991 275.333 295.731 275.019 293.889C274.705 292.048 288.215 294.626 288.215 294.626Z" fill="#FFB9B9"/>
<path opacity="0.2" d="M288.215 294.626C288.215 294.626 287.273 298.677 289.158 300.15C291.043 301.623 291.672 308.62 291.672 308.62L287.901 320.773L277.847 322.982L274.077 314.512V301.991C274.077 301.991 275.333 295.731 275.019 293.889C274.705 292.048 288.215 294.626 288.215 294.626Z" fill="black"/>
<path d="M298.27 364.228L306.439 366.07C306.439 366.07 307.067 376.749 306.439 379.327C305.811 381.905 305.182 384.851 305.811 385.588C306.439 386.324 302.983 405.106 303.297 406.211C303.611 407.315 304.24 410.63 303.925 412.839C303.611 415.049 302.669 414.313 303.297 416.522C303.925 418.732 304.554 419.1 303.925 420.573C303.297 422.046 300.155 457.768 299.213 458.136C298.27 458.505 289.787 458.873 289.787 458.136C289.787 457.4 292.614 451.876 291.672 450.403C290.729 448.93 291.986 423.887 291.986 422.783C291.986 421.678 293.871 419.837 292.929 419.1C291.986 418.363 291.358 417.627 291.672 416.522C291.986 415.417 292.614 415.049 291.986 413.944C291.358 412.839 291.358 390.743 289.158 390.007C289.158 390.007 286.33 406.211 287.273 410.262C288.216 414.313 286.959 415.786 286.959 415.786L291.358 420.205L285.388 433.462L279.104 424.992C279.104 424.992 279.104 422.783 277.847 422.414C276.59 422.046 275.962 421.678 275.962 420.573C275.962 419.468 273.763 412.471 273.763 412.471C273.763 412.471 267.479 389.27 270.621 377.486C273.763 365.701 274.973 366.091 274.973 366.091L298.27 364.228Z" fill="#2F2E41"/>
<path d="M303.297 440.46L306.753 444.879L305.497 457.031H302.669L298.27 445.615L303.297 440.46Z" fill="#FFB9B9"/>
<path d="M305.496 448.561C305.496 448.561 304.24 451.876 303.297 451.139C302.354 450.402 302.042 449.298 300.627 449.298C299.212 449.298 297.956 449.666 298.27 450.402C298.584 451.139 302.354 459.241 302.354 459.241C302.908 460.624 303.194 462.133 303.194 463.66C303.194 465.188 302.908 466.696 302.354 468.079C300.469 472.867 307.381 475.445 308.638 470.289C309.895 465.133 310.209 459.241 309.895 457.031C309.581 454.822 311.466 443.405 311.466 443.405C311.466 443.405 306.39 440.663 304.844 440.561C304.844 440.561 306.125 447.088 305.496 448.561Z" fill="#2F2E41"/>
<path d="M297.013 456.663L298.27 461.082C298.27 461.082 298.27 465.502 299.527 467.711C300.783 469.921 302.04 474.708 297.013 475.076C291.986 475.445 289.787 473.235 289.787 473.235C289.787 473.235 290.729 470.289 289.787 469.184C288.844 468.079 289.787 465.87 289.787 465.87L290.729 457.031L297.013 456.663Z" fill="#2F2E41"/>
<path d="M288.53 419.836H291.358L305.496 441.564C305.496 441.564 302.983 448.561 299.213 449.298C299.213 449.298 298.584 448.929 295.756 446.72C292.929 444.51 285.388 433.462 285.388 433.462L284.445 427.202L288.53 419.836Z" fill="#2F2E41"/>
<path d="M281.618 299.413C287.17 299.413 291.672 294.137 291.672 287.629C291.672 281.12 287.17 275.844 281.618 275.844C276.065 275.844 271.563 281.12 271.563 287.629C271.563 294.137 276.065 299.413 281.618 299.413Z" fill="#FFB9B9"/>
<path d="M293.871 302.728L290.729 301.255C290.729 301.255 290.415 314.144 284.445 314.144C278.476 314.144 272.192 312.303 272.192 308.62C272.192 304.937 267.165 315.249 267.165 315.249C267.165 315.249 271.877 352.075 271.563 352.444C271.249 352.812 275.019 372.33 275.019 372.33C275.019 372.33 291.043 373.067 296.385 370.489C301.726 367.911 303.297 363.123 303.297 363.123L301.098 330.716L296.699 305.674L293.871 302.728Z" fill="#51E8B5"/>
<path d="M288.531 299.413C288.531 299.413 289.786 297.94 291.672 299.413C293.557 300.886 305.182 304.201 305.182 305.306V319.3C305.182 319.3 305.496 321.509 304.554 322.982C303.611 324.455 301.412 329.979 302.668 332.557C303.925 335.135 308.638 364.965 307.696 368.647C306.753 372.33 304.239 375.644 304.239 375.644C304.239 375.644 290.729 342.132 290.729 332.557C290.729 322.982 290.86 311.235 290.86 311.235L288.531 299.413Z" fill="#575A89"/>
<path d="M302.354 305.674H305.182C305.182 305.674 315.865 329.611 315.865 334.399C315.865 339.186 308.953 365.701 308.324 366.07C307.696 366.438 305.811 362.019 305.811 362.019L304.24 347.288C304.24 347.288 307.382 338.45 306.439 336.976C305.496 335.503 300.783 324.087 300.783 324.087L302.354 305.674Z" fill="#575A89"/>
<path d="M274.541 299.413C274.541 299.413 270.935 302.359 270.306 303.464C269.678 304.569 260.252 310.83 259.938 312.303C259.624 313.776 267.165 326.297 267.165 326.297C267.165 326.297 270.306 346.92 270.306 348.393C270.306 349.866 271.563 374.908 271.563 374.908C271.563 374.908 284.445 379.327 284.445 376.749C284.445 374.171 284.76 337.345 282.874 329.243C280.989 321.141 274.541 299.413 274.541 299.413Z" fill="#575A89"/>
<path d="M276.59 375.645C276.59 375.645 287.273 392.585 281.617 392.217C275.962 391.848 272.192 377.486 272.192 377.486L276.59 375.645Z" fill="#FFB9B9"/>
<path d="M263.708 311.198L259.938 312.303C259.938 312.303 256.796 344.71 258.681 349.129C260.566 353.548 270.621 382.273 270.621 381.168C270.621 380.064 279.465 378.094 279.127 377.054C278.79 376.013 276.905 371.593 276.276 370.12C275.648 368.647 274.705 366.806 275.019 364.965C275.334 363.123 271.563 355.242 271.563 355.242C271.563 355.242 270.621 350.602 270.306 348.393C269.992 346.183 267.165 321.877 267.165 321.877L263.708 311.198Z" fill="#575A89"/>
<path d="M291.476 278.506C291.283 277.813 290.878 277.229 290.338 276.868C290.366 276.136 290.285 275.405 290.098 274.706C289.472 272.665 287.989 272.782 286.59 271.879C285.983 271.488 286.021 271.142 285.705 270.499C285.281 269.644 284.661 268.946 283.915 268.484C283.052 267.766 282.056 267.3 281.009 267.124C278.777 266.956 277.067 269.271 274.934 270.014C273.994 270.342 272.984 270.355 272.039 270.665C271.094 270.974 270.152 271.714 270.011 272.79C269.946 273.287 270.061 273.797 269.995 274.293C269.863 275.281 269.078 275.972 268.553 276.784C267.39 278.58 267.523 281.117 268.453 283.071C268.65 283.477 268.874 283.864 269.123 284.228C269.202 285.157 269.443 286.056 269.831 286.871C270.76 288.825 272.36 290.285 274.031 291.498C273.894 290.852 273.811 290.191 273.783 289.525C273.759 289.303 273.785 289.078 273.859 288.871C274.045 288.442 274.537 288.328 274.911 288.093C275.269 287.818 275.559 287.438 275.752 286.991C275.946 286.544 276.036 286.045 276.015 285.544C276.037 284.559 275.848 283.573 275.942 282.593C275.947 282.364 275.994 282.14 276.08 281.935C276.167 281.73 276.29 281.55 276.442 281.407C276.732 281.225 277.058 281.14 277.385 281.158C278.976 281.087 280.639 281.055 282.042 280.225C282.497 279.891 282.983 279.62 283.491 279.416C284.684 279.073 285.903 279.995 286.59 281.123C287.277 282.252 287.62 283.595 288.254 284.761C288.888 285.927 289.984 286.967 291.21 286.828C291.278 286.829 291.346 286.813 291.408 286.783C291.471 286.752 291.528 286.706 291.576 286.649C291.628 286.545 291.652 286.425 291.643 286.305L291.712 281.134C291.769 280.249 291.689 279.358 291.476 278.506V278.506Z" fill="#2F2E41"/>
<path d="M458.184 492C492.324 492 520 489.689 520 486.838C520 483.987 492.324 481.676 458.184 481.676C424.044 481.676 396.368 483.987 396.368 486.838C396.368 489.689 424.044 492 458.184 492Z" fill="#3F3D56"/>
<path d="M436.547 474.74C436.547 474.74 431.27 479.949 428.492 479.624C425.715 479.298 420.438 479.298 422.66 482.879C424.882 486.46 434.048 488.414 437.936 488.739C441.825 489.065 450.435 489.39 449.88 487.437C449.324 485.484 448.769 476.368 446.547 475.717C444.325 475.066 436.547 474.74 436.547 474.74Z" fill="#575A89"/>
<path d="M466.837 469.626C466.837 469.626 462.948 476.306 460.198 476.867C457.448 477.428 452.365 479.091 455.326 481.84C458.288 484.59 467.564 483.584 471.385 482.672C475.205 481.761 483.573 479.362 482.59 477.656C481.607 475.949 478.982 467.344 476.692 467.417C474.403 467.49 466.837 469.626 466.837 469.626Z" fill="#575A89"/>
<path d="M433.456 374.097C433.456 374.097 429.881 402.792 430.715 408.001C431.548 413.21 432.103 421.349 432.103 421.349C432.103 421.349 431.548 428.186 432.103 431.441C432.659 434.697 435.992 465.625 435.992 466.276C435.992 466.927 435.436 468.88 435.992 470.508C436.547 472.136 437.658 470.834 435.992 473.438C434.325 476.043 435.436 476.694 435.714 476.694C435.992 476.694 446.824 477.996 447.38 476.694C447.935 475.392 447.102 475.066 447.38 473.438C447.658 471.81 447.935 471.485 448.491 471.159C449.047 470.834 450.158 471.485 449.324 469.857C448.491 468.229 446.547 466.276 447.102 465.299C447.658 464.323 446.824 457.16 446.824 457.16C446.824 457.16 446.269 441.208 445.991 431.441C445.713 421.675 448.491 411.582 448.491 411.582C448.837 419.574 451.369 427.222 455.713 433.395C462.934 443.487 466.545 462.369 466.545 462.369C466.545 462.369 468.212 465.299 467.378 467.904C466.545 470.508 464.045 468.88 466.545 470.508C469.045 472.136 477.656 469.857 478.489 468.88C479.322 467.904 477.378 466.601 477.933 463.997C478.489 461.393 480.711 462.044 478.766 460.741C476.822 459.439 476.267 459.765 476.267 458.463C476.267 457.16 471.267 428.837 463.49 420.698L462.934 391.072C462.934 391.072 469.878 370.237 462.657 368.283C455.435 366.33 433.456 374.097 433.456 374.097Z" fill="#2F2E41"/>
<path d="M438.492 296.986C438.492 296.986 443.214 310.66 442.103 312.613C440.992 314.566 455.713 306.102 455.713 306.102C455.713 306.102 450.991 292.429 450.991 290.801C450.991 289.173 438.492 296.986 438.492 296.986Z" fill="#A0616A"/>
<path d="M441.964 300.405C447.64 300.405 452.241 295.012 452.241 288.359C452.241 281.706 447.64 276.313 441.964 276.313C436.288 276.313 431.687 281.706 431.687 288.359C431.687 295.012 436.288 300.405 441.964 300.405Z" fill="#A0616A"/>
<path d="M455.713 300.567C455.713 300.567 448.491 299.591 444.88 304.8C441.269 310.009 440.714 311.311 440.714 311.311C440.714 311.311 432.103 327.589 433.77 335.728C434.176 336.462 434.547 337.223 434.881 338.006C435.436 339.309 435.436 357.54 434.881 360.47C434.325 363.4 433.77 364.377 434.325 368.609C434.881 372.841 429.881 379.678 435.714 380.98C441.547 382.282 445.991 381.305 447.935 378.375C449.88 375.445 448.213 373.492 454.324 373.492C458.066 373.416 461.642 371.669 464.323 368.609C464.323 368.609 461.268 364.702 462.379 364.051C463.49 363.4 462.379 361.772 461.823 360.144C461.268 358.516 461.268 357.214 462.101 357.214C462.934 357.214 462.379 356.563 461.823 354.935C461.268 353.308 471.545 325.31 465.434 317.171C459.323 309.032 456.268 304.474 456.268 304.474C456.268 304.474 457.379 299.591 455.713 300.567Z" fill="#51E8B5"/>
<path d="M439.881 331.495V345.82L430.992 380.329C430.992 380.329 425.159 398.235 430.992 398.235C436.825 398.235 436.513 381.144 436.513 381.144L449.047 355.261C449.047 355.261 454.046 334.751 453.491 333.123C452.935 331.495 439.881 331.495 439.881 331.495Z" fill="#A0616A"/>
<path d="M444.602 310.334C444.602 310.334 436.27 314.241 438.492 324.659C440.714 335.076 438.492 334.751 438.492 334.751C438.492 334.751 449.88 333.449 453.491 336.379L454.324 332.472C454.324 332.472 457.657 310.009 444.602 310.334Z" fill="#51E8B5"/>
<path d="M438.454 279.316C437.813 279.583 437.125 279.658 436.453 279.536C435.78 279.413 435.145 279.096 434.603 278.613C434.075 278.109 433.704 277.416 433.546 276.64C433.388 275.864 433.452 275.049 433.728 274.32C434.259 273.097 435.397 272.426 436.488 271.925C438.894 270.822 441.429 270.151 444.006 269.935C445.235 269.833 446.525 269.849 447.622 270.507C448.164 270.833 448.635 271.302 449.173 271.64C450.161 272.26 451.31 272.398 452.378 272.797C453.47 273.214 454.474 273.902 455.319 274.813C456.165 275.725 456.834 276.839 457.281 278.079C457.572 278.922 457.774 279.802 457.885 280.702C458.205 283.164 457.982 285.681 457.237 288.014C456.053 291.709 453.57 294.939 453.43 298.882C451.91 297.59 451.346 295.257 450.128 293.582C449.222 292.344 447.984 291.502 446.618 291.195C446.239 291.168 445.876 291.013 445.571 290.748C445.359 290.451 445.226 290.088 445.189 289.703L444.149 283.948C443.937 282.776 443.67 281.499 442.848 280.788C442.337 280.404 441.757 280.165 441.153 280.088C439.719 279.794 438.267 279.639 436.811 279.624" fill="#2F2E41"/>
</g>
<defs>
<clipPath id="clip0">
<rect width="520" height="492" fill="white"/>
</clipPath>
</defs>
</svg>
