<svg width="449" height="693" viewBox="0 0 449 693" fill="none" xmlns="http://www.w3.org/2000/svg">
<path d="M237.96 636.971C264.748 636.971 286.463 592.663 286.463 538.006C286.463 483.349 264.748 439.041 237.96 439.041C211.173 439.041 189.458 483.349 189.458 538.006C189.458 592.663 211.173 636.971 237.96 636.971Z" fill="#3F3D56"/>
<path d="M233.481 699.996C252.907 583.444 233.677 467.314 233.48 466.156L229.702 466.796C229.897 467.948 249.017 583.469 229.701 699.367L233.481 699.996Z" fill="#51E8B5"/>
<path d="M363.866 579.129C416.259 579.129 458.731 492.467 458.731 385.564C458.731 278.662 416.259 192 363.866 192C311.473 192 269 278.662 269 385.564C269 492.467 311.473 579.129 363.866 579.129Z" fill="#E6E6E6"/>
<path d="M356.299 724.097C394.243 496.437 356.682 269.606 356.298 267.341L352.52 267.981C352.902 270.24 390.353 496.461 352.519 723.469L356.299 724.097Z" fill="#51E8B5"/>
<path d="M282.48 367.556L280.672 370.936L366.459 416.822L368.267 413.442L282.48 367.556Z" fill="#51E8B5"/>
<path d="M129.816 529.755C201.512 529.755 259.632 411.165 259.632 264.877C259.632 118.59 201.512 0 129.816 0C58.1207 0 0 118.59 0 264.877C0 411.165 58.1207 529.755 129.816 529.755Z" fill="#E6E6E6"/>
<path d="M114.66 697.912C166.564 386.492 115.184 76.2088 114.659 73.1114L110.88 73.7515C111.404 76.8433 162.674 386.516 110.879 697.283L114.66 697.912Z" fill="#51E8B5"/>
<path d="M14.0081 210.752L12.2002 214.132L129.592 276.923L131.4 273.543L14.0081 210.752Z" fill="#51E8B5"/>
<path d="M253.483 242.207L136.108 305.029L137.917 308.408L255.292 245.587L253.483 242.207Z" fill="#51E8B5"/>
<path d="M79.8079 583L78 586.38L121.86 609.84L123.668 606.46L79.8079 583Z" fill="#51E8B5"/>
<path d="M168.149 594.752L124.295 618.225L126.104 621.604L169.958 598.131L168.149 594.752Z" fill="#51E8B5"/>
</svg>
