<svg width="260" height="648" viewBox="0 0 260 648" fill="none" xmlns="http://www.w3.org/2000/svg">
<path d="M129.816 529.755C58.1207 529.755 0 411.165 0 264.877C0 118.59 58.1207 0 129.816 0C201.512 0 259.632 118.59 259.632 264.877C259.632 411.165 201.512 529.755 129.816 529.755Z" fill="#E6E6E6"/>
<path d="M144.973 697.912C93.0687 386.492 144.449 76.2088 144.974 73.1114L148.752 73.7515C148.228 76.8433 96.9587 386.516 148.753 697.283L144.973 697.912Z" fill="#51E8B5"/>
<path d="M245.624 210.752L247.432 214.132L130.041 276.923L128.233 273.543L245.624 210.752Z" fill="#51E8B5"/>
<path d="M6.14929 242.207L123.524 305.029L121.715 308.408L4.34046 245.587L6.14929 242.207Z" fill="#51E8B5"/>
<path d="M87.8079 550L86 553.38L129.86 576.84L131.668 573.46L87.8079 550Z" fill="#51E8B5"/>
<path d="M176.149 561.752L132.295 585.225L134.104 588.604L177.958 565.131L176.149 561.752Z" fill="#51E8B5"/>
<path d="M161 625H139C127.492 625 117.212 625.814 110.426 630.175C107.234 624.367 102.541 619.523 96.837 616.15C91.1327 612.777 84.627 610.998 78.0001 611H55.9999C51.141 611 46.3297 611.957 41.8407 613.816C37.3516 615.676 33.2728 618.401 29.837 621.837C26.4013 625.273 23.6759 629.352 21.8165 633.841C19.957 638.33 19 643.141 19 648V648H198V648C198 627.565 181.435 625 161 625Z" fill="#3F3D56"/>
</svg>
