<svg width="664" height="490" viewBox="0 0 664 490" fill="none" xmlns="http://www.w3.org/2000/svg">
<g clip-path="url(#clip0)">
<path opacity="0.2" d="M200.265 32.753C192.095 33.8703 183.217 35.7512 177.817 43.2394C171.433 52.0923 172.289 65.5484 175.181 76.756C178.073 87.9635 182.644 98.8882 182.597 110.626C182.469 129.287 170.321 145.126 156.495 153.476C142.669 161.827 127.063 164.521 112.138 169.393C98.2186 173.959 84.9066 180.358 72.5209 188.436C62.0115 195.273 51.4415 204.211 47.235 217.703C40.3388 239.828 53.0256 263.311 65.5574 281.476C103.982 337.174 152.963 390.617 212.837 396.026C257.565 400.036 302.339 376.305 346.581 385.01C366.905 388.998 385.841 399.618 404.919 408.973C423.996 418.328 444.064 426.651 464.631 425.59C485.199 424.53 506.527 412.297 515.439 389.889C520.704 376.645 521.237 361.286 526.104 347.823C541.015 306.521 587.488 299.818 614.453 268.734C628.609 252.407 636.698 229.985 643.44 207.768C654.326 171.621 662.49 133.522 660.67 95.0911C659.874 78.3611 656.895 60.9876 648.044 48.0759C641.606 38.6786 632.62 32.4419 623.843 26.4103C603.862 12.6784 582.412 -1.49896 559.459 0.134449C546.233 1.07489 533.721 7.24789 521.102 12.0845C497.063 21.2768 471.986 25.8305 447.037 30.3206C405.815 37.7452 364 45.1697 322.219 41.4645C303.768 39.817 286.342 33.2409 268.189 30.5469C246.111 27.273 222.255 29.7479 200.265 32.753Z" fill="#51E8B5"/>
<path opacity="0.5" d="M533.222 147.056C547.37 147.056 558.839 135.026 558.839 120.186C558.839 105.346 547.37 93.3162 533.222 93.3162C519.075 93.3162 507.606 105.346 507.606 120.186C507.606 135.026 519.075 147.056 533.222 147.056Z" fill="#51E8B5"/>
<path d="M452.551 215.044H218.143L231.537 171.804H238.716L240.152 183.019H425.762L426.719 171.804H435.328L452.551 215.044Z" fill="#51E8B5"/>
<path opacity="0.2" d="M452.551 215.044H218.143L231.537 171.804H238.716L240.152 183.019H425.762L426.719 171.804H435.328L452.551 215.044Z" fill="black"/>
<path d="M468.818 224.653H197.097L190.396 207.039H474.561L468.818 224.653Z" fill="#51E8B5"/>
<path d="M460.209 235.868H203.791L197.097 224.653H468.818L460.209 235.868Z" fill="#51E8B5"/>
<path d="M460.203 232.665H203.791V245.477H460.203V232.665Z" fill="#51E8B5"/>
<path d="M480.298 266.294H188.482V314.342H480.298V266.294Z" fill="#51E8B5"/>
<path opacity="0.2" d="M480.298 266.294H188.482V314.342H480.298V266.294Z" fill="black"/>
<path d="M664 428.044L0 423.243L19.138 309.534H649.648L664 428.044Z" fill="#51E8B5"/>
<g opacity="0.2">
<path opacity="0.2" d="M188.077 392.816H196.557C199.239 392.816 201.811 393.933 203.708 395.923C205.604 397.912 206.669 400.61 206.669 403.423V424.848H177.965V403.423C177.965 400.61 179.031 397.912 180.927 395.923C182.823 393.933 185.395 392.816 188.077 392.816Z" fill="black"/>
<path opacity="0.2" d="M250.264 392.816H258.744C261.426 392.816 263.998 393.933 265.894 395.923C267.791 397.912 268.856 400.61 268.856 403.423V424.848H240.152V403.423C240.152 400.61 241.218 397.912 243.114 395.923C245.01 393.933 247.582 392.816 250.264 392.816Z" fill="black"/>
<path opacity="0.2" d="M327.76 392.816H336.24C338.922 392.816 341.494 393.933 343.39 395.923C345.287 397.912 346.352 400.61 346.352 403.423V424.848H317.648V403.423C317.648 400.61 318.713 397.912 320.61 395.923C322.506 393.933 325.078 392.816 327.76 392.816V392.816Z" fill="black"/>
<path opacity="0.2" d="M408.127 392.816H416.601C419.283 392.816 421.855 393.933 423.751 395.923C425.647 397.912 426.713 400.61 426.713 403.423V424.848H398.016V403.423C398.016 400.61 399.081 397.912 400.977 395.923C402.874 393.933 405.446 392.816 408.127 392.816Z" fill="black"/>
<path opacity="0.2" d="M472.235 392.816H480.716C483.398 392.816 485.97 393.933 487.866 395.923C489.762 397.912 490.827 400.61 490.827 403.423V424.848H462.124V403.423C462.124 400.61 463.189 397.912 465.085 395.923C466.982 393.933 469.554 392.816 472.235 392.816Z" fill="black"/>
</g>
<path opacity="0.2" d="M347.309 314.342H316.691V378.405H347.309V314.342Z" fill="black"/>
<path d="M193.268 266.294H188.482V314.342H193.268V266.294Z" fill="#51E8B5"/>
<path d="M221.014 266.294H216.228V314.342H221.014V266.294Z" fill="#51E8B5"/>
<path d="M251.632 266.294H246.846V314.342H251.632V266.294Z" fill="#51E8B5"/>
<path d="M281.293 266.294H276.507V314.342H281.293V266.294Z" fill="#51E8B5"/>
<path d="M313.826 266.294H309.04V314.342H313.826V266.294Z" fill="#51E8B5"/>
<path d="M357.832 266.294H353.046V314.342H357.832V266.294Z" fill="#51E8B5"/>
<path d="M387.493 266.294H382.707V314.342H387.493V266.294Z" fill="#51E8B5"/>
<path d="M420.983 266.294H416.197V314.342H420.983V266.294Z" fill="#51E8B5"/>
<path d="M449.686 266.294H444.9V314.342H449.686V266.294Z" fill="#51E8B5"/>
<path d="M480.305 266.294H475.518V314.342H480.305V266.294Z" fill="#51E8B5"/>
<path d="M480.298 269.498H188.482L171.265 253.482H496.564L480.298 269.498Z" fill="#51E8B5"/>
<path d="M199.962 269.498H188.482V275.904H199.962V269.498Z" fill="#51E8B5"/>
<path d="M224.843 269.498H213.363V275.904H224.843V269.498Z" fill="#51E8B5"/>
<path d="M254.497 269.498H243.017V275.904H254.497V269.498Z" fill="#51E8B5"/>
<path d="M285.116 269.498H273.635V275.904H285.116V269.498Z" fill="#51E8B5"/>
<path d="M317.648 269.498H306.168V275.904H317.648V269.498Z" fill="#51E8B5"/>
<path d="M360.704 269.498H349.224V275.904H360.704V269.498Z" fill="#51E8B5"/>
<path d="M391.322 269.498H379.842V275.904H391.322V269.498Z" fill="#51E8B5"/>
<path d="M424.805 269.498H413.325V275.904H424.805V269.498Z" fill="#51E8B5"/>
<path d="M453.509 269.498H442.029V275.904H453.509V269.498Z" fill="#51E8B5"/>
<path d="M480.298 269.498H468.818V275.904H480.298V269.498Z" fill="#51E8B5"/>
<path d="M498.479 253.482H170.308L166.479 242.274H501.35L498.479 253.482Z" fill="#51E8B5"/>
<path opacity="0.2" d="M498.479 253.482H170.308L166.479 242.274H501.35L498.479 253.482Z" fill="black"/>
<path d="M332 250.279C336.226 250.279 339.651 244.542 339.651 237.466C339.651 230.39 336.226 224.653 332 224.653C327.774 224.653 324.349 230.39 324.349 237.466C324.349 244.542 327.774 250.279 332 250.279Z" fill="#51E8B5"/>
<path opacity="0.2" d="M332 250.279C336.226 250.279 339.651 244.542 339.651 237.466C339.651 230.39 336.226 224.653 332 224.653C327.774 224.653 324.349 230.39 324.349 237.466C324.349 244.542 327.774 250.279 332 250.279Z" fill="black"/>
<path d="M332 245.47C334.643 245.47 336.786 241.887 336.786 237.466C336.786 233.045 334.643 229.461 332 229.461C329.357 229.461 327.214 233.045 327.214 237.466C327.214 241.887 329.357 245.47 332 245.47Z" fill="#51E8B5"/>
<path d="M444.017 422.231L411.201 395.814C411.201 395.814 408.552 384.805 407.494 377.097C406.435 369.39 404.845 336.368 404.845 336.368C405.598 333.509 406.096 330.584 406.334 327.628C406.658 327.558 407.008 327.473 407.312 327.381C409.765 326.725 412.039 325.481 413.956 323.748C415.873 322.014 417.381 319.838 418.36 317.39C421.731 308.593 417.376 298.199 411.862 291.227C406.348 284.255 399.411 278.654 395.784 270.014C391.308 259.365 392.839 246.496 390.553 234.842C390.334 233.21 389.755 231.653 388.861 230.296C387.446 228.45 385.228 228.047 383.246 227.312C376.99 224.986 372.298 218.607 368.638 211.954C362.713 201.17 356.578 184.773 344.37 183.839C339.833 183.493 335.094 185.098 330.51 185.084C323.398 185.084 316.354 185.176 309.303 186.201C306.781 186.562 304.166 187.057 302.063 188.803C294.843 194.792 298.112 210.624 291.156 217.087C289.086 219.003 286.437 219.689 284.098 221.005C275.28 225.954 271.364 239.156 271.883 251.035C272.125 256.6 273.231 262.398 276.366 266.464C278.846 269.717 282.385 271.583 284.698 275.013C288.432 280.55 287.927 287.889 287.522 295.356C282.534 297.548 278.529 300.066 277.269 302.774C273.035 311.853 273.561 342.951 273.561 342.951C273.561 342.951 275.152 393.863 262.978 400.226L217.455 433.248C217.455 433.248 185.165 403.804 177.224 421.142C171.791 433.001 191.616 439.711 204.687 442.766C196.443 448.903 191.879 460.245 195.749 467.931C201.816 480.037 218.776 488.296 218.776 488.296C218.776 488.296 283.457 491.57 313.354 484.541H313.846C326.54 486.952 344.754 489.491 359.362 487.964C359.639 488.671 359.834 489.123 359.834 489.123C359.834 489.123 453.536 497.382 470.463 463.802C479.152 446.584 470.085 438.629 459.191 434.966C471.386 433.948 485.273 430.37 486.87 419.495C489.803 399.668 444.017 422.231 444.017 422.231ZM434.58 432.76C417.437 439.315 403.517 439.683 396.108 439.188C392.461 430.865 377.287 394.789 376.889 370.648C376.983 365.26 377.9 360.551 379.95 357.015C384.365 349.4 385.666 343.432 385.518 338.892C385.518 338.553 385.518 338.228 385.518 337.903C385.538 336.515 385.409 335.13 385.133 333.773C385.862 335.639 386.079 337.682 385.76 339.67C384.17 348.205 388.41 403.514 388.41 403.514C388.41 403.514 391.848 415.896 398.993 419.474L434.58 432.76ZM266.692 428.85L283.1 417.84C283.1 417.84 290.778 414.001 291.553 404.618L296.946 359.908C297.317 361.824 297.803 363.713 298.402 365.564C299.359 368.499 299.751 372.798 299.825 377.917C299.643 402.843 291.553 444.251 291.553 444.251H291.654L291.594 444.548L291.021 444.583C277.707 444.159 246.684 442.942 229.313 440.418L266.692 428.85ZM237.941 454.914V455.013H233.897L237.941 454.914Z" fill="url(#paint0_linear)"/>
<path d="M367.404 216.451C370.943 222.942 375.494 229.179 381.527 231.427C383.441 232.134 385.572 232.537 386.92 234.333C387.782 235.66 388.34 237.177 388.551 238.767C390.756 250.13 389.279 262.681 393.607 273.061C397.112 281.469 403.82 286.949 409.152 293.73C414.484 300.511 418.671 310.651 415.435 319.221C414.5 321.596 413.054 323.711 411.21 325.402C409.366 327.092 407.173 328.312 404.804 328.965C400.341 330.23 395.683 329.672 391.153 328.859C385.181 327.749 379.1 326.03 374.125 321.788C365.517 314.455 361.877 301.282 357.374 289.572C355.257 284.085 352.446 278.336 347.794 276.371C342.462 274.122 336.476 277.877 333.018 283.385C329.56 288.893 328.023 295.816 326.351 302.477C324.463 309.993 322.07 317.807 317.109 322.721C314.957 324.923 312.244 326.424 309.296 327.043C306.348 327.662 303.293 327.371 300.499 326.207C294.971 323.789 290.596 317.679 289.329 310.587C287.367 299.655 292.066 286.546 286.302 277.905C284.064 274.56 280.646 272.736 278.213 269.568C275.213 265.601 274.114 259.952 273.878 254.528C273.373 242.946 277.161 230.041 285.682 225.247C287.96 223.967 290.502 223.296 292.504 221.429C299.245 215.15 296.07 199.714 303.047 193.852C305.069 192.148 307.604 191.674 310.044 191.313C316.88 190.316 323.668 190.203 330.544 190.224C334.98 190.224 339.557 188.676 343.945 189.015C355.749 189.949 361.661 205.936 367.404 216.451Z" fill="#965D7B"/>
<path d="M240.853 450.537L243.435 482.618L424.016 481.494L420.578 446.471L359.524 439.018L252.462 445.792L240.853 450.537Z" fill="#575988"/>
<path opacity="0.05" d="M240.853 450.537L243.435 482.618L424.016 481.494L420.578 446.471L359.524 439.018L252.462 445.792L240.853 450.537Z" fill="black"/>
<path d="M359.679 472.966L299.562 478.87C299.562 478.87 340.75 489.873 364.796 484.527L359.679 472.966Z" fill="#F7C4A7"/>
<path opacity="0.1" d="M359.679 472.966L299.562 478.87C299.562 478.87 340.75 489.873 364.796 484.527L359.679 472.966Z" fill="black"/>
<path d="M313.887 247.026C313.887 247.026 325.657 279.496 308.258 293.984C290.859 308.473 305.191 348.997 305.191 348.997L372.218 345.78C372.218 345.78 378.871 300.165 375.285 290.498C375.285 290.498 359.423 295.328 355.843 285.132C352.264 274.935 349.702 247.026 349.702 247.026H313.887Z" fill="#F7C4A7"/>
<path d="M298.537 443.444C298.537 443.444 241.999 442.101 225.376 437.788C208.752 433.474 194.421 454.157 200.306 465.966C206.191 477.774 222.551 485.821 222.551 485.821C222.551 485.821 306.714 490.113 324.881 478.043C324.881 478.043 331.791 457.381 324.881 453.358H237.146L301.86 452.015L298.537 443.444Z" fill="#575988"/>
<path d="M388.336 437.279C388.336 437.279 407.265 441.571 433.359 430.837C433.359 430.837 482.219 429.225 465.852 461.949C449.484 494.674 358.917 486.634 358.917 486.634C358.917 486.634 353.524 474.557 358.917 471.34C364.31 468.122 411.107 447.461 425.654 448.529L385.208 456.844L388.336 437.279Z" fill="#575988"/>
<path opacity="0.1" d="M352.021 262.646C351.044 255.002 350.471 248.772 350.471 248.772H314.655C316.309 253.693 317.457 258.785 318.08 263.961C323.102 267.649 329.134 269.517 335.261 269.279C341.387 269.042 347.272 266.713 352.021 262.646V262.646Z" fill="black"/>
<path d="M333.456 267.546C348.996 267.546 361.593 254.332 361.593 238.032C361.593 221.731 348.996 208.517 333.456 208.517C317.916 208.517 305.319 221.731 305.319 238.032C305.319 254.332 317.916 267.546 333.456 267.546Z" fill="#F7C4A7"/>
<path d="M316.961 289.424C316.961 289.424 283.194 296.134 279.102 304.98C275.011 313.826 275.523 344.16 275.523 344.16C275.523 344.16 277.06 393.806 265.29 399.972L221.291 432.173C221.291 432.173 190.079 403.458 182.408 420.365C174.736 437.271 219.248 443.444 219.248 443.444L268.876 427.888L284.738 417.154C284.738 417.154 292.153 413.4 292.922 404.271L299.575 348.99L326.182 340.943H369.144L374.9 323.704C374.9 323.704 385.518 332.628 383.981 340.943C382.444 349.259 386.536 403.168 386.536 403.168C386.536 403.168 389.859 415.245 396.769 418.724L436.683 433.8C436.683 433.8 478.896 438.092 481.707 418.774C484.518 399.456 440.262 421.454 440.262 421.454L408.539 395.694C408.539 395.694 405.984 384.96 404.959 377.444C403.934 369.927 402.404 337.733 402.404 337.733C402.404 337.733 412.125 303.919 383.987 298.022L347.66 286.213L316.961 289.424Z" fill="#F7C4A7"/>
<path opacity="0.1" d="M294.317 296.261L299.562 332.62C299.562 332.62 294.169 349.527 299.562 366.165C304.955 382.803 292.902 444.788 292.902 444.788C292.902 444.788 356.086 466.001 394.692 441.571C394.692 441.571 366.299 378.78 378.318 357.85C390.338 336.92 378.514 328.731 378.514 328.731L380.401 290.258L371.705 287.578L366.589 325.613C366.589 325.613 331.285 351.373 305.191 328.83L299.562 287.507L294.317 296.261Z" fill="black"/>
<path opacity="0.07" d="M330.814 339.479C328.081 334.898 323.819 331.549 318.86 330.086C313.9 328.623 308.599 329.151 303.991 331.567C312.559 338.291 322.003 340.087 330.814 339.479Z" fill="white"/>
<path opacity="0.07" d="M345.314 335.449C348.046 330.868 352.308 327.519 357.267 326.056C362.227 324.593 367.528 325.121 372.137 327.536C363.575 334.261 354.124 336.064 345.314 335.449Z" fill="white"/>
<path opacity="0.1" d="M294.317 296.261L299.562 330.74C299.562 330.74 294.169 347.646 299.562 364.284C304.955 380.923 292.902 442.907 292.902 442.907C292.902 442.907 356.086 464.12 394.692 439.69C394.692 439.69 366.299 376.899 378.318 355.969C390.338 335.039 378.514 326.851 378.514 326.851L380.361 288.349L371.665 285.669L366.548 323.775C366.548 323.775 331.245 349.534 305.15 326.992L299.521 285.669L294.317 296.261Z" fill="black"/>
<path d="M294.061 295.993L299.562 331.277C299.562 331.277 294.169 348.184 299.562 364.822C304.955 381.46 292.902 443.444 292.902 443.444C292.902 443.444 356.086 464.658 394.692 440.227C394.692 440.227 366.299 377.437 378.318 356.506C390.338 335.576 378.514 327.388 378.514 327.388L380.361 288.886L371.665 286.206L366.548 324.312C366.548 324.312 331.245 350.072 305.15 327.529L299.521 286.206L294.061 295.993Z" fill="#FC6681"/>
<path d="M320.028 456.597L333.348 454.716C333.348 454.716 348.698 434.054 359.699 449.886C359.699 449.886 364.303 460.083 369.932 461.963C373.781 463.183 377.717 464.08 381.702 464.643L358.938 471.354C358.938 471.354 348.961 477.527 338.471 475.915C332.297 474.928 325.988 475.48 320.055 477.527L320.028 456.597Z" fill="#F7C4A7"/>
<path opacity="0.1" d="M305.319 368.98C305.319 368.98 329.364 372.734 333.456 366.031Z" fill="black"/>
<path opacity="0.1" d="M350.875 364.688C350.875 364.688 355.479 369.517 373.896 366.031Z" fill="black"/>
<path opacity="0.1" d="M304.038 289.82C304.038 289.82 321.686 292.5 325.016 290.894Z" fill="black"/>
<path opacity="0.1" d="M342.927 289.82C342.927 289.82 360.576 292.5 363.906 290.894Z" fill="black"/>
<path opacity="0.1" d="M321.949 454.581C321.949 454.581 326.809 478.623 321.949 479.471C317.089 480.32 310.179 475.512 310.179 474.974C310.179 474.437 313.246 459.142 313.246 459.142L321.949 454.581Z" fill="black"/>
<path d="M321.437 454.581C321.437 454.581 326.297 478.623 321.437 479.471C316.576 480.32 309.667 475.512 309.667 474.974C309.667 474.437 312.734 459.142 312.734 459.142L321.437 454.581Z" fill="#575988"/>
<path opacity="0.1" d="M297.688 286.305C295.544 291.531 294.782 297.697 297.061 302.859C298.8 306.797 302.198 309.986 302.851 314.271C303.674 319.645 299.879 325.111 301.294 330.344C301.834 332.352 303.094 334.049 304.375 335.64C308.271 340.469 313.448 345.143 319.462 344.768C320.412 335.025 312.383 325.571 315.012 316.173C315.956 312.808 318.167 310.007 319.502 306.797C321.72 301.473 321.403 295.392 320.601 289.643C319.435 281.306 316.482 271.074 308.602 267.171C304.975 265.375 299.838 265.248 298.544 270.12C297.87 272.722 299.488 275.168 299.71 277.714C299.993 280.946 298.881 283.399 297.688 286.305Z" fill="black"/>
<path d="M297.688 285.499C295.544 290.725 294.782 296.891 297.061 302.052C298.8 305.991 302.198 309.18 302.851 313.465C303.674 318.839 299.879 324.305 301.294 329.537C301.834 331.546 303.094 333.243 304.375 334.834C308.271 339.663 313.448 344.337 319.462 343.962C320.412 334.219 312.383 324.765 315.012 315.367C315.956 312.001 318.167 309.201 319.502 305.991C321.72 300.667 321.403 294.585 320.601 288.837C319.435 280.5 316.482 270.268 308.602 266.365C304.975 264.569 299.838 264.442 298.544 269.314C297.87 271.916 299.488 274.362 299.71 276.908C299.993 280.146 298.881 282.6 297.688 285.499Z" fill="#965D7B"/>
<path opacity="0.1" d="M299.69 223.543C299.69 223.543 337.042 218.176 338.06 226.223C339.078 234.27 372.083 247.436 372.083 247.436L363.899 226.223L348.806 199.926C348.806 199.926 321.167 197.805 319.9 199.926C318.632 202.047 304.038 209.047 304.038 209.047L299.69 223.543Z" fill="black"/>
<path d="M299.69 223.006C299.69 223.006 337.042 217.639 338.06 225.686C339.078 233.732 372.083 246.899 372.083 246.899L363.899 225.686L348.806 199.395C348.806 199.395 321.167 197.274 319.9 199.395C318.632 201.517 304.038 208.517 304.038 208.517L299.69 223.006Z" fill="#965D7B"/>
<path opacity="0.1" d="M364.688 280.359C366.504 282.64 367.787 285.335 368.436 288.229C369.056 290.993 369.076 293.885 369.669 296.657C370.93 302.562 374.651 307.525 378.541 311.994C379.799 313.613 381.336 314.971 383.071 315.997C384.85 316.916 387.115 317.107 388.767 315.997C387.203 314.653 386.354 312.595 385.794 310.552C385.007 307.703 384.657 304.741 384.756 301.777C384.925 296.827 386.306 291.602 384.345 287.09C383.212 284.488 381.102 282.508 378.952 280.726C377.458 279.452 375.845 278.339 374.139 277.403C370.964 275.741 367.317 275.013 363.811 274.652C359.241 274.157 363.238 278.534 364.688 280.359Z" fill="black"/>
<path d="M364.688 279.545C366.506 281.831 367.789 284.531 368.436 287.43C369.056 290.194 369.076 293.086 369.669 295.858C370.93 301.763 374.651 306.726 378.541 311.195C379.799 312.814 381.336 314.172 383.071 315.198C384.85 316.117 387.115 316.308 388.767 315.198C387.203 313.854 386.354 311.796 385.794 309.753C385.007 306.904 384.657 303.942 384.756 300.978C384.925 296.028 386.306 290.803 384.345 286.291C383.212 283.689 381.102 281.709 378.952 279.927C377.458 278.653 375.845 277.54 374.139 276.604C370.964 274.942 367.317 274.214 363.811 273.853C359.241 273.351 363.238 277.728 364.688 279.545Z" fill="#965D7B"/>
<path opacity="0.1" d="M347.963 116.962H343.325C343.764 116.983 344.202 116.91 344.613 116.748C345.024 116.587 345.4 116.339 345.718 116.021C346.035 115.703 346.288 115.321 346.461 114.897C346.633 114.473 346.722 114.018 346.722 113.557C346.722 113.096 346.633 112.64 346.461 112.217C346.288 111.793 346.035 111.411 345.718 111.093C345.4 110.774 345.024 110.527 344.613 110.365C344.202 110.204 343.764 110.131 343.325 110.152H305.757C304.922 110.192 304.133 110.568 303.556 111.202C302.978 111.837 302.656 112.68 302.656 113.557C302.656 114.434 302.978 115.277 303.556 115.911C304.133 116.546 304.922 116.922 305.757 116.962H310.395C309.956 116.941 309.518 117.013 309.107 117.175C308.695 117.336 308.32 117.584 308.002 117.902C307.685 118.22 307.432 118.603 307.259 119.026C307.087 119.45 306.998 119.906 306.998 120.366C306.998 120.827 307.087 121.283 307.259 121.706C307.432 122.13 307.685 122.512 308.002 122.831C308.32 123.149 308.695 123.396 309.107 123.558C309.518 123.719 309.956 123.792 310.395 123.771H303.903C303.464 123.75 303.026 123.823 302.615 123.984C302.204 124.146 301.828 124.393 301.51 124.711C301.193 125.03 300.94 125.412 300.768 125.836C300.595 126.259 300.506 126.715 300.506 127.176C300.506 127.636 300.595 128.092 300.768 128.516C300.94 128.939 301.193 129.322 301.51 129.64C301.828 129.958 302.204 130.206 302.615 130.367C303.026 130.529 303.464 130.601 303.903 130.58H341.471C341.91 130.601 342.348 130.529 342.759 130.367C343.171 130.206 343.546 129.958 343.864 129.64C344.181 129.322 344.434 128.939 344.607 128.516C344.779 128.092 344.868 127.636 344.868 127.176C344.868 126.715 344.779 126.259 344.607 125.836C344.434 125.412 344.181 125.03 343.864 124.711C343.546 124.393 343.171 124.146 342.759 123.984C342.348 123.823 341.91 123.75 341.471 123.771H347.963C348.402 123.792 348.84 123.719 349.251 123.558C349.662 123.396 350.038 123.149 350.356 122.831C350.673 122.512 350.926 122.13 351.098 121.706C351.271 121.283 351.36 120.827 351.36 120.366C351.36 119.906 351.271 119.45 351.098 119.026C350.926 118.603 350.673 118.22 350.356 117.902C350.038 117.584 349.662 117.336 349.251 117.175C348.84 117.013 348.402 116.941 347.963 116.962V116.962Z" fill="#252223"/>
<path opacity="0.1" d="M529.973 116.962H525.335C525.774 116.983 526.212 116.91 526.623 116.748C527.035 116.587 527.41 116.339 527.728 116.021C528.045 115.703 528.298 115.321 528.471 114.897C528.643 114.473 528.732 114.018 528.732 113.557C528.732 113.096 528.643 112.64 528.471 112.217C528.298 111.793 528.045 111.411 527.728 111.093C527.41 110.774 527.035 110.527 526.623 110.365C526.212 110.204 525.774 110.131 525.335 110.152H487.767C486.932 110.192 486.143 110.568 485.566 111.202C484.988 111.837 484.666 112.68 484.666 113.557C484.666 114.434 484.988 115.277 485.566 115.911C486.143 116.546 486.932 116.922 487.767 116.962H492.405C491.966 116.941 491.528 117.013 491.117 117.175C490.706 117.336 490.33 117.584 490.012 117.902C489.695 118.22 489.442 118.603 489.269 119.026C489.097 119.45 489.008 119.906 489.008 120.366C489.008 120.827 489.097 121.283 489.269 121.706C489.442 122.13 489.695 122.512 490.012 122.831C490.33 123.149 490.706 123.396 491.117 123.558C491.528 123.719 491.966 123.792 492.405 123.771H485.913C485.475 123.75 485.036 123.823 484.625 123.984C484.214 124.146 483.838 124.393 483.521 124.711C483.203 125.03 482.95 125.412 482.778 125.836C482.605 126.259 482.516 126.715 482.516 127.176C482.516 127.636 482.605 128.092 482.778 128.516C482.95 128.939 483.203 129.322 483.521 129.64C483.838 129.958 484.214 130.206 484.625 130.367C485.036 130.529 485.475 130.601 485.913 130.58H523.481C523.92 130.601 524.358 130.529 524.77 130.367C525.181 130.206 525.556 129.958 525.874 129.64C526.192 129.322 526.444 128.939 526.617 128.516C526.79 128.092 526.879 127.636 526.879 127.176C526.879 126.715 526.79 126.259 526.617 125.836C526.444 125.412 526.192 125.03 525.874 124.711C525.556 124.393 525.181 124.146 524.77 123.984C524.358 123.823 523.92 123.75 523.481 123.771H529.973C530.412 123.792 530.85 123.719 531.261 123.558C531.672 123.396 532.048 123.149 532.366 122.831C532.683 122.512 532.936 122.13 533.109 121.706C533.281 121.283 533.37 120.827 533.37 120.366C533.37 119.906 533.281 119.45 533.109 119.026C532.936 118.603 532.683 118.22 532.366 117.902C532.048 117.584 531.672 117.336 531.261 117.175C530.85 117.013 530.412 116.941 529.973 116.962V116.962Z" fill="#252223"/>
<path opacity="0.1" d="M142.359 203.935H137.721C138.16 203.956 138.598 203.884 139.009 203.722C139.42 203.56 139.796 203.313 140.114 202.995C140.431 202.676 140.684 202.294 140.857 201.87C141.029 201.447 141.118 200.991 141.118 200.53C141.118 200.07 141.029 199.614 140.857 199.19C140.684 198.767 140.431 198.384 140.114 198.066C139.796 197.748 139.42 197.501 139.009 197.339C138.598 197.177 138.16 197.105 137.721 197.126H100.153C99.3175 197.166 98.5291 197.542 97.9515 198.176C97.3738 198.81 97.0515 199.653 97.0515 200.53C97.0515 201.407 97.3738 202.251 97.9515 202.885C98.5291 203.519 99.3175 203.895 100.153 203.935H104.791C103.955 203.975 103.167 204.351 102.589 204.985C102.012 205.619 101.689 206.463 101.689 207.34C101.689 208.217 102.012 209.06 102.589 209.694C103.167 210.328 103.955 210.705 104.791 210.744H98.299C97.8603 210.723 97.4221 210.796 97.0109 210.958C96.5996 211.119 96.2239 211.367 95.9064 211.685C95.5889 212.003 95.3361 212.386 95.1635 212.809C94.9908 213.233 94.9018 213.689 94.9018 214.149C94.9018 214.61 94.9908 215.066 95.1635 215.489C95.3361 215.913 95.5889 216.295 95.9064 216.613C96.2239 216.932 96.5996 217.179 97.0109 217.341C97.4221 217.502 97.8603 217.575 98.299 217.554H135.867C136.306 217.575 136.744 217.502 137.155 217.341C137.567 217.179 137.942 216.932 138.26 216.613C138.577 216.295 138.83 215.913 139.003 215.489C139.175 215.066 139.264 214.61 139.264 214.149C139.264 213.689 139.175 213.233 139.003 212.809C138.83 212.386 138.577 212.003 138.26 211.685C137.942 211.367 137.567 211.119 137.155 210.958C136.744 210.796 136.306 210.723 135.867 210.744H142.359C143.194 210.705 143.983 210.328 144.56 209.694C145.138 209.06 145.46 208.217 145.46 207.34C145.46 206.463 145.138 205.619 144.56 204.985C143.983 204.351 143.194 203.975 142.359 203.935V203.935Z" fill="#252223"/>
<path d="M531.692 477.378C531.692 477.378 515.062 418.151 534.813 374.559C543.105 356.266 545.855 335.725 542.026 315.869C540.195 306.442 537.544 297.211 534.105 288.292" stroke="#535461" stroke-width="2" stroke-miterlimit="10"/>
<path d="M546.368 260.779C546.368 268.041 533.836 289.063 533.836 289.063C533.836 289.063 521.304 268.013 521.304 260.779C521.265 259.028 521.561 257.286 522.173 255.656C522.785 254.026 523.702 252.541 524.869 251.288C526.036 250.035 527.43 249.039 528.97 248.359C530.509 247.679 532.162 247.329 533.832 247.329C535.503 247.329 537.156 247.679 538.695 248.359C540.234 249.039 541.629 250.035 542.796 251.288C543.963 252.541 544.88 254.026 545.492 255.656C546.104 257.286 546.4 259.028 546.361 260.779H546.368Z" fill="#51E8B5"/>
<path d="M567.103 300.985C563.342 307.08 541.918 317.602 541.918 317.602C541.918 317.602 542.309 292.789 546.071 286.694C547.916 283.863 550.742 281.901 553.948 281.226C557.153 280.55 560.482 281.215 563.227 283.079C565.971 284.943 567.912 287.857 568.636 291.201C569.36 294.545 568.81 298.053 567.103 300.978V300.985Z" fill="#51E8B5"/>
<path d="M566.193 369.694C560.012 372.961 536.458 370.705 536.458 370.705C536.458 370.705 548.734 349.492 554.915 346.225C556.388 345.407 558.002 344.905 559.662 344.749C561.322 344.593 562.995 344.786 564.583 345.316C566.171 345.847 567.643 346.704 568.911 347.838C570.179 348.973 571.219 350.361 571.97 351.922C572.72 353.483 573.166 355.185 573.282 356.929C573.398 358.673 573.18 360.424 572.643 362.079C572.106 363.734 571.259 365.26 570.153 366.567C569.047 367.875 567.703 368.938 566.2 369.694H566.193Z" fill="#51E8B5"/>
<path d="M554.349 421.517C548.788 425.831 525.2 427.782 525.2 427.782C525.2 427.782 533.883 404.702 539.444 400.382C540.766 399.339 542.272 398.581 543.875 398.151C545.477 397.722 547.145 397.629 548.782 397.879C550.419 398.129 551.992 398.716 553.412 399.607C554.831 400.498 556.068 401.675 557.052 403.07C558.036 404.465 558.746 406.05 559.143 407.735C559.54 409.419 559.615 411.169 559.363 412.884C559.112 414.599 558.54 416.245 557.679 417.727C556.818 419.208 555.687 420.497 554.349 421.517V421.517Z" fill="#51E8B5"/>
<path d="M515.608 319.009C520.569 324.065 543.698 329.304 543.698 329.304C543.698 329.304 538.035 305.213 533.074 300.15C530.674 297.818 527.499 296.564 524.228 296.654C520.957 296.745 517.85 298.173 515.57 300.635C513.29 303.097 512.019 306.396 512.027 309.828C512.035 313.26 513.323 316.552 515.615 319.002L515.608 319.009Z" fill="#51E8B5"/>
<path d="M502.49 379.798C508.671 383.065 532.225 380.809 532.225 380.809C532.225 380.809 519.949 359.596 513.767 356.33C512.295 355.511 510.681 355.009 509.021 354.853C507.361 354.697 505.688 354.89 504.1 355.421C502.512 355.951 501.04 356.809 499.772 357.943C498.504 359.077 497.464 360.465 496.713 362.026C495.963 363.587 495.516 365.29 495.401 367.034C495.285 368.778 495.502 370.528 496.04 372.183C496.577 373.838 497.423 375.364 498.53 376.672C499.636 377.979 500.98 379.042 502.483 379.798H502.49Z" fill="#51E8B5"/>
<path d="M497.468 440.722C503.029 445.035 526.616 446.987 526.616 446.987C526.616 446.987 517.934 423.9 512.365 419.587C511.043 418.544 509.538 417.786 507.935 417.356C506.332 416.927 504.665 416.834 503.028 417.084C501.391 417.334 499.817 417.921 498.398 418.812C496.979 419.703 495.741 420.88 494.758 422.275C493.774 423.67 493.063 425.255 492.667 426.94C492.27 428.624 492.195 430.374 492.446 432.089C492.698 433.804 493.27 435.45 494.131 436.931C494.991 438.413 496.123 439.701 497.461 440.722H497.468Z" fill="#51E8B5"/>
<path d="M546.368 260.779C546.368 268.041 533.836 289.063 533.836 289.063C533.836 289.063 521.304 268.013 521.304 260.779C521.265 259.028 521.561 257.286 522.173 255.656C522.785 254.026 523.702 252.541 524.869 251.288C526.036 250.035 527.43 249.039 528.97 248.359C530.509 247.679 532.162 247.329 533.832 247.329C535.503 247.329 537.156 247.679 538.695 248.359C540.234 249.039 541.629 250.035 542.796 251.288C543.963 252.541 544.88 254.026 545.492 255.656C546.104 257.286 546.4 259.028 546.361 260.779H546.368Z" fill="#FC6681"/>
<path d="M567.103 300.985C563.342 307.08 541.918 317.602 541.918 317.602C541.918 317.602 542.309 292.789 546.071 286.694C547.916 283.863 550.742 281.901 553.948 281.226C557.153 280.55 560.482 281.215 563.227 283.079C565.971 284.943 567.912 287.857 568.636 291.201C569.36 294.545 568.81 298.053 567.103 300.978V300.985Z" fill="#FC6681"/>
<path d="M566.193 369.694C560.012 372.961 536.458 370.705 536.458 370.705C536.458 370.705 548.734 349.492 554.915 346.225C556.388 345.407 558.002 344.905 559.662 344.749C561.322 344.593 562.995 344.786 564.583 345.316C566.171 345.847 567.643 346.704 568.911 347.838C570.179 348.973 571.219 350.361 571.97 351.922C572.72 353.483 573.166 355.185 573.282 356.929C573.398 358.673 573.18 360.424 572.643 362.079C572.106 363.734 571.259 365.26 570.153 366.567C569.047 367.875 567.703 368.938 566.2 369.694H566.193Z" fill="#FC6681"/>
<path d="M554.349 421.517C548.788 425.831 525.2 427.782 525.2 427.782C525.2 427.782 533.883 404.702 539.444 400.382C540.766 399.339 542.272 398.581 543.875 398.151C545.477 397.722 547.145 397.629 548.782 397.879C550.419 398.129 551.992 398.716 553.412 399.607C554.831 400.498 556.068 401.675 557.052 403.07C558.036 404.465 558.746 406.05 559.143 407.735C559.54 409.419 559.615 411.169 559.363 412.884C559.112 414.599 558.54 416.245 557.679 417.727C556.818 419.208 555.687 420.497 554.349 421.517V421.517Z" fill="#FC6681"/>
<path d="M515.608 319.009C520.569 324.065 543.698 329.304 543.698 329.304C543.698 329.304 538.035 305.213 533.074 300.15C530.674 297.818 527.499 296.564 524.228 296.654C520.957 296.745 517.85 298.173 515.57 300.635C513.29 303.097 512.019 306.396 512.027 309.828C512.035 313.26 513.323 316.552 515.615 319.002L515.608 319.009Z" fill="#FC6681"/>
<path d="M502.49 379.798C508.671 383.065 532.225 380.809 532.225 380.809C532.225 380.809 519.949 359.596 513.767 356.33C512.295 355.511 510.681 355.009 509.021 354.853C507.361 354.697 505.688 354.89 504.1 355.421C502.512 355.951 501.04 356.809 499.772 357.943C498.504 359.077 497.464 360.465 496.713 362.026C495.963 363.587 495.516 365.29 495.401 367.034C495.285 368.778 495.502 370.528 496.04 372.183C496.577 373.838 497.423 375.364 498.53 376.672C499.636 377.979 500.98 379.042 502.483 379.798H502.49Z" fill="#FC6681"/>
<path d="M497.468 440.722C503.029 445.035 526.616 446.987 526.616 446.987C526.616 446.987 517.934 423.9 512.365 419.587C511.043 418.544 509.538 417.786 507.935 417.356C506.332 416.927 504.665 416.834 503.028 417.084C501.391 417.334 499.817 417.921 498.398 418.812C496.979 419.703 495.741 420.88 494.758 422.275C493.774 423.67 493.063 425.255 492.667 426.94C492.27 428.624 492.195 430.374 492.446 432.089C492.698 433.804 493.27 435.45 494.131 436.931C494.991 438.413 496.123 439.701 497.461 440.722H497.468Z" fill="#FC6681"/>
<path d="M139.359 475.964C139.359 475.964 122.729 416.737 142.48 373.144C150.772 354.852 153.522 334.31 149.693 314.455C147.862 305.028 145.211 295.797 141.772 286.878" stroke="#535461" stroke-width="2" stroke-miterlimit="10"/>
<path d="M154.035 259.365C154.035 266.627 141.503 287.649 141.503 287.649C141.503 287.649 128.971 266.598 128.971 259.365C128.932 257.613 129.228 255.871 129.84 254.242C130.452 252.612 131.369 251.126 132.536 249.873C133.703 248.62 135.097 247.625 136.637 246.945C138.176 246.265 139.829 245.915 141.499 245.915C143.17 245.915 144.823 246.265 146.362 246.945C147.901 247.625 149.296 248.62 150.463 249.873C151.63 251.126 152.547 252.612 153.159 254.242C153.771 255.871 154.067 257.613 154.028 259.365H154.035Z" fill="#51E8B5"/>
<path d="M174.77 299.571C171.009 305.666 149.585 316.187 149.585 316.187C149.585 316.187 149.976 291.375 153.738 285.28C155.583 282.449 158.41 280.487 161.615 279.811C164.82 279.136 168.149 279.801 170.894 281.665C173.638 283.528 175.579 286.443 176.303 289.787C177.028 293.131 176.477 296.639 174.77 299.563V299.571Z" fill="#51E8B5"/>
<path d="M173.86 368.28C167.679 371.546 144.125 369.291 144.125 369.291C144.125 369.291 156.401 348.078 162.582 344.811C165.54 343.323 168.936 343.111 172.041 344.22C175.147 345.329 177.713 347.671 179.191 350.744C180.668 353.816 180.938 357.373 179.943 360.652C178.947 363.931 176.766 366.669 173.867 368.28H173.86Z" fill="#51E8B5"/>
<path d="M162.016 420.103C156.455 424.416 132.867 426.368 132.867 426.368C132.867 426.368 141.55 403.288 147.111 398.968C148.433 397.925 149.939 397.167 151.542 396.737C153.144 396.308 154.812 396.215 156.449 396.465C158.086 396.715 159.659 397.302 161.079 398.193C162.498 399.084 163.735 400.261 164.719 401.656C165.703 403.051 166.413 404.636 166.81 406.32C167.207 408.005 167.282 409.755 167.03 411.47C166.779 413.185 166.207 414.831 165.346 416.312C164.485 417.794 163.354 419.082 162.016 420.103V420.103Z" fill="#51E8B5"/>
<path d="M123.275 317.595C128.236 322.65 151.365 327.89 151.365 327.89C151.365 327.89 145.702 303.799 140.741 298.736C138.341 296.404 135.166 295.149 131.895 295.24C128.624 295.33 125.517 296.759 123.237 299.221C120.957 301.682 119.686 304.982 119.694 308.414C119.702 311.846 120.99 315.138 123.282 317.587L123.275 317.595Z" fill="#51E8B5"/>
<path d="M110.157 378.384C116.338 381.651 139.892 379.395 139.892 379.395C139.892 379.395 127.616 358.182 121.434 354.915C118.477 353.427 115.081 353.215 111.975 354.324C108.87 355.434 106.303 357.776 104.826 360.848C103.349 363.92 103.079 367.478 104.074 370.756C105.07 374.035 107.251 376.774 110.15 378.384H110.157Z" fill="#51E8B5"/>
<path d="M105.134 439.308C110.696 443.621 134.283 445.573 134.283 445.573C134.283 445.573 125.6 422.486 120.032 418.173C118.71 417.13 117.205 416.372 115.602 415.942C113.999 415.512 112.332 415.42 110.695 415.67C109.058 415.92 107.484 416.507 106.065 417.398C104.646 418.289 103.408 419.466 102.425 420.861C101.441 422.256 100.73 423.841 100.334 425.525C99.9368 427.21 99.862 428.96 100.113 430.675C100.365 432.39 100.937 434.035 101.798 435.517C102.658 436.999 103.79 438.287 105.128 439.308H105.134Z" fill="#51E8B5"/>
<path d="M154.035 259.365C154.035 266.627 141.503 287.649 141.503 287.649C141.503 287.649 128.971 266.598 128.971 259.365C128.932 257.613 129.228 255.871 129.84 254.242C130.452 252.612 131.369 251.126 132.536 249.873C133.703 248.62 135.097 247.625 136.637 246.945C138.176 246.265 139.829 245.915 141.499 245.915C143.17 245.915 144.823 246.265 146.362 246.945C147.901 247.625 149.296 248.62 150.463 249.873C151.63 251.126 152.547 252.612 153.159 254.242C153.771 255.871 154.067 257.613 154.028 259.365H154.035Z" fill="#FC6681"/>
<path d="M174.77 299.571C171.009 305.666 149.585 316.187 149.585 316.187C149.585 316.187 149.976 291.375 153.738 285.28C155.583 282.449 158.41 280.487 161.615 279.811C164.82 279.136 168.149 279.801 170.894 281.665C173.638 283.528 175.579 286.443 176.303 289.787C177.028 293.131 176.477 296.639 174.77 299.563V299.571Z" fill="#FC6681"/>
<path d="M173.86 368.28C167.679 371.546 144.125 369.291 144.125 369.291C144.125 369.291 156.401 348.078 162.582 344.811C165.54 343.323 168.936 343.111 172.041 344.22C175.147 345.329 177.713 347.671 179.191 350.744C180.668 353.816 180.938 357.373 179.943 360.652C178.947 363.931 176.766 366.669 173.867 368.28H173.86Z" fill="#FC6681"/>
<path d="M162.016 420.103C156.455 424.416 132.867 426.368 132.867 426.368C132.867 426.368 141.55 403.288 147.111 398.968C148.433 397.925 149.939 397.167 151.542 396.737C153.144 396.308 154.812 396.215 156.449 396.465C158.086 396.715 159.659 397.302 161.079 398.193C162.498 399.084 163.735 400.261 164.719 401.656C165.703 403.051 166.413 404.636 166.81 406.32C167.207 408.005 167.282 409.755 167.03 411.47C166.779 413.185 166.207 414.831 165.346 416.312C164.485 417.794 163.354 419.082 162.016 420.103V420.103Z" fill="#FC6681"/>
<path d="M123.275 317.595C128.236 322.65 151.365 327.89 151.365 327.89C151.365 327.89 145.702 303.799 140.741 298.736C138.341 296.404 135.166 295.149 131.895 295.24C128.624 295.33 125.517 296.759 123.237 299.221C120.957 301.682 119.686 304.982 119.694 308.414C119.702 311.846 120.99 315.138 123.282 317.587L123.275 317.595Z" fill="#FC6681"/>
<path d="M110.157 378.384C116.338 381.651 139.892 379.395 139.892 379.395C139.892 379.395 127.616 358.182 121.434 354.915C118.477 353.427 115.081 353.215 111.975 354.324C108.87 355.434 106.303 357.776 104.826 360.848C103.349 363.92 103.079 367.478 104.074 370.756C105.07 374.035 107.251 376.774 110.15 378.384H110.157Z" fill="#FC6681"/>
<path d="M105.134 439.308C110.696 443.621 134.283 445.573 134.283 445.573C134.283 445.573 125.6 422.486 120.032 418.173C118.71 417.13 117.205 416.372 115.602 415.942C113.999 415.512 112.332 415.42 110.695 415.67C109.058 415.92 107.484 416.507 106.065 417.398C104.646 418.289 103.408 419.466 102.425 420.861C101.441 422.256 100.73 423.841 100.334 425.525C99.9368 427.21 99.862 428.96 100.113 430.675C100.365 432.39 100.937 434.035 101.798 435.517C102.658 436.999 103.79 438.287 105.128 439.308H105.134Z" fill="#FC6681"/>
</g>
<defs>
<linearGradient id="paint0_linear" x1="331.67" y1="490.007" x2="331.67" y2="183.832" gradientUnits="userSpaceOnUse">
<stop stop-color="#808080" stop-opacity="0.25"/>
<stop offset="0.54" stop-color="#808080" stop-opacity="0.12"/>
<stop offset="1" stop-color="#808080" stop-opacity="0.1"/>
</linearGradient>
<clipPath id="clip0">
<rect width="664" height="490" fill="white"/>
</clipPath>
</defs>
</svg>
