<svg id="af24c1d2-8586-4e6b-81b3-4cf1a6f0777f" xmlns="http://www.w3.org/2000/svg" viewBox="0 0 961.85 436.8"><defs><style>.cls-1{fill:#6c63ff;}.cls-2{fill:#3f3d56;}.cls-3{fill:#ffb8b8;}.cls-4{fill:#d0cde1;}.cls-5{fill:#2f2e41;}.cls-6{fill:none;stroke:#d0cde1;stroke-miterlimit:10;stroke-width:2px;}.cls-7{fill:#a0616a;}</style></defs><path class="cls-1" d="M470.79,363.14c14.38,15.42,15.12,38.1,15.12,38.1S463.35,398.9,449,383.47s-15.12-38.1-15.12-38.1S456.42,347.71,470.79,363.14Z" transform="translate(0 0)"/><path class="cls-1" d="M516.05,387.22c-15.43,14.37-38.1,15.11-38.1,15.11s2.34-22.56,17.76-36.94,38.1-15.12,38.1-15.12S531.48,372.84,516.05,387.22Z" transform="translate(0 0)"/><path class="cls-2" d="M512.21,433H455.48a5.8,5.8,0,0,1-5.22-3.26l-12.36-25.4a5.8,5.8,0,0,1,5.22-8.34h81.45a5.8,5.8,0,0,1,5.8,5.8,5.87,5.87,0,0,1-.58,2.54l-12.36,25.4A5.8,5.8,0,0,1,512.21,433Z" transform="translate(0 0)"/><circle class="cls-3" cx="767.03" cy="76.07" r="47.24"/><path class="cls-3" d="M731.77,99.69s8.9,67.1-4.8,74.63,81.48,8.22,81.48,8.22-21.22-58.2-11.64-76Z" transform="translate(0 0)"/><path class="cls-4" d="M878,182.88l-7.92,36L853.3,295.17l-.51,4.18L847,347.69l-3.84,32.12-2.58,21.57c-15.66,8.05-27,13.61-27,13.61s-1-4.9-2.56-11.16c-11,3.3-31.33,8.76-48.56,9.86,6.27,7,9.16,13.56,5.24,18.42-11.8,14.62-60.55-16-77.6-27.44a45.68,45.68,0,0,0-.45,8.26l-13-10,1.29-23.09,2.18-39.07,2.73-49a51.94,51.94,0,0,1-2.16-6.45c-4-14.21-8.85-42.58-12.57-66.38-3-19.15-5.24-35.33-5.72-38.78l-.09-.68,72.23-31.92c5.13,11.91,29.1,15.49,29.1,15.49,19.86-1.37,35.43-11.84,35.43-11.84Z" transform="translate(0 0)"/><path class="cls-3" d="M819.07,401.3s-3.06,1.05-8,2.53c-11,3.3-31.33,8.76-48.56,9.86-14.85.95-27.39-1.34-29.68-11-1-4.17.41-7.59,3.45-10.4,9.07-8.41,32.77-11.43,51.56-12.46,5.3-.29,10.21-.42,14.3-.48,6.94-.09,11.49.06,11.49.06l.1.42Z" transform="translate(0 0)"/><path class="cls-5" d="M727.73,31.38l-8.84-3.53S737.36,7.51,763.06,9.28l-7.23-8s17.67-7.07,33.73,11.5C798,22.58,807.77,34.05,813.86,47h9.46l-4,8.69,13.82,8.7L819,62.8a48.75,48.75,0,0,1,.38,14.42,18.67,18.67,0,0,1-6.83,12.2h0s-11-22.67-11-26.21v8.84s-8.83-8-8.83-13.26L788,65l-2.41-9.73L755.83,65l4.82-8-18.47,2.65L749.41,50s-20.88,11.49-21.68,21.22-6.92,18.94-6.92,18.94S704.44,44.64,727.73,31.38Z" transform="translate(0 0)"/><path class="cls-4" d="M929.3,348.57c-4.81,5.22-16.74,13.08-31.19,21.58-5.38,3.16-11.11,6.42-17,9.66-13.93,7.73-28.52,15.39-40.56,21.57-15.66,8.05-27,13.61-27,13.61s-1-4.9-2.56-11.16c-2.1-8.38-5.28-19.22-8.59-24-.11-.17-.23-.32-.34-.48-1-1.26-1.94-2-2.89-2L847,347.69l20.66-12.81-14.89-35.53-18.67-44.57,11.27-35.86,11.33-36H878s7,15.34,16,36.73c1.35,3.2,2.73,6.54,4.15,10C916.6,274.56,939.65,337.36,929.3,348.57Z" transform="translate(0 0)"/><path class="cls-3" d="M767.71,432.11c-11.8,14.62-60.55-16-77.6-27.44-3.72-2.48-5.93-4.06-5.93-4.06l15.6-20.8,4.94-6.59s4.42,2.35,11,6.17l.71.42c5.64,3.31,12.71,7.63,19.85,12.46,9.85,6.66,19.81,14.26,26.23,21.42C768.74,420.68,771.63,427.25,767.71,432.11Z" transform="translate(0 0)"/><path class="cls-4" d="M715.68,379.39a30.27,30.27,0,0,0-5.21.42c-14.77,2.54-19.12,15.91-20.36,24.86a45.68,45.68,0,0,0-.45,8.26l-13-10-4.76-3.66c-11.44-4-21.63-11.07-30.47-19.43a153.52,153.52,0,0,1-20.53-24.34A214.72,214.72,0,0,1,605,328.23a20.06,20.06,0,0,1-.28-17l16.16-36,23.62-52.63c.17-1.25.36-2.47.57-3.67,4.68-26.85,17.23-38.78,17.23-38.78h9.58l6.42,38.78,8,48.18-5.58,18.2-12.9,42.05,12.33,13.39Z" transform="translate(0 0)"/><path class="cls-1" d="M726.52,267.14l8.2,9.56c3-.58,6.22-1.27,9.5-2l-2.36-7.53,5.76,6.71c34.69-8.53,77.69-25.12,77.69-25.12s-46.42,3.4-81.09-4.17c-15.33-3.35-31.11,4.25-37.4,18.63-3.66,8.36-3.09,15.6,9.89,15.6a84.28,84.28,0,0,0,13.07-1.23Z" transform="translate(0 0)"/><path class="cls-2" d="M913.33,424.27v3.9a8.6,8.6,0,0,1-.58,3.13,8,8,0,0,1-.63,1.28,8.61,8.61,0,0,1-7.42,4.22H617.82a8.61,8.61,0,0,1-7.42-4.22,8.93,8.93,0,0,1-.63-1.28,8.6,8.6,0,0,1-.58-3.13v-3.9a8.62,8.62,0,0,1,8.62-8.63h16.54v-1.82a.36.36,0,0,1,.36-.36h8.63a.36.36,0,0,1,.36.36h0v1.82h5.39v-1.82a.36.36,0,0,1,.36-.36h8.63a.36.36,0,0,1,.36.36h0v1.82h5.4v-1.82a.36.36,0,0,1,.35-.36h8.63a.36.36,0,0,1,.36.36h0v1.82h5.39v-1.82a.36.36,0,0,1,.36-.36h8.63a.36.36,0,0,1,.36.36h0v1.82h5.39v-1.82a.36.36,0,0,1,.36-.36h8.63a.36.36,0,0,1,.36.36h0v1.82h5.4v-1.82a.36.36,0,0,1,.35-.36H717a.36.36,0,0,1,.36.36h0v1.82h5.39v-1.82a.36.36,0,0,1,.36-.36h67.59a.36.36,0,0,1,.36.36h0v1.82h5.4v-1.82a.36.36,0,0,1,.35-.36h8.63a.36.36,0,0,1,.36.36v1.82h5.39v-1.82a.36.36,0,0,1,.36-.36h8.63a.36.36,0,0,1,.36.36h0v1.82H826v-1.82a.36.36,0,0,1,.36-.36H835a.36.36,0,0,1,.36.36h0v1.82h5.4v-1.82a.36.36,0,0,1,.35-.36h8.63a.36.36,0,0,1,.36.36v1.82h5.39v-1.82a.36.36,0,0,1,.36-.36h8.63a.36.36,0,0,1,.36.36h0v1.82h5.39v-1.82a.36.36,0,0,1,.36-.36h8.63a.36.36,0,0,1,.36.36h0v1.82H904.7a8.62,8.62,0,0,1,8.63,8.62Z" transform="translate(0 0)"/><path class="cls-2" d="M890.23,260H783.3v-2.21H734.81V260H627.44a7.23,7.23,0,0,0-7.23,7.23h0V413.69a7.24,7.24,0,0,0,7.23,7.24H890.23a7.24,7.24,0,0,0,7.24-7.24h0V267.27a7.24,7.24,0,0,0-7.24-7.23Z" transform="translate(0 0)"/><circle class="cls-6" cx="759.05" cy="311.16" r="16.06"/><circle class="cls-4" cx="753.91" cy="316.94" r="16.06"/><circle class="cls-5" cx="282.31" cy="165.71" r="23.38"/><path class="cls-5" d="M288.83,143a23.38,23.38,0,0,1,20.58,34.48,23.38,23.38,0,1,0-36.52-29.19,22.84,22.84,0,0,0-2.32,3.5A23.31,23.31,0,0,1,288.83,143Z" transform="translate(0 0)"/><circle class="cls-5" cx="238.62" cy="96.97" r="68.69"/><path class="cls-5" d="M184.71,54.35a68.68,68.68,0,0,1,95.19-7.2c-.56-.53-1.12-1.07-1.7-1.59a68.69,68.69,0,0,0-91.27,102.67c.58.52,1.18,1,1.78,1.5A68.67,68.67,0,0,1,184.71,54.35Z" transform="translate(0 0)"/><circle class="cls-7" cx="238.04" cy="120.83" r="44.24"/><path class="cls-7" d="M206.6,134.8s5.82,53.56-3.49,59.38,53.55,14,53.55,14-9.31-58.21,14-73.35Z" transform="translate(0 0)"/><path class="cls-4" d="M262.48,184.86s17.34-8.09-7.63-5.21-46.5-8.17-46.5-8.17-7.57-7.57-8.73.58,3.49,23.28-22.12,25.61-48.9-4.66-58.21,12.81-4.66,93.13-4.66,93.13,17.47,62.87,31.44,72.18,136.2-3.49,136.2-3.49l34.93-62.87V236.09s-4.66-25.61-37.25-18.63c0,0-21-4.66-19.8-15.13S262.48,184.86,262.48,184.86Z" transform="translate(0 0)"/><path class="cls-5" d="M150.69,420.28c.72-3.14,1.2-4.91,1.2-4.91l-.38-2.55-3.83-26.05-1.61-11c14-5.82,17.46-32.6,17.46-32.6l.53-.32,2.38-1.42h0l8.56-5.13.17-.1,3.46,2.3,7,4.68a82.56,82.56,0,0,0,65,14.9,71.46,71.46,0,0,0,15.3-4.42L282.91,348l.53-.17.52.07,9.93,1.51.18,0,.82.12-2.3,15.9-3.33,23.11c8.8,4.67,16.64,13.43,23.48,24.23,1.52,2.39,3,4.87,4.41,7.46,1.85,3.34,3.62,6.81,5.3,10.37.21.43.41.86.61,1.29.65,1.39,1.29,2.8,1.91,4.21H147.6c.23-1.42.46-2.77.69-4.08l0-.13c.08-.44.16-.86.23-1.29C149.33,426.41,150.09,422.87,150.69,420.28Z" transform="translate(0 0)"/><path class="cls-5" d="M143.74,196.51s12.8,23.28,8.15,52.38,14,101.29,14,101.29l14-3.5s-9.32-60.53-7-74.5,2.33-68.69-9.31-75.67S143.74,196.51,143.74,196.51Z" transform="translate(0 0)"/><path class="cls-5" d="M279.13,220.7,284,349.6l9.31,5.82S306.72,214,299.74,214H285.52a6.41,6.41,0,0,0-6.4,6.4C279.12,220.48,279.12,220.59,279.13,220.7Z" transform="translate(0 0)"/><circle class="cls-1" cx="172.26" cy="341.45" r="5.82"/><circle class="cls-1" cx="288.68" cy="347.27" r="5.82"/><polygon class="cls-5" points="200.2 65.54 200.2 109.78 210.44 109.78 223.48 95.81 221.74 109.78 267.02 109.78 264.23 95.81 269.82 109.78 277.04 109.78 277.04 65.54 200.2 65.54"/><ellipse class="cls-7" cx="193.21" cy="111.52" rx="3.49" ry="6.4"/><ellipse class="cls-7" cx="282.86" cy="111.52" rx="3.49" ry="6.4"/><path class="cls-7" d="M306.72,346.68s-53-9.89-56.46,7.57,58.79,9.9,58.79,9.9Z" transform="translate(0 0)"/><path class="cls-4" d="M305.56,226.77S432.45,328.06,409.17,352.51,297.41,370,297.41,370l5.82-29.11L354.45,335l-25.61-25.61-23.28,2.33Z" transform="translate(0 0)"/><path class="cls-7" d="M118.13,395.58l16.29,12.81s11.65,36.09,29.11,25.61-16.3-47.73-16.3-47.73l-19.79-7Z" transform="translate(0 0)"/><path class="cls-4" d="M134.42,208.15,118.17,213S5.2,296.63.54,319.91,22.66,356,22.66,356L124,403.73l10.47-27.94L86.69,351.34s3.5-7-10.47-8.15-16.3-16.3-16.3-16.3S87.86,283.82,103,293.13s19.79,16.3,19.79,16.3Z" transform="translate(0 0)"/><path class="cls-2" d="M366.26,424.27v3.9a8.6,8.6,0,0,1-.58,3.13,8.93,8.93,0,0,1-.63,1.28,8.61,8.61,0,0,1-7.42,4.22H70.75a8.61,8.61,0,0,1-7.42-4.22,8,8,0,0,1-.63-1.28,8.6,8.6,0,0,1-.58-3.13v-3.9a8.62,8.62,0,0,1,8.62-8.63H87.28v-1.82a.36.36,0,0,1,.36-.36h8.63a.36.36,0,0,1,.36.36h0v1.82H102v-1.82a.36.36,0,0,1,.36-.36H111a.36.36,0,0,1,.36.36h0v1.82h5.39v-1.82a.36.36,0,0,1,.36-.36h8.63a.36.36,0,0,1,.36.36h0v1.82h5.39v-1.82a.36.36,0,0,1,.36-.36h8.63a.36.36,0,0,1,.36.36h0v1.82h5.39v-1.82a.36.36,0,0,1,.36-.36h8.63a.36.36,0,0,1,.36.36h0v1.82H161v-1.82a.36.36,0,0,1,.36-.36H170a.36.36,0,0,1,.36.36h0v1.82h5.39v-1.82a.36.36,0,0,1,.36-.36h67.59a.36.36,0,0,1,.36.36h0v1.82h5.39v-1.82a.36.36,0,0,1,.36-.36h8.63a.36.36,0,0,1,.36.36v1.82h5.39v-1.82a.36.36,0,0,1,.36-.36h8.63a.36.36,0,0,1,.36.36h0v1.82h5.39v-1.82a.36.36,0,0,1,.36-.36h8.63a.36.36,0,0,1,.36.36h0v1.82h5.39v-1.82a.36.36,0,0,1,.36-.36h8.63a.36.36,0,0,1,.36.36v1.82h5.39v-1.82a.36.36,0,0,1,.36-.36h8.63a.36.36,0,0,1,.36.36h0v1.82h5.39v-1.82a.36.36,0,0,1,.36-.36h8.63a.36.36,0,0,1,.36.36h0v1.82h25.16a8.62,8.62,0,0,1,8.63,8.62Z" transform="translate(0 0)"/><path class="cls-2" d="M343.16,260H236.23v-2.2H187.74V260H80.37a7.23,7.23,0,0,0-7.23,7.24V413.69a7.23,7.23,0,0,0,7.23,7.23H343.16a7.23,7.23,0,0,0,7.23-7.23V267.27A7.24,7.24,0,0,0,343.16,260Z" transform="translate(0 0)"/><circle class="cls-6" cx="211.97" cy="311.15" r="16.06"/><circle class="cls-4" cx="206.84" cy="316.94" r="16.06"/><rect class="cls-2" x="11.85" y="432" width="950" height="2"/></svg>