<svg width="625" height="527" viewBox="0 0 625 527" fill="none" xmlns="http://www.w3.org/2000/svg">
<g clip-path="url(#clip0)">
<path d="M436.473 455.94H435.012V285.33C435.013 284.635 434.868 283.949 434.588 283.321C434.308 282.694 433.901 282.141 433.395 281.703L434.318 280.494C434.992 281.078 435.536 281.815 435.909 282.652C436.282 283.489 436.474 284.404 436.473 285.33V455.94Z" fill="#3F3D56"/>
<path d="M287.598 18.1118C287.976 19.0322 288.258 19.9943 288.438 20.9807C288.029 19.4761 287.708 18.4548 287.598 18.1118Z" fill="#3F3D56"/>
<path d="M300.561 65.7753C300.561 65.7753 300.561 66.8511 299.473 70.7334L300.561 65.7753Z" fill="#3F3D56"/>
<path d="M433.984 228.17C405.245 244.151 367.649 257.95 356.389 261.949C364.975 259.564 389.966 256.352 428.687 282.125C477.338 314.501 529.358 292.914 529.358 292.914C529.358 292.914 517.798 316.559 493.231 318.095C468.665 319.638 404.602 276.473 382.929 288.806C361.248 301.139 351.135 285.719 342.461 316.559C333.795 347.391 317.902 431.664 336.206 478.945L354.503 526.219H250.463C250.463 526.219 288.037 419.331 267.321 353.558C255.724 316.722 239.444 290.045 233.371 276.488C230.324 269.698 229.842 266.206 233.788 266.377C236.031 266.479 239.707 267.765 245.165 270.306C245.165 270.306 220.116 244.097 211.932 244.097C203.741 244.097 165.202 239.988 152.685 226.112C152.685 226.112 134.862 212.75 103.069 245.64C71.2748 278.531 78.984 278.531 50.5661 275.958C22.594 273.425 0.679573 258.948 0 258.496C0.811104 258.847 33.4818 272.778 53.4525 265.683C73.6862 258.488 91.0263 231.249 108.849 222.004C126.671 212.75 137.267 200.417 161.351 213.779L145.48 173.857L141.132 162.919L141.125 162.904C141.125 162.904 135.82 87.877 125.706 82.7396C115.593 77.5943 121.856 64.2401 103.069 61.6675C103.069 61.6675 126.189 58.5804 130.522 75.544C134.862 92.4999 164.727 183.976 164.727 183.976C164.727 183.976 183.025 223.025 203.258 213.779C223.492 204.525 195.549 152.629 195.549 152.629L160.869 135.665C160.869 135.665 186.883 134.636 202.776 150.571C218.669 166.498 219.634 217.887 219.634 217.887C219.634 217.887 259.612 224.054 269.25 247.184C269.25 247.184 275.512 226.627 263.47 214.294C260.459 211.206 257.295 205.843 254.248 199.536C242.698 175.329 238.523 147.878 242.308 121.017C244.098 107.873 245.202 95.0179 243.236 91.9854C238.903 85.3044 220.598 44.1972 219.152 33.4C217.712 22.6106 220.598 0.00280762 220.598 0.00280762C220.598 0.00280762 221.081 27.748 226.861 36.4871C232.641 45.2262 249.016 88.3915 249.016 88.3915C249.016 88.3915 249.016 142.861 262.505 169.585C275.995 196.309 302.001 226.112 300.561 245.64V256.944C300.561 256.944 329.462 227.656 327.532 217.887C325.603 208.127 323.199 184.997 304.895 171.128C286.59 157.252 274.548 135.151 287.555 103.289C294.869 85.3667 298.07 75.7389 299.473 70.7418L291.888 105.347C291.888 105.347 287.072 140.803 300.561 153.136C300.598 153.167 300.627 153.198 300.664 153.229C314.131 165.578 331.866 188.084 331.866 188.084L331.815 187.094L328.015 114.086L328.848 116.035L334.854 130.083L340.539 143.375C340.539 143.375 367.51 106.376 399.304 94.0435C431.091 81.7105 450.842 38.5452 450.842 38.5452L477.821 15.9296L455.658 44.1972C455.658 44.1972 448.913 77.5943 410.864 101.239C372.808 124.876 348.249 159.817 346.802 181.403C345.355 202.99 343.908 222.004 343.908 222.004C343.908 222.004 415.197 219.431 431.091 186.026C446.991 152.629 459.998 151.085 459.998 151.085L450.842 179.86L440.729 204.525C440.729 204.525 482.154 205.554 503.827 231.764C525.508 257.973 579.45 265.683 579.45 265.683L549.11 274.415C549.11 274.415 520.202 264.14 492.749 245.126C465.296 226.112 468.182 209.156 433.984 228.17Z" fill="#3F3D56"/>
<path opacity="0.1" d="M449.344 158.054C446.297 172.445 442.709 186.345 437.667 196.939C421.774 230.344 350.484 232.917 350.484 232.917C350.484 232.917 350.82 228.505 351.332 221.543C369.432 219.953 418.909 213.163 431.821 186.025C433.005 183.546 434.101 180.88 435.139 178.074L449.344 158.054Z" fill="black"/>
<path opacity="0.1" d="M338.442 198.998C338.442 198.998 320.62 176.382 307.138 164.049C304.179 161.352 302.103 157.532 300.664 153.229C300.547 152.885 300.437 152.535 300.328 152.184C300.642 152.511 300.956 152.831 301.292 153.135C313.093 163.932 328.227 182.611 331.815 187.093C332.319 187.733 332.596 188.084 332.596 188.084L328.848 116.035L334.854 130.083L338.442 198.998Z" fill="black"/>
<path opacity="0.1" d="M348.759 134.111C348.653 146.764 347.114 154.289 347.114 154.289C347.114 154.289 374.077 117.305 405.86 104.963C407.738 103.696 409.644 102.448 411.594 101.236C449.647 77.597 456.391 44.1943 456.391 44.1943L478.548 15.9305L451.574 38.5416C451.574 38.5416 431.825 81.7081 400.034 94.0414C378.364 102.448 358.935 122.313 348.759 134.111Z" fill="black"/>
<path opacity="0.1" d="M307.135 256.552V267.858C307.135 267.858 336.036 238.566 334.109 228.802C332.636 221.335 330.872 206.057 321.94 193.074C325.966 202.885 327.191 212.455 328.263 217.888C329.645 224.89 315.175 241.932 306.877 251.015C307.168 252.843 307.255 254.702 307.135 256.552V256.552Z" fill="black"/>
<path opacity="0.1" d="M268.367 178.968C268.596 179.489 268.832 180.001 269.082 180.497C276.468 195.132 287.604 210.688 295.936 224.978C289.202 210.827 277.483 194.645 268.367 178.968Z" fill="black"/>
<path opacity="0.1" d="M429.416 282.124C413.571 271.58 400.027 265.889 388.964 263.006C377.358 267.667 367.806 271.141 363 272.848C371.62 270.467 396.593 267.305 435.262 293.038C465.602 313.228 497.252 312.433 516.779 308.974C522.179 304.627 526.705 299.166 530.088 292.916C530.088 292.916 478.066 314.499 429.416 282.124Z" fill="black"/>
<path opacity="0.1" d="M291.85 157.09C287.966 146.936 287.326 134.854 291.788 120.697C291.732 115.566 292.01 110.437 292.619 105.347L300.203 70.7327C298.805 75.7244 295.605 85.3542 288.284 103.291C279.014 125.999 282.474 143.743 291.85 157.09Z" fill="black"/>
<path opacity="0.1" d="M504.559 231.763C489.527 213.588 465.001 207.524 451.376 205.514L447.305 215.441C447.305 215.441 488.729 216.469 510.405 242.677C522.425 257.211 544.367 266.053 561.533 271.049L580.184 265.68C580.184 265.68 526.235 257.971 504.559 231.763Z" fill="black"/>
<path opacity="0.1" d="M209.835 224.691C230.066 215.441 202.128 163.539 202.128 163.539L201.364 163.165C208.329 178.843 218.43 207.174 203.989 213.777C190.476 219.956 177.825 204.584 170.912 193.694C171.163 194.464 171.3 194.886 171.3 194.886C171.3 194.886 189.604 233.941 209.835 224.691Z" fill="black"/>
<path opacity="0.1" d="M275.826 258.094C275.826 258.094 281.922 238.047 270.47 225.67C273.278 236.333 269.98 247.18 269.98 247.18C262.527 229.291 236.92 221.552 225.704 218.964C226.139 224.919 226.212 228.802 226.212 228.802C226.212 228.802 266.192 234.969 275.826 258.094Z" fill="black"/>
<path opacity="0.1" d="M300.203 70.7327C301.289 66.8578 301.289 65.7776 301.289 65.7776L300.203 70.7327Z" fill="black"/>
<path opacity="0.1" d="M59.7395 276.692C59.8367 276.659 59.9353 276.628 60.0318 276.594C80.2625 269.399 97.6031 242.163 115.425 232.913C133.248 223.663 143.845 211.33 167.929 224.691C167.929 224.691 163.715 206.291 155.55 194.203C158.255 200.514 160.44 207.063 162.083 213.777C137.999 200.416 127.402 212.749 109.58 221.999C91.7574 231.249 74.4167 258.485 54.186 265.68C33.9553 272.874 0.719238 258.485 0.719238 258.485C0.719238 258.485 22.8766 273.388 51.2959 275.957C54.5469 276.251 57.3209 276.511 59.7395 276.692Z" fill="black"/>
<path opacity="0.1" d="M147.701 173.817C147.701 173.817 146.912 173.833 145.48 173.856L141.132 162.919C141.607 162.911 141.856 162.903 141.856 162.903C141.856 162.903 138.509 115.583 132.064 93.5283C132.144 93.5673 132.21 93.6141 132.283 93.6531C142.396 98.7905 147.701 173.817 147.701 173.817Z" fill="black"/>
<path opacity="0.1" d="M260.559 526.221C269.385 497.356 290.61 417.538 273.899 364.468C266.682 341.55 259.993 326.935 254.338 317.612C258.567 326.438 263.191 338.112 268.053 353.554C288.766 419.332 251.194 526.221 251.194 526.221H260.559Z" fill="black"/>
<path opacity="0.1" d="M251.742 281.22C245.929 278.493 239.709 276.891 233.371 276.488C230.324 269.698 229.842 266.205 233.788 266.377C234.884 266.587 235.987 266.837 237.083 267.125C244.829 273.985 251.742 281.22 251.742 281.22Z" fill="black"/>
<path opacity="0.1" d="M121.34 77.7472C121.89 78.7343 122.556 79.6423 123.321 80.4489C122.759 79.4713 122.094 78.5649 121.34 77.7472V77.7472Z" fill="black"/>
<path opacity="0.1" d="M209.353 161.483C210.098 162.234 210.795 163.037 211.442 163.885C209.331 158.474 206.726 153.794 203.507 150.569C187.612 134.638 161.601 135.666 161.601 135.666L194.221 151.617C199.811 153.842 204.948 157.191 209.353 161.483Z" fill="black"/>
<path opacity="0.1" d="M243.969 91.9858C245.935 95.015 244.83 107.87 243.036 121.018C239.252 147.878 243.428 175.328 254.98 199.533C256.514 202.772 258.228 205.911 260.112 208.932C249.104 185.086 245.185 158.22 248.881 131.932C250.676 118.785 251.78 105.929 249.814 102.9C245.479 96.2194 227.175 55.1084 225.73 44.3168C225.297 40.1301 225.196 35.9119 225.429 31.7071C221.687 20.381 221.33 0 221.33 0C221.33 0 218.44 22.6111 219.885 33.4026C221.33 44.1942 239.634 85.3053 243.969 91.9858Z" fill="black"/>
<path opacity="0.1" d="M289.158 20.9428C288.965 19.9271 288.672 18.936 288.284 17.9861C288.284 17.9861 288.654 19.0952 289.158 20.9428Z" fill="black"/>
<path opacity="0.1" d="M119.026 72.698C123.271 73.2524 128.154 74.642 131.879 77.8646C131.636 76.9879 131.424 76.2019 131.255 75.5415C126.92 58.5832 103.799 61.6665 103.799 61.6665C114.248 63.0956 116.947 67.8634 119.026 72.698Z" fill="black"/>
<path d="M573.263 499.818C566.08 511.571 568.048 526.519 568.048 526.519C568.048 526.519 581.663 522.412 588.847 510.659C596.031 498.906 594.063 483.957 594.063 483.957C594.063 483.957 580.447 488.065 573.263 499.818Z" fill="#3F3D56"/>
<path d="M578.66 501.896C578.092 515.914 568.338 526.849 568.338 526.849C568.338 526.849 559.505 515.057 560.073 501.039C560.64 487.021 570.394 476.085 570.394 476.085C570.394 476.085 579.227 487.878 578.66 501.896Z" fill="#51E8B5"/>
<path d="M452.132 413.185C452.132 413.185 460.398 403.934 463.781 405.795C467.164 407.656 454.054 415.929 454.054 415.929L452.132 413.185Z" fill="#FFB9B9"/>
<path opacity="0.1" d="M452.132 413.185C452.132 413.185 460.398 403.934 463.781 405.795C467.164 407.656 454.054 415.929 454.054 415.929L452.132 413.185Z" fill="black"/>
<path d="M426.912 392.993C426.912 392.993 423.874 398.804 424.669 405.067C425.464 411.331 432.736 431.431 435.208 431.073C437.68 430.716 455.992 416.32 455.992 416.32L452.499 411.118L439.122 419.765C439.122 419.765 437.084 388.838 426.912 392.993Z" fill="#D0CDE1"/>
<path d="M476.515 407.138L455.66 419.359C455.54 419.444 455.403 419.501 455.259 419.524C455.116 419.547 454.969 419.536 454.83 419.493C454.691 419.449 454.562 419.373 454.453 419.27C454.345 419.168 454.258 419.041 454.2 418.899L449.091 407.507C448.995 407.182 449.01 406.831 449.136 406.518C449.261 406.204 449.488 405.949 449.775 405.799L467.089 396.278C467.302 396.141 467.556 396.093 467.8 396.143C468.044 396.193 468.263 396.337 468.414 396.548L477.063 405.241C477.148 405.403 477.201 405.581 477.22 405.766C477.238 405.95 477.221 406.137 477.17 406.315C477.119 406.492 477.034 406.656 476.922 406.798C476.809 406.939 476.671 407.055 476.515 407.138V407.138Z" fill="#2F2E41"/>
<path d="M475.123 405.454L455.573 417.377L450.37 407.373L467.142 397.642L475.123 405.454Z" fill="#51E8B5"/>
<path d="M458.72 402.009C458.822 401.879 458.82 401.698 458.716 401.606C458.612 401.513 458.445 401.543 458.343 401.674C458.241 401.804 458.243 401.985 458.347 402.077C458.451 402.17 458.618 402.139 458.72 402.009Z" fill="#F2F2F2"/>
<path d="M465.916 412.188C465.984 412.101 465.983 411.981 465.913 411.919C465.844 411.857 465.733 411.877 465.665 411.964C465.597 412.051 465.598 412.171 465.668 412.233C465.737 412.295 465.848 412.275 465.916 412.188Z" fill="#F2F2F2"/>
<path opacity="0.1" d="M426.912 392.993C426.912 392.993 423.874 398.804 424.669 405.067C425.464 411.331 432.736 431.431 435.208 431.073C437.68 430.716 455.992 416.32 455.992 416.32L452.499 411.118L439.122 419.765C439.122 419.765 437.084 388.838 426.912 392.993Z" fill="black"/>
<path d="M446.544 414.953C446.544 414.953 455.899 406.969 459.017 409.297C462.136 411.626 448.103 417.947 448.103 417.947L446.544 414.953Z" fill="#FFB9B9"/>
<path d="M434.071 383.015C439.065 383.015 443.114 378.696 443.114 373.368C443.114 368.039 439.065 363.72 434.071 363.72C429.077 363.72 425.028 368.039 425.028 373.368C425.028 378.696 429.077 383.015 434.071 383.015Z" fill="#FFB9B9"/>
<path d="M465.254 440.569C465.254 440.569 474.92 441.9 474.609 448.221C474.297 454.542 467.125 480.824 467.125 480.824L466.501 491.137C466.501 491.137 467.125 508.436 465.254 508.104C463.383 507.771 459.017 495.794 459.017 495.794C459.017 495.794 453.716 492.135 456.21 488.808C458.705 485.481 460.576 485.814 459.952 482.154C459.329 478.495 459.641 463.192 461.512 458.534C463.383 453.877 464.473 451.308 464.473 451.308L458.393 450.882L465.254 440.569Z" fill="#FFB9B9"/>
<path opacity="0.1" d="M465.254 440.569C465.254 440.569 474.92 441.9 474.609 448.221C474.297 454.542 467.125 480.824 467.125 480.824L466.501 491.137C466.501 491.137 467.125 508.436 465.254 508.104C463.383 507.771 459.017 495.794 459.017 495.794C459.017 495.794 453.716 492.135 456.21 488.808C458.705 485.481 460.576 485.814 459.952 482.154C459.329 478.495 459.641 463.192 461.512 458.534C463.383 453.877 464.473 451.308 464.473 451.308L458.393 450.882L465.254 440.569Z" fill="black"/>
<path d="M465.878 442.233C465.878 442.233 475.233 444.561 476.168 451.215C477.104 457.869 481.781 477.497 481.781 477.497L486.77 489.806C486.77 489.806 494.566 504.777 491.136 504.444C487.706 504.111 483.028 496.792 481.469 496.792C479.91 496.792 475.233 494.796 475.544 493.466C475.856 492.135 478.039 488.143 478.039 488.143L470.495 474.122C469.038 471.416 467.937 468.508 467.222 465.482C466.447 462.198 465.566 458.176 465.566 456.871C465.566 454.542 459.329 453.544 459.329 453.544L465.878 442.233Z" fill="#FFB9B9"/>
<path d="M435.318 420.941L439.684 434.248C439.684 434.248 446.544 436.245 451.533 437.908C456.523 439.571 465.878 437.243 466.813 441.235C467.749 445.227 464.942 452.213 462.136 453.877C459.329 455.54 457.77 457.203 448.727 454.542C439.684 451.88 418.167 451.215 418.167 451.215C416.082 452.55 413.733 453.348 411.307 453.544C407.253 453.877 406.318 454.209 405.07 453.211C403.823 452.213 405.694 452.213 406.318 449.552C406.942 446.89 407.253 447.888 410.06 444.894C412.866 441.9 415.049 432.918 416.608 429.924C418.167 426.929 419.103 420.941 419.103 420.941H435.318Z" fill="#2F2E41"/>
<path d="M434.695 381.352C433.562 382.235 432.635 383.385 431.986 384.712C431.337 386.039 430.983 387.507 430.953 389.004C430.953 393.994 421.598 383.681 421.598 383.681C421.598 383.681 426.587 377.027 426.587 375.031C426.587 373.035 434.695 381.352 434.695 381.352Z" fill="#FFB9B9"/>
<path d="M422.845 379.356C422.845 379.356 428.458 381.685 429.705 385.012C430.952 388.338 435.63 395.325 435.63 395.325C435.63 395.325 442.178 402.644 439.995 410.628C437.812 418.612 435.942 420.608 435.942 421.939C435.942 423.27 432.823 425.599 430.329 425.266C427.834 424.933 418.479 423.602 417.855 422.272C417.232 420.941 413.49 401.978 415.984 394.992C418.008 389.653 420.298 384.434 422.845 379.356V379.356Z" fill="#D0CDE1"/>
<path d="M436.694 373.807C438.717 374.319 440.703 372.944 442.361 371.58C443.303 370.805 444.339 369.701 444.051 368.455C443.795 367.349 442.574 366.722 442.396 365.598C442.273 364.817 442.7 364.058 442.735 363.266C442.704 362.663 442.519 362.08 442.199 361.582C441.878 361.084 441.436 360.689 440.92 360.441C439.934 359.875 438.816 359.638 437.803 359.132C436.256 358.357 434.97 356.962 433.318 356.515C431.062 355.904 428.764 357.205 426.444 357.373C425.039 357.475 423.617 357.159 422.228 357.405C420.904 357.69 419.708 358.444 418.833 359.543C417.959 360.642 417.457 362.024 417.408 363.465C417.39 364.523 417.588 365.705 416.996 366.544C416.762 366.834 416.495 367.091 416.202 367.311C414.139 369.091 413.202 372.065 413.096 374.93C413.043 376.341 413.32 378.016 414.493 378.615C415.121 378.845 415.785 378.943 416.448 378.905C416.781 378.89 417.113 378.962 417.413 379.116C417.714 379.269 417.975 379.498 418.174 379.784C418.708 380.789 417.908 382.274 418.607 383.152C419.131 383.811 420.155 383.592 420.768 383.03C421.381 382.469 421.763 381.661 422.344 381.061C423.475 379.893 425.151 379.681 426.701 379.503C427.16 379.5 427.606 379.343 427.978 379.056C428.26 378.741 428.443 378.341 428.503 377.91C428.707 376.919 428.709 375.893 428.51 374.9C428.412 374.593 428.4 374.262 428.475 373.947C428.577 373.724 428.735 373.535 428.932 373.401C429.892 372.631 431.574 371.511 432.822 371.723C434.207 371.958 435.297 373.453 436.694 373.807Z" fill="#2F2E41"/>
<path d="M424.092 391.333C424.092 391.333 420.35 396.655 420.35 402.976C420.35 409.297 425.028 430.256 427.522 430.256C430.017 430.256 449.974 418.612 449.974 418.612L447.168 412.957L432.823 419.61C432.823 419.61 434.694 388.671 424.092 391.333Z" fill="#D0CDE1"/>
<path d="M466.433 451.381H394.822V466.193H466.433V451.381Z" fill="#51E8B5"/>
<path d="M430.628 466.972C429.078 466.971 427.592 466.313 426.496 465.144C425.4 463.974 424.784 462.389 424.782 460.736V285.33C424.782 284.151 425.095 282.996 425.686 281.999C426.276 281.002 427.119 280.204 428.118 279.698C429.116 279.191 430.228 278.998 431.326 279.138C432.423 279.279 433.461 279.749 434.318 280.494L433.395 281.703C432.752 281.144 431.974 280.792 431.151 280.686C430.328 280.581 429.493 280.726 428.745 281.106C427.996 281.486 427.364 282.084 426.921 282.832C426.478 283.58 426.243 284.446 426.243 285.33V460.736C426.244 461.976 426.707 463.165 427.529 464.042C428.351 464.919 429.465 465.412 430.628 465.413V466.972Z" fill="#3F3D56"/>
<path d="M625 525.441H36.0361V527H625V525.441Z" fill="#3F3D56"/>
<path d="M419.578 369.01C419.892 368.74 419.533 367.705 418.775 366.698C418.017 365.691 417.147 365.093 416.832 365.363C416.518 365.633 416.877 366.667 417.635 367.675C418.393 368.682 419.263 369.279 419.578 369.01Z" fill="#51E8B5"/>
<path d="M356.969 499.818C349.786 511.571 351.754 526.519 351.754 526.519C351.754 526.519 365.369 522.412 372.553 510.659C379.737 498.906 377.769 483.957 377.769 483.957C377.769 483.957 364.153 488.065 356.969 499.818Z" fill="#3F3D56"/>
<path d="M362.365 501.896C361.797 515.914 352.044 526.849 352.044 526.849C352.044 526.849 343.21 515.057 343.778 501.039C344.346 487.021 354.1 476.085 354.1 476.085C354.1 476.085 362.933 487.878 362.365 501.896Z" fill="#51E8B5"/>
<path d="M238.746 504.264C242.181 517.808 253.944 526.196 253.944 526.196C253.944 526.196 260.139 512.625 256.705 499.081C253.271 485.536 241.507 477.148 241.507 477.148C241.507 477.148 235.312 490.719 238.746 504.264Z" fill="#3F3D56"/>
<path d="M243.793 501.353C253.217 511.14 254.368 526.185 254.368 526.185C254.368 526.185 240.24 525.362 230.816 515.575C221.392 505.788 220.241 490.743 220.241 490.743C220.241 490.743 234.369 491.566 243.793 501.353Z" fill="#51E8B5"/>
<path d="M212.558 134.124C211.738 148.128 201.79 158.862 201.79 158.862C201.79 158.862 193.17 146.891 193.989 132.888C194.809 118.884 204.757 108.149 204.757 108.149C204.757 108.149 213.377 120.12 212.558 134.124Z" fill="#51E8B5"/>
<path d="M108.856 45.5937C119.982 53.0768 124.039 67.5379 124.039 67.5379C124.039 67.5379 110.06 69.8667 98.9342 62.3836C87.8089 54.9005 83.751 40.4394 83.751 40.4394C83.751 40.4394 97.7309 38.1107 108.856 45.5937Z" fill="#51E8B5"/>
<path d="M84.0115 216.322C95.1368 223.805 99.1947 238.266 99.1947 238.266C99.1947 238.266 85.2148 240.595 74.0895 233.111C62.9641 225.628 58.9062 211.167 58.9062 211.167C58.9062 211.167 72.8861 208.839 84.0115 216.322Z" fill="#51E8B5"/>
<path d="M310.185 70.5528C306.83 84.1197 295.115 92.5862 295.115 92.5862C295.115 92.5862 288.841 79.0563 292.196 65.4894C295.551 51.9225 307.265 43.4561 307.265 43.4561C307.265 43.4561 313.54 56.9859 310.185 70.5528Z" fill="#51E8B5"/>
<path d="M416.019 81.1312C412.076 94.5168 400.005 102.392 400.005 102.392C400.005 102.392 394.328 88.5656 398.271 75.18C402.215 61.7944 414.285 53.9188 414.285 53.9188C414.285 53.9188 419.963 67.7456 416.019 81.1312Z" fill="#51E8B5"/>
<path d="M530.41 230.107C523.267 241.888 509.666 246.048 509.666 246.048C509.666 246.048 507.646 231.108 514.789 219.326C521.932 207.545 535.534 203.385 535.534 203.385C535.534 203.385 537.554 218.325 530.41 230.107Z" fill="#51E8B5"/>
</g>
<defs>
<clipPath id="clip0">
<rect width="625" height="527" fill="white"/>
</clipPath>
</defs>
</svg>
