<svg width="559" height="352" viewBox="0 0 559 352" fill="none" xmlns="http://www.w3.org/2000/svg">
<path d="M151.837 118.035C176.441 118.035 196.386 98.4487 196.386 74.2875C196.386 50.1262 176.441 30.5396 151.837 30.5396C127.233 30.5396 107.288 50.1262 107.288 74.2875C107.288 98.4487 127.233 118.035 151.837 118.035Z" fill="#FF6584"/>
<path d="M388.619 255.272H24.9946L155.694 71.7585L206.804 0L245.708 54.6189L388.619 255.272Z" fill="#F2F2F2"/>
<path d="M372.735 69.4932L240.417 255.272H505.054L372.735 69.4932L240.417 255.272H505.054L372.735 69.4932Z" fill="#F2F2F2"/>
<path d="M206.804 0L209.813 51.5146L199.871 125.643C199.871 125.643 281.992 168.101 282.213 170.036C282.434 171.971 264.914 226.408 264.914 226.408L388.619 255.272L206.804 0Z" fill="#E6E6E6"/>
<path d="M372.735 69.4932L394.309 119.34L432.558 194.744L455.2 206.112C455.2 206.112 453.716 223.768 453.817 226.036C453.917 228.304 505.054 255.272 505.054 255.272L372.735 69.4932Z" fill="#E6E6E6"/>
<path d="M558.39 255.272H0.610262C0.44841 255.272 0.293187 255.209 0.178741 255.096C0.0642948 254.984 0 254.831 0 254.672C0 254.513 0.0642948 254.361 0.178741 254.249C0.293187 254.136 0.44841 254.073 0.610262 254.073H558.39C558.552 254.073 558.707 254.136 558.821 254.249C558.936 254.361 559 254.513 559 254.672C559 254.831 558.936 254.984 558.821 255.096C558.707 255.209 558.552 255.272 558.39 255.272Z" fill="#CCCCCC"/>
<path d="M123.621 219.811C149.99 219.811 171.366 198.82 171.366 172.925C171.366 147.031 149.99 126.039 123.621 126.039C97.2525 126.039 75.8765 147.031 75.8765 172.925C75.8765 198.82 97.2525 219.811 123.621 219.811Z" fill="#CCCCCC"/>
<path opacity="0.2" d="M88.3676 141.609C83.9141 151.839 83.3099 163.291 86.6631 173.919C90.0163 184.546 97.1083 193.656 106.672 199.622C116.235 205.587 127.647 208.018 138.868 206.481C150.089 204.944 160.388 199.539 167.925 191.232C165.204 197.482 161.132 203.077 155.991 207.628C150.85 212.18 144.763 215.579 138.152 217.591C131.54 219.603 124.562 220.179 117.701 219.28C110.84 218.381 104.26 216.028 98.4177 212.383C92.5749 208.739 87.6088 203.891 83.8634 198.174C80.1181 192.458 77.6831 186.011 76.7271 179.278C75.7712 172.546 76.3171 165.691 78.327 159.186C80.337 152.682 83.763 146.684 88.3676 141.609V141.609Z" fill="black"/>
<path d="M123.752 172.926H123.884L126.244 305.855H121.26L123.752 172.926Z" fill="#3F3D56"/>
<path d="M185.257 278.054C207.919 278.054 226.289 260.014 226.289 237.76C226.289 215.507 207.919 197.466 185.257 197.466C162.596 197.466 144.226 215.507 144.226 237.76C144.226 260.014 162.596 278.054 185.257 278.054Z" fill="#51E8B5"/>
<path opacity="0.2" d="M154.961 210.847C151.134 219.639 150.614 229.481 153.496 238.614C156.378 247.747 162.473 255.576 170.692 260.703C178.911 265.829 188.718 267.919 198.361 266.598C208.005 265.277 216.856 260.632 223.332 253.493C220.994 258.864 217.495 263.672 213.077 267.584C208.659 271.496 203.428 274.417 197.746 276.146C192.063 277.875 186.067 278.37 180.17 277.598C174.274 276.825 168.619 274.802 163.598 271.67C158.577 268.538 154.309 264.372 151.09 259.459C147.871 254.547 145.779 249.006 144.957 243.22C144.136 237.434 144.605 231.543 146.332 225.953C148.06 220.363 151.004 215.209 154.961 210.847V210.847Z" fill="black"/>
<path d="M185.37 237.76H185.483L187.512 352H183.229L185.37 237.76Z" fill="#3F3D56"/>
<path d="M241.079 177.047C272.84 177.047 298.587 151.763 298.587 120.573C298.587 89.3837 272.84 64.0996 241.079 64.0996C209.318 64.0996 183.571 89.3837 183.571 120.573C183.571 151.763 209.318 177.047 241.079 177.047Z" fill="#51E8B5"/>
<path opacity="0.2" d="M283.541 82.8533C288.905 95.1754 289.633 108.969 285.594 121.77C281.555 134.57 273.013 145.543 261.494 152.728C249.975 159.913 236.229 162.842 222.714 160.991C209.198 159.139 196.793 152.629 187.716 142.623C190.993 150.152 195.897 156.89 202.089 162.372C208.281 167.855 215.613 171.949 223.577 174.373C231.54 176.796 239.945 177.49 248.209 176.407C256.473 175.324 264.398 172.489 271.436 168.099C278.473 163.71 284.455 157.87 288.966 150.985C293.477 144.1 296.41 136.334 297.562 128.225C298.713 120.116 298.056 111.859 295.635 104.024C293.214 96.19 289.087 88.9661 283.541 82.8533V82.8533Z" fill="black"/>
<path d="M240.921 120.573H240.763L237.919 280.685H243.923L240.921 120.573Z" fill="#3F3D56"/>
<path d="M328.786 69.8692L336.595 63.7364C330.529 63.0792 328.036 66.3279 327.016 68.8993C322.278 66.9669 317.119 69.4994 317.119 69.4994L332.741 75.069C331.953 73.0017 330.581 71.198 328.786 69.8692V69.8692Z" fill="#3F3D56"/>
<path d="M338.907 22.0709L346.715 15.9382C340.649 15.281 338.157 18.5297 337.137 21.101C332.398 19.1687 327.239 21.7011 327.239 21.7011L342.862 27.2707C342.074 25.2035 340.702 23.3997 338.907 22.0709V22.0709Z" fill="#3F3D56"/>
<path d="M395.129 72.3825L402.937 66.2497C396.871 65.5925 394.379 68.8412 393.359 71.4126C388.62 69.4802 383.461 72.0127 383.461 72.0127L399.084 77.5823C398.296 75.515 396.924 73.7113 395.129 72.3825V72.3825Z" fill="#3F3D56"/>
<path d="M413.491 342.632C413.491 342.632 413.789 336.484 419.914 337.199Z" fill="#3F3D56"/>
<path d="M439.449 342.632C439.449 342.632 439.748 336.484 445.873 337.199Z" fill="#3F3D56"/>
<path d="M427.335 342.632C427.335 342.632 427.634 336.484 433.758 337.199Z" fill="#3F3D56"/>
<path d="M402.346 342.632C402.346 342.632 402.047 336.484 395.922 337.199Z" fill="#3F3D56"/>
<path d="M428.305 343.057C428.305 343.057 428.006 336.909 421.881 337.624Z" fill="#3F3D56"/>
<path d="M321.02 253.712L320.41 254.107L366.305 322.391L366.915 321.996L321.02 253.712Z" fill="#2F2E41"/>
<path d="M293.512 337.438L297.99 337.437L300.12 320.474L293.511 320.475L293.512 337.438Z" fill="#A0616A"/>
<path d="M292.37 336.002L301.189 336.002H301.19C302.68 336.002 304.11 336.583 305.164 337.618C306.218 338.653 306.81 340.057 306.81 341.521V341.7L292.37 341.701L292.37 336.002Z" fill="#2F2E41"/>
<path d="M264.243 333.229L268.451 334.733L276.362 319.508L270.151 317.288L264.243 333.229Z" fill="#A0616A"/>
<path d="M263.669 331.495L271.957 334.458L271.958 334.458C273.358 334.959 274.499 335.985 275.129 337.312C275.759 338.639 275.826 340.157 275.317 341.532L275.254 341.701L261.685 336.851L263.669 331.495Z" fill="#2F2E41"/>
<path d="M292.235 221.629L301.733 224.498L309.404 237.054L306.481 251.761L305.02 264.675V322.071C305.02 322.071 293.78 324.941 288.989 322.071L290.774 288.71L278.719 324.224L265.203 319.202L280.546 269.339C280.299 265.652 280.927 261.958 282.381 258.55C283.697 255.515 286.009 253 288.947 251.403V248.533L286.025 230.238L292.235 221.629Z" fill="#2F2E41"/>
<path d="M299.434 220.18C304.389 220.18 308.406 216.236 308.406 211.37C308.406 206.504 304.389 202.559 299.434 202.559C294.479 202.559 290.462 206.504 290.462 211.37C290.462 216.236 294.479 220.18 299.434 220.18Z" fill="#A0616A"/>
<path d="M308.095 209.072C306.881 208.834 305.621 208.975 304.492 209.474C303.362 209.973 302.42 210.805 301.796 211.856C301.487 210.741 299.656 210.798 298.978 211.743C298.301 212.687 298.45 213.963 298.67 215.098C298.89 216.232 299.139 217.466 298.605 218.495C298.321 218.976 297.911 219.374 297.419 219.649C296.927 219.924 296.369 220.066 295.803 220.061C294.667 220.034 293.562 219.689 292.619 219.066C290.863 218.005 289.458 216.465 288.577 214.634C287.695 212.803 287.374 210.76 287.653 208.753C287.932 206.747 288.799 204.863 290.148 203.331C291.497 201.799 293.271 200.686 295.253 200.125C297.47 199.499 299.824 199.596 302.128 199.722C304.005 199.724 305.868 200.045 307.635 200.668C309.361 201.385 310.895 202.812 311.213 204.625C311.531 206.438 310.45 209.685 308.584 209.844" fill="#2F2E41"/>
<path d="M293.954 201.364C294.767 201.231 295.557 200.983 296.297 200.627C296.664 200.45 296.986 200.196 297.241 199.882C297.496 199.569 297.678 199.205 297.773 198.815C297.848 198.426 297.774 198.024 297.564 197.686C297.354 197.348 297.024 197.099 296.637 196.987C296.045 196.939 295.451 197.036 294.906 197.268C294.636 197.382 294.34 197.427 294.046 197.399C293.753 197.371 293.472 197.271 293.228 197.109C292.745 196.664 292.861 195.861 292.448 195.356C292.227 195.137 291.942 194.989 291.633 194.933C291.324 194.877 291.005 194.915 290.718 195.041C290.145 195.303 289.634 195.678 289.217 196.144L287.006 198.295C286.576 198.713 286.11 199.232 286.219 199.803C286.32 200.097 286.528 200.344 286.802 200.497C287.076 200.65 287.398 200.7 287.706 200.636C288.331 200.494 288.912 200.203 289.396 199.79C288.702 200.214 288.144 200.821 287.784 201.541C287.612 201.896 287.543 202.29 287.585 202.681C287.627 203.072 287.778 203.444 288.022 203.755C288.811 204.649 290.308 204.526 291.458 204.081C292.976 203.49 294.292 202.485 295.247 201.184" fill="#2F2E41"/>
<path d="M293.972 198.756C291.947 198.301 289.947 197.649 288.54 196.564C287.134 195.478 286.433 193.885 287.232 192.546C286.829 193.225 286.634 194.004 286.671 194.789C286.708 195.575 286.975 196.333 287.44 196.973C288.653 198.507 290.396 199.551 292.339 199.91C292.749 200.035 293.188 200.033 293.598 199.906C293.963 199.747 293.975 199.277 293.549 199.217" fill="#2F2E41"/>
<path d="M319.117 250.621C318.942 250.72 318.774 250.832 318.617 250.957L301.323 245.66L300.35 241.445L293.681 242.054L294.664 249.681C294.743 250.297 295.024 250.871 295.464 251.317C295.904 251.763 296.48 252.057 297.104 252.154L317.459 255.333C317.756 256.04 318.264 256.641 318.918 257.058C319.571 257.474 320.338 257.685 321.116 257.663C321.894 257.641 322.647 257.386 323.275 256.934C323.902 256.481 324.375 255.851 324.629 255.129C324.883 254.406 324.908 253.624 324.698 252.888C324.489 252.151 324.057 251.494 323.458 251.005C322.86 250.516 322.124 250.217 321.349 250.148C320.573 250.08 319.795 250.245 319.117 250.621V250.621Z" fill="#A0616A"/>
<path d="M292.966 227.727C292.966 227.727 294.528 223.342 299.227 223.741C303.925 224.14 301.368 241.717 301.368 241.717L292.235 253.914L292.966 227.727Z" fill="#2F2E41"/>
<path d="M345.15 337.031L341.884 330.167L346.932 327.85L350.198 334.715V334.715C350.51 335.372 350.544 336.124 350.291 336.805C350.039 337.487 349.521 338.042 348.852 338.349C348.183 338.656 347.418 338.69 346.724 338.442C346.029 338.195 345.463 337.688 345.15 337.031V337.031Z" fill="#51E8B5"/>
<path d="M333.91 322.343C335.804 322.343 337.34 320.835 337.34 318.975C337.34 317.116 335.804 315.608 333.91 315.608C332.017 315.608 330.481 317.116 330.481 318.975C330.481 320.835 332.017 322.343 333.91 322.343Z" fill="#51E8B5"/>
<path d="M360.172 338.403L356.906 331.539L361.954 329.222L365.22 336.086C365.533 336.743 365.567 337.496 365.315 338.178C365.063 338.86 364.545 339.416 363.876 339.723C363.206 340.03 362.44 340.064 361.745 339.816C361.051 339.569 360.485 339.06 360.172 338.403V338.403Z" fill="#51E8B5"/>
<path d="M333.92 325.789C334.101 323.901 335.038 322.159 336.524 320.948C338.011 319.736 339.926 319.153 341.85 319.327L364.818 321.424C365.631 321.499 366.38 321.888 366.902 322.505C367.423 323.122 367.674 323.917 367.599 324.715L367.356 327.282C367.136 329.581 365.996 331.7 364.187 333.174C362.377 334.649 360.046 335.359 357.705 335.147L340.501 333.577C338.578 333.399 336.805 332.479 335.571 331.019C334.337 329.559 333.744 327.679 333.92 325.789Z" fill="#3F3D56"/>
<path d="M338.178 337.242L338.892 329.697L344.44 330.204L343.726 337.748C343.657 338.47 343.299 339.136 342.731 339.599C342.162 340.062 341.43 340.285 340.694 340.218C339.959 340.151 339.28 339.799 338.809 339.241C338.337 338.683 338.11 337.964 338.178 337.242V337.242Z" fill="#3F3D56"/>
<path d="M354.277 338.711L354.992 331.167L360.54 331.674L359.826 339.218C359.757 339.94 359.399 340.606 358.83 341.069C358.262 341.532 357.529 341.755 356.794 341.688C356.058 341.62 355.38 341.269 354.908 340.711C354.436 340.153 354.209 339.434 354.277 338.711V338.711Z" fill="#3F3D56"/>
<path d="M379.677 310.925C379.99 310.606 380.364 310.35 380.777 310.174C381.191 309.997 381.636 309.902 382.087 309.894C382.538 309.886 382.986 309.966 383.406 310.129C383.825 310.291 384.208 310.534 384.532 310.842C384.856 311.15 385.115 311.518 385.294 311.925C385.473 312.331 385.569 312.769 385.575 313.211C385.582 313.654 385.5 314.094 385.333 314.506C385.166 314.917 384.918 315.293 384.604 315.61L378.342 321.96L373.415 317.275L379.677 310.925Z" fill="#51E8B5"/>
<path d="M364.878 323.209L369.895 318.122C371.114 316.888 372.783 316.179 374.533 316.152C376.284 316.124 377.974 316.78 379.234 317.975L380.533 319.211C382.031 320.639 382.892 322.592 382.925 324.642C382.959 326.691 382.163 328.671 380.712 330.145L376.579 334.336C376.122 334.798 375.498 335.063 374.842 335.073C374.187 335.084 373.554 334.838 373.082 334.391L364.934 326.642C364.464 326.194 364.194 325.58 364.183 324.937C364.173 324.293 364.423 323.672 364.878 323.209V323.209Z" fill="#3F3D56"/>
<path d="M380.423 310.169C380.638 309.951 380.895 309.776 381.179 309.655C381.463 309.534 381.769 309.47 382.078 309.465C382.388 309.46 382.695 309.515 382.983 309.627C383.271 309.738 383.534 309.905 383.756 310.116C383.978 310.328 384.156 310.58 384.279 310.859C384.402 311.138 384.468 311.438 384.473 311.742C384.478 312.046 384.422 312.348 384.308 312.631C384.194 312.914 384.025 313.172 383.809 313.39L376.802 320.496L373.415 317.275L380.423 310.169Z" fill="#3F3D56"/>
<path d="M370.21 322.183L379.14 330.675C379.79 331.297 380.163 332.147 380.177 333.039C380.19 333.93 379.843 334.791 379.211 335.431C378.58 336.072 377.715 336.44 376.807 336.455C375.9 336.471 375.023 336.132 374.369 335.513L365.439 327.021L370.21 322.183Z" fill="#3F3D56"/>
<path d="M379.607 335.723C380.163 335.159 380.355 334.457 380.036 334.153C379.718 333.85 379.008 334.061 378.453 334.625C377.897 335.189 377.705 335.891 378.024 336.194C378.342 336.498 379.051 336.287 379.607 335.723Z" fill="#51E8B5"/>
<path d="M365.842 330.501H367.668V320.457H365.842V330.501Z" fill="#2F2E41"/>
<path d="M471.98 287.903H466.74L464.248 268.056H471.981L471.98 287.903Z" fill="#FFB8B8"/>
<path d="M473.317 292.891L456.422 292.89V292.68C456.422 290.968 457.115 289.325 458.348 288.114C459.581 286.903 461.254 286.223 462.998 286.223H462.998L473.317 286.223L473.317 292.891Z" fill="#2F2E41"/>
<path d="M526.907 236.093L527.918 241.141L508.571 247.377L507.077 239.926L526.907 236.093Z" fill="#FFB8B8"/>
<path d="M531.631 233.841L534.895 250.12L534.685 250.161C532.974 250.491 531.199 250.141 529.751 249.187C528.302 248.232 527.299 246.752 526.962 245.072L526.962 245.072L524.969 235.129L531.631 233.841Z" fill="#2F2E41"/>
<path d="M466.377 226.959C466.377 226.959 481.467 242.167 487.423 249.186C493.38 256.205 496.954 251.135 496.954 251.135L512.181 247.129L520.779 244.506C520.779 244.506 519.191 237.097 518.794 237.487C518.397 237.877 495.086 239.994 495.086 239.994C495.086 239.994 489.012 232.808 488.615 228.128C488.218 223.449 477.893 217.99 477.893 217.99L466.377 226.959Z" fill="#2F2E41"/>
<path d="M469.157 226.569C469.157 226.569 465.98 239.827 461.409 243.639C456.838 247.45 459.23 250.746 459.23 250.746L465.583 277.652L473.525 277.262C473.525 277.262 470.695 255.315 470.297 252.585C469.9 249.855 479.879 237.097 479.879 237.097L469.157 226.569Z" fill="#2F2E41"/>
<path d="M443.003 207.873C446.731 207.873 449.753 204.905 449.753 201.244C449.753 197.583 446.731 194.615 443.003 194.615C439.274 194.615 436.252 197.583 436.252 201.244C436.252 204.905 439.274 207.873 443.003 207.873Z" fill="#FFB8B8"/>
<path d="M457.642 220.329C458.833 220.329 462.407 226.959 462.407 226.959C462.407 226.959 470.349 229.298 471.54 227.348C472.731 225.399 475.908 222.279 478.688 221.109C481.467 219.939 480.276 218.77 478.688 217.6C477.099 216.43 471.937 213.31 467.172 207.851C462.407 202.392 454.862 201.222 454.068 201.222C453.274 201.222 451.288 209.021 451.288 209.021C450.097 211.36 456.45 220.329 457.642 220.329Z" fill="#51E8B5"/>
<path d="M440.263 198.159C441.642 198.79 443.248 202.095 445.185 200.657C445.348 200.507 445.522 200.369 445.705 200.243C445.98 200.138 446.283 200.125 446.566 200.204C446.85 200.284 447.099 200.452 447.277 200.684C447.67 201.114 447.902 201.666 448.279 202.111C448.447 202.349 448.686 202.53 448.963 202.63C449.24 202.729 449.542 202.742 449.826 202.666L450.752 200.694C450.993 200.228 451.177 199.737 451.301 199.229C451.396 198.548 451.33 197.854 451.11 197.201C450.889 196.548 450.519 195.953 450.028 195.462C449.039 194.489 447.903 193.672 446.66 193.04C445.839 192.509 444.936 192.111 443.986 191.863C443.509 191.743 443.01 191.737 442.531 191.845C442.051 191.953 441.604 192.172 441.228 192.483C440.979 192.776 440.708 193.05 440.417 193.303C439.891 193.552 439.336 193.736 438.764 193.852C437.699 194.253 437.076 195.318 436.539 196.307C436.259 196.739 436.086 197.229 436.033 197.738C435.982 200.056 439.029 197.594 440.263 198.159Z" fill="#2F2E41"/>
<path d="M455.061 293.213C466.041 292.829 483.454 293.21 483.629 293.214L483.872 293.219L483.987 293.009C484.014 292.961 486.677 288.201 490.31 288.917L490.466 288.152C486.685 287.408 484.007 291.436 483.41 292.429C481.279 292.384 465.336 292.073 455.033 292.434C444.417 292.807 442.723 289.202 442.707 289.165L441.971 289.459C442.037 289.621 443.631 293.241 453.527 293.241C454.017 293.241 454.529 293.232 455.061 293.213Z" fill="#2F2E41"/>
<path d="M453.575 293.994H453.342C452.529 293.994 451.87 294.641 451.87 295.439V295.668C451.87 296.466 452.529 297.113 453.342 297.113H453.575C454.388 297.113 455.047 296.466 455.047 295.668V295.439C455.047 294.641 454.388 293.994 453.575 293.994Z" fill="#2F2E41"/>
<path d="M480.741 293.994H480.975C481.365 293.994 481.739 294.146 482.015 294.417C482.291 294.688 482.446 295.056 482.446 295.439V295.668C482.446 296.052 482.291 296.419 482.015 296.69C481.739 296.961 481.365 297.113 480.975 297.113H480.741C480.351 297.113 479.977 296.961 479.701 296.69C479.425 296.419 479.27 296.052 479.27 295.668V295.439C479.27 295.056 479.425 294.688 479.701 294.417C479.977 294.146 480.351 293.994 480.741 293.994V293.994Z" fill="#2F2E41"/>
<path d="M455.148 234.501C455.282 234.455 455.419 234.421 455.559 234.397L460.685 223L458.87 220.554L462.272 217.381L465.914 221.405C466.208 221.73 466.387 222.141 466.423 222.574C466.46 223.007 466.353 223.441 466.117 223.809L458.442 235.814C458.685 236.293 458.774 236.834 458.696 237.364C458.619 237.894 458.378 238.388 458.008 238.781C457.637 239.174 457.154 239.447 456.621 239.563C456.089 239.679 455.533 239.634 455.028 239.432C454.523 239.231 454.092 238.883 453.793 238.435C453.493 237.988 453.34 237.461 453.353 236.926C453.366 236.39 453.545 235.871 453.866 235.438C454.186 235.005 454.634 234.678 455.148 234.501V234.501Z" fill="#FFB8B8"/>
<path d="M466.378 217.99C466.378 218.38 461.613 223.839 460.263 223.317C458.914 222.795 458.436 221.109 456.402 219.369C454.367 217.628 452.479 208.241 452.479 208.241C452.479 208.241 466.378 217.6 466.378 217.99Z" fill="#51E8B5"/>
</svg>
