<svg width="218" height="232" viewBox="0 0 218 232" fill="none" xmlns="http://www.w3.org/2000/svg">
<path d="M159 117C191.585 117 218 90.8087 218 58.5C218 26.1913 191.585 0 159 0C126.415 0 100 26.1913 100 58.5C100 90.8087 126.415 117 159 117Z" fill="#51E8B5"/>
<path opacity="0.2" d="M110.397 90C106.57 98.7918 106.051 108.634 108.932 117.767C111.814 126.9 117.909 134.729 126.128 139.856C134.347 144.982 144.154 147.072 153.797 145.751C163.441 144.43 172.292 139.785 178.768 132.646C176.43 138.017 172.931 142.825 168.513 146.737C164.095 150.648 158.864 153.57 153.182 155.299C147.5 157.028 141.503 157.523 135.606 156.75C129.71 155.978 124.055 153.955 119.034 150.823C114.013 147.691 109.745 143.525 106.526 138.612C103.307 133.699 101.215 128.158 100.393 122.373C99.5717 116.587 100.041 110.695 101.768 105.106C103.496 99.5157 106.44 94.3615 110.397 90V90Z" fill="black"/>
<path d="M158.999 41H159.526L169 232H149L158.999 41Z" fill="#3F3D56"/>
<path d="M41.0319 157.588C63.6932 157.588 82.0638 139.548 82.0638 117.294C82.0638 95.0402 63.6932 77 41.0319 77C18.3706 77 0 95.0402 0 117.294C0 139.548 18.3706 157.588 41.0319 157.588Z" fill="#51E8B5"/>
<path opacity="0.2" d="M10.7355 90.3807C6.90812 99.1726 6.38891 109.014 9.27063 118.148C12.1524 127.281 18.2472 135.11 26.4661 140.237C34.685 145.363 44.4924 147.453 54.1357 146.132C63.7791 144.811 72.6299 140.166 79.1068 133.027C76.7687 138.398 73.2694 143.206 68.8513 147.118C64.4332 151.029 59.2019 153.951 53.5199 155.68C47.8379 157.409 41.841 157.904 35.9447 157.131C30.0485 156.358 24.3938 154.336 19.3725 151.204C14.3512 148.072 10.0833 143.905 6.86458 138.993C3.64584 134.08 1.55321 128.539 0.731641 122.754C-0.0899238 116.968 0.379218 111.076 2.10659 105.486C3.83397 99.8965 6.77827 94.7422 10.7355 90.3807V90.3807Z" fill="black"/>
</svg>
