<svg width="164" height="302" viewBox="0 0 164 302" fill="none" xmlns="http://www.w3.org/2000/svg">
<path d="M163.855 78.5647C163.849 66.9058 161.139 55.3942 155.923 44.864C150.707 34.3338 143.115 25.0488 133.696 17.6817C124.278 10.3145 113.27 5.04975 101.469 2.26882C89.6683 -0.512106 77.3705 -0.739551 65.4668 1.60296C53.563 3.94546 42.3515 8.79926 32.6444 15.8127C22.9372 22.8261 14.9777 31.8235 9.34243 42.1529C3.70717 52.4824 0.537338 63.8853 0.0625629 75.5353C-0.412212 87.1854 1.81996 98.7909 6.59739 109.511C6.51729 109.426 6.43449 109.342 6.35477 109.257C9.99376 117.394 15.0385 124.884 21.2762 131.41C21.2949 131.43 21.314 131.449 21.3326 131.469C21.8359 131.995 22.3421 132.519 22.86 133.032C30.3468 140.524 39.3102 146.515 49.2299 150.656C59.1495 154.797 69.8277 157.007 80.6446 157.156L77.8762 301.427H86.4291L84.6981 206.206L97.0702 199.957L95.1829 196.517L84.619 201.853L83.8063 157.148C105.204 156.678 125.559 148.192 140.519 133.506C155.479 118.82 163.855 99.1 163.855 78.5647V78.5647Z" fill="#E6E6E6"/>
</svg>
